<?xml version="1.0" standalone="no"?>
<!DOCTYPE svg PUBLIC "-//W3C//DTD SVG 1.1//EN" "http://www.w3.org/Graphics/SVG/1.1/DTD/svg11.dtd" >
<svg>
<metadata>
Created by FontForge 20090914 at Fri May 15 14:24:26 2020
 By www-data
HTF Gotham\252 Copr. 2002 The Hoefler Type Foundry, Inc. Info: www.typography.com
</metadata>
<defs>
<font id="Gotham-BoldItalic" horiz-adv-x="500" >
  <font-face 
    font-family="Gotham"
    font-weight="700"
    font-style="italic"
    font-stretch="normal"
    units-per-em="1000"
    panose-1="2 0 8 4 4 0 0 9 0 4"
    ascent="800"
    descent="-200"
    x-height="535.999"
    cap-height="700"
    bbox="-138 -200 1247 932"
    underline-thickness="20"
    underline-position="-123"
    slope="-12"
    unicode-range="U+0020-U+FB02"
  />
<missing-glyph 
 />
    <glyph glyph-name=".notdef" 
 />
    <glyph glyph-name="space" unicode=" " horiz-adv-x="300" 
 />
    <glyph glyph-name="exclam" unicode="!" horiz-adv-x="325" 
d="M112 238h84l165 442l6 20h-178l-6 -20zM9 0h162l43 160h-162z" />
    <glyph glyph-name="quotedbl" unicode="&#x22;" horiz-adv-x="528" 
d="M341 381h79l173 314l2 5h-170zM99 381h79l173 314l2 5h-170z" />
    <glyph glyph-name="numbersign" unicode="#" horiz-adv-x="691" 
d="M40 0h132l52 150h145l-52 -150h132l52 150h105l34 128h-94l51 148h93l34 128h-82l51 146h-132l-51 -146h-145l51 146h-132l-51 -146h-104l-34 -128h93l-51 -148h-92l-34 -128h81zM269 278l51 148h145l-51 -148h-145z" />
    <glyph glyph-name="dollar" unicode="$" horiz-adv-x="636" 
d="M161 -98l104.002 -0.00195312l30 98h1c39.333 0 76 5.33301 110 16s63.667 25.5 89 44.5s45.333 42 60 69s22 57.167 22 90.5c0 26 -3.83301 48.5 -11.5 67.5s-18.667 35.833 -33 50.5s-31.333 27.334 -51 38.001s-41.5 20.667 -65.5 30l45 149
c16 -6 31.5 -14.167 46.5 -24.5s30.167 -22.5 45.5 -36.5l104 102c-20.667 21.333 -43.5 39.666 -68.5 54.999s-53.5 27.333 -85.5 36l21 71h-104l-18 -58h-8c-38.667 0 -74.834 -5.5 -108.501 -16.5s-62.834 -26.333 -87.501 -46s-44.167 -43 -58.5 -70
s-21.5 -56.167 -21.5 -87.5c0 -27.333 4.16699 -50.666 12.5 -69.999s20 -36 35 -50s32.667 -26.167 53 -36.5s42.166 -19.833 65.499 -28.5l-47 -155c-49.333 12.667 -92.666 40.334 -129.999 83.001l-112 -94c24 -32 52.667 -57.667 86 -77s71 -33.333 113 -42z
M329.002 438.998c-20 9.33301 -33.833 18.168 -41.5 26.501s-11.5 18.5 -11.5 30.5c0 17.333 7.16699 33.166 21.5 47.499s37.833 22.5 70.5 24.5zM330.002 132l40 130.002c18 -8.66699 30.667 -17.334 38 -26.001s11 -19.334 11 -32.001c0 -21.333 -7.83301 -38 -23.5 -50
s-37.5 -19.333 -65.5 -22z" />
    <glyph glyph-name="percent" unicode="%" horiz-adv-x="880" 
d="M238 346c28.667 0 55 6 79 18s44.5 27.833 61.5 47.5s30.167 41.834 39.5 66.501s14 50 14 76c0 22.667 -3.66699 43.5 -11 62.5s-17.666 35.167 -30.999 48.5s-29.5 23.833 -48.5 31.5s-40.167 11.5 -63.5 11.5c-29.333 0 -55.833 -6 -79.5 -18s-44 -27.833 -61 -47.5
s-30.167 -41.834 -39.5 -66.501s-14 -50 -14 -76c0 -22.667 3.66699 -43.5 11 -62.5s17.666 -35.167 30.999 -48.5s29.5 -23.833 48.5 -31.5s40.167 -11.5 63.5 -11.5zM60 0h130l673 700h-130zM645 -8c28.667 0 55 6 79 18s44.5 27.833 61.5 47.5s30.167 41.834 39.5 66.501
s14 50 14 76c0 22.667 -3.66699 43.5 -11 62.5s-17.666 35.167 -30.999 48.5s-29.5 23.833 -48.5 31.5s-40.167 11.5 -63.5 11.5c-29.333 0 -55.833 -6 -79.5 -18s-44 -27.833 -61 -47.5s-30.167 -41.834 -39.5 -66.501s-14 -50 -14 -76c0 -22.667 3.66699 -43.5 11 -62.5
s17.666 -35.167 30.999 -48.5s29.5 -23.833 48.5 -31.5s40.167 -11.5 63.5 -11.5zM244 433c-19.333 0 -34.5 6.33301 -45.5 19s-16.5 30 -16.5 52c0 13.333 2.16699 26.833 6.5 40.5s10.333 26.167 18 37.5s17 20.666 28 27.999s23.5 11 37.5 11
c19.333 0 34.5 -6.33301 45.5 -19s16.5 -30 16.5 -52c0 -13.333 -2.16699 -26.833 -6.5 -40.5s-10.333 -26.167 -18 -37.5s-17 -20.666 -28 -27.999s-23.5 -11 -37.5 -11zM651 79c-19.333 0 -34.5 6.33301 -45.5 19s-16.5 30 -16.5 52c0 13.333 2.16699 26.833 6.5 40.5
s10.333 26.167 18 37.5s17 20.666 28 27.999s23.5 11 37.5 11c19.333 0 34.5 -6.33301 45.5 -19s16.5 -30 16.5 -52c0 -13.333 -2.16699 -26.833 -6.5 -40.5s-10.333 -26.167 -18 -37.5s-17 -20.666 -28 -27.999s-23.5 -11 -37.5 -11z" />
    <glyph glyph-name="ampersand" unicode="&#x26;" horiz-adv-x="696" 
d="M515 -14l113.002 72l-69 93c38 41.333 74.333 88.333 109 141l-93 65c-13.333 -21.333 -27 -41.5 -41 -60.5s-28.667 -36.5 -44 -52.5l-79 106c36.667 12.667 67.167 26.667 91.5 42s43.666 31.5 57.999 48.5s24.5 34.167 30.5 51.5s9 34.666 9 51.999
c0 24 -4.66699 46.333 -14 67s-22.5 38.5 -39.5 53.5s-37.333 26.667 -61 35s-49.834 12.5 -78.501 12.5c-34 0 -64.833 -5.33301 -92.5 -16s-51.167 -25 -70.5 -43s-34.166 -38.667 -44.499 -62s-15.5 -48 -15.5 -74c0 -19.333 3.33301 -39.333 10 -60s15.667 -41 27 -61
c-35.333 -12 -65.5 -26 -90.5 -42s-45.5 -33.5 -61.5 -52.5s-27.667 -39 -35 -60s-11 -42.167 -11 -63.5c0 -29.333 5.5 -55.666 16.5 -78.999s26.333 -43 46 -59s43 -28.333 70 -37s56.833 -13 89.5 -13c38.667 0 75.667 6.33301 111 19s69.666 30.667 102.999 54z
M348.002 436c-11.333 17.333 -18.998 32.332 -22.998 44.999s-6 24 -6 34c0 20 7.16699 37.833 21.5 53.5s34.166 23.5 59.499 23.5c21.333 0 37.166 -6.16699 47.499 -18.5s15.5 -25.166 15.5 -38.499c0 -10 -1.66699 -19.167 -5 -27.5s-9.33301 -16.5 -18 -24.5
s-20.5 -15.833 -35.5 -23.5s-33.833 -15.5 -56.5 -23.5zM262.004 115.999c-31.333 0 -54.833 6.83301 -70.5 20.5s-23.5 30.5 -23.5 50.5c0 22 9 43.833 27 65.5s47 40.167 87 55.5l108 -149c-46 -28.667 -88.667 -43 -128 -43z" />
    <glyph glyph-name="quotesingle" unicode="'" horiz-adv-x="286" 
d="M99 381h79l173 314l2 5h-170z" />
    <glyph glyph-name="parenleft" unicode="(" horiz-adv-x="445" 
d="M241 -143l94.998 96.999c-35.333 36.667 -64.833 76.667 -88.5 120s-35.5 90 -35.5 140c0 36.667 6.33301 73.334 19 110.001s31.334 71.667 56.001 105s55.5 64.5 92.5 93.5s80.167 54.833 129.5 77.5l-56 113c-63.333 -25.333 -119.5 -55.5 -168.5 -90.5
s-90.167 -74 -123.5 -117s-58.833 -89.5 -76.5 -139.5s-26.5 -102.333 -26.5 -157c0 -70 15.833 -134.5 47.5 -193.5s76.834 -111.833 135.501 -158.5z" />
    <glyph glyph-name="parenright" unicode=")" horiz-adv-x="445" 
d="M2 -139c62.667 24.667 118.67 54.665 168.003 89.998s90.666 74.5 123.999 117.5s58.833 89.5 76.5 139.5s26.5 102.333 26.5 157c0 70 -15.833 134.5 -47.5 193.5s-76.834 111.833 -135.501 158.5l-95 -97c35.333 -36.667 64.833 -76.667 88.5 -120s35.5 -90 35.5 -140
c0 -37.333 -6.33301 -74.166 -19 -110.499s-31.334 -71.166 -56.001 -104.499s-55.667 -64.5 -93 -93.5s-80.333 -54.833 -129 -77.5z" />
    <glyph glyph-name="asterisk" unicode="*" horiz-adv-x="430" 
d="M278 367l16 120l74 -97l59 59l-96 75l121 16l-22 80l-113 -46l46 112l-79 21l-16 -120l-74 97l-59 -59l96 -75l-121 -16l22 -80l113 46l-46 -112z" />
    <glyph glyph-name="plus" unicode="+" horiz-adv-x="649" 
d="M210 103h142l48 180h181l37 138h-181l48 180h-142l-48 -180h-181l-37 -138h181z" />
    <glyph glyph-name="comma" unicode="," horiz-adv-x="319" 
d="M-51 -162c59.333 1.33301 107.668 16.333 145.001 45s64.666 76 81.999 142l36 135h-162l-43 -160h62c-5.33301 -28.667 -18 -51.5 -38 -68.5s-50.667 -27.167 -92 -30.5z" />
    <glyph glyph-name="hyphen" unicode="-" horiz-adv-x="412" 
d="M44 237h308l39 146h-308z" />
    <glyph glyph-name="period" unicode="." horiz-adv-x="319" 
d="M7 0h162l43 160h-162z" />
    <glyph glyph-name="slash" unicode="/" horiz-adv-x="530" 
d="M-135 -128h143l681 926h-143z" />
    <glyph glyph-name="zero" unicode="0" horiz-adv-x="730" 
d="M335 -12c59.333 0 112.168 13.0029 158.501 39.0029s85.5 59.667 117.5 101s56.5 87.666 73.5 138.999s25.5 102.666 25.5 153.999c0 44 -6.5 83.833 -19.5 119.5s-31.5 66.334 -55.5 92.001s-52.833 45.334 -86.5 59.001s-70.834 20.5 -111.501 20.5
c-59.333 0 -112.166 -13 -158.499 -39s-85.5 -59.667 -117.5 -101s-56.5 -87.833 -73.5 -139.5s-25.5 -102.834 -25.5 -153.501c0 -44 6.5 -83.833 19.5 -119.5s31.5 -66.334 55.5 -92.001s52.667 -45.334 86 -59.001s70.666 -20.5 111.999 -20.5zM347.002 127.003
c-38.667 0 -69.5 12.667 -92.5 38s-34.5 63 -34.5 113c0 32.667 4.83301 66.334 14.5 101.001s23.334 66.334 41.001 95.001s39.167 52.334 64.5 71.001s53.666 28 84.999 28c38.667 0 69.5 -12.667 92.5 -38s34.5 -63 34.5 -113c0 -32.667 -4.83301 -66.334 -14.5 -101.001
s-23.334 -66.334 -41.001 -95.001s-39.167 -52.334 -64.5 -71.001s-53.666 -28 -84.999 -28z" />
    <glyph glyph-name="one" unicode="1" horiz-adv-x="434" 
d="M95 0h152l189 705h-105l-220 -61l2 -131l127 29z" />
    <glyph glyph-name="two" unicode="2" horiz-adv-x="614" 
d="M-30 0l525.002 -0.000976562l36 133h-294l216 148c31.333 21.333 57.666 41.666 78.999 60.999s38.333 38.333 51 57s21.667 37.667 27 57s8 39.666 8 60.999c0 28 -5.66699 53.833 -17 77.5s-27.333 44 -48 61s-45.834 30.333 -75.501 40s-62.5 14.5 -98.5 14.5
c-56 0 -106.167 -11.5 -150.5 -34.5s-83.5 -53.833 -117.5 -92.5l94 -98c28 26.667 55.167 47.834 81.5 63.501s54.833 23.5 85.5 23.5c27.333 0 48.833 -6.16699 64.5 -18.5s23.5 -30.166 23.5 -53.499c0 -22.667 -8.5 -44.167 -25.5 -64.5s-42.5 -42.166 -76.5 -65.499
l-354 -244z" />
    <glyph glyph-name="three" unicode="3" horiz-adv-x="604" 
d="M242 -12c42 0 80.833 6.33496 116.5 19.002s66.667 30.334 93 53.001s47 49.167 62 79.5s22.5 63.166 22.5 98.499c0 25.333 -3.66699 47.666 -11 66.999s-17.5 36 -30.5 50s-28.667 25.667 -47 35s-38.5 16.666 -60.5 21.999l226 172l32 116h-473l-36 -132h265
l-206 -165l6 -96h43c42.667 0 76.167 -7 100.5 -21s36.5 -34.667 36.5 -62c0 -12.667 -3.33301 -25 -10 -37s-16 -22.5 -28 -31.5s-26 -16.167 -42 -21.5s-33.333 -8 -52 -8c-36.667 0 -66.5 6.83301 -89.5 20.5s-43.833 33.167 -62.5 58.5l-114 -84
c23.333 -40 55.833 -72.167 97.5 -96.5s95.5 -36.5 161.5 -36.5z" />
    <glyph glyph-name="four" unicode="4" horiz-adv-x="659" 
d="M315 0h145l40 151h94l34 125h-94l115 429h-150l-483 -440l15 -114h324zM211 276l238 224l-60 -224h-178z" />
    <glyph glyph-name="five" unicode="5" horiz-adv-x="610" 
d="M250 -11c48 0 91.1699 7.33105 129.503 21.998s71.166 34.167 98.499 58.5s48.333 52.5 63 84.5s22 65.333 22 100c0 30.667 -5.33301 58.334 -16 83.001s-25.667 45.667 -45 63s-42.333 30.666 -69 39.999s-56 14 -88 14c-22.667 0 -46.334 -2.66699 -71.001 -8l40 119
h285l37 135h-424l-109 -332l78 -63c13.333 5.33301 28.5 10.333 45.5 15s33.167 7 48.5 7c44.667 0 77.5 -8.66699 98.5 -26s31.5 -38.666 31.5 -63.999c0 -14.667 -3.5 -28.667 -10.5 -42s-16.833 -25 -29.5 -35s-27.667 -17.833 -45 -23.5s-36.333 -8.5 -57 -8.5
c-32.667 0 -62.334 6.5 -89.001 19.5s-51.667 32.167 -75 57.5l-108 -91c12 -18 27.5 -34.5 46.5 -49.5s40 -28.167 63 -39.5s47.333 -20.166 73 -26.499s51.167 -9.5 76.5 -9.5z" />
    <glyph glyph-name="six" unicode="6" horiz-adv-x="643" 
d="M313 -12c40.667 0 78.668 7.50391 114.001 22.5039s66 35.167 92 60.5s46.5 54.333 61.5 87s22.5 66.667 22.5 102c0 31.333 -5.66699 59.166 -17 83.499s-26.666 44.666 -45.999 60.999s-41.833 28.833 -67.5 37.5s-53.167 13 -82.5 13
c-33.333 0 -64.666 -6 -93.999 -18s-51.666 -25.667 -66.999 -41c7.33301 24 17.333 46.667 30 68s26.667 39.666 42 54.999c18.667 18.667 39 32.5 61 41.5s47 13.5 75 13.5c28.667 0 54.667 -5 78 -15s44 -23 62 -39l89 111c-26.667 24.667 -58.167 44.334 -94.5 59.001
s-76.833 22 -121.5 22c-52 0 -99.333 -9.5 -142 -28.5s-80 -44.5 -112 -76.5c-22.667 -22.667 -42.5 -47.834 -59.5 -75.501s-31.333 -56.834 -43 -87.501s-20.334 -62.5 -26.001 -95.5s-8.5 -66.167 -8.5 -99.5c0 -44 6.16699 -82 18.5 -114s30.166 -59.667 53.499 -83
c21.333 -21.333 47.666 -37.333 78.999 -48s65.666 -16 102.999 -16zM313.001 118.004c-34.667 0 -61.999 9.99805 -81.999 29.998c-17.333 17.333 -26 38.333 -26 63c0 16 3.33301 31.333 10 46s16 27.5 28 38.5s26.5 19.667 43.5 26s35.833 9.5 56.5 9.5
c31.333 0 56.666 -8.16699 75.999 -24.5s29 -38.833 29 -67.5c0 -15.333 -3.16699 -30.166 -9.5 -44.499s-15.5 -27.166 -27.5 -38.499s-26.333 -20.5 -43 -27.5s-35 -10.5 -55 -10.5z" />
    <glyph glyph-name="seven" unicode="7" horiz-adv-x="609" 
d="M9 0h181l440 584l32 116h-504l-36 -133h322z" />
    <glyph glyph-name="eight" unicode="8" horiz-adv-x="662" 
d="M300 -10c46 0 87 5.83203 123 17.499s66.5 27.167 91.5 46.5s44 41.5 57 66.5s19.5 50.833 19.5 77.5c0 37.333 -9.83301 68.5 -29.5 93.5s-45.5 43.5 -77.5 55.5c48 11.333 85.5 32.333 112.5 63s40.5 68 40.5 112c0 27.333 -6 52.5 -18 75.5s-29 42.833 -51 59.5
s-48.167 29.667 -78.5 39s-63.833 14 -100.5 14c-44 0 -82.333 -6 -115 -18s-60 -27.333 -82 -46s-38.5 -39.667 -49.5 -63s-16.5 -46.333 -16.5 -69c0 -28 7.16699 -54 21.5 -78s35.5 -43 63.5 -57c-25.333 -6 -49 -14.333 -71 -25s-41 -23.834 -57 -39.501
s-28.5 -34 -37.5 -55s-13.5 -44.833 -13.5 -71.5c0 -30 7.16699 -57.167 21.5 -81.5s33.833 -45.166 58.5 -62.499s53.167 -30.666 85.5 -39.999s66.5 -14 102.5 -14zM378 415.999c-34 0 -60.999 7.83398 -80.999 23.501s-29.667 35.167 -29 58.5
c0.666992 24.667 11.834 45.167 33.501 61.5s48.5 24.5 80.5 24.5c36.667 0 64.5 -8 83.5 -24s28.167 -35 27.5 -57c-0.666992 -24.667 -11.834 -45.334 -33.501 -62.001s-48.834 -25 -81.501 -25zM308.001 114c-38 0 -68.667 8.16797 -92 24.501
s-34.666 37.166 -33.999 62.499c0.666992 26 13.167 47.667 37.5 65s55.833 26 94.5 26s69.667 -8 93 -24s34.666 -36.667 33.999 -62c-0.666992 -28 -13.5 -50.333 -38.5 -67s-56.5 -25 -94.5 -25z" />
    <glyph glyph-name="nine" unicode="9" horiz-adv-x="643" 
d="M243 -12c48.667 0 93.667 9.17285 135 27.5059s78.333 43.833 111 76.5c45.333 45.333 80 98.333 104 159s36 122.667 36 186c0 51.333 -6.16699 93.666 -18.5 126.999s-30.166 61.666 -53.499 84.999c-21.333 21.333 -48.666 37.166 -81.999 47.499s-67 15.5 -101 15.5
c-40.667 0 -78.667 -7.16699 -114 -21.5s-66 -34 -92 -59s-46.5 -54.333 -61.5 -88s-22.5 -69.5 -22.5 -107.5c0 -32.667 5.66699 -61.334 17 -86.001s26.666 -45.334 45.999 -62.001s41.833 -29.167 67.5 -37.5s53.167 -12.5 82.5 -12.5c33.333 0 64.333 5.83301 93 17.5
s50.667 25.167 66 40.5c-14.667 -44.667 -37.334 -82.334 -68.001 -113.001c-38 -38 -83.667 -57 -137 -57c-30 0 -56.5 5.5 -79.5 16.5s-45.833 26.167 -68.5 45.5l-90 -111c32 -28.667 67.333 -50.667 106 -66s80 -23 124 -23zM346 362.006c-31.333 0 -57 8 -77 24
s-30 39.333 -30 70c0 16.667 3.16699 32.667 9.5 48s15.5 28.833 27.5 40.5s26.333 20.834 43 27.501s35.334 10 56.001 10c34.667 0 62 -10 82 -30c8 -8 14.167 -17.833 18.5 -29.5s6.5 -23.834 6.5 -36.501c0 -16.667 -3.16699 -32.5 -9.5 -47.5
s-15.5 -28.167 -27.5 -39.5s-26.333 -20.333 -43 -27s-35.334 -10 -56.001 -10z" />
    <glyph glyph-name="colon" unicode=":" horiz-adv-x="319" 
d="M108 376h162l43 160h-162zM7 0h162l43 160h-162z" />
    <glyph glyph-name="semicolon" unicode=";" horiz-adv-x="319" 
d="M108 376h162l43 160h-162zM-51 -162c59.333 1.33301 107.668 16.333 145.001 45s64.666 76 81.999 142l36 135h-162l-43 -160h62c-5.33301 -28.667 -18 -51.5 -38 -68.5s-50.667 -27.167 -92 -30.5z" />
    <glyph glyph-name="less" unicode="&#x3c;" horiz-adv-x="640" 
d="M499 71l36 136l-301 139l375 139l41 148l-541 -212l-37 -138z" />
    <glyph glyph-name="equal" unicode="=" horiz-adv-x="640" 
d="M124 413h474l37 138h-474zM54 153h474l37 138h-474z" />
    <glyph glyph-name="greater" unicode="&#x3e;" horiz-adv-x="640" 
d="M32 71l541 212l37 138l-427 212l-36 -136l301 -139l-375 -139z" />
    <glyph glyph-name="question" unicode="?" horiz-adv-x="544" 
d="M177 238h102l29 70c84.667 13.333 148.5 38.5 191.5 75.5s64.5 84.833 64.5 143.5c0 24 -5 46.833 -15 68.5s-24.5 41 -43.5 58s-42.333 30.5 -70 40.5s-59.167 15 -94.5 15c-44.667 0 -88.5 -8.16699 -131.5 -24.5s-80.5 -40.833 -112.5 -73.5l80 -101
c21.333 18.667 44.5 33.167 69.5 43.5s49.5 15.5 73.5 15.5c28.667 0 49.667 -5.5 63 -16.5s20 -26.167 20 -45.5c0 -29.333 -17.167 -52.5 -51.5 -69.5s-83.833 -27.833 -148.5 -32.5l-6 -5zM86 0h162l43 160h-162z" />
    <glyph glyph-name="at" unicode="@" horiz-adv-x="980" 
d="M471 -155c40 0 77.667 3.82812 113 11.4951s71.333 20.167 108 37.5l-16 35c-34 -15.333 -67.333 -26.666 -100 -33.999s-67.667 -11 -105 -11c-55.333 0 -106 8.5 -152 25.5s-85.5 41 -118.5 72s-58.667 67.833 -77 110.5s-27.5 89.667 -27.5 141
c0 58.667 11.5 114.667 34.5 168s54.5 100.333 94.5 141s87.167 73 141.5 97s112.833 36 175.5 36c56 0 106.5 -8.16699 151.5 -24.5s83.167 -38.5 114.5 -66.5s55.333 -60.333 72 -97s25 -75.334 25 -116.001c0 -42 -5.16699 -79.167 -15.5 -111.5s-23.5 -59.5 -39.5 -81.5
s-33.667 -38.5 -53 -49.5s-38 -16.5 -56 -16.5c-26 0 -45 9 -57 27s-12.333 45.333 -1 82l79 249l-111 31l-19 -62c-13.333 21.333 -30 38.333 -50 51s-47 19 -81 19c-31.333 0 -62 -6.83301 -92 -20.5s-56.667 -32.667 -80 -57s-42.333 -53.5 -57 -87.5s-22 -71 -22 -111
c0 -27.333 4.33301 -51.5 13 -72.5s20.167 -38.667 34.5 -53s31.333 -25.166 51 -32.499s40.5 -11 62.5 -11c35.333 0 65.833 7.83301 91.5 23.5s48.5 33.834 68.5 54.501c10.667 -23.333 28 -42 52 -56s53 -21 87 -21c30 0 59.167 6 87.5 18s53.5 30.5 75.5 55.5
s39.833 56.833 53.5 95.5s20.5 84.334 20.5 137.001c0 45.333 -9.33301 88.833 -28 130.5s-45.5 78.334 -80.5 110.001s-77.5 56.834 -127.5 75.501s-106.333 28 -169 28c-68 0 -131.667 -13 -191 -39s-111 -61.167 -155 -105.5s-78.5 -95.666 -103.5 -153.999
s-37.5 -119.5 -37.5 -183.5c0 -56.667 10.167 -108.834 30.5 -156.501s48.833 -88.667 85.5 -123s80.5 -61 131.5 -80s107.167 -28.5 168.5 -28.5zM461 164.995c-26 0 -46.499 7.66504 -61.499 22.998s-22.5 36.333 -22.5 63c0 22 3.83301 42.5 11.5 61.5
s17.834 35.5 30.501 49.5s27.167 25 43.5 33s32.833 12 49.5 12c25.333 0 46.166 -7.5 62.499 -22.5s24.5 -35.167 24.5 -60.5c0 -22 -4 -42.667 -12 -62s-18.5 -36.166 -31.5 -50.499s-27.833 -25.666 -44.5 -33.999s-33.334 -12.5 -50.001 -12.5z" />
    <glyph glyph-name="A" unicode="A" horiz-adv-x="765" 
d="M-57 0h166l106 157h296l22 -157h158l-111 705h-148zM307 293l154 231l32 -231h-186z" />
    <glyph glyph-name="B" unicode="B" horiz-adv-x="717" 
d="M12 0h344.002c48.667 0 91.667 5.16699 129 15.5s68.666 25 93.999 44s44.666 41.5 57.999 67.5s20 54.667 20 86c0 36 -9 65.333 -27 88s-41.667 40.667 -71 54c45.333 10 81.666 29.667 108.999 59s41 67.333 41 114c0 23.333 -4.66699 45.5 -14 66.5
s-23.666 39.333 -42.999 55s-43.833 28 -73.5 37s-65.167 13.5 -106.5 13.5h-272zM274.002 417l39 148h145c34 0 58.667 -6 74 -18s23 -27 23 -45c0 -29.333 -11 -50.833 -33 -64.5s-53 -20.5 -93 -20.5h-155zM198.002 135l41 154.001h169c32 0 56 -5.83301 72 -17.5
s24 -27.834 24 -48.501c0 -27.333 -11.167 -48.833 -33.5 -64.5s-52.833 -23.5 -91.5 -23.5h-181z" />
    <glyph glyph-name="C" unicode="C" horiz-adv-x="726" 
d="M397 -12c58.667 0 109 10 151 30s80 45.667 114 77l-100 104c-26 -21.333 -51.333 -38.166 -76 -50.499s-54 -18.5 -88 -18.5c-25.333 0 -48.333 4 -69 12s-38.667 19.5 -54 34.5s-27.166 32.833 -35.499 53.5s-12.5 43.667 -12.5 69c0 37.333 6.83301 72.5 20.5 105.5
s32 61.667 55 86s49.333 43.666 79 57.999s60.5 21.5 92.5 21.5c42 0 76 -8.66699 102 -26s49.333 -40.666 70 -69.999l127 89c-28 46 -64.833 82.333 -110.5 109s-102.167 40 -169.5 40c-59.333 0 -114.833 -11.333 -166.5 -34s-96.667 -53.334 -135 -92.001
s-68.666 -83.167 -90.999 -133.5s-33.5 -103.5 -33.5 -159.5c0 -46.667 8.16699 -88.834 24.5 -126.501s39.166 -69.667 68.499 -96s64.166 -46.666 104.499 -60.999s84.5 -21.5 132.5 -21.5z" />
    <glyph glyph-name="D" unicode="D" horiz-adv-x="777" 
d="M12 0l260 -0.00195312c81.333 0 152.333 11 213 33s112 54 154 96c38 38 66.667 80.333 86 127s29 96.334 29 149.001c0 86 -25.333 154.333 -76 205c-26.667 26.667 -62 48.334 -106 65.001s-100 25 -168 25h-204zM203 138.998l114.001 421.999h75
c40 0 73 -4.66699 99 -14s46.667 -21.666 62 -36.999c27.333 -27.333 41 -64.333 41 -111c0 -34 -6 -66 -18 -96s-29.333 -56.333 -52 -79c-28 -28 -62.333 -49.167 -103 -63.5s-84.334 -21.5 -131.001 -21.5h-87z" />
    <glyph glyph-name="E" unicode="E" horiz-adv-x="665" 
d="M12 0h528l37 137h-376l40 148h325l37 135h-325l38 143h370l37 137h-523z" />
    <glyph glyph-name="F" unicode="F" horiz-adv-x="663" 
d="M12 0h154l73 271h334l37 140h-334l40 149h379l38 140h-533z" />
    <glyph glyph-name="G" unicode="G" horiz-adv-x="780" 
d="M395 -12c52.667 0 99.4971 6.16797 140.497 18.501s78.833 28.166 113.5 47.499l99 349h-304l-36 -133h155l-33 -114c-15.333 -7.33301 -33.166 -13.666 -53.499 -18.999s-44.166 -8 -71.499 -8c-24.667 0 -47.834 3.66699 -69.501 11s-40.667 18 -57 32
s-29.166 31.5 -38.499 52.5s-14 45.167 -14 72.5c0 36.667 6.83301 71.5 20.5 104.5s32.334 62 56.001 87s51.667 45 84 60s67.166 22.5 104.499 22.5c44 0 80.5 -7.83301 109.5 -23.5s53.833 -34.834 74.5 -57.501l114 101c-12 16 -26.833 31.333 -44.5 46
s-38.167 27.5 -61.5 38.5s-50 19.833 -80 26.5s-63.333 10 -100 10c-63.333 0 -121.666 -11.667 -174.999 -35s-99.333 -54.5 -138 -93.5s-69 -83.667 -91 -134s-33 -102.833 -33 -157.5c0 -52 9.66699 -97.167 29 -135.5s44.5 -70 75.5 -95s66.167 -43.5 105.5 -55.5
s79 -18 119 -18z" />
    <glyph glyph-name="H" unicode="H" horiz-adv-x="756" 
d="M12 0h154l76 281h280l-76 -281h154l188 700h-154l-74 -277h-280l74 277h-154z" />
    <glyph glyph-name="I" unicode="I" horiz-adv-x="336" 
d="M19 0h154l188 700h-154z" />
    <glyph glyph-name="J" unicode="J" horiz-adv-x="575" 
d="M188 -10c44 0 83.333 5.99805 118 17.998s65 31 91 57c12.667 12.667 23.667 25.667 33 39s18 28.333 26 45s15.333 35.5 22 56.5s13.667 45.167 21 72.5l113 422h-158l-103 -385c-6 -23.333 -11.667 -43 -17 -59s-10.333 -29.167 -15 -39.5s-9.33398 -19 -14.001 -26
s-9.66699 -13.167 -15 -18.5c-12 -12 -25.833 -21.5 -41.5 -28.5s-33.167 -10.5 -52.5 -10.5c-24.667 0 -47 5.33301 -67 16s-39.667 28.334 -59 53.001l-109 -95c25.333 -39.333 58.333 -68.666 99 -87.999s83.334 -29 128.001 -29z" />
    <glyph glyph-name="K" unicode="K" horiz-adv-x="727" 
d="M12 0h154l51 191l145 124l118 -315h169l-165 407l341 293h-208l-346 -310l83 310h-154z" />
    <glyph glyph-name="L" unicode="L" horiz-adv-x="626" 
d="M12 0h503l38 140h-349l150 560h-154z" />
    <glyph glyph-name="M" unicode="M" horiz-adv-x="868" 
d="M12 0h154l122 454l112 -296h4l274 299l-122 -457h156l188 700h-178l-261 -296l-101 296h-160z" />
    <glyph glyph-name="N" unicode="N" horiz-adv-x="786" 
d="M12 0h152l123 459l212 -459h131l188 700h-152l-120 -445l-204 445h-142z" />
    <glyph glyph-name="O" unicode="O" horiz-adv-x="832" 
d="M387 -12c62.667 0 119.834 11.833 171.501 35.5s96 54.834 133 93.501s65.667 82.834 86 132.501s30.5 100.5 30.5 152.5c0 44 -7.66699 84.833 -23 122.5s-37 70.5 -65 98.5s-61.667 49.833 -101 65.5s-83 23.5 -131 23.5c-62.667 0 -119.834 -11.833 -171.501 -35.5
s-96 -54.834 -133 -93.501s-65.667 -82.834 -86 -132.501s-30.5 -100.5 -30.5 -152.5c0 -44 7.66699 -84.833 23 -122.5s37 -70.5 65 -98.5s61.667 -49.833 101 -65.5s83 -23.5 131 -23.5zM405 130c-28.667 0 -54.167 4.33301 -76.5 13s-41 21 -56 37
s-26.333 34.833 -34 56.5s-11.5 45.5 -11.5 71.5c0 30 5.83301 60.667 17.5 92s28 59.5 49 84.5s46.5 45.5 76.5 61.5s63.333 24 100 24c28.667 0 54.167 -4.33301 76.5 -13s41 -21 56 -37s26.333 -34.833 34 -56.5s11.5 -45.5 11.5 -71.5c0 -30 -5.83301 -60.667 -17.5 -92
s-28 -59.5 -49 -84.5s-46.5 -45.5 -76.5 -61.5s-63.333 -24 -100 -24z" />
    <glyph glyph-name="P" unicode="P" horiz-adv-x="679" 
d="M12 0h154.001l57 212h133c48 0 92.667 6 134 18s77.166 29.667 107.499 53s54.333 52 72 86s26.5 72.667 26.5 116c0 60 -18 108 -54 144c-25.333 25.333 -55.833 43.5 -91.5 54.5s-78.5 16.5 -128.5 16.5h-222zM259.001 347l56.999 213.999h100
c23.333 0 42.5 -2.5 57.5 -7.5s27.833 -12.833 38.5 -23.5c15.333 -15.333 23 -34.666 23 -57.999c0 -40 -15.667 -70.833 -47 -92.5s-72.666 -32.5 -123.999 -32.5h-105z" />
    <glyph glyph-name="Q" unicode="Q" horiz-adv-x="832" 
d="M618 -44l127.001 84.0029l-56 74c38 39.333 67.333 83.833 88 133.5s31 101.167 31 154.5c0 44 -7.66699 84.833 -23 122.5s-37 70.5 -65 98.5s-61.667 49.833 -101 65.5s-83 23.5 -131 23.5c-62.667 0 -119.834 -11.833 -171.501 -35.5s-96 -54.834 -133 -93.501
s-65.667 -82.834 -86 -132.501s-30.5 -100.5 -30.5 -152.5c0 -44 7.66699 -84.833 23 -122.5s37 -70.5 65 -98.5s61.667 -49.833 101 -65.5s83 -23.5 131 -23.5c34 0 66.5 3.66699 97.5 11s60.167 17.666 87.5 30.999zM405.001 130.003
c-28.667 0 -54.167 4.33203 -76.5 12.999s-41 21 -56 37s-26.333 34.833 -34 56.5s-11.5 45.5 -11.5 71.5c0 30 5.83301 60.667 17.5 92s28 59.5 49 84.5s46.5 45.5 76.5 61.5s63.333 24 100 24c28.667 0 54.167 -4.33301 76.5 -13s41 -21 56 -37s26.333 -34.833 34 -56.5
s11.5 -45.5 11.5 -71.5c0 -25.333 -4 -51 -12 -77s-19.667 -50.667 -35 -74l-71 114l-127 -85l90 -122c-13.333 -5.33301 -27.333 -9.66602 -42 -12.999s-30 -5 -46 -5z" />
    <glyph glyph-name="R" unicode="R" horiz-adv-x="727" 
d="M12 0h153.999l60 224h115l108 -224h175l-119 239c74.667 17.333 131 47.5 169 90.5s57 96.167 57 159.5c0 58 -18 105 -54 141c-23.333 23.333 -53.166 40.833 -89.499 52.5s-80.5 17.5 -132.5 17.5h-255zM262.999 360l54 201h129c48.667 0 82.667 -9.66699 102 -29
c14.667 -14.667 22 -33.334 22 -56.001c0 -19.333 -4.33301 -36.166 -13 -50.499s-20.667 -26.333 -36 -36s-33.333 -17 -54 -22s-43 -7.5 -67 -7.5h-137z" />
    <glyph glyph-name="S" unicode="S" horiz-adv-x="636" 
d="M295 -10c36.667 0 71.8311 5.16895 105.498 15.502s63.167 25.5 88.5 45.5s45.666 44.5 60.999 73.5s23 61.833 23 98.5c0 25.333 -4.33301 47.666 -13 66.999s-20.5 36.333 -35.5 51s-32.667 27.667 -53 39s-42.5 22 -66.5 32s-43.833 18.667 -59.5 26
s-28.167 14.333 -37.5 21s-16 13.5 -20 20.5s-6 15.167 -6 24.5c0 17.333 8.83301 33.5 26.5 48.5s42.834 22.5 75.501 22.5c34 0 63.833 -6.33301 89.5 -19s51.834 -31.334 78.501 -56.001l106 106c-30 32 -66 57.333 -108 76s-93.333 28 -154 28
c-37.333 0 -72.833 -5.33301 -106.5 -16s-63.167 -26 -88.5 -46s-45.5 -44.167 -60.5 -72.5s-22.5 -60.5 -22.5 -96.5c0 -26 4.66699 -48.667 14 -68s22 -36.5 38 -51.5s34.333 -28 55 -39s42.334 -21.167 65.001 -30.5c23.333 -9.33301 42.666 -17.833 57.999 -25.5
s27.5 -15 36.5 -22s15.333 -14 19 -21s5.5 -14.833 5.5 -23.5c0 -22 -10 -39.667 -30 -53s-45.667 -20 -77 -20c-40 0 -75.667 7.83301 -107 23.5s-61 38.5 -89 68.5l-116 -98c66.667 -86 168.334 -129 305.001 -129z" />
    <glyph glyph-name="T" unicode="T" horiz-adv-x="620" 
d="M159 0h154l150 558h213l38 142h-580l-38 -142h213z" />
    <glyph glyph-name="U" unicode="U" horiz-adv-x="764" 
d="M343 -11c52 0 97.501 7.16602 136.501 21.499s72.833 35.833 101.5 64.5c48 48 84 117.333 108 208l112 417h-154l-106 -395c-14.667 -56 -37.334 -99.333 -68.001 -130c-30.667 -29.333 -68.667 -44 -114 -44c-40 0 -70.333 10.667 -91 32s-31 49.333 -31 84
c0 14.667 1 28 3 40s4.66699 24 8 36l101 377h-154l-97 -363c-5.33301 -19.333 -9.5 -38.5 -12.5 -57.5s-4.5 -37.167 -4.5 -54.5c0 -37.333 6 -70.666 18 -99.999s29.333 -54 52 -74s50.167 -35.333 82.5 -46s68.833 -16 109.5 -16z" />
    <glyph glyph-name="V" unicode="V" horiz-adv-x="724" 
d="M216 -5h136l469 705h-173l-310 -488l-48 488h-165z" />
    <glyph glyph-name="W" unicode="W" horiz-adv-x="1108" 
d="M180 -5h141l274 449l34 -449h143l428 705h-174l-272 -474l-32 476h-132l-282 -476l-18 474h-160z" />
    <glyph glyph-name="X" unicode="X" horiz-adv-x="700" 
d="M-51 0h197l204 235l94 -235h173l-155 346l329 354h-197l-196 -225l-88 225h-173l150 -337z" />
    <glyph glyph-name="Y" unicode="Y" horiz-adv-x="650" 
d="M169 0h154l71 262l383 438h-186l-240 -290l-82 290h-171l145 -424z" />
    <glyph glyph-name="Z" unicode="Z" horiz-adv-x="689" 
d="M-19 0h583l36 135h-375l492 448l32 117h-568l-37 -135h360l-492 -448z" />
    <glyph glyph-name="bracketleft" unicode="[" horiz-adv-x="465" 
d="M-10 -130h323l32 119h-177l159 592h177l32 119h-323z" />
    <glyph glyph-name="backslash" unicode="\" horiz-adv-x="530" 
d="M326 -128h126l-208 926h-126z" />
    <glyph glyph-name="bracketright" unicode="]" horiz-adv-x="465" 
d="M-62 -130h323l223 830h-323l-32 -119h177l-159 -592h-177z" />
    <glyph glyph-name="asciicircum" unicode="^" 
d="M84 493h119l122 117l60 -117h99l-92 207h-104z" />
    <glyph glyph-name="underscore" unicode="_" horiz-adv-x="600" 
d="M-115 -160h604l31 116h-604z" />
    <glyph glyph-name="grave" unicode="`" 
d="M346 595h104l-65 177l-134 -57z" />
    <glyph glyph-name="a" unicode="a" horiz-adv-x="588" 
d="M163 -10c32 0 61.332 6.16895 87.999 18.502s50.667 30.166 72 53.499l-16 -62h147l79 296c3.33301 13.333 6.16602 26.666 8.49902 39.999s3.5 27 3.5 41c0 52.667 -18 93.334 -54 122.001s-90.333 43 -163 43c-38 0 -73.667 -3.5 -107 -10.5s-64 -16.167 -92 -27.5
l24 -120c19.333 8 41.5 14.833 66.5 20.5s50.5 8.5 76.5 8.5c38 0 64.333 -5.83301 79 -17.5s22 -26.834 22 -45.501c0 -8 -0.666992 -15.167 -2 -21.5l-4 -18.5l-2 -7c-22.667 7.33301 -46.167 13.166 -70.5 17.499s-51.166 6.5 -80.499 6.5
c-32.667 0 -63 -4.16699 -91 -12.5s-52.333 -20.833 -73 -37.5s-37 -37 -49 -61s-18 -51.333 -18 -82c0 -21.333 3.83301 -40.666 11.5 -57.999s18.334 -32.5 32.001 -45.5s30 -23 49 -30s40.167 -10.5 63.5 -10.5zM227.999 94.002
c-21.333 0 -38.332 5.33203 -50.999 15.999s-19 24.334 -19 41.001c0 26 10.167 46.5 30.5 61.5s46.5 22.5 78.5 22.5c18.667 0 36.667 -1.83301 54 -5.5s32.666 -8.16699 45.999 -13.5l-4 -14c-4 -14.667 -10.333 -28.5 -19 -41.5s-19 -24.5 -31 -34.5
s-25.167 -17.833 -39.5 -23.5s-29.5 -8.5 -45.5 -8.5z" />
    <glyph glyph-name="b" unicode="b" horiz-adv-x="674" 
d="M337 -10c38 0 74.667 7.99902 110 23.999s66.833 38.5 94.5 67.5s49.834 63.5 66.501 103.5s25 83.667 25 131c0 36 -5.16699 68.333 -15.5 97s-24.833 52.834 -43.5 72.501s-40.5 34.667 -65.5 45s-52.167 15.5 -81.5 15.5c-30 0 -56.833 -6 -80.5 -18
s-47.167 -28.667 -70.5 -50l67 252h-152l-194 -730h151l21 78c17.333 -26.667 39.166 -48 65.499 -64s60.5 -24 102.5 -24zM317 117.999c-34 0 -61.666 10.5 -82.999 31.5s-32 48.5 -32 82.5c0 25.333 4.5 49.333 13.5 72s21 42.5 36 59.5s32.167 30.333 51.5 40
s39.666 14.5 60.999 14.5c34 0 61.167 -9.83301 81.5 -29.5s30.5 -47.167 30.5 -82.5c0 -27.333 -4.5 -52.333 -13.5 -75s-20.833 -42.5 -35.5 -59.5s-31.5 -30.167 -50.5 -39.5s-38.833 -14 -59.5 -14z" />
    <glyph glyph-name="c" unicode="c" horiz-adv-x="560" 
d="M292 -12c45.333 0 83.665 7.49902 114.998 22.499s61 35.167 89 60.5l-78 99c-20 -17.333 -39.333 -30.5 -58 -39.5s-39.667 -13.5 -63 -13.5c-30 0 -55 10.167 -75 30.5s-30 47.833 -30 82.5c0 24.667 4.33301 48.334 13 71.001s20 42.5 34 59.5s30.333 30.5 49 40.5
s38 15 58 15c30 0 53.5 -6.5 70.5 -19.5s32.167 -29.833 45.5 -50.5l116 82c-9.33301 16 -20.5 31.167 -33.5 45.5s-28.333 26.833 -46 37.5s-38.167 19.167 -61.5 25.5s-49.666 9.5 -78.999 9.5c-42.667 0 -83.167 -8.33301 -121.5 -25s-71.833 -39.167 -100.5 -67.5
s-51.5 -61.666 -68.5 -99.999s-25.5 -79.5 -25.5 -123.5c0 -36.667 6.16699 -69.834 18.5 -99.501s29.5 -55 51.5 -76s48.333 -37.333 79 -49s64.334 -17.5 101.001 -17.5z" />
    <glyph glyph-name="d" unicode="d" horiz-adv-x="674" 
d="M246 -10c30 0 56.833 6.00098 80.5 18.001s47.167 28.667 70.5 50l-16 -58h152l195 730h-152l-72 -272c-17.333 26.667 -39.166 48 -65.499 64s-60.5 24 -102.5 24c-38 0 -74.667 -8 -110 -24s-66.833 -38.5 -94.5 -67.5s-49.834 -63.5 -66.501 -103.5
s-25 -83.667 -25 -131c0 -36 5.16699 -68.333 15.5 -97s24.833 -52.834 43.5 -72.501s40.5 -34.667 65.5 -45s52.167 -15.5 81.5 -15.5zM309 118.001c-34 0 -61.166 9.83301 -81.499 29.5s-30.5 47.167 -30.5 82.5c0 26.667 4.5 51.5 13.5 74.5s20.833 43 35.5 60
s31.5 30.167 50.5 39.5s38.833 14 59.5 14c34 0 61.667 -10.5 83 -31.5s32 -48.5 32 -82.5c0 -25.333 -4.5 -49.333 -13.5 -72s-21 -42.5 -36 -59.5s-32.333 -30.333 -52 -40s-39.834 -14.5 -60.501 -14.5z" />
    <glyph glyph-name="e" unicode="e" horiz-adv-x="607" 
d="M184 215l367 -0.00488281c8.66699 20.667 15.334 41.334 20.001 62.001s7 40.667 7 60c0 30 -4.83301 57.667 -14.5 83s-23.834 47.333 -42.501 66s-41.667 33.334 -69 44.001s-58.333 16 -93 16c-48 0 -91.5 -9.33301 -130.5 -28s-72.5 -43.167 -100.5 -73.5
s-49.5 -64.666 -64.5 -102.999s-22.5 -76.833 -22.5 -115.5c0 -37.333 5.66699 -70.666 17 -99.999s27.666 -54.166 48.999 -74.499s47.333 -36 78 -47s65.334 -16.5 104.001 -16.5c46 0 85.833 6.83301 119.5 20.5s62.5 30.5 86.5 50.5l-70 94
c-22 -15.333 -42.333 -26.333 -61 -33s-38 -10 -58 -10c-40 0 -69.667 9.5 -89 28.5s-30.333 44.5 -33 76.5zM197 309.995c12.667 34 32.167 61.5 58.5 82.5s56.833 31.5 91.5 31.5c31.333 0 53.833 -7.66699 67.5 -23s20.5 -34 20.5 -56c0 -12 -1.66699 -23.667 -5 -35
h-233z" />
    <glyph glyph-name="f" unicode="f" horiz-adv-x="411" 
d="M23 0l152.002 -0.000976562l110 406h126l35 130h-129l4 15c10 38.667 35 58 75 58c10.667 0 21.834 -1.16699 33.501 -3.5s22.5 -5.5 32.5 -9.5l33 126c-12.667 4.66699 -27.834 8.33398 -45.501 11.001s-37.167 4 -58.5 4c-56.667 0 -103.334 -13.5 -140.001 -40.5
s-62.334 -70.833 -77.001 -131.5l-7 -29h-63l-35 -130h64z" />
    <glyph glyph-name="g" unicode="g" horiz-adv-x="671" 
d="M250 -162c49.333 0 91.1689 6.16699 125.502 18.5s63.833 30.833 88.5 55.5c10.667 10.667 20.167 21.667 28.5 33s16.166 24.333 23.499 39s14.333 31.667 21 51s13.667 42.666 21 69.999l115 431h-152l-22 -83c-7.33301 12 -15.5 23.667 -24.5 35s-20 21.333 -33 30
s-28.167 15.5 -45.5 20.5s-37.333 7.5 -60 7.5c-37.333 0 -73.5 -8 -108.5 -24s-66.167 -38.167 -93.5 -66.5s-49.333 -61.666 -66 -99.999s-25 -79.833 -25 -124.5c0 -30.667 5.5 -57.667 16.5 -81s25.833 -42.833 44.5 -58.5s39.834 -27.5 63.501 -35.5s48.5 -12 74.5 -12
c33.333 0 62.666 5.5 87.999 16.5s52 29.167 80 54.5l-5 -18c-6 -21.333 -12.833 -39.833 -20.5 -55.5s-17.167 -29.167 -28.5 -40.5c-14.667 -14.667 -31.334 -25.5 -50.001 -32.5s-40.667 -10.5 -66 -10.5c-34 0 -67.667 5.16699 -101 15.5s-64 24.833 -92 43.5l-80 -104
c36 -24 78.667 -42.5 128 -55.5s101 -19.5 155 -19.5zM302.003 165c-30 0 -54.501 7.83203 -73.501 23.499s-28.5 39.5 -28.5 71.5c0 20.667 4 40.667 12 60s19 36.333 33 51s30.333 26.334 49 35.001s38.667 13 60 13c32 0 57.667 -8.66699 77 -26s29 -41.333 29 -72
c0 -21.333 -4.33301 -41.5 -13 -60.5s-20.167 -35.5 -34.5 -49.5s-31.166 -25.167 -50.499 -33.5s-39.333 -12.5 -60 -12.5z" />
    <glyph glyph-name="h" unicode="h" horiz-adv-x="622" 
d="M-3 0l151.999 -0.00292969l81 301c8.66699 32 22.667 57.833 42 77.5s44 29.5 74 29.5c23.333 0 41.5 -5.66699 54.5 -17s19.5 -27.666 19.5 -48.999c0 -6.66699 -0.666992 -14.5 -2 -23.5s-3 -17.167 -5 -24.5l-79 -294h152l77 288
c4.66699 17.333 8.83398 34.833 12.501 52.5s5.5 34.167 5.5 49.5c0 48.667 -14.333 86.834 -43 114.501s-67 41.5 -115 41.5c-30 0 -57 -6.66699 -81 -20s-45.667 -28.666 -65 -45.999l66 250h-152z" />
    <glyph glyph-name="i" unicode="i" horiz-adv-x="302" 
d="M159 595h160l37 135h-160zM3 0h152l144 536h-152z" />
    <glyph glyph-name="j" unicode="j" horiz-adv-x="301" 
d="M159 595h160l36 135h-160zM-46 -163c23.333 0 45.5029 3.00098 66.5029 9.00098s40.167 15.833 57.5 29.5s32.833 31.667 46.5 54s25.167 50.166 34.5 83.499l140 523h-152l-135 -504c-6 -23.333 -15.333 -41.333 -28 -54s-27.334 -19 -44.001 -19
c-7.33301 0 -13.833 0.5 -19.5 1.5s-11.5 2.16699 -17.5 3.5l-32 -119c11.333 -2.66699 23.666 -4.66699 36.999 -6s28.666 -2 45.999 -2z" />
    <glyph glyph-name="k" unicode="k" horiz-adv-x="591" 
d="M-3 0h152l44 165l77 62l76 -227h170l-117 327l259 209h-198l-217 -184l102 378h-152z" />
    <glyph glyph-name="l" unicode="l" horiz-adv-x="302" 
d="M3 0h152l196 730h-152z" />
    <glyph glyph-name="m" unicode="m" horiz-adv-x="949" 
d="M-3 0l151.999 -0.00195312l81 301c8.66699 32 22.334 57.833 41.001 77.5s43 29.5 73 29.5c47.333 0 71 -22 71 -66c0 -6.66699 -0.666992 -14.5 -2 -23.5s-3 -17.167 -5 -24.5l-79 -294h152l81 301c8.66699 32 22.334 57.833 41.001 77.5s43 29.5 73 29.5
c47.333 0 71 -22 71 -66c0 -6.66699 -0.666992 -14.5 -2 -23.5s-3 -17.167 -5 -24.5l-79 -294h152l77 288c4.66699 17.333 8.83398 34.833 12.501 52.5s5.5 34.167 5.5 49.5c0 48.667 -13.833 86.834 -41.5 114.501s-65.5 41.5 -113.5 41.5c-40.667 0 -77 -9 -109 -27
s-59.667 -41.333 -83 -70c-10.667 30 -27.834 53.667 -51.501 71s-53.834 26 -90.501 26c-30 0 -56.333 -6.66699 -79 -20s-43.667 -28.666 -63 -45.999l15 56h-152z" />
    <glyph glyph-name="n" unicode="n" horiz-adv-x="619" 
d="M-3 0l151.999 -0.00292969l81 301c8.66699 32 22.667 57.833 42 77.5s44 29.5 74 29.5c23.333 0 41.5 -5.66699 54.5 -17s19.5 -27.666 19.5 -48.999c0 -6.66699 -0.666992 -14.5 -2 -23.5s-3 -17.167 -5 -24.5l-79 -294h152l77 288
c4.66699 17.333 8.83398 34.833 12.501 52.5s5.5 34.167 5.5 49.5c0 48.667 -14.333 86.834 -43 114.501s-67 41.5 -115 41.5c-30 0 -57 -6.66699 -81 -20s-45.667 -28.666 -65 -45.999l15 56h-152z" />
    <glyph glyph-name="o" unicode="o" horiz-adv-x="652" 
d="M300 -12c42.667 0 82.833 8.66699 120.5 26s70.5 40.333 98.5 69s50.167 61.667 66.5 99s24.5 76 24.5 116c0 36 -6 69.167 -18 99.5s-29.167 56.5 -51.5 78.5s-49.333 39.167 -81 51.5s-67.5 18.5 -107.5 18.5c-43.333 0 -83.833 -8.66699 -121.5 -26
s-70.5 -40.333 -98.5 -69s-50 -61.667 -66 -99s-24 -76 -24 -116c0 -36 6 -69.167 18 -99.5s29.167 -56.5 51.5 -78.5s49.333 -39.167 81 -51.5s67.5 -18.5 107.5 -18.5zM306.999 118c-34.667 0 -62.667 10.5 -84 31.5s-32 51.167 -32 90.5c0 18.667 3.66699 38.5 11 59.5
s17.666 40 30.999 57s29.5 31.167 48.5 42.5s40.167 17 63.5 17c34.667 0 62.667 -10.5 84 -31.5s32 -51.167 32 -90.5c0 -19.333 -3.66699 -39.333 -11 -60s-17.666 -39.5 -30.999 -56.5s-29.5 -31.167 -48.5 -42.5s-40.167 -17 -63.5 -17z" />
    <glyph glyph-name="p" unicode="p" horiz-adv-x="674" 
d="M-46 -160l152 -0.000976562l63 238c17.333 -26.667 39.166 -48 65.499 -64s60.5 -24 102.5 -24c38 0 74.667 8 110 24s66.833 38.5 94.5 67.5s49.834 63.5 66.501 103.5s25 83.667 25 131c0 36 -5.16699 68.333 -15.5 97s-24.833 52.834 -43.5 72.501
s-40.5 34.667 -65.5 45s-52.167 15.5 -81.5 15.5c-30 0 -56.833 -6 -80.5 -18s-47.167 -28.667 -70.5 -50l16 58h-152zM317 117.999c-34 0 -61.666 10.5 -82.999 31.5s-32 48.5 -32 82.5c0 25.333 4.5 49.333 13.5 72s21 42.5 36 59.5s32.167 30.333 51.5 40
s39.666 14.5 60.999 14.5c34 0 61.167 -9.83301 81.5 -29.5s30.5 -47.167 30.5 -82.5c0 -27.333 -4.5 -52.333 -13.5 -75s-20.833 -42.5 -35.5 -59.5s-31.5 -30.167 -50.5 -39.5s-38.833 -14 -59.5 -14z" />
    <glyph glyph-name="q" unicode="q" horiz-adv-x="674" 
d="M328 -200l152 0.000976562l196 736h-152l-20 -78c-17.333 26.667 -39.166 48 -65.499 64s-60.5 24 -102.5 24c-38 0 -74.667 -8 -110 -24s-66.833 -38.5 -94.5 -67.5s-49.834 -63.5 -66.501 -103.5s-25 -83.667 -25 -131c0 -36 5.16699 -68.333 15.5 -97
s24.833 -52.834 43.5 -72.501s40.5 -34.667 65.5 -45s52.167 -15.5 81.5 -15.5c30 0 56.833 6 80.5 18s47.167 28.667 70.5 50zM309 118.001c-34 0 -61.166 9.83301 -81.499 29.5s-30.5 47.167 -30.5 82.5c0 26.667 4.5 51.5 13.5 74.5s20.833 43 35.5 60
s31.5 30.167 50.5 39.5s38.833 14 59.5 14c34 0 61.667 -10.5 83 -31.5s32 -48.5 32 -82.5c0 -25.333 -4.5 -49.333 -13.5 -72s-21 -42.5 -36 -59.5s-32.333 -30.333 -52 -40s-39.834 -14.5 -60.501 -14.5z" />
    <glyph glyph-name="r" unicode="r" horiz-adv-x="419" 
d="M-3 0h151.999l51 190c18.667 70 46.667 120.333 84 151s81.333 46 132 46h8l43 159c-44 3.33301 -82.167 -5.5 -114.5 -26.5s-62.166 -51.5 -89.499 -91.5l29 108h-152z" />
    <glyph glyph-name="s" unicode="s" 
d="M217 -12c32 0 61.5 4.33789 88.5 13.0049s50.167 21.167 69.5 37.5s34.5 36.166 45.5 59.499s16.5 49.666 16.5 78.999c0 20.667 -4.33301 38.834 -13 54.501s-20 29.5 -34 41.5s-29.833 22.333 -47.5 31l-52.5 25c-22.667 10 -40.167 19.167 -52.5 27.5
s-18.5 17.833 -18.5 28.5c0 14 5.16699 25 15.5 33s24.833 12 43.5 12c22 0 44.333 -4.33301 67 -13s47 -23.334 73 -44.001l82 96c-11.333 10 -24.5 19.5 -39.5 28.5s-31.667 17.167 -50 24.5s-37.666 13.166 -57.999 17.499s-41.5 6.5 -63.5 6.5
c-33.333 0 -63.333 -4.83301 -90 -14.5s-49.167 -22.834 -67.5 -39.501s-32.5 -36.5 -42.5 -59.5s-15 -47.833 -15 -74.5c0 -21.333 4.16699 -39.833 12.5 -55.5s19.666 -29.5 33.999 -41.5s30.833 -22.833 49.5 -32.5s38.667 -18.834 60 -27.501
c18.667 -8 33.667 -15.833 45 -23.5s17 -16.5 17 -26.5c0 -15.333 -5.66699 -27 -17 -35s-27 -12 -47 -12c-24 0 -50.333 5 -79 15s-57 29 -85 57l-88 -91c16 -16.667 33.667 -31 53 -43s39.5 -22 60.5 -30s42.5 -14 64.5 -18s43 -6 63 -6z" />
    <glyph glyph-name="t" unicode="t" horiz-adv-x="415" 
d="M192 -9c42 0 78.668 7.33398 110.001 22.001l35 129c-12.667 -5.33301 -25.834 -9.5 -39.501 -12.5s-26.5 -4.5 -38.5 -4.5c-27.333 0 -41 10.667 -41 32c0 3.33301 0.333008 7.16602 1 11.499s1.66699 8.5 3 12.5l60 225h126l35 130h-126l37 137h-152l-37 -137h-64
l-35 -130h64l-65 -243c-3.33301 -12 -5.83301 -23.333 -7.5 -34s-2.5 -21.667 -2.5 -33c0 -30 11.333 -55 34 -75s57 -30 103 -30z" />
    <glyph glyph-name="u" unicode="u" horiz-adv-x="622" 
d="M199 -10c30 0 57.001 6.66992 81.001 20.0029s45.667 28.666 65 45.999l-15 -56h152l143 536h-152l-81 -301c-8.66699 -32 -22.667 -57.833 -42 -77.5s-44 -29.5 -74 -29.5c-23.333 0 -41.5 5.66699 -54.5 17s-19.5 27.666 -19.5 48.999c0 6.66699 0.666992 14.5 2 23.5
s3 17.167 5 24.5l79 294h-152l-77 -288c-4.66699 -17.333 -8.83398 -34.833 -12.501 -52.5s-5.5 -34.167 -5.5 -49.5c0 -48.667 14.333 -86.834 43 -114.501s67 -41.5 115 -41.5z" />
    <glyph glyph-name="v" unicode="v" horiz-adv-x="592" 
d="M150 -4h138l353 540h-163l-213 -357l-24 357h-156z" />
    <glyph glyph-name="w" unicode="w" horiz-adv-x="857" 
d="M109 -4h136l193 329l15 -329h137l312 540h-151l-176 -326l-14 328h-131l-188 -327l1 325h-154z" />
    <glyph glyph-name="x" unicode="x" horiz-adv-x="578" 
d="M-50 0h181l136 159l62 -159h162l-118 265l251 271h-181l-126 -150l-60 150h-162l117 -256z" />
    <glyph glyph-name="y" unicode="y" horiz-adv-x="592" 
d="M85 -163c45.333 0 85.1689 11.167 119.502 33.5s68.166 61.166 101.499 116.499l332 549h-164l-201 -364l-25 364h-155l66 -540c-10.667 -13.333 -20.334 -22.166 -29.001 -26.499s-18.667 -6.5 -30 -6.5c-10 0 -20.333 2 -31 6s-20 9 -28 15l-81 -110
c16.667 -11.333 34.667 -20.333 54 -27s43 -10 71 -10z" />
    <glyph glyph-name="z" unicode="z" horiz-adv-x="557" 
d="M-27 0h466l33 123h-273l352 306l29 107h-454l-33 -123h260l-351 -306z" />
    <glyph glyph-name="braceleft" unicode="{" horiz-adv-x="490" 
d="M308 -141l50.002 92.999c-18.667 6.66699 -33.834 13 -45.501 19s-20.834 12.333 -27.501 19s-11.334 14 -14.001 22s-4 17 -4 27c0 11.333 1.83301 23 5.5 35s7.5 23.667 11.5 35c4.66699 11.333 8.83398 23.666 12.501 36.999s5.5 26.666 5.5 39.999
c0 23.333 -7.16699 43 -21.5 59s-35.5 26 -63.5 30c24.667 2.66699 46.334 7.33398 65.001 14.001s34.667 17.167 48 31.5s24 32.833 32 55.5s14 51.334 18 86.001c2.66699 24.667 6.66699 45.834 12 63.501s13.666 32.5 24.999 44.5s27 21.333 47 28s45.667 11.667 77 15
l-10 102c-45.333 -0.666992 -84.666 -5.33398 -117.999 -14.001s-61.333 -21.667 -84 -39s-40.5 -39.666 -53.5 -66.999s-21.833 -59.666 -26.5 -96.999c-4 -32 -9.33301 -58 -16 -78s-15.334 -35.5 -26.001 -46.5s-24.167 -18.5 -40.5 -22.5s-36.166 -6 -59.499 -6h-32
l-31 -116h32c18.667 0 33.5 -1.5 44.5 -4.5s19.167 -7 24.5 -12s8.83301 -11.333 10.5 -19s2.5 -15.834 2.5 -24.501c0 -8 -1.33301 -18.5 -4 -31.5s-6.66699 -26.167 -12 -39.5c-13.333 -35.333 -20 -64 -20 -86c0 -39.333 14.167 -71.5 42.5 -96.5
s76.166 -43.833 143.499 -56.5z" />
    <glyph glyph-name="bar" unicode="|" horiz-adv-x="350" 
d="M132 -128h120v926h-120v-926z" />
    <glyph glyph-name="braceright" unicode="}" horiz-adv-x="490" 
d="M-31 -141c45.333 0.666992 84.667 5.33594 118 14.0029s61.333 21.667 84 39s40.5 39.666 53.5 66.999s21.833 59.666 26.5 96.999c4 32 9.16699 58 15.5 78s15 35.5 26 46.5s24.667 18.5 41 22.5s36.166 6 59.499 6h32l31 116h-32c-18.667 0 -33.5 1.5 -44.5 4.5
s-19.167 7 -24.5 12s-8.83301 11.167 -10.5 18.5s-2.5 15.666 -2.5 24.999c0 8 1.33301 18.5 4 31.5s6.66699 26.167 12 39.5c13.333 35.333 20 64 20 86c0 39.333 -14.167 71.333 -42.5 96s-76.166 43.667 -143.499 57l-50 -93c18.667 -6.66699 33.834 -13 45.501 -19
s20.834 -12.333 27.501 -19s11.334 -14 14.001 -22s4 -17 4 -27c0 -11.333 -1.83301 -23.166 -5.5 -35.499s-7.5 -23.833 -11.5 -34.5c-4.66699 -11.333 -8.83398 -23.666 -12.501 -36.999s-5.5 -26.666 -5.5 -39.999c0 -23.333 7.16699 -43 21.5 -59s35.5 -26 63.5 -30
c-24.667 -2.66699 -46.334 -7.33398 -65.001 -14.001s-34.667 -17.167 -48 -31.5s-24 -32.833 -32 -55.5s-14 -51.334 -18 -86.001c-2.66699 -24.667 -6.66699 -45.834 -12 -63.501s-13.833 -32.5 -25.5 -44.5s-27.334 -21.5 -47.001 -28.5s-45.167 -11.833 -76.5 -14.5z
" />
    <glyph glyph-name="asciitilde" unicode="~" horiz-adv-x="510" 
d="M135 220c9.33301 17.333 19.5 31.5 30.5 42.5s24.167 16.5 39.5 16.5c8 0 15.5 -2 22.5 -6s17.167 -10.667 30.5 -20c12 -8.66699 23.833 -15.667 35.5 -21s26.167 -8 43.5 -8c32 0 61.167 12.333 87.5 37s48.166 56.667 65.499 96l-80 40
c-9.33301 -17.333 -19.5 -31.5 -30.5 -42.5s-24.167 -16.5 -39.5 -16.5c-8 0 -15.5 2 -22.5 6s-17.167 10.667 -30.5 20c-11.333 8.66699 -23 15.667 -35 21s-26.667 8 -44 8c-32 0 -61.167 -12.333 -87.5 -37s-48.166 -56.667 -65.499 -96z" />
    <glyph glyph-name="nonbreakingspace" unicode="&#xa0;" horiz-adv-x="300" 
 />
    <glyph glyph-name="exclamdown" unicode="&#xa1;" horiz-adv-x="325" 
d="M154 540h162l43 160h-162zM1 0h178l6 20l71 442h-84l-165 -442z" />
    <glyph glyph-name="cent" unicode="&#xa2;" horiz-adv-x="586" 
d="M202 104l-43.0029 -110h104l33 85c14.667 -2 30 -3 46 -3c46 0 85.667 7.33301 119 22s61.666 32.667 84.999 54l-80 103c-19.333 -15.333 -38.666 -27.166 -57.999 -35.499s-41.666 -12.833 -66.999 -13.5l109 279c20 -11.333 37.333 -28.666 52 -51.999l115 80
c-11.333 20 -26.166 38.667 -44.499 56s-41.166 31.666 -68.499 42.999l37 94h-104l-28 -73c-4.66699 0.666992 -9 1 -13 1h-13c-44.667 0 -86.334 -7.83301 -125.001 -23.5s-72.167 -37.334 -100.5 -65.001s-50.666 -60.167 -66.999 -97.5s-24.5 -78 -24.5 -122
c0 -52 12 -97 36 -135s57.333 -67 100 -87zM362.997 503l-105.999 -270.001c-12.667 10.667 -22.834 23.834 -30.501 39.501s-11.5 34.167 -11.5 55.5c0 20.667 3.5 41 10.5 61s17 38 30 54s28.667 29.5 47 40.5s38.5 17.5 60.5 19.5z" />
    <glyph glyph-name="sterling" unicode="&#xa3;" horiz-adv-x="644" 
d="M-13 0h535.998l36 133h-306l36 134h230l34 127h-231l19 68c4.66699 16 10.334 30.667 17.001 44s14.667 24.666 24 33.999c8.66699 8.66699 18.167 15.5 28.5 20.5s23.5 7.5 39.5 7.5c25.333 0 45.666 -5.5 60.999 -16.5s29 -26.167 41 -45.5l123 84
c-19.333 34.667 -46.166 63.334 -80.499 86.001s-78.833 34 -133.5 34c-77.333 0 -139.666 -23.667 -186.999 -71c-36 -36 -62.667 -86.333 -80 -151l-25 -94h-76l-34 -127h76l-38 -141l-83 -25z" />
    <glyph glyph-name="currency" unicode="&#xa4;" horiz-adv-x="720" 
d="M396 -12c54 0 101.335 10.8359 142.002 32.5029s76 50.5 106 86.5l-104 90c-22.667 -24 -44.5 -41.667 -65.5 -53s-46.167 -17 -75.5 -17c-28 0 -52.333 7.5 -73 22.5s-34.334 37.5 -41.001 67.5h177l27 101h-203c2 11.333 4.33301 22.666 7 33.999s6 22.666 10 33.999
h204l27 101h-193c17.333 28 38.166 49.333 62.499 64s52.5 22 84.5 22c35.333 0 62.333 -7.66699 81 -23s35 -37.333 49 -66l131 65c-17.333 49.333 -46 88.833 -86 118.5s-95.667 44.5 -167 44.5c-38.667 0 -74.667 -5.5 -108 -16.5s-63.833 -26.5 -91.5 -46.5
s-52.167 -43.833 -73.5 -71.5s-39.333 -57.834 -54 -90.501h-73l-27 -101h70c-3.33301 -11.333 -6 -22.5 -8 -33.5s-3.66699 -22.5 -5 -34.5h-75l-27 -101h100c4.66699 -35.333 14.334 -67 29.001 -95s33.667 -52 57 -72s50.666 -35.333 81.999 -46s66 -16 104 -16z" />
    <glyph glyph-name="yen" unicode="&#xa5;" horiz-adv-x="711" 
d="M209 0h148l25 92h184l29 108h-184l16 62h184l29 108h-145l305 330h-183l-225 -259l-84 259h-166l125 -330h-143l-29 -108h184l-16 -62h-184l-29 -108h184z" />
    <glyph glyph-name="section" unicode="&#xa7;" horiz-adv-x="632" 
d="M283 -9c32 0 61.667 3.83203 89 11.499s50.833 18.5 70.5 32.5s35.167 30.667 46.5 50s17 40.333 17 63c0 18.667 -3.33301 34.667 -10 48s-15.334 25 -26.001 35c46 9.33301 80.167 25.5 102.5 48.5s33.5 50.833 33.5 83.5c0 21.333 -5 39.5 -15 54.5
s-23.5 27.833 -40.5 38.5s-37 19.834 -60 27.501s-47.167 15.167 -72.5 22.5c-38.667 10.667 -65.334 19.5 -80.001 26.5s-22 16.167 -22 27.5s6.33301 20.5 19 27.5s29.667 10.5 51 10.5c29.333 0 56.833 -6 82.5 -18s47.5 -27 65.5 -45l95 84
c-24 29.333 -56.333 52.166 -97 68.499s-86.667 24.5 -138 24.5c-32 0 -61.667 -3.83301 -89 -11.5s-50.833 -18.5 -70.5 -32.5s-35.167 -30.667 -46.5 -50s-17 -40.333 -17 -63c0 -18.667 3.33301 -34.667 10 -48s15.334 -25 26.001 -35
c-46 -9.33301 -80.167 -25.5 -102.5 -48.5s-33.5 -50.833 -33.5 -83.5c0 -21.333 5 -39.5 15 -54.5s23.5 -27.833 40.5 -38.5s37 -20 60 -28s47.167 -15.333 72.5 -22c38.667 -10.667 65.334 -19.5 80.001 -26.5s22 -16.167 22 -27.5s-6.33301 -20.5 -19 -27.5
s-29.667 -10.5 -51 -10.5c-29.333 0 -56.833 6 -82.5 18s-47.5 27 -65.5 45l-95 -84c24 -29.333 56.333 -52.166 97 -68.499s86.667 -24.5 138 -24.5zM399 287.999c-13.333 0 -27.166 1.66699 -41.499 5s-33.833 8.66602 -58.5 15.999c-28.667 8.66699 -50.167 17 -64.5 25
s-21.5 18.667 -21.5 32c0 14 6.5 25.667 19.5 35s28.167 14 45.5 14c13.333 0 27.166 -1.66699 41.499 -5s33.833 -8.66602 58.5 -15.999c28.667 -8.66699 50.167 -17 64.5 -25s21.5 -18.667 21.5 -32c0 -14 -6.5 -25.667 -19.5 -35s-28.167 -14 -45.5 -14z" />
    <glyph glyph-name="dieresis" unicode="&#xa8;" 
d="M371 595h146l37 135h-146zM157 595h146l37 135h-146z" />
    <glyph glyph-name="copyright" unicode="&#xa9;" horiz-adv-x="830" 
d="M435 -12c50.667 0 98.167 9.66699 142.5 29s82.833 45.5 115.5 78.5s58.334 71.5 77.001 115.5s28 90.667 28 140s-9.33301 96 -28 140s-44.167 82.333 -76.5 115s-70.5 58.5 -114.5 77.5s-91.333 28.5 -142 28.5s-98.167 -9.66699 -142.5 -29
s-82.833 -45.5 -115.5 -78.5s-58.334 -71.5 -77.001 -115.5s-28 -90.667 -28 -140s9.33301 -96 28 -140s44.167 -82.333 76.5 -115s70.5 -58.5 114.5 -77.5s91.333 -28.5 142 -28.5zM435 28c-45.333 0 -87.499 8.33301 -126.499 25s-72.833 39.5 -101.5 68.5s-51 63 -67 102
s-24 80.833 -24 125.5s8.16699 86.5 24.5 125.5s38.833 73.167 67.5 102.5s62.5 52.5 101.5 69.5s81.5 25.5 127.5 25.5c45.333 0 87.5 -8.33301 126.5 -25s72.667 -39.5 101 -68.5s50.666 -63 66.999 -102s24.5 -80.833 24.5 -125.5s-8.16699 -86.5 -24.5 -125.5
s-38.833 -73.167 -67.5 -102.5s-62.5 -52.5 -101.5 -69.5s-81.5 -25.5 -127.5 -25.5zM440.001 156c37.333 0 68.002 6.16504 92.002 18.498s46 29.166 66 50.499l-56 56c-15.333 -13.333 -30.333 -24.166 -45 -32.499s-32.667 -12.5 -54 -12.5
c-16 0 -30.833 3.16699 -44.5 9.5s-25.334 14.833 -35.001 25.5s-17.167 23.334 -22.5 38.001s-8 30 -8 46c0 16.667 2.66699 32.167 8 46.5s13 26.833 23 37.5s21.667 19.167 35 25.5s28 9.5 44 9.5c18.667 0 35.834 -3.83301 51.501 -11.5s30.834 -18.167 45.501 -31.5
l55 64c-18 17.333 -38.667 31.5 -62 42.5s-53.333 16.5 -90 16.5c-29.333 0 -56.333 -5.33301 -81 -16s-45.834 -25 -63.501 -43s-31.334 -39.167 -41.001 -63.5s-14.5 -50.166 -14.5 -77.499c0 -28 5 -54 15 -78s23.667 -44.833 41 -62.5s38.166 -31.667 62.499 -42
s50.5 -15.5 78.5 -15.5z" />
    <glyph glyph-name="ordfeminine" unicode="&#xaa;" horiz-adv-x="390" 
d="M188 400c17.333 0 33.3281 3.5 47.9951 10.5s28 16.833 40 29.5l-9 -34h81l44 163c4 14 6 28.667 6 44c0 29.333 -9.83301 51.833 -29.5 67.5s-49.5 23.5 -89.5 23.5c-21.333 0 -41.166 -1.83301 -59.499 -5.5s-35.166 -8.83398 -50.499 -15.501l14 -66
c10.667 4.66699 22.834 8.5 36.501 11.5s27.5 4.5 41.5 4.5c20.667 0 35.334 -3.33301 44.001 -10s13 -15.667 13 -27c0 -5.33301 -1 -11 -3 -17l-2 -7c-12 4 -25 7.33301 -39 10s-29 4 -45 4c-18 0 -34.667 -2.33301 -50 -7s-28.666 -11.5 -39.999 -20.5
s-20.333 -20.167 -27 -33.5s-10 -28.666 -10 -45.999c0 -23.333 8 -42.333 24 -57s36.667 -22 62 -22zM50.9951 277h266l18 66h-266zM223.995 457c-12 0 -21.499 3.00098 -28.499 9.00098s-10.5 13.667 -10.5 23c0 14 5.5 25.167 16.5 33.5s25.5 12.5 43.5 12.5
c10.667 0 20.667 -1 30 -3s17.666 -4.33301 24.999 -7l-2 -8c-4 -16.667 -13 -30.834 -27 -42.501s-29.667 -17.5 -47 -17.5z" />
    <glyph glyph-name="guillemotleft" unicode="&#xab;" horiz-adv-x="643" 
d="M424 31l122 54l-80 160l176 171l-87 80l-237 -233l-2 -8zM154 31l122 54l-80 160l176 171l-87 80l-237 -233l-2 -8z" />
    <glyph glyph-name="registered" unicode="&#xae;" horiz-adv-x="830" 
d="M435 -12c50.667 0 98.167 9.66699 142.5 29s82.833 45.5 115.5 78.5s58.334 71.5 77.001 115.5s28 90.667 28 140s-9.33301 96 -28 140s-44.167 82.333 -76.5 115s-70.5 58.5 -114.5 77.5s-91.333 28.5 -142 28.5s-98.167 -9.66699 -142.5 -29
s-82.833 -45.5 -115.5 -78.5s-58.334 -71.5 -77.001 -115.5s-28 -90.667 -28 -140s9.33301 -96 28 -140s44.167 -82.333 76.5 -115s70.5 -58.5 114.5 -77.5s91.333 -28.5 142 -28.5zM435 28c-45.333 0 -87.499 8.33301 -126.499 25s-72.833 39.5 -101.5 68.5s-51 63 -67 102
s-24 80.833 -24 125.5s8.16699 86.5 24.5 125.5s38.833 73.167 67.5 102.5s62.5 52.5 101.5 69.5s81.5 25.5 127.5 25.5c45.333 0 87.5 -8.33301 126.5 -25s72.667 -39.5 101 -68.5s50.666 -63 66.999 -102s24.5 -80.833 24.5 -125.5s-8.16699 -86.5 -24.5 -125.5
s-38.833 -73.167 -67.5 -102.5s-62.5 -52.5 -101.5 -69.5s-81.5 -25.5 -127.5 -25.5zM287.001 168l85 0.000976562v124h67l82 -124h99l-94 138c24.667 9.33301 44.667 23.666 60 42.999s23 45 23 77c0 40 -13.667 71.167 -41 93.5s-64 33.5 -110 33.5h-171v-385z
M372.001 365.001l-0.000976562 112.999h83c21.333 0 38 -4.66699 50 -14s18 -23.666 18 -42.999c0 -16.667 -5.66699 -30.167 -17 -40.5s-27.666 -15.5 -48.999 -15.5h-85z" />
    <glyph glyph-name="macron" unicode="&#xaf;" 
d="M159 600h360l28 105h-360z" />
    <glyph glyph-name="macron" unicode="&#x2c9;" 
d="M159 600h360l28 105h-360z" />
    <glyph glyph-name="degree" unicode="&#xb0;" horiz-adv-x="445" 
d="M249 363c26.667 0 51.667 5.33301 75 16s43.5 24.834 60.5 42.501s30.5 38 40.5 61s15 47.167 15 72.5c0 22 -3.66699 42.5 -11 61.5s-18 35.333 -32 49s-31 24.334 -51 32.001s-42.333 11.5 -67 11.5c-26.667 0 -51.667 -5.33301 -75 -16s-43.5 -24.834 -60.5 -42.501
s-30.5 -38.167 -40.5 -61.5s-15 -47.333 -15 -72c0 -22 3.66699 -42.5 11 -61.5s18 -35.333 32 -49s31 -24.334 51 -32.001s42.333 -11.5 67 -11.5zM252 441c-22.667 0 -40.834 7.33301 -54.501 22s-20.5 33.667 -20.5 57c0 12.667 2.33301 25.667 7 39
s11.334 25.333 20.001 36s19.167 19.334 31.5 26.001s25.833 10 40.5 10c22.667 0 40.834 -7.33301 54.501 -22s20.5 -33.667 20.5 -57c0 -13.333 -2.33301 -26.5 -7 -39.5s-11.334 -24.833 -20.001 -35.5s-19.167 -19.334 -31.5 -26.001s-25.833 -10 -40.5 -10z" />
    <glyph glyph-name="plusminus" unicode="&#xb1;" horiz-adv-x="621" 
d="M256 -12c44 0 84.1709 5.83594 120.504 17.5029s67.166 27.5 92.499 47.5s45 43.667 59 71s21 57 21 89c0 17.333 -2.66699 33.333 -8 48s-12.333 27.834 -21 39.501s-18.834 21.667 -30.501 30s-23.5 15.166 -35.5 20.499c52 15.333 91 38.166 117 68.499
s39 67.166 39 110.499c0 24.667 -5.16699 48 -15.5 70s-25.5 41.333 -45.5 58s-44.333 29.834 -73 39.501s-61.334 14.5 -98.001 14.5c-57.333 0 -106.333 -10.333 -147 -31s-77.334 -48 -110.001 -82l85 -97c25.333 22.667 49.5 40.334 72.5 53.001s50.167 19 81.5 19
c26 0 47.833 -6.16699 65.5 -18.5s26.5 -28.833 26.5 -49.5c0 -14.667 -3.5 -27.5 -10.5 -38.5s-16.5 -20.333 -28.5 -28s-26 -13.334 -42 -17.001s-33 -5.5 -51 -5.5h-81l-34 -127h76c40 0 68.833 -6.33301 86.5 -19s26.5 -30.667 26.5 -54
c0 -11.333 -2.66699 -22.333 -8 -33s-13.333 -20.334 -24 -29.001s-24 -15.667 -40 -21s-34.333 -8 -55 -8c-38.667 0 -70.834 7.33301 -96.501 22s-48.834 34.667 -69.501 60l-114 -86c10 -16.667 22.833 -33 38.5 -49s34.334 -30.333 56.001 -43
s46.834 -22.834 75.501 -30.501s61.667 -11.5 99 -11.5z" />
    <glyph glyph-name="acute" unicode="&#xb4;" 
d="M208 595h128l161 120l-128 57z" />
    <glyph glyph-name="mu" unicode="&#xb5;" horiz-adv-x="832" 
d="M618 -44l127.001 84.0029l-56 74c38 39.333 67.333 83.833 88 133.5s31 101.167 31 154.5c0 44 -7.66699 84.833 -23 122.5s-37 70.5 -65 98.5s-61.667 49.833 -101 65.5s-83 23.5 -131 23.5c-62.667 0 -119.834 -11.833 -171.501 -35.5s-96 -54.834 -133 -93.501
s-65.667 -82.834 -86 -132.501s-30.5 -100.5 -30.5 -152.5c0 -44 7.66699 -84.833 23 -122.5s37 -70.5 65 -98.5s61.667 -49.833 101 -65.5s83 -23.5 131 -23.5c34 0 66.5 3.66699 97.5 11s60.167 17.666 87.5 30.999zM405.001 130.003
c-28.667 0 -54.167 4.33203 -76.5 12.999s-41 21 -56 37s-26.333 34.833 -34 56.5s-11.5 45.5 -11.5 71.5c0 30 5.83301 60.667 17.5 92s28 59.5 49 84.5s46.5 45.5 76.5 61.5s63.333 24 100 24c28.667 0 54.167 -4.33301 76.5 -13s41 -21 56 -37s26.333 -34.833 34 -56.5
s11.5 -45.5 11.5 -71.5c0 -25.333 -4 -51 -12 -77s-19.667 -50.667 -35 -74l-71 114l-127 -85l90 -122c-13.333 -5.33301 -27.333 -9.66602 -42 -12.999s-30 -5 -46 -5z" />
    <glyph glyph-name="mu" unicode="&#x3bc;" horiz-adv-x="832" 
d="M618 -44l127.001 84.0029l-56 74c38 39.333 67.333 83.833 88 133.5s31 101.167 31 154.5c0 44 -7.66699 84.833 -23 122.5s-37 70.5 -65 98.5s-61.667 49.833 -101 65.5s-83 23.5 -131 23.5c-62.667 0 -119.834 -11.833 -171.501 -35.5s-96 -54.834 -133 -93.501
s-65.667 -82.834 -86 -132.501s-30.5 -100.5 -30.5 -152.5c0 -44 7.66699 -84.833 23 -122.5s37 -70.5 65 -98.5s61.667 -49.833 101 -65.5s83 -23.5 131 -23.5c34 0 66.5 3.66699 97.5 11s60.167 17.666 87.5 30.999zM405.001 130.003
c-28.667 0 -54.167 4.33203 -76.5 12.999s-41 21 -56 37s-26.333 34.833 -34 56.5s-11.5 45.5 -11.5 71.5c0 30 5.83301 60.667 17.5 92s28 59.5 49 84.5s46.5 45.5 76.5 61.5s63.333 24 100 24c28.667 0 54.167 -4.33301 76.5 -13s41 -21 56 -37s26.333 -34.833 34 -56.5
s11.5 -45.5 11.5 -71.5c0 -25.333 -4 -51 -12 -77s-19.667 -50.667 -35 -74l-71 114l-127 -85l90 -122c-13.333 -5.33301 -27.333 -9.66602 -42 -12.999s-30 -5 -46 -5z" />
    <glyph glyph-name="paragraph" unicode="&#xb6;" horiz-adv-x="599" 
d="M290 0l153 0.00292969l188 700h-191c-60 0 -112.167 -7.16699 -156.5 -21.5s-81 -33.833 -110 -58.5s-50.667 -53.834 -65 -87.501s-21.5 -69.834 -21.5 -108.501c0 -70.667 22.833 -123.334 68.5 -158.001s109.167 -52.667 190.5 -54z" />
    <glyph glyph-name="periodcentered" unicode="&#xb7;" horiz-adv-x="319" 
d="M64 230h162l43 160h-162z" />
    <glyph glyph-name="cedilla" unicode="&#xb8;" 
d="M157 -173l123 183h-112l-124 -130z" />
    <glyph glyph-name="ordmasculine" unicode="&#xba;" horiz-adv-x="402" 
d="M246 399c24 0 46.333 4.66699 67 14s38.667 21.833 54 37.5s27.333 33.834 36 54.501s13 42 13 64c0 40 -12.667 72.667 -38 98s-60 38 -104 38c-24 0 -46.333 -4.66699 -67 -14s-38.667 -21.833 -54 -37.5s-27.333 -33.834 -36 -54.501s-13 -42 -13 -64
c0 -40 12.667 -72.667 38 -98s60 -38 104 -38zM51 277h278l18 66h-278zM249 470c-19.333 0 -34.6631 6.33301 -45.9961 19s-17 29 -17 49c0 11.333 2 22.666 6 33.999s9.66699 21.666 17 30.999s16.166 16.833 26.499 22.5s22.166 8.5 35.499 8.5
c19.333 0 34.666 -6.33301 45.999 -19s17 -29 17 -49c0 -11.333 -2 -22.666 -6 -33.999s-9.66699 -21.666 -17 -30.999s-16.333 -16.833 -27 -22.5s-22.334 -8.5 -35.001 -8.5z" />
    <glyph glyph-name="guillemotright" unicode="&#xbb;" horiz-adv-x="643" 
d="M356 31l237 233l2 8l-108 224l-122 -54l80 -160l-176 -171zM86 31l237 233l2 8l-108 224l-122 -54l80 -160l-176 -171z" />
    <glyph glyph-name="questiondown" unicode="&#xbf;" horiz-adv-x="544" 
d="M297 540h162l43 160h-162zM247 -9c44.667 0 88.5 8.16699 131.5 24.5s80.5 40.833 112.5 73.5l-80 101c-21.333 -18.667 -44.5 -33.167 -69.5 -43.5s-49.5 -15.5 -73.5 -15.5c-28.667 0 -49.667 5.5 -63 16.5s-20 26.167 -20 45.5c0 29.333 17.167 52.5 51.5 69.5
s83.833 27.833 148.5 32.5l6 5l20 162h-102l-29 -70c-84.667 -13.333 -148.5 -38.5 -191.5 -75.5s-64.5 -84.833 -64.5 -143.5c0 -24 5 -46.833 15 -68.5s24.5 -41 43.5 -58s42.333 -30.5 70 -40.5s59.167 -15 94.5 -15z" />
    <glyph glyph-name="Agrave" unicode="&#xc0;" horiz-adv-x="765" 
d="M-57 0h166l106 157h296l22 -157h158l-111 705h-148zM307 293l154 231l32 -231h-186zM462 755h104l-65 177l-134 -57z" />
    <glyph glyph-name="Aacute" unicode="&#xc1;" horiz-adv-x="765" 
d="M-57 0h166l106 157h296l22 -157h158l-111 705h-148zM307 293l154 231l32 -231h-186zM426 755h128l161 120l-128 57z" />
    <glyph glyph-name="Acircumflex" unicode="&#xc2;" horiz-adv-x="765" 
d="M-57 0h166l106 157h296l22 -157h158l-111 705h-148zM307 293l154 231l32 -231h-186zM298 755h122l97 66l61 -66h110l-81 157h-144z" />
    <glyph glyph-name="Atilde" unicode="&#xc3;" horiz-adv-x="765" 
d="M-57 0h166l106 157h296l22 -157h158l-111 705h-148zM307 293l154 231l32 -231h-186zM374 748c9.33301 17.333 19.5 31.5 30.5 42.5s24.167 16.5 39.5 16.5c8 0 15.5 -2 22.5 -6s17.167 -10.667 30.5 -20c12 -8.66699 23.833 -15.667 35.5 -21s26.167 -8 43.5 -8
c32 0 61.167 12.333 87.5 37s48.166 56.667 65.499 96l-80 40c-9.33301 -17.333 -19.5 -31.5 -30.5 -42.5s-24.167 -16.5 -39.5 -16.5c-8 0 -15.5 2 -22.5 6s-17.167 10.667 -30.5 20c-11.333 8.66699 -23 15.667 -35 21s-26.667 8 -44 8c-32 0 -61.167 -12.333 -87.5 -37
s-48.166 -56.667 -65.499 -96z" />
    <glyph glyph-name="Adieresis" unicode="&#xc4;" horiz-adv-x="765" 
d="M-57 0h166l106 157h296l22 -157h158l-111 705h-148zM307 293l154 231l32 -231h-186zM543 755h146l37 135h-146zM329 755h146l37 135h-146z" />
    <glyph glyph-name="Aring" unicode="&#xc5;" horiz-adv-x="765" 
d="M-57 0h166l106 157h296l22 -157h158l-108 683c17.333 12.667 31.333 28.5 42 47.5s16 39.833 16 62.5c0 29.333 -9.83301 54 -29.5 74s-46.5 30 -80.5 30c-18.667 0 -36.167 -3.66699 -52.5 -11s-30.5 -17 -42.5 -29s-21.5 -26.167 -28.5 -42.5s-10.5 -33.5 -10.5 -51.5
c0 -28 8.66699 -51.667 26 -71zM509 714c-15.333 0 -27.166 4.83301 -35.499 14.5s-12.5 21.5 -12.5 35.5c0 10 1.66699 19.667 5 29s8 17.666 14 24.999s13.167 13.166 21.5 17.499s17.5 6.5 27.5 6.5c15.333 0 27.166 -4.83301 35.499 -14.5s12.5 -21.5 12.5 -35.5
c0 -10 -1.66699 -19.667 -5 -29s-8 -17.666 -14 -24.999s-13.167 -13.166 -21.5 -17.499s-17.5 -6.5 -27.5 -6.5zM307 293l154 231l32 -231h-186z" />
    <glyph glyph-name="AE" unicode="&#xc6;" horiz-adv-x="1058" 
d="M-61 0h167l125 157h236l-42 -157h508l37 137h-356l40 148h305l37 135h-305l38 143h350l37 137h-612zM340 293l218 274h19l-73 -274h-164z" />
    <glyph glyph-name="Ccedilla" unicode="&#xc7;" horiz-adv-x="726" 
d="M388 -12l8.99707 0.000976562c58.667 0 109 10 151 30s80 45.667 114 77l-100 104c-26 -21.333 -51.333 -38.166 -76 -50.499s-54 -18.5 -88 -18.5c-25.333 0 -48.333 4 -69 12s-38.667 19.5 -54 34.5s-27.166 32.833 -35.499 53.5s-12.5 43.667 -12.5 69
c0 37.333 6.83301 72.5 20.5 105.5s32 61.667 55 86s49.333 43.666 79 57.999s60.5 21.5 92.5 21.5c42 0 76 -8.66699 102 -26s49.333 -40.666 70 -69.999l127 89c-28 46 -64.833 82.333 -110.5 109s-102.167 40 -169.5 40c-59.333 0 -114.833 -11.333 -166.5 -34
s-96.667 -53.334 -135 -92.001s-68.666 -83.167 -90.999 -133.5s-33.5 -103.5 -33.5 -159.5c0 -37.333 5.16699 -71.5 15.5 -102.5s25 -58.833 44 -83.5s41.833 -45.834 68.5 -63.501s56.334 -31.167 89.001 -40.5l-117 -123l113 -53z" />
    <glyph glyph-name="Egrave" unicode="&#xc8;" horiz-adv-x="665" 
d="M12 0h528l37 137h-376l40 148h325l37 135h-325l38 143h370l37 137h-523zM428 755h104l-65 177l-134 -57z" />
    <glyph glyph-name="Eacute" unicode="&#xc9;" horiz-adv-x="665" 
d="M12 0h528l37 137h-376l40 148h325l37 135h-325l38 143h370l37 137h-523zM385 755h128l161 120l-128 57z" />
    <glyph glyph-name="Ecircumflex" unicode="&#xca;" horiz-adv-x="665" 
d="M12 0h528l37 137h-376l40 148h325l37 135h-325l38 143h370l37 137h-523zM279 755h122l97 66l61 -66h110l-81 157h-144z" />
    <glyph glyph-name="Edieresis" unicode="&#xcb;" horiz-adv-x="665" 
d="M12 0h528l37 137h-376l40 148h325l37 135h-325l38 143h370l37 137h-523zM507 755h146l37 135h-146zM293 755h146l37 135h-146z" />
    <glyph glyph-name="Igrave" unicode="&#xcc;" horiz-adv-x="336" 
d="M19 0h154l188 700h-154zM257 755h104l-65 177l-134 -57z" />
    <glyph glyph-name="Iacute" unicode="&#xcd;" horiz-adv-x="336" 
d="M19 0h154l188 700h-154zM210 755h128l161 120l-128 57z" />
    <glyph glyph-name="Icircumflex" unicode="&#xce;" horiz-adv-x="336" 
d="M19 0h154l188 700h-154zM93 755h122l97 66l61 -66h110l-81 157h-144z" />
    <glyph glyph-name="Idieresis" unicode="&#xcf;" horiz-adv-x="336" 
d="M19 0h154l188 700h-154zM332 755h146l37 135h-146zM118 755h146l37 135h-146z" />
    <glyph glyph-name="Eth" unicode="&#xd0;" horiz-adv-x="797" 
d="M32 0l260 -0.00195312c81.333 0 152.333 11 213 33s112 54 154 96c38 38 66.667 80.333 86 127s29 96.334 29 149.001c0 86 -25.333 154.333 -76 205c-26.667 26.667 -62 48.334 -106 65.001s-100 25 -168 25h-204l-75 -280h-83l-37 -136h83zM223 138.998l39.001 144.999
h142l37 136h-142l38 141h75c40 0 73 -4.66699 99 -14s46.667 -21.666 62 -36.999c27.333 -27.333 41 -64.333 41 -111c0 -34 -6 -66 -18 -96s-29.333 -56.333 -52 -79c-28 -28 -62.333 -49.167 -103 -63.5s-84.334 -21.5 -131.001 -21.5h-87z" />
    <glyph glyph-name="Ntilde" unicode="&#xd1;" horiz-adv-x="786" 
d="M12 0h152l123 459l212 -459h131l188 700h-152l-120 -445l-204 445h-142zM387 748c9.33301 17.333 19.5 31.5 30.5 42.5s24.167 16.5 39.5 16.5c8 0 15.5 -2 22.5 -6s17.167 -10.667 30.5 -20c12 -8.66699 23.833 -15.667 35.5 -21s26.167 -8 43.5 -8
c32 0 61.167 12.333 87.5 37s48.166 56.667 65.499 96l-80 40c-9.33301 -17.333 -19.5 -31.5 -30.5 -42.5s-24.167 -16.5 -39.5 -16.5c-8 0 -15.5 2 -22.5 6s-17.167 10.667 -30.5 20c-11.333 8.66699 -23 15.667 -35 21s-26.667 8 -44 8c-32 0 -61.167 -12.333 -87.5 -37
s-48.166 -56.667 -65.499 -96z" />
    <glyph glyph-name="Ograve" unicode="&#xd2;" horiz-adv-x="832" 
d="M387 -12c62.667 0 119.834 11.833 171.501 35.5s96 54.834 133 93.501s65.667 82.834 86 132.501s30.5 100.5 30.5 152.5c0 44 -7.66699 84.833 -23 122.5s-37 70.5 -65 98.5s-61.667 49.833 -101 65.5s-83 23.5 -131 23.5c-62.667 0 -119.834 -11.833 -171.501 -35.5
s-96 -54.834 -133 -93.501s-65.667 -82.834 -86 -132.501s-30.5 -100.5 -30.5 -152.5c0 -44 7.66699 -84.833 23 -122.5s37 -70.5 65 -98.5s61.667 -49.833 101 -65.5s83 -23.5 131 -23.5zM405 130c-28.667 0 -54.167 4.33301 -76.5 13s-41 21 -56 37
s-26.333 34.833 -34 56.5s-11.5 45.5 -11.5 71.5c0 30 5.83301 60.667 17.5 92s28 59.5 49 84.5s46.5 45.5 76.5 61.5s63.333 24 100 24c28.667 0 54.167 -4.33301 76.5 -13s41 -21 56 -37s26.333 -34.833 34 -56.5s11.5 -45.5 11.5 -71.5c0 -30 -5.83301 -60.667 -17.5 -92
s-28 -59.5 -49 -84.5s-46.5 -45.5 -76.5 -61.5s-63.333 -24 -100 -24zM472 755h104l-65 177l-134 -57z" />
    <glyph glyph-name="Oacute" unicode="&#xd3;" horiz-adv-x="832" 
d="M387 -12c62.667 0 119.834 11.833 171.501 35.5s96 54.834 133 93.501s65.667 82.834 86 132.501s30.5 100.5 30.5 152.5c0 44 -7.66699 84.833 -23 122.5s-37 70.5 -65 98.5s-61.667 49.833 -101 65.5s-83 23.5 -131 23.5c-62.667 0 -119.834 -11.833 -171.501 -35.5
s-96 -54.834 -133 -93.501s-65.667 -82.834 -86 -132.501s-30.5 -100.5 -30.5 -152.5c0 -44 7.66699 -84.833 23 -122.5s37 -70.5 65 -98.5s61.667 -49.833 101 -65.5s83 -23.5 131 -23.5zM405 130c-28.667 0 -54.167 4.33301 -76.5 13s-41 21 -56 37
s-26.333 34.833 -34 56.5s-11.5 45.5 -11.5 71.5c0 30 5.83301 60.667 17.5 92s28 59.5 49 84.5s46.5 45.5 76.5 61.5s63.333 24 100 24c28.667 0 54.167 -4.33301 76.5 -13s41 -21 56 -37s26.333 -34.833 34 -56.5s11.5 -45.5 11.5 -71.5c0 -30 -5.83301 -60.667 -17.5 -92
s-28 -59.5 -49 -84.5s-46.5 -45.5 -76.5 -61.5s-63.333 -24 -100 -24zM414 755h128l161 120l-128 57z" />
    <glyph glyph-name="Ocircumflex" unicode="&#xd4;" horiz-adv-x="832" 
d="M387 -12c62.667 0 119.834 11.833 171.501 35.5s96 54.834 133 93.501s65.667 82.834 86 132.501s30.5 100.5 30.5 152.5c0 44 -7.66699 84.833 -23 122.5s-37 70.5 -65 98.5s-61.667 49.833 -101 65.5s-83 23.5 -131 23.5c-62.667 0 -119.834 -11.833 -171.501 -35.5
s-96 -54.834 -133 -93.501s-65.667 -82.834 -86 -132.501s-30.5 -100.5 -30.5 -152.5c0 -44 7.66699 -84.833 23 -122.5s37 -70.5 65 -98.5s61.667 -49.833 101 -65.5s83 -23.5 131 -23.5zM405 130c-28.667 0 -54.167 4.33301 -76.5 13s-41 21 -56 37
s-26.333 34.833 -34 56.5s-11.5 45.5 -11.5 71.5c0 30 5.83301 60.667 17.5 92s28 59.5 49 84.5s46.5 45.5 76.5 61.5s63.333 24 100 24c28.667 0 54.167 -4.33301 76.5 -13s41 -21 56 -37s26.333 -34.833 34 -56.5s11.5 -45.5 11.5 -71.5c0 -30 -5.83301 -60.667 -17.5 -92
s-28 -59.5 -49 -84.5s-46.5 -45.5 -76.5 -61.5s-63.333 -24 -100 -24zM319 755h122l97 66l61 -66h110l-81 157h-144z" />
    <glyph glyph-name="Otilde" unicode="&#xd5;" horiz-adv-x="832" 
d="M387 -12c62.667 0 119.834 11.833 171.501 35.5s96 54.834 133 93.501s65.667 82.834 86 132.501s30.5 100.5 30.5 152.5c0 44 -7.66699 84.833 -23 122.5s-37 70.5 -65 98.5s-61.667 49.833 -101 65.5s-83 23.5 -131 23.5c-62.667 0 -119.834 -11.833 -171.501 -35.5
s-96 -54.834 -133 -93.501s-65.667 -82.834 -86 -132.501s-30.5 -100.5 -30.5 -152.5c0 -44 7.66699 -84.833 23 -122.5s37 -70.5 65 -98.5s61.667 -49.833 101 -65.5s83 -23.5 131 -23.5zM405 130c-28.667 0 -54.167 4.33301 -76.5 13s-41 21 -56 37
s-26.333 34.833 -34 56.5s-11.5 45.5 -11.5 71.5c0 30 5.83301 60.667 17.5 92s28 59.5 49 84.5s46.5 45.5 76.5 61.5s63.333 24 100 24c28.667 0 54.167 -4.33301 76.5 -13s41 -21 56 -37s26.333 -34.833 34 -56.5s11.5 -45.5 11.5 -71.5c0 -30 -5.83301 -60.667 -17.5 -92
s-28 -59.5 -49 -84.5s-46.5 -45.5 -76.5 -61.5s-63.333 -24 -100 -24zM398 748c9.33301 17.333 19.5 31.5 30.5 42.5s24.167 16.5 39.5 16.5c8 0 15.5 -2 22.5 -6s17.167 -10.667 30.5 -20c12 -8.66699 23.833 -15.667 35.5 -21s26.167 -8 43.5 -8
c32 0 61.167 12.333 87.5 37s48.166 56.667 65.499 96l-80 40c-9.33301 -17.333 -19.5 -31.5 -30.5 -42.5s-24.167 -16.5 -39.5 -16.5c-8 0 -15.5 2 -22.5 6s-17.167 10.667 -30.5 20c-11.333 8.66699 -23 15.667 -35 21s-26.667 8 -44 8c-32 0 -61.167 -12.333 -87.5 -37
s-48.166 -56.667 -65.499 -96z" />
    <glyph glyph-name="Odieresis" unicode="&#xd6;" horiz-adv-x="832" 
d="M387 -12c62.667 0 119.834 11.833 171.501 35.5s96 54.834 133 93.501s65.667 82.834 86 132.501s30.5 100.5 30.5 152.5c0 44 -7.66699 84.833 -23 122.5s-37 70.5 -65 98.5s-61.667 49.833 -101 65.5s-83 23.5 -131 23.5c-62.667 0 -119.834 -11.833 -171.501 -35.5
s-96 -54.834 -133 -93.501s-65.667 -82.834 -86 -132.501s-30.5 -100.5 -30.5 -152.5c0 -44 7.66699 -84.833 23 -122.5s37 -70.5 65 -98.5s61.667 -49.833 101 -65.5s83 -23.5 131 -23.5zM405 130c-28.667 0 -54.167 4.33301 -76.5 13s-41 21 -56 37
s-26.333 34.833 -34 56.5s-11.5 45.5 -11.5 71.5c0 30 5.83301 60.667 17.5 92s28 59.5 49 84.5s46.5 45.5 76.5 61.5s63.333 24 100 24c28.667 0 54.167 -4.33301 76.5 -13s41 -21 56 -37s26.333 -34.833 34 -56.5s11.5 -45.5 11.5 -71.5c0 -30 -5.83301 -60.667 -17.5 -92
s-28 -59.5 -49 -84.5s-46.5 -45.5 -76.5 -61.5s-63.333 -24 -100 -24zM556 755h146l37 135h-146zM342 755h146l37 135h-146z" />
    <glyph glyph-name="Oslash" unicode="&#xd8;" horiz-adv-x="832" 
d="M387 -12c62.667 0 119.833 11.833 171.5 35.5s96 54.834 133 93.501s65.667 82.834 86 132.501s30.5 100.5 30.5 152.5c0 62.667 -14.667 117.667 -44 165l150 138h-147l-68 -63c-27.333 22 -58.666 39.167 -93.999 51.5s-74.333 18.5 -117 18.5
c-62.667 0 -119.834 -11.833 -171.501 -35.5s-96 -54.834 -133 -93.501s-65.667 -82.834 -86 -132.501s-30.5 -100.5 -30.5 -152.5c0 -65.333 16.333 -123 49 -173l-142 -130h147l62 57c26.667 -20 57.167 -35.667 91.5 -47s71.833 -17 112.5 -17zM235.999 226
c-10 24 -15 51 -15 81c0 30.667 6 62 18 94s28.833 61 50.5 87s47.834 47.333 78.501 64s65 25 103 25c45.333 0 82.666 -10.667 111.999 -32zM403.999 123c-40.667 0 -75.332 8.66699 -103.999 26l343 316c7.33301 -23.333 11 -47.333 11 -72c0 -31.333 -6 -63 -18 -95
s-28.833 -61 -50.5 -87s-47.834 -47.167 -78.501 -63.5s-65 -24.5 -103 -24.5z" />
    <glyph glyph-name="Ugrave" unicode="&#xd9;" horiz-adv-x="764" 
d="M343 -11c52 0 97.501 7.16602 136.501 21.499s72.833 35.833 101.5 64.5c48 48 84 117.333 108 208l112 417h-154l-106 -395c-14.667 -56 -37.334 -99.333 -68.001 -130c-30.667 -29.333 -68.667 -44 -114 -44c-40 0 -70.333 10.667 -91 32s-31 49.333 -31 84
c0 14.667 1 28 3 40s4.66699 24 8 36l101 377h-154l-97 -363c-5.33301 -19.333 -9.5 -38.5 -12.5 -57.5s-4.5 -37.167 -4.5 -54.5c0 -37.333 6 -70.666 18 -99.999s29.333 -54 52 -74s50.167 -35.333 82.5 -46s68.833 -16 109.5 -16zM463.001 754.999h104l-65 177l-134 -57z
" />
    <glyph glyph-name="Uacute" unicode="&#xda;" horiz-adv-x="764" 
d="M343 -11c52 0 97.501 7.16602 136.501 21.499s72.833 35.833 101.5 64.5c48 48 84 117.333 108 208l112 417h-154l-106 -395c-14.667 -56 -37.334 -99.333 -68.001 -130c-30.667 -29.333 -68.667 -44 -114 -44c-40 0 -70.333 10.667 -91 32s-31 49.333 -31 84
c0 14.667 1 28 3 40s4.66699 24 8 36l101 377h-154l-97 -363c-5.33301 -19.333 -9.5 -38.5 -12.5 -57.5s-4.5 -37.167 -4.5 -54.5c0 -37.333 6 -70.666 18 -99.999s29.333 -54 52 -74s50.167 -35.333 82.5 -46s68.833 -16 109.5 -16zM418.001 754.999h128l161 120l-128 57z
" />
    <glyph glyph-name="Ucircumflex" unicode="&#xdb;" horiz-adv-x="764" 
d="M343 -11c52 0 97.501 7.16602 136.501 21.499s72.833 35.833 101.5 64.5c48 48 84 117.333 108 208l112 417h-154l-106 -395c-14.667 -56 -37.334 -99.333 -68.001 -130c-30.667 -29.333 -68.667 -44 -114 -44c-40 0 -70.333 10.667 -91 32s-31 49.333 -31 84
c0 14.667 1 28 3 40s4.66699 24 8 36l101 377h-154l-97 -363c-5.33301 -19.333 -9.5 -38.5 -12.5 -57.5s-4.5 -37.167 -4.5 -54.5c0 -37.333 6 -70.666 18 -99.999s29.333 -54 52 -74s50.167 -35.333 82.5 -46s68.833 -16 109.5 -16zM303.001 754.999h122l97 66l61 -66h110
l-81 157h-144z" />
    <glyph glyph-name="Udieresis" unicode="&#xdc;" horiz-adv-x="764" 
d="M343 -11c52 0 97.501 7.16602 136.501 21.499s72.833 35.833 101.5 64.5c48 48 84 117.333 108 208l112 417h-154l-106 -395c-14.667 -56 -37.334 -99.333 -68.001 -130c-30.667 -29.333 -68.667 -44 -114 -44c-40 0 -70.333 10.667 -91 32s-31 49.333 -31 84
c0 14.667 1 28 3 40s4.66699 24 8 36l101 377h-154l-97 -363c-5.33301 -19.333 -9.5 -38.5 -12.5 -57.5s-4.5 -37.167 -4.5 -54.5c0 -37.333 6 -70.666 18 -99.999s29.333 -54 52 -74s50.167 -35.333 82.5 -46s68.833 -16 109.5 -16zM545.001 754.999h146l37 135h-146z
M331.001 754.999h146l37 135h-146z" />
    <glyph glyph-name="Yacute" unicode="&#xdd;" horiz-adv-x="650" 
d="M169 0h154l71 262l383 438h-186l-240 -290l-82 290h-171l145 -424zM359 755h128l161 120l-128 57z" />
    <glyph glyph-name="Thorn" unicode="&#xde;" horiz-adv-x="689" 
d="M12 0h154.001l30 110h133c48 0 92.667 6 134 18s77.166 29.667 107.499 53s54.333 52 72 86s26.5 72.667 26.5 116c0 60 -18 108 -54 144c-25.333 25.333 -55.833 43.5 -91.5 54.5s-78.5 16.5 -128.5 16.5h-68l27 102h-154zM232.001 245l56.999 213.999h100
c23.333 0 42.5 -2.5 57.5 -7.5s27.833 -12.833 38.5 -23.5c15.333 -15.333 23 -34.666 23 -57.999c0 -40 -15.667 -70.833 -47 -92.5s-72.666 -32.5 -123.999 -32.5h-105z" />
    <glyph glyph-name="germandbls" unicode="&#xdf;" horiz-adv-x="632" 
d="M227 -2c59.333 -2 110.337 2.33008 153.004 12.9971s77.834 26 105.501 46s48.167 43.833 61.5 71.5s20 57.5 20 89.5c0 36.667 -10.333 66 -31 88s-45 39 -73 51c47.333 15.333 84.833 38.833 112.5 70.5s41.5 71.834 41.5 120.501c0 26.667 -4.83301 51.5 -14.5 74.5
s-23.834 43 -42.501 60s-41.334 30.333 -68.001 40s-57.334 14.5 -92.001 14.5c-37.333 0 -71.5 -6.16699 -102.5 -18.5s-57.167 -29.166 -78.5 -50.499c-20 -20 -37 -43.167 -51 -69.5s-26 -58.166 -36 -95.499l-135 -503h151l132 495c10 36.667 24.5 64.834 43.5 84.501
s42.833 29.5 71.5 29.5c21.333 0 39.833 -6.33301 55.5 -19s23.5 -31.667 23.5 -57c0 -29.333 -10.833 -55 -32.5 -77s-56.834 -38.667 -105.501 -50l-27 -100c43.333 -4.66699 73.333 -14.667 90 -30s25 -33.333 25 -54c0 -14.667 -2.83301 -28.5 -8.5 -41.5
s-14.834 -24.5 -27.501 -34.5s-29.667 -17.833 -51 -23.5s-47.333 -7.83398 -78 -6.50098z" />
    <glyph glyph-name="agrave" unicode="&#xe0;" horiz-adv-x="588" 
d="M163 -10c32 0 61.332 6.16895 87.999 18.502s50.667 30.166 72 53.499l-16 -62h147l79 296c3.33301 13.333 6.16602 26.666 8.49902 39.999s3.5 27 3.5 41c0 52.667 -18 93.334 -54 122.001s-90.333 43 -163 43c-38 0 -73.667 -3.5 -107 -10.5s-64 -16.167 -92 -27.5
l24 -120c19.333 8 41.5 14.833 66.5 20.5s50.5 8.5 76.5 8.5c38 0 64.333 -5.83301 79 -17.5s22 -26.834 22 -45.501c0 -8 -0.666992 -15.167 -2 -21.5l-4 -18.5l-2 -7c-22.667 7.33301 -46.167 13.166 -70.5 17.499s-51.166 6.5 -80.499 6.5
c-32.667 0 -63 -4.16699 -91 -12.5s-52.333 -20.833 -73 -37.5s-37 -37 -49 -61s-18 -51.333 -18 -82c0 -21.333 3.83301 -40.666 11.5 -57.999s18.334 -32.5 32.001 -45.5s30 -23 49 -30s40.167 -10.5 63.5 -10.5zM227.999 94.002
c-21.333 0 -38.332 5.33203 -50.999 15.999s-19 24.334 -19 41.001c0 26 10.167 46.5 30.5 61.5s46.5 22.5 78.5 22.5c18.667 0 36.667 -1.83301 54 -5.5s32.666 -8.16699 45.999 -13.5l-4 -14c-4 -14.667 -10.333 -28.5 -19 -41.5s-19 -24.5 -31 -34.5
s-25.167 -17.833 -39.5 -23.5s-29.5 -8.5 -45.5 -8.5zM333 595.001h104l-65 177l-134 -57z" />
    <glyph glyph-name="aacute" unicode="&#xe1;" horiz-adv-x="588" 
d="M163 -10c32 0 61.332 6.16895 87.999 18.502s50.667 30.166 72 53.499l-16 -62h147l79 296c3.33301 13.333 6.16602 26.666 8.49902 39.999s3.5 27 3.5 41c0 52.667 -18 93.334 -54 122.001s-90.333 43 -163 43c-38 0 -73.667 -3.5 -107 -10.5s-64 -16.167 -92 -27.5
l24 -120c19.333 8 41.5 14.833 66.5 20.5s50.5 8.5 76.5 8.5c38 0 64.333 -5.83301 79 -17.5s22 -26.834 22 -45.501c0 -8 -0.666992 -15.167 -2 -21.5l-4 -18.5l-2 -7c-22.667 7.33301 -46.167 13.166 -70.5 17.499s-51.166 6.5 -80.499 6.5
c-32.667 0 -63 -4.16699 -91 -12.5s-52.333 -20.833 -73 -37.5s-37 -37 -49 -61s-18 -51.333 -18 -82c0 -21.333 3.83301 -40.666 11.5 -57.999s18.334 -32.5 32.001 -45.5s30 -23 49 -30s40.167 -10.5 63.5 -10.5zM227.999 94.002
c-21.333 0 -38.332 5.33203 -50.999 15.999s-19 24.334 -19 41.001c0 26 10.167 46.5 30.5 61.5s46.5 22.5 78.5 22.5c18.667 0 36.667 -1.83301 54 -5.5s32.666 -8.16699 45.999 -13.5l-4 -14c-4 -14.667 -10.333 -28.5 -19 -41.5s-19 -24.5 -31 -34.5
s-25.167 -17.833 -39.5 -23.5s-29.5 -8.5 -45.5 -8.5zM284 595.001h128l161 120l-128 57z" />
    <glyph glyph-name="acircumflex" unicode="&#xe2;" horiz-adv-x="588" 
d="M163 -10c32 0 61.332 6.16895 87.999 18.502s50.667 30.166 72 53.499l-16 -62h147l79 296c3.33301 13.333 6.16602 26.666 8.49902 39.999s3.5 27 3.5 41c0 52.667 -18 93.334 -54 122.001s-90.333 43 -163 43c-38 0 -73.667 -3.5 -107 -10.5s-64 -16.167 -92 -27.5
l24 -120c19.333 8 41.5 14.833 66.5 20.5s50.5 8.5 76.5 8.5c38 0 64.333 -5.83301 79 -17.5s22 -26.834 22 -45.501c0 -8 -0.666992 -15.167 -2 -21.5l-4 -18.5l-2 -7c-22.667 7.33301 -46.167 13.166 -70.5 17.499s-51.166 6.5 -80.499 6.5
c-32.667 0 -63 -4.16699 -91 -12.5s-52.333 -20.833 -73 -37.5s-37 -37 -49 -61s-18 -51.333 -18 -82c0 -21.333 3.83301 -40.666 11.5 -57.999s18.334 -32.5 32.001 -45.5s30 -23 49 -30s40.167 -10.5 63.5 -10.5zM227.999 94.002
c-21.333 0 -38.332 5.33203 -50.999 15.999s-19 24.334 -19 41.001c0 26 10.167 46.5 30.5 61.5s46.5 22.5 78.5 22.5c18.667 0 36.667 -1.83301 54 -5.5s32.666 -8.16699 45.999 -13.5l-4 -14c-4 -14.667 -10.333 -28.5 -19 -41.5s-19 -24.5 -31 -34.5
s-25.167 -17.833 -39.5 -23.5s-29.5 -8.5 -45.5 -8.5zM179 595.001h122l97 66l61 -66h110l-81 157h-144z" />
    <glyph glyph-name="atilde" unicode="&#xe3;" horiz-adv-x="588" 
d="M163 -10c32 0 61.332 6.16895 87.999 18.502s50.667 30.166 72 53.499l-16 -62h147l79 296c3.33301 13.333 6.16602 26.666 8.49902 39.999s3.5 27 3.5 41c0 52.667 -18 93.334 -54 122.001s-90.333 43 -163 43c-38 0 -73.667 -3.5 -107 -10.5s-64 -16.167 -92 -27.5
l24 -120c19.333 8 41.5 14.833 66.5 20.5s50.5 8.5 76.5 8.5c38 0 64.333 -5.83301 79 -17.5s22 -26.834 22 -45.501c0 -8 -0.666992 -15.167 -2 -21.5l-4 -18.5l-2 -7c-22.667 7.33301 -46.167 13.166 -70.5 17.499s-51.166 6.5 -80.499 6.5
c-32.667 0 -63 -4.16699 -91 -12.5s-52.333 -20.833 -73 -37.5s-37 -37 -49 -61s-18 -51.333 -18 -82c0 -21.333 3.83301 -40.666 11.5 -57.999s18.334 -32.5 32.001 -45.5s30 -23 49 -30s40.167 -10.5 63.5 -10.5zM227.999 94.002
c-21.333 0 -38.332 5.33203 -50.999 15.999s-19 24.334 -19 41.001c0 26 10.167 46.5 30.5 61.5s46.5 22.5 78.5 22.5c18.667 0 36.667 -1.83301 54 -5.5s32.666 -8.16699 45.999 -13.5l-4 -14c-4 -14.667 -10.333 -28.5 -19 -41.5s-19 -24.5 -31 -34.5
s-25.167 -17.833 -39.5 -23.5s-29.5 -8.5 -45.5 -8.5zM246 588.001c9.33301 17.333 19.5 31.5 30.5 42.5s24.167 16.5 39.5 16.5c8 0 15.5 -2 22.5 -6s17.167 -10.667 30.5 -20c12 -8.66699 23.833 -15.667 35.5 -21s26.167 -8 43.5 -8c32 0 61.167 12.333 87.5 37
s48.166 56.667 65.499 96l-80 40c-9.33301 -17.333 -19.5 -31.5 -30.5 -42.5s-24.167 -16.5 -39.5 -16.5c-8 0 -15.5 2 -22.5 6s-17.167 10.667 -30.5 20c-11.333 8.66699 -23 15.667 -35 21s-26.667 8 -44 8c-32 0 -61.167 -12.333 -87.5 -37s-48.166 -56.667 -65.499 -96z
" />
    <glyph glyph-name="adieresis" unicode="&#xe4;" horiz-adv-x="588" 
d="M163 -10c32 0 61.332 6.16895 87.999 18.502s50.667 30.166 72 53.499l-16 -62h147l79 296c3.33301 13.333 6.16602 26.666 8.49902 39.999s3.5 27 3.5 41c0 52.667 -18 93.334 -54 122.001s-90.333 43 -163 43c-38 0 -73.667 -3.5 -107 -10.5s-64 -16.167 -92 -27.5
l24 -120c19.333 8 41.5 14.833 66.5 20.5s50.5 8.5 76.5 8.5c38 0 64.333 -5.83301 79 -17.5s22 -26.834 22 -45.501c0 -8 -0.666992 -15.167 -2 -21.5l-4 -18.5l-2 -7c-22.667 7.33301 -46.167 13.166 -70.5 17.499s-51.166 6.5 -80.499 6.5
c-32.667 0 -63 -4.16699 -91 -12.5s-52.333 -20.833 -73 -37.5s-37 -37 -49 -61s-18 -51.333 -18 -82c0 -21.333 3.83301 -40.666 11.5 -57.999s18.334 -32.5 32.001 -45.5s30 -23 49 -30s40.167 -10.5 63.5 -10.5zM227.999 94.002
c-21.333 0 -38.332 5.33203 -50.999 15.999s-19 24.334 -19 41.001c0 26 10.167 46.5 30.5 61.5s46.5 22.5 78.5 22.5c18.667 0 36.667 -1.83301 54 -5.5s32.666 -8.16699 45.999 -13.5l-4 -14c-4 -14.667 -10.333 -28.5 -19 -41.5s-19 -24.5 -31 -34.5
s-25.167 -17.833 -39.5 -23.5s-29.5 -8.5 -45.5 -8.5zM409 595.001h146l37 135h-146zM195 595.001h146l37 135h-146z" />
    <glyph glyph-name="aring" unicode="&#xe5;" horiz-adv-x="588" 
d="M163 -10c32 0 61.332 6.16895 87.999 18.502s50.667 30.166 72 53.499l-16 -62h147l79 296c3.33301 13.333 6.16602 26.666 8.49902 39.999s3.5 27 3.5 41c0 52.667 -18 93.334 -54 122.001s-90.333 43 -163 43c-38 0 -73.667 -3.5 -107 -10.5s-64 -16.167 -92 -27.5
l24 -120c19.333 8 41.5 14.833 66.5 20.5s50.5 8.5 76.5 8.5c38 0 64.333 -5.83301 79 -17.5s22 -26.834 22 -45.501c0 -8 -0.666992 -15.167 -2 -21.5l-4 -18.5l-2 -7c-22.667 7.33301 -46.167 13.166 -70.5 17.499s-51.166 6.5 -80.499 6.5
c-32.667 0 -63 -4.16699 -91 -12.5s-52.333 -20.833 -73 -37.5s-37 -37 -49 -61s-18 -51.333 -18 -82c0 -21.333 3.83301 -40.666 11.5 -57.999s18.334 -32.5 32.001 -45.5s30 -23 49 -30s40.167 -10.5 63.5 -10.5zM227.999 94.002
c-21.333 0 -38.332 5.33203 -50.999 15.999s-19 24.334 -19 41.001c0 26 10.167 46.5 30.5 61.5s46.5 22.5 78.5 22.5c18.667 0 36.667 -1.83301 54 -5.5s32.666 -8.16699 45.999 -13.5l-4 -14c-4 -14.667 -10.333 -28.5 -19 -41.5s-19 -24.5 -31 -34.5
s-25.167 -17.833 -39.5 -23.5s-29.5 -8.5 -45.5 -8.5zM391 593.001c18.667 0 36.167 3.66699 52.5 11s30.5 17 42.5 29s21.5 26.167 28.5 42.5s10.5 33.5 10.5 51.5c0 29.333 -9.83301 54 -29.5 74s-46.5 30 -80.5 30c-18.667 0 -36.167 -3.66699 -52.5 -11
s-30.5 -17 -42.5 -29s-21.5 -26.167 -28.5 -42.5s-10.5 -33.5 -10.5 -51.5c0 -29.333 9.83301 -54 29.5 -74s46.5 -30 80.5 -30zM393 648.001c-15.333 0 -27.166 4.83301 -35.499 14.5s-12.5 21.5 -12.5 35.5c0 10 1.66699 19.667 5 29s8 17.666 14 24.999
s13.167 13.166 21.5 17.499s17.5 6.5 27.5 6.5c15.333 0 27.166 -4.83301 35.499 -14.5s12.5 -21.5 12.5 -35.5c0 -10 -1.66699 -19.667 -5 -29s-8 -17.666 -14 -24.999s-13.167 -13.166 -21.5 -17.499s-17.5 -6.5 -27.5 -6.5z" />
    <glyph glyph-name="ae" unicode="&#xe6;" horiz-adv-x="940" 
d="M418 91c20 -34.667 47.501 -60.501 82.501 -77.501s75.5 -25.5 121.5 -25.5c44 0 83.667 6.66699 119 20s64.333 30.333 87 51l-70 94c-22 -15.333 -42.333 -26.333 -61 -33s-38 -10 -58 -10c-40 0 -69.667 9.5 -89 28.5s-30.333 44.5 -33 76.5h367
c8.66699 20.667 15.334 41.334 20.001 62.001s7 40.667 7 60c0 30 -4.83301 57.667 -14.5 83s-23.667 47.333 -42 66s-40.833 33.334 -67.5 44.001s-56.667 16 -90 16c-38.667 0 -74.334 -7.66699 -107.001 -23s-61.334 -35.333 -86.001 -60
c-14.667 25.333 -36.667 44.833 -66 58.5s-66 20.5 -110 20.5c-38 0 -73.667 -3.5 -107 -10.5s-64 -16.167 -92 -27.5l24 -120c19.333 8 41.5 14.833 66.5 20.5s50.5 8.5 76.5 8.5c38 0 64.333 -5.83301 79 -17.5s22 -26.834 22 -45.501c0 -8 -0.666992 -15.167 -2 -21.5
l-4 -18.5l-2 -7c-22.667 7.33301 -46.167 13.166 -70.5 17.499s-51.166 6.5 -80.499 6.5c-32.667 0 -63 -4.16699 -91 -12.5s-52.333 -20.833 -73 -37.5s-37 -37 -49 -61s-18 -51.333 -18 -82c0 -43.333 14.667 -78.166 44 -104.499s71.666 -39.5 126.999 -39.5
c48.667 0 93 8.83301 133 26.5s75.667 42.5 107 74.5zM530.001 309.999c12.667 34 32.167 61.5 58.5 82.5s56.833 31.5 91.5 31.5c31.333 0 53.833 -7.66699 67.5 -23s20.5 -34 20.5 -56c0 -12 -1.66699 -23.667 -5 -35h-233zM386.001 207.999
c1.33301 -16.667 3.33301 -32.002 6 -46.002c-22 -22 -47.333 -38.833 -76 -50.5s-54.667 -17.5 -78 -17.5c-26.667 0 -46.667 5.33301 -60 16s-20 24.334 -20 41.001c0 26 10.167 46.5 30.5 61.5s46.5 22.5 78.5 22.5c20 0 39.5 -2.16699 58.5 -6.5
s39.167 -11.166 60.5 -20.499z" />
    <glyph glyph-name="ccedilla" unicode="&#xe7;" horiz-adv-x="560" 
d="M296 -12c44.667 0.666992 82.332 8.49805 112.999 23.498s59.667 34.833 87 59.5l-78 99c-20 -17.333 -39.333 -30.5 -58 -39.5s-39.667 -13.5 -63 -13.5c-30 0 -55 10.167 -75 30.5s-30 47.833 -30 82.5c0 24.667 4.33301 48.334 13 71.001s20 42.5 34 59.5
s30.333 30.5 49 40.5s38 15 58 15c30 0 53.5 -6.5 70.5 -19.5s32.167 -29.833 45.5 -50.5l116 82c-9.33301 16 -20.5 31.167 -33.5 45.5s-28.333 26.833 -46 37.5s-38.167 19.167 -61.5 25.5s-49.666 9.5 -78.999 9.5c-42.667 0 -83.167 -8.33301 -121.5 -25
s-71.833 -39.167 -100.5 -67.5s-51.5 -61.666 -68.5 -99.999s-25.5 -79.5 -25.5 -123.5c0 -55.333 13.667 -102.5 41 -141.5s64.333 -67.167 111 -84.5l-119 -124l113 -53z" />
    <glyph glyph-name="egrave" unicode="&#xe8;" horiz-adv-x="607" 
d="M184 215l367 -0.00488281c8.66699 20.667 15.334 41.334 20.001 62.001s7 40.667 7 60c0 30 -4.83301 57.667 -14.5 83s-23.834 47.333 -42.501 66s-41.667 33.334 -69 44.001s-58.333 16 -93 16c-48 0 -91.5 -9.33301 -130.5 -28s-72.5 -43.167 -100.5 -73.5
s-49.5 -64.666 -64.5 -102.999s-22.5 -76.833 -22.5 -115.5c0 -37.333 5.66699 -70.666 17 -99.999s27.666 -54.166 48.999 -74.499s47.333 -36 78 -47s65.334 -16.5 104.001 -16.5c46 0 85.833 6.83301 119.5 20.5s62.5 30.5 86.5 50.5l-70 94
c-22 -15.333 -42.333 -26.333 -61 -33s-38 -10 -58 -10c-40 0 -69.667 9.5 -89 28.5s-30.333 44.5 -33 76.5zM197 309.995c12.667 34 32.167 61.5 58.5 82.5s56.833 31.5 91.5 31.5c31.333 0 53.833 -7.66699 67.5 -23s20.5 -34 20.5 -56c0 -12 -1.66699 -23.667 -5 -35
h-233zM340 594.995h104l-65 177l-134 -57z" />
    <glyph glyph-name="eacute" unicode="&#xe9;" horiz-adv-x="607" 
d="M184 215l367 -0.00488281c8.66699 20.667 15.334 41.334 20.001 62.001s7 40.667 7 60c0 30 -4.83301 57.667 -14.5 83s-23.834 47.333 -42.501 66s-41.667 33.334 -69 44.001s-58.333 16 -93 16c-48 0 -91.5 -9.33301 -130.5 -28s-72.5 -43.167 -100.5 -73.5
s-49.5 -64.666 -64.5 -102.999s-22.5 -76.833 -22.5 -115.5c0 -37.333 5.66699 -70.666 17 -99.999s27.666 -54.166 48.999 -74.499s47.333 -36 78 -47s65.334 -16.5 104.001 -16.5c46 0 85.833 6.83301 119.5 20.5s62.5 30.5 86.5 50.5l-70 94
c-22 -15.333 -42.333 -26.333 -61 -33s-38 -10 -58 -10c-40 0 -69.667 9.5 -89 28.5s-30.333 44.5 -33 76.5zM197 309.995c12.667 34 32.167 61.5 58.5 82.5s56.833 31.5 91.5 31.5c31.333 0 53.833 -7.66699 67.5 -23s20.5 -34 20.5 -56c0 -12 -1.66699 -23.667 -5 -35
h-233zM286 594.995h128l161 120l-128 57z" />
    <glyph glyph-name="ecircumflex" unicode="&#xea;" horiz-adv-x="607" 
d="M184 215l367 -0.00488281c8.66699 20.667 15.334 41.334 20.001 62.001s7 40.667 7 60c0 30 -4.83301 57.667 -14.5 83s-23.834 47.333 -42.501 66s-41.667 33.334 -69 44.001s-58.333 16 -93 16c-48 0 -91.5 -9.33301 -130.5 -28s-72.5 -43.167 -100.5 -73.5
s-49.5 -64.666 -64.5 -102.999s-22.5 -76.833 -22.5 -115.5c0 -37.333 5.66699 -70.666 17 -99.999s27.666 -54.166 48.999 -74.499s47.333 -36 78 -47s65.334 -16.5 104.001 -16.5c46 0 85.833 6.83301 119.5 20.5s62.5 30.5 86.5 50.5l-70 94
c-22 -15.333 -42.333 -26.333 -61 -33s-38 -10 -58 -10c-40 0 -69.667 9.5 -89 28.5s-30.333 44.5 -33 76.5zM197 309.995c12.667 34 32.167 61.5 58.5 82.5s56.833 31.5 91.5 31.5c31.333 0 53.833 -7.66699 67.5 -23s20.5 -34 20.5 -56c0 -12 -1.66699 -23.667 -5 -35
h-233zM183 594.995h122l97 66l61 -66h110l-81 157h-144z" />
    <glyph glyph-name="edieresis" unicode="&#xeb;" horiz-adv-x="607" 
d="M184 215l367 -0.00488281c8.66699 20.667 15.334 41.334 20.001 62.001s7 40.667 7 60c0 30 -4.83301 57.667 -14.5 83s-23.834 47.333 -42.501 66s-41.667 33.334 -69 44.001s-58.333 16 -93 16c-48 0 -91.5 -9.33301 -130.5 -28s-72.5 -43.167 -100.5 -73.5
s-49.5 -64.666 -64.5 -102.999s-22.5 -76.833 -22.5 -115.5c0 -37.333 5.66699 -70.666 17 -99.999s27.666 -54.166 48.999 -74.499s47.333 -36 78 -47s65.334 -16.5 104.001 -16.5c46 0 85.833 6.83301 119.5 20.5s62.5 30.5 86.5 50.5l-70 94
c-22 -15.333 -42.333 -26.333 -61 -33s-38 -10 -58 -10c-40 0 -69.667 9.5 -89 28.5s-30.333 44.5 -33 76.5zM197 309.995c12.667 34 32.167 61.5 58.5 82.5s56.833 31.5 91.5 31.5c31.333 0 53.833 -7.66699 67.5 -23s20.5 -34 20.5 -56c0 -12 -1.66699 -23.667 -5 -35
h-233zM416 594.995h146l37 135h-146zM202 594.995h146l37 135h-146z" />
    <glyph glyph-name="igrave" unicode="&#xec;" horiz-adv-x="302" 
d="M3 0h152l144 536h-152zM207 595h104l-65 177l-134 -57z" />
    <glyph glyph-name="iacute" unicode="&#xed;" horiz-adv-x="302" 
d="M3 0h152l144 536h-152zM149 595h128l161 120l-128 57z" />
    <glyph glyph-name="icircumflex" unicode="&#xee;" horiz-adv-x="302" 
d="M3 0h152l144 536h-152zM38 595h122l97 66l61 -66h110l-81 157h-144z" />
    <glyph glyph-name="idieresis" unicode="&#xef;" horiz-adv-x="302" 
d="M3 0h152l144 536h-152zM271 595h146l37 135h-146zM57 595h146l37 135h-146z" />
    <glyph glyph-name="eth" unicode="&#xf0;" horiz-adv-x="638" 
d="M286 -12c48.667 0 92.0029 8.83301 130.003 26.5s70.167 42 96.5 73s46.333 67 60 108s20.5 85.167 20.5 132.5c0 37.333 -3.66699 72.5 -11 105.5s-18.333 66.167 -33 99.5l-38 86l120 44l-35 75l-118 -43l-16 35h-150l38 -82l-137 -50l36 -75l135 49l67 -145
c-20.667 19.333 -42.834 34 -66.501 44s-51.834 15 -84.501 15c-36 0 -69.833 -6.83301 -101.5 -20.5s-59.334 -32.334 -83.001 -56.001s-42.5 -51.5 -56.5 -83.5s-21 -66.333 -21 -103c0 -35.333 6 -67.5 18 -96.5s29 -53.667 51 -74s48.167 -36.166 78.5 -47.499
s63.833 -17 100.5 -17zM295.003 116c-32 0 -58.666 10.168 -79.999 30.501s-32 48.833 -32 85.5c0 19.333 3.66699 37.833 11 55.5s17.333 33.167 30 46.5s27.667 24 45 32s36.333 12 57 12c34 0 61.333 -10.5 82 -31.5s31 -48.5 31 -82.5
c0 -18.667 -3.5 -36.834 -10.5 -54.501s-16.833 -33.5 -29.5 -47.5s-27.834 -25.167 -45.501 -33.5s-37.167 -12.5 -58.5 -12.5z" />
    <glyph glyph-name="ntilde" unicode="&#xf1;" horiz-adv-x="619" 
d="M-3 0l151.999 -0.00292969l81 301c8.66699 32 22.667 57.833 42 77.5s44 29.5 74 29.5c23.333 0 41.5 -5.66699 54.5 -17s19.5 -27.666 19.5 -48.999c0 -6.66699 -0.666992 -14.5 -2 -23.5s-3 -17.167 -5 -24.5l-79 -294h152l77 288
c4.66699 17.333 8.83398 34.833 12.501 52.5s5.5 34.167 5.5 49.5c0 48.667 -14.333 86.834 -43 114.501s-67 41.5 -115 41.5c-30 0 -57 -6.66699 -81 -20s-45.667 -28.666 -65 -45.999l15 56h-152zM261.999 587.997c9.33301 17.333 19.5 31.5 30.5 42.5
s24.167 16.5 39.5 16.5c8 0 15.5 -2 22.5 -6s17.167 -10.667 30.5 -20c12 -8.66699 23.833 -15.667 35.5 -21s26.167 -8 43.5 -8c32 0 61.167 12.333 87.5 37s48.166 56.667 65.499 96l-80 40c-9.33301 -17.333 -19.5 -31.5 -30.5 -42.5s-24.167 -16.5 -39.5 -16.5
c-8 0 -15.5 2 -22.5 6s-17.167 10.667 -30.5 20c-11.333 8.66699 -23 15.667 -35 21s-26.667 8 -44 8c-32 0 -61.167 -12.333 -87.5 -37s-48.166 -56.667 -65.499 -96z" />
    <glyph glyph-name="ograve" unicode="&#xf2;" horiz-adv-x="652" 
d="M300 -12c42.667 0 82.833 8.66699 120.5 26s70.5 40.333 98.5 69s50.167 61.667 66.5 99s24.5 76 24.5 116c0 36 -6 69.167 -18 99.5s-29.167 56.5 -51.5 78.5s-49.333 39.167 -81 51.5s-67.5 18.5 -107.5 18.5c-43.333 0 -83.833 -8.66699 -121.5 -26
s-70.5 -40.333 -98.5 -69s-50 -61.667 -66 -99s-24 -76 -24 -116c0 -36 6 -69.167 18 -99.5s29.167 -56.5 51.5 -78.5s49.333 -39.167 81 -51.5s67.5 -18.5 107.5 -18.5zM306.999 118c-34.667 0 -62.667 10.5 -84 31.5s-32 51.167 -32 90.5c0 18.667 3.66699 38.5 11 59.5
s17.666 40 30.999 57s29.5 31.167 48.5 42.5s40.167 17 63.5 17c34.667 0 62.667 -10.5 84 -31.5s32 -51.167 32 -90.5c0 -19.333 -3.66699 -39.333 -11 -60s-17.666 -39.5 -30.999 -56.5s-29.5 -31.167 -48.5 -42.5s-40.167 -17 -63.5 -17zM349.999 595h104l-65 177
l-134 -57z" />
    <glyph glyph-name="oacute" unicode="&#xf3;" horiz-adv-x="652" 
d="M300 -12c42.667 0 82.833 8.66699 120.5 26s70.5 40.333 98.5 69s50.167 61.667 66.5 99s24.5 76 24.5 116c0 36 -6 69.167 -18 99.5s-29.167 56.5 -51.5 78.5s-49.333 39.167 -81 51.5s-67.5 18.5 -107.5 18.5c-43.333 0 -83.833 -8.66699 -121.5 -26
s-70.5 -40.333 -98.5 -69s-50 -61.667 -66 -99s-24 -76 -24 -116c0 -36 6 -69.167 18 -99.5s29.167 -56.5 51.5 -78.5s49.333 -39.167 81 -51.5s67.5 -18.5 107.5 -18.5zM306.999 118c-34.667 0 -62.667 10.5 -84 31.5s-32 51.167 -32 90.5c0 18.667 3.66699 38.5 11 59.5
s17.666 40 30.999 57s29.5 31.167 48.5 42.5s40.167 17 63.5 17c34.667 0 62.667 -10.5 84 -31.5s32 -51.167 32 -90.5c0 -19.333 -3.66699 -39.333 -11 -60s-17.666 -39.5 -30.999 -56.5s-29.5 -31.167 -48.5 -42.5s-40.167 -17 -63.5 -17zM286.999 595h128l161 120
l-128 57z" />
    <glyph glyph-name="ocircumflex" unicode="&#xf4;" horiz-adv-x="652" 
d="M300 -12c42.667 0 82.833 8.66699 120.5 26s70.5 40.333 98.5 69s50.167 61.667 66.5 99s24.5 76 24.5 116c0 36 -6 69.167 -18 99.5s-29.167 56.5 -51.5 78.5s-49.333 39.167 -81 51.5s-67.5 18.5 -107.5 18.5c-43.333 0 -83.833 -8.66699 -121.5 -26
s-70.5 -40.333 -98.5 -69s-50 -61.667 -66 -99s-24 -76 -24 -116c0 -36 6 -69.167 18 -99.5s29.167 -56.5 51.5 -78.5s49.333 -39.167 81 -51.5s67.5 -18.5 107.5 -18.5zM306.999 118c-34.667 0 -62.667 10.5 -84 31.5s-32 51.167 -32 90.5c0 18.667 3.66699 38.5 11 59.5
s17.666 40 30.999 57s29.5 31.167 48.5 42.5s40.167 17 63.5 17c34.667 0 62.667 -10.5 84 -31.5s32 -51.167 32 -90.5c0 -19.333 -3.66699 -39.333 -11 -60s-17.666 -39.5 -30.999 -56.5s-29.5 -31.167 -48.5 -42.5s-40.167 -17 -63.5 -17zM187.999 595h122l97 66l61 -66
h110l-81 157h-144z" />
    <glyph glyph-name="otilde" unicode="&#xf5;" horiz-adv-x="652" 
d="M300 -12c42.667 0 82.833 8.66699 120.5 26s70.5 40.333 98.5 69s50.167 61.667 66.5 99s24.5 76 24.5 116c0 36 -6 69.167 -18 99.5s-29.167 56.5 -51.5 78.5s-49.333 39.167 -81 51.5s-67.5 18.5 -107.5 18.5c-43.333 0 -83.833 -8.66699 -121.5 -26
s-70.5 -40.333 -98.5 -69s-50 -61.667 -66 -99s-24 -76 -24 -116c0 -36 6 -69.167 18 -99.5s29.167 -56.5 51.5 -78.5s49.333 -39.167 81 -51.5s67.5 -18.5 107.5 -18.5zM306.999 118c-34.667 0 -62.667 10.5 -84 31.5s-32 51.167 -32 90.5c0 18.667 3.66699 38.5 11 59.5
s17.666 40 30.999 57s29.5 31.167 48.5 42.5s40.167 17 63.5 17c34.667 0 62.667 -10.5 84 -31.5s32 -51.167 32 -90.5c0 -19.333 -3.66699 -39.333 -11 -60s-17.666 -39.5 -30.999 -56.5s-29.5 -31.167 -48.5 -42.5s-40.167 -17 -63.5 -17zM254.999 588
c9.33301 17.333 19.5 31.5 30.5 42.5s24.167 16.5 39.5 16.5c8 0 15.5 -2 22.5 -6s17.167 -10.667 30.5 -20c12 -8.66699 23.833 -15.667 35.5 -21s26.167 -8 43.5 -8c32 0 61.167 12.333 87.5 37s48.166 56.667 65.499 96l-80 40c-9.33301 -17.333 -19.5 -31.5 -30.5 -42.5
s-24.167 -16.5 -39.5 -16.5c-8 0 -15.5 2 -22.5 6s-17.167 10.667 -30.5 20c-11.333 8.66699 -23 15.667 -35 21s-26.667 8 -44 8c-32 0 -61.167 -12.333 -87.5 -37s-48.166 -56.667 -65.499 -96z" />
    <glyph glyph-name="odieresis" unicode="&#xf6;" horiz-adv-x="652" 
d="M300 -12c42.667 0 82.833 8.66699 120.5 26s70.5 40.333 98.5 69s50.167 61.667 66.5 99s24.5 76 24.5 116c0 36 -6 69.167 -18 99.5s-29.167 56.5 -51.5 78.5s-49.333 39.167 -81 51.5s-67.5 18.5 -107.5 18.5c-43.333 0 -83.833 -8.66699 -121.5 -26
s-70.5 -40.333 -98.5 -69s-50 -61.667 -66 -99s-24 -76 -24 -116c0 -36 6 -69.167 18 -99.5s29.167 -56.5 51.5 -78.5s49.333 -39.167 81 -51.5s67.5 -18.5 107.5 -18.5zM306.999 118c-34.667 0 -62.667 10.5 -84 31.5s-32 51.167 -32 90.5c0 18.667 3.66699 38.5 11 59.5
s17.666 40 30.999 57s29.5 31.167 48.5 42.5s40.167 17 63.5 17c34.667 0 62.667 -10.5 84 -31.5s32 -51.167 32 -90.5c0 -19.333 -3.66699 -39.333 -11 -60s-17.666 -39.5 -30.999 -56.5s-29.5 -31.167 -48.5 -42.5s-40.167 -17 -63.5 -17zM419.999 595h146l37 135h-146z
M205.999 595h146l37 135h-146z" />
    <glyph glyph-name="oslash" unicode="&#xf8;" horiz-adv-x="652" 
d="M300 -12c42.667 0 82.832 8.66699 120.499 26s70.5 40.333 98.5 69s50.167 61.667 66.5 99s24.5 76 24.5 116c0 50 -11.333 94 -34 132l122 111h-133l-49 -45c-21.333 16 -45.666 28.333 -72.999 37s-57.666 13 -90.999 13c-43.333 0 -83.833 -8.66699 -121.5 -26
s-70.5 -40.333 -98.5 -69s-50 -61.667 -66 -99s-24 -76 -24 -116c0 -46.667 10.333 -89 31 -127l-126 -114h133l51 46c21.333 -16.667 46.166 -29.667 74.499 -39s59.833 -14 94.5 -14zM188.998 205c-2 10.667 -3.00098 22.333 -3.00098 35
c0 19.333 3.83301 39.666 11.5 60.999s18.5 40.833 32.5 58.5s31 32.334 51 44.001s42.667 17.5 68 17.5c24.667 0 45.334 -4.66699 62.001 -14zM302.997 112.999c-26 0 -48.333 5.66602 -67 16.999l226 206c1.33301 -6 2.33301 -12.667 3 -20s1 -14.666 1 -21.999
c0 -19.333 -3.83301 -39.666 -11.5 -60.999s-18.5 -40.833 -32.5 -58.5s-31 -32.334 -51 -44.001s-42.667 -17.5 -68 -17.5z" />
    <glyph glyph-name="ugrave" unicode="&#xf9;" horiz-adv-x="622" 
d="M199 -10c30 0 57.001 6.66992 81.001 20.0029s45.667 28.666 65 45.999l-15 -56h152l143 536h-152l-81 -301c-8.66699 -32 -22.667 -57.833 -42 -77.5s-44 -29.5 -74 -29.5c-23.333 0 -41.5 5.66699 -54.5 17s-19.5 27.666 -19.5 48.999c0 6.66699 0.666992 14.5 2 23.5
s3 17.167 5 24.5l79 294h-152l-77 -288c-4.66699 -17.333 -8.83398 -34.833 -12.501 -52.5s-5.5 -34.167 -5.5 -49.5c0 -48.667 14.333 -86.834 43 -114.501s67 -41.5 115 -41.5zM368.001 595.003h104l-65 177l-134 -57z" />
    <glyph glyph-name="uacute" unicode="&#xfa;" horiz-adv-x="622" 
d="M199 -10c30 0 57.001 6.66992 81.001 20.0029s45.667 28.666 65 45.999l-15 -56h152l143 536h-152l-81 -301c-8.66699 -32 -22.667 -57.833 -42 -77.5s-44 -29.5 -74 -29.5c-23.333 0 -41.5 5.66699 -54.5 17s-19.5 27.666 -19.5 48.999c0 6.66699 0.666992 14.5 2 23.5
s3 17.167 5 24.5l79 294h-152l-77 -288c-4.66699 -17.333 -8.83398 -34.833 -12.501 -52.5s-5.5 -34.167 -5.5 -49.5c0 -48.667 14.333 -86.834 43 -114.501s67 -41.5 115 -41.5zM299.001 595.003h128l161 120l-128 57z" />
    <glyph glyph-name="ucircumflex" unicode="&#xfb;" horiz-adv-x="622" 
d="M199 -10c30 0 57.001 6.66992 81.001 20.0029s45.667 28.666 65 45.999l-15 -56h152l143 536h-152l-81 -301c-8.66699 -32 -22.667 -57.833 -42 -77.5s-44 -29.5 -74 -29.5c-23.333 0 -41.5 5.66699 -54.5 17s-19.5 27.666 -19.5 48.999c0 6.66699 0.666992 14.5 2 23.5
s3 17.167 5 24.5l79 294h-152l-77 -288c-4.66699 -17.333 -8.83398 -34.833 -12.501 -52.5s-5.5 -34.167 -5.5 -49.5c0 -48.667 14.333 -86.834 43 -114.501s67 -41.5 115 -41.5zM195.001 595.003h122l97 66l61 -66h110l-81 157h-144z" />
    <glyph glyph-name="udieresis" unicode="&#xfc;" horiz-adv-x="622" 
d="M199 -10c30 0 57.001 6.66992 81.001 20.0029s45.667 28.666 65 45.999l-15 -56h152l143 536h-152l-81 -301c-8.66699 -32 -22.667 -57.833 -42 -77.5s-44 -29.5 -74 -29.5c-23.333 0 -41.5 5.66699 -54.5 17s-19.5 27.666 -19.5 48.999c0 6.66699 0.666992 14.5 2 23.5
s3 17.167 5 24.5l79 294h-152l-77 -288c-4.66699 -17.333 -8.83398 -34.833 -12.501 -52.5s-5.5 -34.167 -5.5 -49.5c0 -48.667 14.333 -86.834 43 -114.501s67 -41.5 115 -41.5zM428.001 595.003h146l37 135h-146zM214.001 595.003h146l37 135h-146z" />
    <glyph glyph-name="yacute" unicode="&#xfd;" horiz-adv-x="592" 
d="M85 -163c45.333 0 85.1689 11.167 119.502 33.5s68.166 61.166 101.499 116.499l332 549h-164l-201 -364l-25 364h-155l66 -540c-10.667 -13.333 -20.334 -22.166 -29.001 -26.499s-18.667 -6.5 -30 -6.5c-10 0 -20.333 2 -31 6s-20 9 -28 15l-81 -110
c16.667 -11.333 34.667 -20.333 54 -27s43 -10 71 -10zM295.003 595h128l161 120l-128 57z" />
    <glyph glyph-name="thorn" unicode="&#xfe;" horiz-adv-x="674" 
d="M-46 -160l152 -0.000976562l63 238c17.333 -26.667 39.166 -48 65.499 -64s60.5 -24 102.5 -24c38 0 74.667 8 110 24s66.833 38.5 94.5 67.5s49.834 63.5 66.501 103.5s25 83.667 25 131c0 36 -5.16699 68.333 -15.5 97s-24.833 52.834 -43.5 72.501
s-40.5 34.667 -65.5 45s-52.167 15.5 -81.5 15.5c-30 0 -56.833 -6 -80.5 -18s-47.167 -28.667 -70.5 -50l68 252h-152zM317 117.999c-34 0 -61.666 10.5 -82.999 31.5s-32 48.5 -32 82.5c0 25.333 4.5 49.333 13.5 72s21 42.5 36 59.5s32.167 30.333 51.5 40
s39.666 14.5 60.999 14.5c34 0 61.167 -9.83301 81.5 -29.5s30.5 -47.167 30.5 -82.5c0 -27.333 -4.5 -52.333 -13.5 -75s-20.833 -42.5 -35.5 -59.5s-31.5 -30.167 -50.5 -39.5s-38.833 -14 -59.5 -14z" />
    <glyph glyph-name="ydieresis" unicode="&#xff;" horiz-adv-x="592" 
d="M85 -163c45.333 0 85.1689 11.167 119.502 33.5s68.166 61.166 101.499 116.499l332 549h-164l-201 -364l-25 364h-155l66 -540c-10.667 -13.333 -20.334 -22.166 -29.001 -26.499s-18.667 -6.5 -30 -6.5c-10 0 -20.333 2 -31 6s-20 9 -28 15l-81 -110
c16.667 -11.333 34.667 -20.333 54 -27s43 -10 71 -10zM403.003 595h146l37 135h-146zM189.003 595h146l37 135h-146z" />
    <glyph glyph-name="dotlessi" unicode="&#x131;" horiz-adv-x="302" 
d="M3 0h152l144 536h-152z" />
    <glyph glyph-name="Lslash" unicode="&#x141;" horiz-adv-x="657" 
d="M43 0h503l38 140h-354l45 167l210 58l38 143l-210 -58l67 250h-149l-79 -295l-81 -22l-39 -143l81 22z" />
    <glyph glyph-name="lslash" unicode="&#x142;" horiz-adv-x="359" 
d="M34 0h152l87 325l81 22l38 143l-81 -22l71 262h-152l-83 -308l-81 -22l-38 -143l81 22z" />
    <glyph glyph-name="OE" unicode="&#x152;" horiz-adv-x="1071" 
d="M417 0l529 0.000976562l37 137h-356l40 148h305l37 135h-305l38 143h350l37 137h-580c-81.333 0 -152.333 -11 -213 -33s-112 -54 -154 -96c-38 -38 -66.667 -80.333 -86 -127s-29 -96.334 -29 -149.001c0 -42.667 6.16699 -81 18.5 -115s29.833 -62.333 52.5 -85
c30 -30 67 -53.333 111 -70s100 -25 168 -25zM429 139.001c-40 0 -73.001 4.66797 -99.001 14.001s-46.667 21.666 -62 36.999c-27.333 27.333 -41 64.333 -41 111c0 34 6 66 18 96s29.333 56.333 52 79c28 28 62.333 49.167 103 63.5s84.334 21.5 131.001 21.5h57
l-114 -422h-45z" />
    <glyph glyph-name="oe" unicode="&#x153;" horiz-adv-x="1028" 
d="M605 215l367.001 -0.00195312c8.66699 20.667 15.334 41.334 20.001 62.001s7 40.667 7 60c0 30 -4.83301 57.667 -14.5 83s-23.834 47.333 -42.501 66s-41.667 33.334 -69 44.001s-58.333 16 -93 16c-48 0 -90.667 -9.66699 -128 -29s-68.666 -45 -93.999 -77
c-18 32.667 -44.333 58.5 -79 77.5s-77.334 28.5 -128.001 28.5c-43.333 0 -83.833 -8.5 -121.5 -25.5s-70.334 -39.833 -98.001 -68.5s-49.5 -61.667 -65.5 -99s-24 -76.333 -24 -117c0 -36 6 -69.167 18 -99.5s29.333 -56.5 52 -78.5s49.834 -39.167 81.501 -51.5
s67.5 -18.5 107.5 -18.5c44 0 83.667 8.83301 119 26.5s65.666 41.5 90.999 71.5c18 -32 43.667 -56.333 77 -73s74 -25 122 -25c44 0 83.667 6.66699 119 20s64.333 30.333 87 51l-70 94c-22 -15.333 -42.333 -26.333 -61 -33s-38 -10 -58 -10c-40 0 -69.667 9.5 -89 28.5
s-30.333 44.5 -33 76.5zM618.001 309.998c12.667 34 32.167 61.5 58.5 82.5s56.833 31.5 91.5 31.5c31.333 0 53.833 -7.66699 67.5 -23s20.5 -34 20.5 -56c0 -12 -1.66699 -23.667 -5 -35h-233zM306.001 117.998c-34.667 0 -62.5 11.333 -83.5 34
s-31.5 52.334 -31.5 89.001c0 20.667 3.66699 41.5 11 62.5s17.666 39.833 30.999 56.5s29.5 30.167 48.5 40.5s40.5 15.5 64.5 15.5c34.667 0 62.5 -11.333 83.5 -34s31.5 -52.334 31.5 -89.001c0 -20.667 -3.66699 -41.5 -11 -62.5s-17.666 -39.833 -30.999 -56.5
s-29.5 -30.167 -48.5 -40.5s-40.5 -15.5 -64.5 -15.5z" />
    <glyph glyph-name="Scaron" unicode="&#x160;" horiz-adv-x="636" 
d="M295 -10c36.667 0 71.8311 5.16895 105.498 15.502s63.167 25.5 88.5 45.5s45.666 44.5 60.999 73.5s23 61.833 23 98.5c0 25.333 -4.33301 47.666 -13 66.999s-20.5 36.333 -35.5 51s-32.667 27.667 -53 39s-42.5 22 -66.5 32s-43.833 18.667 -59.5 26
s-28.167 14.333 -37.5 21s-16 13.5 -20 20.5s-6 15.167 -6 24.5c0 17.333 8.83301 33.5 26.5 48.5s42.834 22.5 75.501 22.5c34 0 63.833 -6.33301 89.5 -19s51.834 -31.334 78.501 -56.001l106 106c-30 32 -66 57.333 -108 76s-93.333 28 -154 28
c-37.333 0 -72.833 -5.33301 -106.5 -16s-63.167 -26 -88.5 -46s-45.5 -44.167 -60.5 -72.5s-22.5 -60.5 -22.5 -96.5c0 -26 4.66699 -48.667 14 -68s22 -36.5 38 -51.5s34.333 -28 55 -39s42.334 -21.167 65.001 -30.5c23.333 -9.33301 42.666 -17.833 57.999 -25.5
s27.5 -15 36.5 -22s15.333 -14 19 -21s5.5 -14.833 5.5 -23.5c0 -22 -10 -39.667 -30 -53s-45.667 -20 -77 -20c-40 0 -75.667 7.83301 -107 23.5s-61 38.5 -89 68.5l-116 -98c66.667 -86 168.334 -129 305.001 -129zM357.997 755.002h144l165 157h-122l-97 -66l-61 66h-110
z" />
    <glyph glyph-name="scaron" unicode="&#x161;" 
d="M217 -12c32 0 61.5 4.33789 88.5 13.0049s50.167 21.167 69.5 37.5s34.5 36.166 45.5 59.499s16.5 49.666 16.5 78.999c0 20.667 -4.33301 38.834 -13 54.501s-20 29.5 -34 41.5s-29.833 22.333 -47.5 31l-52.5 25c-22.667 10 -40.167 19.167 -52.5 27.5
s-18.5 17.833 -18.5 28.5c0 14 5.16699 25 15.5 33s24.833 12 43.5 12c22 0 44.333 -4.33301 67 -13s47 -23.334 73 -44.001l82 96c-11.333 10 -24.5 19.5 -39.5 28.5s-31.667 17.167 -50 24.5s-37.666 13.166 -57.999 17.499s-41.5 6.5 -63.5 6.5
c-33.333 0 -63.333 -4.83301 -90 -14.5s-49.167 -22.834 -67.5 -39.501s-32.5 -36.5 -42.5 -59.5s-15 -47.833 -15 -74.5c0 -21.333 4.16699 -39.833 12.5 -55.5s19.666 -29.5 33.999 -41.5s30.833 -22.833 49.5 -32.5s38.667 -18.834 60 -27.501
c18.667 -8 33.667 -15.833 45 -23.5s17 -16.5 17 -26.5c0 -15.333 -5.66699 -27 -17 -35s-27 -12 -47 -12c-24 0 -50.333 5 -79 15s-57 29 -85 57l-88 -91c16 -16.667 33.667 -31 53 -43s39.5 -22 60.5 -30s42.5 -14 64.5 -18s43 -6 63 -6zM262 595.005h144l165 157h-122
l-97 -66l-61 66h-110z" />
    <glyph glyph-name="Ydieresis" unicode="&#x178;" horiz-adv-x="650" 
d="M169 0h154l71 262l383 438h-186l-240 -290l-82 290h-171l145 -424zM471 755h146l37 135h-146zM257 755h146l37 135h-146z" />
    <glyph glyph-name="Zcaron" unicode="&#x17d;" horiz-adv-x="689" 
d="M-19 0h583l36 135h-375l492 448l32 117h-568l-37 -135h360l-492 -448zM391 755h144l165 157h-122l-97 -66l-61 66h-110z" />
    <glyph glyph-name="zcaron" unicode="&#x17e;" horiz-adv-x="557" 
d="M-27 0h466l33 123h-273l352 306l29 107h-454l-33 -123h260l-351 -306zM280 595h144l165 157h-122l-97 -66l-61 66h-110z" />
    <glyph glyph-name="florin" unicode="&#x192;" horiz-adv-x="543" 
d="M61 -9c39.333 0 75.334 10.501 108.001 31.501s60.667 57.5 84 109.5l94 212h142l34 125h-120l19 42c10 22.667 21.833 40 35.5 52s30.5 18 50.5 18c17.333 0 31.833 -1.33301 43.5 -4s23.167 -6.66699 34.5 -12l33 124c-14.667 6 -31.167 10.833 -49.5 14.5
s-42.5 5.5 -72.5 5.5c-46.667 0 -86.667 -13 -120 -39s-61.333 -64.333 -84 -115l-38 -86h-94l-34 -125h72l-74 -166c-10 -22.667 -21.5 -38.667 -34.5 -48s-26.167 -14 -39.5 -14c-9.33301 0 -17.5 0.5 -24.5 1.5s-14.5 2.5 -22.5 4.5l-33 -122
c11.333 -2.66699 24.166 -4.83398 38.499 -6.50098s31.5 -2.5 51.5 -2.5z" />
    <glyph glyph-name="circumflex" unicode="&#x2c6;" 
d="M143 595h122l97 66l61 -66h110l-81 157h-144z" />
    <glyph glyph-name="caron" unicode="&#x2c7;" 
d="M262 595h144l165 157h-122l-97 -66l-61 66h-110z" />
    <glyph glyph-name="breve" unicode="&#x2d8;" 
d="M359 593c22.667 0 44.998 3.66699 66.998 11s42.167 18 60.5 32s34.5 30.833 48.5 50.5s25 41.5 33 65.5h-105c-11.333 -16 -25.166 -30 -41.499 -42s-33.5 -18 -51.5 -18c-23.333 0 -41.666 6 -54.999 18s-20.666 26 -21.999 42h-104v-5
c0 -19.333 3.33301 -38.333 10 -57s17 -35.167 31 -49.5s31.667 -25.833 53 -34.5s46.666 -13 75.999 -13z" />
    <glyph glyph-name="dotaccent" unicode="&#x2d9;" 
d="M264 595h150l37 135h-150z" />
    <glyph glyph-name="ring" unicode="&#x2da;" 
d="M357 593c18.667 0 36.167 3.66699 52.5 11s30.5 17 42.5 29s21.5 26.167 28.5 42.5s10.5 33.5 10.5 51.5c0 29.333 -9.83301 54 -29.5 74s-46.5 30 -80.5 30c-18.667 0 -36.167 -3.66699 -52.5 -11s-30.5 -17 -42.5 -29s-21.5 -26.167 -28.5 -42.5
s-10.5 -33.5 -10.5 -51.5c0 -29.333 9.83301 -54 29.5 -74s46.5 -30 80.5 -30zM359 648c-15.333 0 -27.166 4.83301 -35.499 14.5s-12.5 21.5 -12.5 35.5c0 10 1.66699 19.667 5 29s8 17.666 14 24.999s13.167 13.166 21.5 17.499s17.5 6.5 27.5 6.5
c15.333 0 27.166 -4.83301 35.499 -14.5s12.5 -21.5 12.5 -35.5c0 -10 -1.66699 -19.667 -5 -29s-8 -17.666 -14 -24.999s-13.167 -13.166 -21.5 -17.499s-17.5 -6.5 -27.5 -6.5z" />
    <glyph glyph-name="ogonek" unicode="&#x2db;" 
d="M232 -164l18 67c-25.333 1.33301 -43.5 6 -54.5 14s-16.5 19 -16.5 33c0 16.667 6.66699 36.667 20 60h-104c-10 -14 -18.833 -29.5 -26.5 -46.5s-11.5 -32.833 -11.5 -47.5c0 -30 15 -52 45 -66s73.333 -18.667 130 -14z" />
    <glyph glyph-name="tilde" unicode="&#x2dc;" 
d="M220 588c9.33301 17.333 19.5 31.5 30.5 42.5s24.167 16.5 39.5 16.5c8 0 15.5 -2 22.5 -6s17.167 -10.667 30.5 -20c12 -8.66699 23.833 -15.667 35.5 -21s26.167 -8 43.5 -8c32 0 61.167 12.333 87.5 37s48.166 56.667 65.499 96l-80 40
c-9.33301 -17.333 -19.5 -31.5 -30.5 -42.5s-24.167 -16.5 -39.5 -16.5c-8 0 -15.5 2 -22.5 6s-17.167 10.667 -30.5 20c-11.333 8.66699 -23 15.667 -35 21s-26.667 8 -44 8c-32 0 -61.167 -12.333 -87.5 -37s-48.166 -56.667 -65.499 -96z" />
    <glyph glyph-name="hungarumlaut" unicode="&#x2dd;" 
d="M318 595h111l163 120l-113 57zM123 595h111l161 120l-113 57z" />
    <glyph glyph-name="Omega" unicode="&#x3a9;" horiz-adv-x="822" 
d="M434 0l152.002 -0.000976562l110 406h126l35 130h-129l4 15c10 38.667 35 58 75 58c10.667 0 21.834 -1.16699 33.501 -3.5s22.5 -5.5 32.5 -9.5l33 126c-12.667 4.66699 -27.834 8.33398 -45.501 11.001s-37.167 4 -58.5 4c-56.667 0 -103.334 -13.667 -140.001 -41
s-62.334 -71 -77.001 -131l-7 -29h-63l-35 -130h64zM23.002 -0.000976562l152.002 -0.000976562l110 406h126l35 130h-129l4 15c10 38.667 35 58 75 58c10.667 0 21.834 -1.16699 33.501 -3.5s22.5 -5.5 32.5 -9.5l33 126c-12.667 4.66699 -27.834 8.33398 -45.501 11.001
s-37.167 4 -58.5 4c-56.667 0 -103.334 -13.5 -140.001 -40.5s-62.334 -70.833 -77.001 -131.5l-7 -29h-63l-35 -130h64z" />
    <glyph glyph-name="pi" unicode="&#x3c0;" horiz-adv-x="830" 
d="M435 -12c50.667 0 98.167 9.66699 142.5 29s82.833 45.5 115.5 78.5s58.334 71.5 77.001 115.5s28 90.667 28 140s-9.33301 96 -28 140s-44.167 82.333 -76.5 115s-70.5 58.5 -114.5 77.5s-91.333 28.5 -142 28.5s-98.167 -9.66699 -142.5 -29
s-82.833 -45.5 -115.5 -78.5s-58.334 -71.5 -77.001 -115.5s-28 -90.667 -28 -140s9.33301 -96 28 -140s44.167 -82.333 76.5 -115s70.5 -58.5 114.5 -77.5s91.333 -28.5 142 -28.5zM435 28c-45.333 0 -87.499 8.33301 -126.499 25s-72.833 39.5 -101.5 68.5s-51 63 -67 102
s-24 80.833 -24 125.5s8.16699 86.5 24.5 125.5s38.833 73.167 67.5 102.5s62.5 52.5 101.5 69.5s81.5 25.5 127.5 25.5c45.333 0 87.5 -8.33301 126.5 -25s72.667 -39.5 101 -68.5s50.666 -63 66.999 -102s24.5 -80.833 24.5 -125.5s-8.16699 -86.5 -24.5 -125.5
s-38.833 -73.167 -67.5 -102.5s-62.5 -52.5 -101.5 -69.5s-81.5 -25.5 -127.5 -25.5zM303.001 164h86v116h64c21.333 0 41.5 2.83301 60.5 8.5s35.5 14.167 49.5 25.5s25.167 25.5 33.5 42.5s12.5 36.5 12.5 58.5c0 40 -13.167 72.333 -39.5 97s-62.5 37 -108.5 37h-158
v-385zM389.001 355l0.000976562 118h64c21.333 0 38.166 -5 50.499 -15s18.5 -24.667 18.5 -44c0 -17.333 -5.83301 -31.5 -17.5 -42.5s-28.167 -16.5 -49.5 -16.5h-66z" />
    <glyph glyph-name="endash" unicode="&#x2013;" horiz-adv-x="531" 
d="M44 239h428l38 142h-428z" />
    <glyph glyph-name="emdash" unicode="&#x2014;" horiz-adv-x="901" 
d="M44 239h798l38 142h-798z" />
    <glyph glyph-name="quoteleft" unicode="&#x2018;" horiz-adv-x="319" 
d="M93 384h161.998l43 160h-62c5.33301 28.667 18 51.5 38 68.5s50.667 27.167 92 30.5l-10 63c-59.333 -1.33301 -107.666 -16.333 -144.999 -45s-64.666 -76 -81.999 -142z" />
    <glyph glyph-name="quoteright" unicode="&#x2019;" horiz-adv-x="319" 
d="M87 378c59.333 1.33301 107.668 16.333 145.001 45s64.666 76 81.999 142l36 135h-162l-43 -160h62c-5.33301 -28.667 -18 -51.5 -38 -68.5s-50.667 -27.167 -92 -30.5z" />
    <glyph glyph-name="quotesinglbase" unicode="&#x201a;" horiz-adv-x="319" 
d="M-51 -162c59.333 1.33301 107.668 16.333 145.001 45s64.666 76 81.999 142l36 135h-162l-43 -160h62c-5.33301 -28.667 -18 -51.5 -38 -68.5s-50.667 -27.167 -92 -30.5z" />
    <glyph glyph-name="quotedblleft" unicode="&#x201c;" horiz-adv-x="573" 
d="M348 383h161.998l43 160h-62c5.33301 28.667 18 51.5 38 68.5s50.667 27.167 92 30.5l-10 63c-59.333 -1.33301 -107.666 -16.333 -144.999 -45s-64.666 -76 -81.999 -142zM93.998 383h161.998l43 160h-62c5.33301 28.667 18 51.5 38 68.5s50.667 27.167 92 30.5l-10 63
c-59.333 -1.33301 -107.666 -16.333 -144.999 -45s-64.666 -76 -81.999 -142z" />
    <glyph glyph-name="quotedblright" unicode="&#x201d;" horiz-adv-x="573" 
d="M342 378c59.333 1.33301 107.668 16.333 145.001 45s64.666 76 81.999 142l36 135h-162l-43 -160h62c-5.33301 -28.667 -18 -51.5 -38 -68.5s-50.667 -27.167 -92 -30.5zM88.002 378c59.333 1.33301 107.668 16.333 145.001 45s64.666 76 81.999 142l36 135h-162
l-43 -160h62c-5.33301 -28.667 -18 -51.5 -38 -68.5s-50.667 -27.167 -92 -30.5z" />
    <glyph glyph-name="quotedblbase" unicode="&#x201e;" horiz-adv-x="573" 
d="M203 -162c59.333 1.33301 107.668 16.333 145.001 45s64.666 76 81.999 142l36 135h-162l-43 -160h62c-5.33301 -28.667 -18 -51.5 -38 -68.5s-50.667 -27.167 -92 -30.5zM-50.998 -162c59.333 1.33301 107.668 16.333 145.001 45s64.666 76 81.999 142l36 135h-162
l-43 -160h62c-5.33301 -28.667 -18 -51.5 -38 -68.5s-50.667 -27.167 -92 -30.5z" />
    <glyph glyph-name="dagger" unicode="&#x2020;" horiz-adv-x="412" 
d="M156 238h84l62 270l117 -10l23 83l-122 -10l48 129h-92l-22 -129l-116 10l-23 -83l123 10z" />
    <glyph glyph-name="daggerdbl" unicode="&#x2021;" horiz-adv-x="412" 
d="M88 0h92l22 129l116 -10l22 83l-122 -10l52 158l33 158l116 -10l23 83l-122 -10l48 129h-92l-22 -129l-116 10l-23 -83l122 10l-51 -158l-34 -158l-116 10l-22 -83l122 10z" />
    <glyph glyph-name="bullet" unicode="&#x2022;" 
d="M246 200c24.667 0 47.332 5.66699 67.999 17s38.5 26 53.5 44s26.5 38.333 34.5 61s12 45.334 12 68.001c0 35.333 -10.167 63.5 -30.5 84.5s-48.833 31.5 -85.5 31.5c-25.333 0 -48.166 -5.66699 -68.499 -17s-38 -26 -53 -44s-26.5 -38.333 -34.5 -61
s-12 -45.334 -12 -68.001c0 -35.333 10.167 -63.5 30.5 -84.5s48.833 -31.5 85.5 -31.5z" />
    <glyph glyph-name="ellipsis" unicode="&#x2026;" horiz-adv-x="872" 
d="M565 0h158l42 156h-158zM286 0h158l42 156h-158zM7 0h158l42 156h-158z" />
    <glyph glyph-name="perthousand" unicode="&#x2030;" horiz-adv-x="1288" 
d="M238 346c28.667 0 55 6 79 18s44.5 27.833 61.5 47.5s30.167 41.834 39.5 66.501s14 50 14 76c0 22.667 -3.66699 43.5 -11 62.5s-17.666 35.167 -30.999 48.5s-29.5 23.833 -48.5 31.5s-40.167 11.5 -63.5 11.5c-29.333 0 -55.833 -6 -79.5 -18s-44 -27.833 -61 -47.5
s-30.167 -41.834 -39.5 -66.501s-14 -50 -14 -76c0 -22.667 3.66699 -43.5 11 -62.5s17.666 -35.167 30.999 -48.5s29.5 -23.833 48.5 -31.5s40.167 -11.5 63.5 -11.5zM60 0h130l673 700h-130zM1053 -8c28.667 0 55 6 79 18s44.5 27.833 61.5 47.5
s30.167 41.834 39.5 66.501s14 50 14 76c0 22.667 -3.66699 43.5 -11 62.5s-17.666 35.167 -30.999 48.5s-29.5 23.833 -48.5 31.5s-40.167 11.5 -63.5 11.5c-29.333 0 -55.833 -6 -79.5 -18s-44 -27.833 -61 -47.5s-30.167 -41.834 -39.5 -66.501s-14 -50 -14 -76
c0 -22.667 3.66699 -43.5 11 -62.5s17.666 -35.167 30.999 -48.5s29.5 -23.833 48.5 -31.5s40.167 -11.5 63.5 -11.5zM645 -8c28.667 0 55 6 79 18s44.5 27.833 61.5 47.5s30.167 41.834 39.5 66.501s14 50 14 76c0 22.667 -3.66699 43.5 -11 62.5
s-17.666 35.167 -30.999 48.5s-29.5 23.833 -48.5 31.5s-40.167 11.5 -63.5 11.5c-29.333 0 -55.833 -6 -79.5 -18s-44 -27.833 -61 -47.5s-30.167 -41.834 -39.5 -66.501s-14 -50 -14 -76c0 -22.667 3.66699 -43.5 11 -62.5s17.666 -35.167 30.999 -48.5
s29.5 -23.833 48.5 -31.5s40.167 -11.5 63.5 -11.5zM244 433c-19.333 0 -34.5 6.33301 -45.5 19s-16.5 30 -16.5 52c0 13.333 2.16699 26.833 6.5 40.5s10.333 26.167 18 37.5s17 20.666 28 27.999s23.5 11 37.5 11c19.333 0 34.5 -6.33301 45.5 -19s16.5 -30 16.5 -52
c0 -13.333 -2.16699 -26.833 -6.5 -40.5s-10.333 -26.167 -18 -37.5s-17 -20.666 -28 -27.999s-23.5 -11 -37.5 -11zM1059 79c-19.333 0 -34.5 6.33301 -45.5 19s-16.5 30 -16.5 52c0 13.333 2.16699 26.833 6.5 40.5s10.333 26.167 18 37.5s17 20.666 28 27.999
s23.5 11 37.5 11c19.333 0 34.5 -6.33301 45.5 -19s16.5 -30 16.5 -52c0 -13.333 -2.16699 -26.833 -6.5 -40.5s-10.333 -26.167 -18 -37.5s-17 -20.666 -28 -27.999s-23.5 -11 -37.5 -11zM651 79c-19.333 0 -34.5 6.33301 -45.5 19s-16.5 30 -16.5 52
c0 13.333 2.16699 26.833 6.5 40.5s10.333 26.167 18 37.5s17 20.666 28 27.999s23.5 11 37.5 11c19.333 0 34.5 -6.33301 45.5 -19s16.5 -30 16.5 -52c0 -13.333 -2.16699 -26.833 -6.5 -40.5s-10.333 -26.167 -18 -37.5s-17 -20.666 -28 -27.999s-23.5 -11 -37.5 -11z" />
    <glyph glyph-name="guilsinglleft" unicode="&#x2039;" horiz-adv-x="373" 
d="M154 31l122 54l-80 160l176 171l-87 80l-237 -233l-2 -8z" />
    <glyph glyph-name="guilsinglright" unicode="&#x203a;" horiz-adv-x="373" 
d="M86 31l237 233l2 8l-108 224l-122 -54l80 -160l-176 -171z" />
    <glyph glyph-name="trademark" unicode="&#x2122;" horiz-adv-x="700" 
d="M365 392h66l56 208l49 -135h6l121 135l-56 -208h66l83 308h-76l-116 -130l-46 130h-70zM138 392h70l66 246h92l17 62h-254l-17 -62h92z" />
    <glyph glyph-name="fraction" unicode="&#x2215;" horiz-adv-x="520" 
d="M-138 -98h134l695 856h-134z" />
    <glyph glyph-name="radical" unicode="&#x221a;" horiz-adv-x="1124" 
d="M434 0l152.002 -0.000976562l110 406h126l35 130h-129l4 15c10 38.667 35 58 75 58c10.667 0 21.834 -1.16699 33.501 -3.5s22.5 -5.5 32.5 -9.5l33 126c-12.667 4.66699 -27.834 8.33398 -45.501 11.001s-37.167 4 -58.5 4c-56.667 0 -103.334 -13.667 -140.001 -41
s-62.334 -71 -77.001 -131l-7 -29h-63l-35 -130h64zM23.002 -0.000976562l152.002 -0.000976562l110 406h126l35 130h-129l4 15c10 38.667 35 58 75 58c10.667 0 21.834 -1.16699 33.501 -3.5s22.5 -5.5 32.5 -9.5l33 126c-12.667 4.66699 -27.834 8.33398 -45.501 11.001
s-37.167 4 -58.5 4c-56.667 0 -103.334 -13.5 -140.001 -40.5s-62.334 -70.833 -77.001 -131.5l-7 -29h-63l-35 -130h64zM825.004 -0.00195312h152l196 730h-152z" />
    <glyph glyph-name="approxequal" unicode="&#x2248;" horiz-adv-x="1124" 
d="M981 595h160l37 135h-160zM434 0l152.002 -0.000976562l110 406h126l35 130h-129l4 15c10 38.667 35 58 75 58c10.667 0 21.834 -1.16699 33.501 -3.5s22.5 -5.5 32.5 -9.5l33 126c-12.667 4.66699 -27.834 8.33398 -45.501 11.001s-37.167 4 -58.5 4
c-56.667 0 -103.334 -13.667 -140.001 -41s-62.334 -71 -77.001 -131l-7 -29h-63l-35 -130h64zM23.002 -0.000976562l152.002 -0.000976562l110 406h126l35 130h-129l4 15c10 38.667 35 58 75 58c10.667 0 21.834 -1.16699 33.501 -3.5s22.5 -5.5 32.5 -9.5l33 126
c-12.667 4.66699 -27.834 8.33398 -45.501 11.001s-37.167 4 -58.5 4c-56.667 0 -103.334 -13.5 -140.001 -40.5s-62.334 -70.833 -77.001 -131.5l-7 -29h-63l-35 -130h64zM825.004 -0.00195312h152l144 536h-152z" />
    <glyph glyph-name="apple" unicode="&#xf8ff;" horiz-adv-x="967" 
d="M868 0v750h-767v-750h767zM859 -104l-6 34h-1l-13 -26l-13 26h-1l-6 -34h6l3 20l10 -21h2l10 21l3 -20h6zM806 -87c0 4.66699 -1.50098 8.66699 -4.50098 12s-6.83301 5 -11.5 5c-5.33301 0 -9.66602 -1.66699 -12.999 -5s-5 -7.66602 -5 -12.999
c0 -4.66699 1.5 -8.66699 4.5 -12s7.16699 -5 12.5 -5s9.5 1.66699 12.5 5s4.5 7.66602 4.5 12.999zM757.999 -96c-4 -2.66699 -7.33301 -4 -10 -4c-8.66699 0 -13 4.33301 -13 13c0 3.33301 1.16699 6.16602 3.5 8.49902s5.16602 3.5 8.49902 3.5c4 0 7 -1 9 -3l2 5
c-3.33301 2 -7 3 -11 3c-5.33301 0 -9.66602 -1.66699 -12.999 -5s-5 -7.66602 -5 -12.999c0 -11.333 6 -17 18 -17c4.66699 0 8 1 10 3zM701.999 -71h-7l-9 -14l-11 15l-6 -1l14 -19v-14h6v14zM655.999 -104v33h-6v-13h-16v13h-6v-33h6v15h16v-15h6zM611.999 -82
c0 3.33301 -1.5 6.33203 -4.5 8.99902s-9.16699 3.33398 -18.5 2.00098v-33h6v10c11.333 0 17 4 17 12zM575.999 -104.001l-16 34h-2l-15 -34h6l3 8h14l4 -8h6zM533.999 -104.001l-10 13.001c4.66699 2 7 5.33301 7 10c0 3.33301 -1.5 6.16602 -4.5 8.49902
s-9.16699 2.83301 -18.5 1.5v-33h6v11h5l8 -11h7zM490.999 -101v14.999h-15v-5h9v-7c-2.66699 -1.33301 -4.66699 -2 -6 -2c-8.66699 0 -13 4 -13 12c0 8.66699 4 13 12 13c4.66699 0 8.33398 -1.33301 11.001 -4l2 5c-4 2.66699 -8 4 -12 4
c-5.33301 0 -9.83301 -1.66699 -13.5 -5s-5.5 -7.66602 -5.5 -12.999s1.66699 -9.5 5 -12.5s7.66602 -4.5 12.999 -4.5c4.66699 0 9 1.33301 13 4zM446.999 -87.001c0 4.66699 -1.50098 8.66699 -4.50098 12s-6.83301 5 -11.5 5c-5.33301 0 -9.66602 -1.66699 -12.999 -5
s-5 -7.66602 -5 -12.999c0 -4.66699 1.5 -8.66699 4.5 -12s7.16699 -5 12.5 -5s9.5 1.66699 12.5 5s4.5 7.66602 4.5 12.999zM399.998 -82.001c0 3.33301 -1.5 6.33203 -4.5 8.99902s-9.16699 3.33398 -18.5 2.00098v-33h6v10c11.333 0 17 4 17 12zM363.998 -71.002h-7
l-9 -14l-11 15l-6 -1l14 -19v-14h6v14zM322.998 -71.002h-30v-5h12v-28h6v28h12v5zM266.998 -71.002h-6l-7 -22l-10 23h-1l-10 -23l-7 23l-6 -1l12 -34h1l10 23l11 -23h1zM210.998 -71.002h-6l-7 -22l-10 23h-1l-10 -23l-7 23l-6 -1l12 -34h1l10 23l11 -23h1z
M154.998 -71.002h-6l-7 -22l-10 23h-1l-10 -23l-7 23l-6 -1l12 -34h1l10 23l11 -23h1zM715.998 -101.002c0 2.66699 -1.33301 4 -4 4s-4 -1.33301 -4 -4s1.33301 -4 4 -4s4 1.33301 4 4zM283.998 -101.002c0 2.66699 -1.33301 4 -4 4s-4 -1.33301 -4 -4s1.33301 -4 4 -4
s4 1.33301 4 4zM558.998 685.998h-2l-2.5 4.5c-1.66699 3 -4.16699 4.5 -7.5 4.5c-2 0 -3 -1 -3 -3v-23c0 -3.33301 0.666992 -5 2 -5h3v-2h-17v2h2c2 0 3 1.66699 3 5v23c0 2 -1 3 -3 3c-3.33301 0 -5.83301 -1.5 -7.5 -4.5l-2.5 -4.5h-2l0.5 4.5
c0.333008 3 0.5 5.5 0.5 7.5c2 -0.666992 8 -1 18 -1s15.667 0.333008 17 1c0.666992 -2 1 -4.66699 1 -8v-4zM503.998 661.998h-18v2h2c2 0 3 1.66699 3 5v10h-17v-10c0 -2.66699 0.833008 -4.16699 2.5 -4.5l2.5 -0.5v-2h-17v2l2.5 0.5
c1.66699 0.333008 2.5 1.83301 2.5 4.5v21c0 3.33301 -1 5 -3 5h-2v2h17v-1v-1h-3c-1.33301 0 -2 -1.66699 -2 -5v-9h17v9c0 3.33301 -1 5 -3 5h-2v1v1h18v-2h-3c-2 0 -3 -1.66699 -3 -5v-21c0 -3.33301 1 -5 3 -5h3v-2zM438.998 663.998l-0.000976562 -2h-30l-2 11l2 1
l2.5 -4.5c1.66699 -3 4.16699 -4.5 7.5 -4.5h4c2.66699 0 4 1 4 3v11h-4c-3.33301 0 -5.16602 -1 -5.49902 -3l-0.5 -3h-2v13h2l0.5 -2.5c0.333008 -1.66699 2.16602 -2.5 5.49902 -2.5h4v10c0 2 -1.33301 3 -4 3h-4c-3.33301 0 -5.66602 -1.33301 -6.99902 -4l-2 -4l-2 1
l2 10h29v-2h-3c-1.33301 0 -2 -1.66699 -2 -5v-21c0 -3.33301 0.666992 -5 2 -5h3zM826.997 617.998h-685v6h685v-6zM695.997 539.998c0 -8 -2.66699 -13.667 -8 -17s-10.333 -5 -15 -5c-9.33301 0 -17.833 3.66699 -25.5 11s-11.5 16.333 -11.5 27c0 8 2.66699 13.667 8 17
s10.333 5 15 5c9.33301 0 17.833 -3.83301 25.5 -11.5s11.5 -16.5 11.5 -26.5zM588.997 536.998c0 -5.33301 -1.99805 -9.83496 -5.99805 -13.502s-10.333 -5.5 -19 -5.5c-10.667 0 -16 4.33301 -16 13c0 6.66699 3 10 9 10c4.66699 0 7 -1.66699 7 -5s-1.33301 -5 -4 -5
c-1.33301 0 -2.33301 0.333008 -3 1s-1.33398 1 -2.00098 1c-2 0 -3 -1 -3 -3c0 -6 4 -9 12 -9s12 4.66699 12 14c0 6.66699 -2 11.667 -6 15c-3.33301 -3.33301 -7 -5 -11 -5c-5.33301 0 -8 2 -8 6c0 5.33301 5.33301 7.33301 16 6c1.33301 1.33301 2 3.33301 2 6
c0 8 -3.33301 12 -10 12c-4.66699 0 -7 -1.66699 -7 -5c0 -1.33301 0.5 -2.16602 1.5 -2.49902s1.5 -1.5 1.5 -3.5s-1.33301 -3 -4 -3c-3.33301 0 -5 2 -5 6c0 7.33301 4.33301 11 13 11c7.33301 0 12.666 -1.66699 15.999 -5s5 -6.66602 5 -9.99902c0 -4 -1.66699 -7 -5 -9
c9.33301 -3.33301 14 -9 14 -17zM294.999 536.996c0 -5.33301 -1.99805 -9.83496 -5.99805 -13.502s-10.333 -5.5 -19 -5.5c-10.667 0 -16 4.33301 -16 13c0 6.66699 3 10 9 10c4.66699 0 7 -1.66699 7 -5s-1.33301 -5 -4 -5c-1.33301 0 -2.33301 0.333008 -3 1
s-1.33398 1 -2.00098 1c-2 0 -3 -1 -3 -3c0 -6 4 -9 12 -9s12 4.66699 12 14c0 6.66699 -2 11.667 -6 15c-3.33301 -3.33301 -7 -5 -11 -5c-5.33301 0 -8 2 -8 6c0 5.33301 5.33301 7.33301 16 6c1.33301 1.33301 2 3.33301 2 6c0 8 -3.33301 12 -10 12
c-4.66699 0 -7 -1.66699 -7 -5c0 -1.33301 0.5 -2.16602 1.5 -2.49902s1.5 -1.5 1.5 -3.5s-1.33301 -3 -4 -3c-3.33301 0 -5 2 -5 6c0 7.33301 4.33301 11 13 11c7.33301 0 12.666 -1.66699 15.999 -5s5 -6.66602 5 -9.99902c0 -4 -1.66699 -7 -5 -9
c9.33301 -3.33301 14 -9 14 -17zM820.001 521.994l0.999023 -3h-29l-1 3l4.5 0.5c3 0.333008 3.83301 2.83301 2.5 7.5l-3 16h-24l3 -16c1.33301 -4.66699 3.33301 -7.16699 6 -7.5l4 -0.5l1 -3h-29l-1 3l4.5 0.5c3 0.333008 3.83301 2.83301 2.5 7.5l-7 35
c-1.33301 4.66699 -3.33301 7.16699 -6 7.5l-4 0.5l-1 3h29l1 -3l-4.5 -0.5c-3 -0.333008 -3.83301 -2.83301 -2.5 -7.5l3 -15h24l-3 15c-1.33301 4.66699 -3.16602 7.16699 -5.49902 7.5l-3.5 0.5l-1 3h28l1 -3l-4.5 -0.5c-3 -0.333008 -3.83301 -2.83301 -2.5 -7.5l7 -35
c1.33301 -4.66699 3.33301 -7.16699 6 -7.5zM498 518.994h-29l-1 3l4.5 0.5c3 0.333008 3.83301 2.83301 2.5 7.5l-3 17h-4c-4.66699 0 -7.16699 -1.83301 -7.5 -5.5l-0.5 -5.5h-3l-5 23h3l2.5 -4.5c1.66699 -3 4.83398 -4.5 9.50098 -4.5h4l-3 16
c-0.666992 4 -2.66699 6 -6 6h-4c-7.33301 0 -11.333 -2.16699 -12 -6.5l-1 -6.5h-4l0.5 7c0.333008 4.66699 0.166016 8 -0.500977 10h45l1 -3l-4.5 -0.5c-3 -0.333008 -3.83301 -2.83301 -2.5 -7.5l7 -35c1.33301 -4.66699 3.33301 -7.16699 6 -7.5l4 -0.5zM202 521.994
l1.00098 -3.00098h-29l-1 3l4.5 0.5c3 0.333008 3.83301 2.83301 2.5 7.5l-3 15c-2.66699 0 -4.33398 -1 -5.00098 -3l-12 -23h-19l-1 3l5 0.5c3.33301 0.333008 6.33301 2.83301 9 7.5l9 16c-5.33301 0.666992 -9.83301 2.33398 -13.5 5.00098s-5.5 6 -5.5 10
c0 10 6.66699 15 20 15h27l1 -3l-4.5 -0.5c-3 -0.333008 -3.83301 -2.83301 -2.5 -7.5l7 -35c1.33301 -4.66699 3.33301 -7.16699 6 -7.5zM400.001 520.993c0 -2 -1.33203 -3.00098 -3.99902 -3.00098c-6 0 -10 2.33301 -12 7c-5.33301 0 -8.66602 -2.16699 -9.99902 -6.5
s-6.33301 -6.5 -15 -6.5c-3.33301 0 -6.66602 1.16699 -9.99902 3.5s-5 5.16602 -5 8.49902c0 4.66699 1.66699 7 5 7s5 -1.66699 5 -5c0 -1.33301 -0.333008 -2.16602 -1 -2.49902s-1 -1.16602 -1 -2.49902c0 -2.66699 1.66699 -4 5 -4s6.16602 2.16699 8.49902 6.5
s7.16602 6.5 14.499 6.5c-4 4 -6.83301 8.5 -8.5 13.5s-2.83398 9.83301 -3.50098 14.5s-1.5 8.66699 -2.5 12s-3.16699 5 -6.5 5s-5 -2 -5 -6s-1.33301 -6 -4 -6c-3.33301 0 -5 1.66699 -5 5c0 2 1.33301 4.16699 4 6.5s5.66699 3.5 9 3.5c8 0 13.5 -2.16699 16.5 -6.5
s5 -9.33301 6 -15s1.66699 -11 2 -16s1.83301 -8.5 4.5 -10.5c4.66699 -0.666992 8 -2 10 -4s3 -3.66699 3 -5zM827.002 474.992h-685v6h685v-6zM827.002 377.992h-36v28h-11v-65h14v-33h-81v33h14v65h-11v-28h-36v62h147v-62zM648.002 405.992h-14l-37 -45v-20h15v-33h-81
v33h14v19l-37 46h-12v34h62v-34h-10l15 -23l15 23h-11v34h81v-34zM458.002 307.992h-81v33h15v19h-30c-14.667 0 -26.167 3.83301 -34.5 11.5s-12.5 17.167 -12.5 28.5s4.16699 20.833 12.5 28.5s19.833 11.5 34.5 11.5h96v-34h-14v-65h14v-33zM283.002 307.992h-141v61h41
v-28h33v21h-24v24h24v20h-33v-28h-41v62h141v-34h-14v-65h14v-33zM827.002 270.992h-685v6h685v-6zM728.002 191.992c0 -8 -2.66699 -13.667 -8 -17s-10.333 -5 -15 -5c-9.33301 0 -17.833 3.66699 -25.5 11s-11.5 16.333 -11.5 27c0 8 2.66699 13.667 8 17s10.333 5 15 5
c9.33301 0 17.833 -3.83301 25.5 -11.5s11.5 -16.5 11.5 -26.5zM203.002 216.992l-1.99609 -2.00293l-4.5 4.5c-1.66699 1.66699 -4.16699 2.5 -7.5 2.5c-6 0 -9 -4.33301 -9 -13c0 -5.33301 1.66699 -13.666 5 -24.999c1.33301 -5.33301 3.33301 -8.16602 6 -8.49902
l4 -0.5l1 -4h-28l-1 4l4.5 1c3 0.666992 3.5 5.33398 1.5 14.001c-2 8 -4.83301 15.5 -8.5 22.5s-8.83398 10.5 -15.501 10.5c-5.33301 0 -8 -2 -8 -6l-3 1c0 4 1.16699 7 3.5 9s5.16602 3 8.49902 3c5.33301 0 9.66602 -2.16699 12.999 -6.5s6 -9.83301 8 -16.5
c-0.666992 15.333 4 23 14 23c5.33301 0 9.16602 -1.33301 11.499 -4s4.5 -5.66699 6.5 -9zM823.006 170.989h-29l-1 3l4.5 0.5c3 0.333008 3.83301 2.83301 2.5 7.5l-3 17h-4c-4.66699 0 -7.16699 -1.83301 -7.5 -5.5l-0.5 -5.5h-3l-5 23h3l2.5 -4.5
c1.66699 -3 4.83398 -4.5 9.50098 -4.5h4l-3 16c-0.666992 4 -2.66699 6 -6 6h-4c-7.33301 0 -11.333 -2.16699 -12 -6.5l-1 -6.5h-4l0.5 7c0.333008 4.66699 0.166016 8 -0.500977 10h45l1 -3l-4.5 -0.5c-3 -0.333008 -3.83301 -2.83301 -2.5 -7.5l7 -35
c1.33301 -4.66699 3.33301 -7.16699 6 -7.5l4 -0.5zM621.006 224.989l-5 -0.5c-3.33301 -0.333008 -4.33301 -3.16602 -3 -8.49902l5 -22c1.33301 -5.33301 1.33301 -10.666 0 -15.999s-7.66602 -8 -18.999 -8c-9.33301 0 -16 3.16699 -20 9.5s-6.66699 12.166 -8 17.499
l-4 19c-1.33301 5.33301 -3.5 8.16602 -6.5 8.49902l-4.5 0.5l-1 3h24v-3l-4.5 -0.5c-3 -0.333008 -3.83301 -3.16602 -2.5 -8.49902l4 -19c1.33301 -6 3.66602 -11.167 6.99902 -15.5s7.66602 -6.5 12.999 -6.5c7.33301 0 11.333 1.66699 12 5
s0.333984 8.33301 -0.999023 15l-5 21c-1.33301 5.33301 -3.33301 8.16602 -6 8.49902l-4 0.5l-1 3h29zM522.006 173.989l0.999023 -3.00098h-21l-1 3l4 1c2.66699 0.666992 3.33398 3.66699 2.00098 9l-6 30l-30 -44l-3 1l-8 45
c-1.33301 4.66699 -3.16602 7.33398 -5.49902 8.00098l-3.5 1l-1 3h21l1 -3l-4.5 -1c-3 -0.666992 -3.83301 -3.33398 -2.5 -8.00098l5 -30l29 42h14l1 -3l-5 -0.5c-3.33301 -0.333008 -4.33301 -3.16602 -3 -8.49902l7 -32c1.33301 -5.33301 3.16602 -8.33301 5.49902 -9z
M414.005 170.988l-32 -0.000976562c-8.66699 0 -16.667 3.16699 -24 9.5s-11 14.833 -11 25.5c0 7.33301 2.66699 12.833 8 16.5s11 5.5 17 5.5h30l1 -3c-7.33301 -0.666992 -10 -4 -8 -10l8 -31c1.33301 -5.33301 3.33301 -8.16602 6 -8.49902l4 -0.5zM306.005 173.987
l1.00098 -3.00098h-29l-1 3l4.5 0.5c3 0.333008 3.83301 2.83301 2.5 7.5l-3 15c-2.66699 0 -4.33398 -1 -5.00098 -3l-12 -23h-19l-1 3l5 0.5c3.33301 0.333008 6.33301 2.83301 9 7.5l9 16c-5.33301 0.666992 -9.83301 2.33398 -13.5 5.00098s-5.5 6 -5.5 10
c0 10 6.66699 15 20 15h27l1 -3l-4.5 -0.5c-3 -0.333008 -3.83301 -2.83301 -2.5 -7.5l7 -35c1.33301 -4.66699 3.33301 -7.16699 6 -7.5zM827.006 126.986h-685v6h685v-6zM694.006 45.9863l-14 -0.000976562v2l2.5 1c1.66699 0.666992 2.5 2 2.5 4v20l-25 -28h-3v28
c0 2.66699 -1 4.33398 -3 5.00098l-3 1v2h15v-2l-3 -1c-2 -0.666992 -3 -2.33398 -3 -5.00098v-18l24 26h10v-2l-3 -2c-2 -1.33301 -3 -2.66602 -3 -3.99902v-20c0 -2 1 -3.33301 3 -4l3 -1v-2zM633.006 47.9854l-0.000976562 -2h-30l-2 11l2 1l2.5 -4.5
c1.66699 -3 4.16699 -4.5 7.5 -4.5h4c2.66699 0 4 1 4 3v11h-4c-3.33301 0 -5.16602 -1 -5.49902 -3l-0.5 -3h-2v13h2l0.5 -2.5c0.333008 -1.66699 2.16602 -2.5 5.49902 -2.5h4v10c0 2 -1.33301 3 -4 3h-4c-3.33301 0 -5.66602 -1.33301 -6.99902 -4l-2 -4l-2 1l2 10h29v-2
h-3c-1.33301 0 -2 -1.66699 -2 -5v-21c0 -3.33301 0.666992 -5 2 -5h3zM583.005 80.9854l-0.00195312 -1.99902l-2.5 -0.5c-1.66699 -0.333008 -3.16699 -2.16602 -4.5 -5.49902l-12 -27h-1l-9 16l-8 -16c0 -0.666992 -0.166992 -0.833984 -0.5 -0.500977l-0.5 0.5h-1
l-13 27c-1.33301 2.66699 -2.66602 4.33398 -3.99902 5.00098l-2 1v2h13v-2l-2 -1c-1.33301 -0.666992 -1.33301 -2.33398 0 -5.00098l8 -18l7 13l-3 5c-2 3.33301 -3.66699 5.16602 -5 5.49902l-2 0.5l-1 2h26v-2l-2 -1.5c-1.33301 -1 -2.66602 -2.5 -3.99902 -4.5l-4 -8
l5 -10l9 19c1.33301 2 1.33301 3.33301 0 4l-2 1v2h15zM480.003 78.9863l-2.49902 -0.5c-1.66699 -0.333008 -3.16699 -1.83301 -4.5 -4.5l-8 -12v-8c0 -3.33301 0.833008 -5.16602 2.5 -5.49902l2.5 -0.5v-2h-17v2l2.5 0.5c1.66699 0.333008 2.5 2.16602 2.5 5.49902v8
l-8 12c-1.33301 2.66699 -3 4.16699 -5 4.5l-3 0.5v2h15v-2l-2.5 -0.5c-1.66699 -0.333008 -1.83398 -1.83301 -0.500977 -4.5l6 -9l6 9c1.33301 2.66699 1.5 4.16699 0.5 4.5l-1.5 0.5v2h15v-2zM425.004 63.9863c0 -5.33301 -1.66699 -9.83301 -5 -13.5
s-8.33301 -5.5 -15 -5.5s-11.667 1.83301 -15 5.5s-5 8.16699 -5 13.5s1.66699 9.66602 5 12.999s8.33301 5 15 5s11.667 -1.66699 15 -5s5 -7.66602 5 -12.999zM364.004 45.9863l-17 -0.000976562v2l2.5 0.5c1.66699 0.333008 2.5 1.83301 2.5 4.5v9
c-2.66699 0 -5 -1.33301 -7 -4l-7 -12h-11v2l2.5 0.5c1.66699 0.333008 3.5 1.83301 5.5 4.5l7 10c-6 2.66699 -9 5.66699 -9 9c0 6 4.33301 9 13 9h18v-2l-2.5 -0.5c-1.66699 -0.333008 -2.5 -2.16602 -2.5 -5.49902v-20c0 -2.66699 0.833008 -4.16699 2.5 -4.5l2.5 -0.5
v-2zM309.004 45.9854l-18 0.00195312v2l3 0.5c2 0.333008 3 2.16602 3 5.49902v9c-1.33301 0 -2.66602 -0.666992 -3.99902 -2l-8 -8c-2 -2.66699 -2.16699 -4.16699 -0.5 -4.5l2.5 -0.5v-2h-17v2l2.5 1.5c1.66699 1 3.16699 2.16699 4.5 3.5l13 13l-10 9
c-1.33301 1.33301 -3 2.33301 -5 3l-3 1v2h14v-2l-1.5 -1c-1 -0.666992 -0.833008 -1.66699 0.5 -3l8 -8c1.33301 -1.33301 2.66602 -2 3.99902 -2v9c0 2.66699 -1 4.16699 -3 4.5l-3 0.5v2h18v-2l-3 -0.5c-2 -0.333008 -3 -1.83301 -3 -4.5v-20
c0 -2.66699 1 -4.33398 3 -5.00098l3 -1v-2zM606.004 -83.0127c0 -4 -3.66699 -6.00098 -11 -6.00098v13c7.33301 0.666992 11 -1.66602 11 -6.99902zM525.004 -82.0137c0 -4.66699 -3.66699 -6.66699 -11 -6v12c7.33301 1.33301 11 -0.666992 11 -6zM394.004 -83.0137
c0 -4 -3.66699 -6.00098 -11 -6.00098v13c7.33301 0.666992 11 -1.66602 11 -6.99902zM564.004 -92.0146h-10l5 12zM800.004 -88.0146c0 -8 -3.66699 -12 -11 -12s-11 4.33301 -11 13c0 8 3.66699 12 11 12s11 -4.33301 11 -13zM441.004 -88.0146c0 -8 -3.66699 -12 -11 -12
s-11 4.33301 -11 13c0 8 3.66699 12 11 12s11 -4.33301 11 -13zM176.004 547.985l-2.99902 18.999c-0.666992 3.33301 -3.66699 5 -9 5s-8 -3 -8 -9c0 -3.33301 1.16699 -6.66602 3.5 -9.99902s6.16602 -5 11.499 -5h5zM566.005 552.984c-1.33301 0.666992 -3.66699 1 -7 1
c-2.66699 0 -4 -1 -4 -3c0 -1.33301 1.33301 -2 4 -2s5 1.33301 7 4zM272.004 552.984c-1.33301 0.666992 -3.66699 1 -7 1c-2.66699 0 -4 -1 -4 -3c0 -1.33301 1.33301 -2 4 -2s5 1.33301 7 4zM684.003 534.984c0 10.667 -2.66699 19.833 -8 27.5s-11 11.5 -17 11.5
c-7.33301 0 -11 -4.66699 -11 -14c0 -10 2.66699 -18.833 8 -26.5s11 -11.5 17 -11.5c7.33301 0 11 4.33301 11 13zM392.003 383.983v22h-11c-8.66699 0 -13 -3.66699 -13 -11s4.33301 -11 13 -11h11zM280.003 199.983l-2.99902 18.999c-0.666992 3.33301 -3.66699 5 -9 5
s-8 -3 -8 -9c0 -3.33301 1.16699 -6.66602 3.5 -9.99902s6.16602 -5 11.499 -5h5zM716.004 186.982c0 10.667 -2.66699 19.833 -8 27.5s-11 11.5 -17 11.5c-7.33301 0 -11 -4.66699 -11 -14c0 -10 2.66699 -18.833 8 -26.5s11 -11.5 17 -11.5c7.33301 0 11 4.33301 11 13z
M393.004 181.981l-9.00098 35.001c-1.33301 3.33301 -2.16602 5.16602 -2.49902 5.49902s-1.5 0.833008 -3.5 1.5h-6c-9.33301 0 -14 -5.66699 -14 -17c0 -8 2.5 -15.333 7.5 -22s11.167 -10 18.5 -10h5c2.66699 0 4 2.33301 4 7zM553.003 78.9824
c-3.33301 0 -3.33301 -3 0 -9c2.66699 6 2.66699 9 0 9zM352.003 63.9824v10c0 2.66699 -1.33301 4 -4 4c-4.66699 0 -7 -2 -7 -6c0 -5.33301 2.66699 -8 8 -8h3zM417.003 63.9824c0 10.667 -4.00098 16 -12.001 16s-12 -5.33301 -12 -16c0 -4.66699 1 -8.66699 3 -12
s5 -5 9 -5c4.66699 0 7.83398 1.66699 9.50098 5s2.5 7.33301 2.5 12z" />
    <glyph glyph-name="fi" unicode="&#xfb01;" horiz-adv-x="713" 
d="M570 595h160l37 135h-160zM23 0l152.002 -0.000976562l110 406h126l35 130h-129l4 15c10 38.667 35 58 75 58c10.667 0 21.834 -1.16699 33.501 -3.5s22.5 -5.5 32.5 -9.5l33 126c-12.667 4.66699 -27.834 8.33398 -45.501 11.001s-37.167 4 -58.5 4
c-56.667 0 -103.334 -13.5 -140.001 -40.5s-62.334 -70.833 -77.001 -131.5l-7 -29h-63l-35 -130h64zM414.002 -0.000976562h152l144 536h-152z" />
    <glyph glyph-name="fl" unicode="&#xfb02;" horiz-adv-x="713" 
d="M414 0h152l196 730h-152zM23 0l152.002 -0.000976562l110 406h126l35 130h-129l4 15c10 38.667 35 58 75 58c10.667 0 21.834 -1.16699 33.501 -3.5s22.5 -5.5 32.5 -9.5l33 126c-12.667 4.66699 -27.834 8.33398 -45.501 11.001s-37.167 4 -58.5 4
c-56.667 0 -103.334 -13.5 -140.001 -40.5s-62.334 -70.833 -77.001 -131.5l-7 -29h-63l-35 -130h64z" />
    <glyph glyph-name="NUL" horiz-adv-x="0" 
 />
    <glyph glyph-name="nonmarkingreturn" horiz-adv-x="300" 
 />
  </font>
</defs>
</svg>
