<?xml version="1.0" standalone="no"?>
<!DOCTYPE svg PUBLIC "-//W3C//DTD SVG 1.1//EN" "http://www.w3.org/Graphics/SVG/1.1/DTD/svg11.dtd" >
<svg>
<metadata>
Created by FontForge 20090914 at Fri May 15 14:25:08 2020
 By www-data
HTF Gotham\252 Copr. 2002 The Hoefler Type Foundry, Inc. Info: www.typography.com
</metadata>
<defs>
<font id="Gotham-MediumItalic" horiz-adv-x="500" >
  <font-face 
    font-family="Gotham"
    font-weight="500"
    font-style="italic"
    font-stretch="normal"
    units-per-em="1000"
    panose-1="2 0 6 4 3 0 0 9 0 4"
    ascent="800"
    descent="-200"
    x-height="527.999"
    cap-height="700"
    bbox="-131 -200 1221 922.002"
    underline-thickness="20"
    underline-position="-123"
    slope="-12"
    unicode-range="U+0020-U+FB02"
  />
<missing-glyph 
 />
    <glyph glyph-name=".notdef" 
 />
    <glyph glyph-name="space" unicode=" " horiz-adv-x="300" 
 />
    <glyph glyph-name="exclam" unicode="!" horiz-adv-x="303" 
d="M106 221h67l156 444l10 35h-142l-10 -35zM14 0h133l37 137h-134z" />
    <glyph glyph-name="quotedbl" unicode="&#x22;" horiz-adv-x="493" 
d="M323 401h64l159 294l2 5h-138zM100 401h64l159 294l1 5h-138z" />
    <glyph glyph-name="numbersign" unicode="#" horiz-adv-x="687" 
d="M55 0h107l56 161h164l-56 -161h106l56 161h115l27 104h-105l60 174h103l27 104h-93l54 157h-106l-55 -157h-164l55 157h-107l-55 -157h-113l-28 -104h105l-60 -174h-102l-28 -104h93zM255 265l60 174h164l-61 -174h-163z" />
    <glyph glyph-name="dollar" unicode="$" horiz-adv-x="631" 
d="M170 -98l86.9971 0.00488281l29 98h6c38.667 0 74.834 5.16699 108.501 15.5s62.667 24.833 87 43.5s43.5 41.167 57.5 67.5s21 55.166 21 86.499c0 24 -3.83301 45.333 -11.5 64s-18.5 35.167 -32.5 49.5s-31.167 27.166 -51.5 38.499s-43.5 21.666 -69.5 30.999l53 186
c21.333 -6 41 -14.667 59 -26s35.333 -24.666 52 -39.999l83 82c-20.667 21.333 -44 39.666 -70 54.999s-55.667 27 -89 35l20 70h-87l-18 -59c-3.33301 0.666992 -6.66602 1 -9.99902 1h-9c-37.333 0 -71.833 -5.33301 -103.5 -16s-59.334 -25.334 -83.001 -44.001
s-42.167 -40.834 -55.5 -66.501s-20 -53.5 -20 -83.5c0 -25.333 4 -47.166 12 -65.499s19.167 -34.5 33.5 -48.5s32 -26.333 53 -37s44.5 -21 70.5 -31l-56 -195c-30 6.66699 -57.5 17.5 -82.5 32.5s-47.5 34.167 -67.5 57.5l-90 -76
c24.667 -31.333 54.334 -56.833 89.001 -76.5s73.334 -33.834 116.001 -42.501zM327.997 424.005c-29.333 12 -49.833 23.833 -61.5 35.5s-17.5 26.167 -17.5 43.5c0 12.667 2.83301 24.5 8.5 35.5s14 20.667 25 29s24.333 14.833 40 19.5s33.5 6.66699 53.5 6z
M313.997 106.005l51 175.001c28 -12 47.333 -24 58 -36s16 -26.667 16 -44c0 -28.667 -11.333 -51.334 -34 -68.001s-53 -25.667 -91 -27z" />
    <glyph glyph-name="percent" unicode="%" horiz-adv-x="862" 
d="M236 346c28 0 53.833 6 77.5 18s44 28 61 48s30.333 42.667 40 68s14.5 51 14.5 77c0 22 -3.66699 42.167 -11 60.5s-17.5 34.333 -30.5 48s-28.667 24.167 -47 31.5s-38.5 11 -60.5 11c-28 0 -53.833 -6 -77.5 -18s-44 -28 -61 -48s-30.333 -42.667 -40 -68
s-14.5 -51 -14.5 -77c0 -22 3.5 -42.167 10.5 -60.5s17 -34.333 30 -48s28.667 -24.167 47 -31.5s38.833 -11 61.5 -11zM62 0h108l676 700h-109zM628 -8c28 0 53.833 6.00098 77.5 18.001s44 28 61 48s30.333 42.667 40 68s14.5 51.333 14.5 78
c0 22 -3.66699 42.167 -11 60.5s-17.5 34.166 -30.5 47.499s-28.667 23.666 -47 30.999s-38.5 11 -60.5 11c-28 0 -53.833 -6 -77.5 -18s-44 -27.833 -61 -47.5s-30.333 -42.167 -40 -67.5s-14.5 -51.333 -14.5 -78c0 -22 3.5 -42.167 10.5 -60.5s17 -34.166 30 -47.499
s28.667 -23.833 47 -31.5s38.833 -11.5 61.5 -11.5zM241 420.001c-22 0 -39.333 7.16699 -52 21.5s-19 34.166 -19 59.499c0 15.333 2.5 31 7.5 47s12.167 30.333 21.5 43s20.333 23 33 31s26.667 12 42 12c22.667 0 40.167 -7.16699 52.5 -21.5s18.5 -34.166 18.5 -59.499
c0 -15.333 -2.5 -31 -7.5 -47s-12 -30.333 -21 -43s-20 -23 -33 -31s-27.167 -12 -42.5 -12zM633 66.001c-22 0 -39.333 7.33203 -52 21.999s-19 34.334 -19 59.001c0 15.333 2.5 31 7.5 47s12.167 30.5 21.5 43.5s20.5 23.5 33.5 31.5s27.167 12 42.5 12
c22 0 39.333 -7.33301 52 -22s19 -34.667 19 -60c0 -15.333 -2.5 -30.833 -7.5 -46.5s-12.167 -30 -21.5 -43s-20.5 -23.5 -33.5 -31.5s-27.167 -12 -42.5 -12z" />
    <glyph glyph-name="ampersand" unicode="&#x26;" horiz-adv-x="694" 
d="M532 -14l91.001 58.001l-75 104c38 42 76 92.667 114 152l-77 52c-15.333 -24.667 -30.666 -47.834 -45.999 -69.501s-31.333 -41.5 -48 -59.5l-98 135c38.667 12 70.834 25.667 96.501 41s46.167 31.333 61.5 48s26.166 33.834 32.499 51.501s9.5 35.167 9.5 52.5
c0 23.333 -4.5 44.833 -13.5 64.5s-21.5 36.667 -37.5 51s-35.333 25.5 -58 33.5s-47.667 12 -75 12c-31.333 0 -60 -5 -86 -15s-48.333 -23.667 -67 -41s-33 -37.5 -43 -60.5s-15 -47.167 -15 -72.5c0 -20 3.5 -40.5 10.5 -61.5s16.833 -42.167 29.5 -63.5
c-74 -22.667 -128 -54 -162 -94s-51 -83.333 -51 -130c0 -29.333 5.5 -55.333 16.5 -78s26 -41.834 45 -57.501s41.667 -27.667 68 -36s55.166 -12.5 86.499 -12.5c43.333 0 83.166 7.33301 119.499 22s71.833 36 106.5 64zM341.001 428.001
c-12.667 19.333 -21.502 36.499 -26.502 51.499s-7.5 29.167 -7.5 42.5c0 12.667 2.33301 24.5 7 35.5s11.334 20.833 20.001 29.5s18.834 15.5 30.501 20.5s24.5 7.5 38.5 7.5c25.333 0 44.833 -7.16699 58.5 -21.5s20.5 -30.833 20.5 -49.5
c0 -11.333 -2.16699 -22 -6.5 -32s-11.833 -19.667 -22.5 -29s-25 -18.666 -43 -27.999s-41 -18.333 -69 -27zM253.999 92c-36 0 -63.5 8.33203 -82.5 24.999s-28.5 38.334 -28.5 65.001c0 28 11.333 54.833 34 80.5s59.667 46.5 111 62.5l123 -171
c-52.667 -41.333 -105 -62 -157 -62z" />
    <glyph glyph-name="quotesingle" unicode="'" horiz-adv-x="269" 
d="M100 401h64l159 294l1 5h-138z" />
    <glyph glyph-name="parenleft" unicode="(" horiz-adv-x="440" 
d="M251 -142l73.999 76.002c-36.667 38.667 -67.667 81 -93 127s-38 97.667 -38 155c0 38.667 6.33301 77.167 19 115.5s32 75.166 58 110.499s58.833 68.666 98.5 99.999s86.5 59 140.5 83l-44 90c-64.667 -26 -121.667 -57 -171 -93s-90.666 -75.5 -123.999 -118.5
s-58.5 -89.167 -75.5 -138.5s-25.5 -100.333 -25.5 -153c0 -73.333 16.5 -139.333 49.5 -198s76.833 -110.667 131.5 -156z" />
    <glyph glyph-name="parenright" unicode=")" horiz-adv-x="440" 
d="M-13 -139c64.667 26 121.668 56.833 171.001 92.5s90.666 75.167 123.999 118.5s58.5 89.666 75.5 138.999s25.5 100.333 25.5 153c0 73.333 -16.5 139.333 -49.5 198s-76.833 110.667 -131.5 156l-75 -77c18.667 -19.333 36 -39.333 52 -60s30 -42.667 42 -66
s21.333 -47.833 28 -73.5s10 -52.834 10 -81.501c0 -38.667 -6.33301 -77.167 -19 -115.5s-32 -75.166 -58 -110.499s-58.833 -68.666 -98.5 -99.999s-86.5 -59 -140.5 -83z" />
    <glyph glyph-name="asterisk" unicode="*" horiz-adv-x="430" 
d="M276 379l18 121l77 -97l51 51l-98 77l124 19l-19 68l-116 -45l45 115l-67 17l-19 -121l-77 97l-50 -50l97 -78l-124 -18l19 -69l116 45l-45 -115z" />
    <glyph glyph-name="plus" unicode="+" horiz-adv-x="646" 
d="M224 106h114l51 191h192l30 110h-192l51 191h-115l-50 -191h-192l-30 -110h192z" />
    <glyph glyph-name="comma" unicode="," horiz-adv-x="293" 
d="M-45 -145c26 2 49.168 6.5 69.501 13.5s38.5 17 54.5 30s29.667 29.5 41 49.5s20.666 44.333 27.999 73l31 116h-133l-37 -137h52c-5.33301 -25.333 -16.833 -46 -34.5 -62s-44.5 -26.667 -80.5 -32z" />
    <glyph glyph-name="hyphen" unicode="-" horiz-adv-x="411" 
d="M53 247h296l32 119h-296z" />
    <glyph glyph-name="period" unicode="." horiz-adv-x="293" 
d="M9 0h133l37 137h-133z" />
    <glyph glyph-name="slash" unicode="/" horiz-adv-x="521" 
d="M-131 -128h116l692 926h-116z" />
    <glyph glyph-name="zero" unicode="0" horiz-adv-x="724" 
d="M330 -12c56.667 0 107.831 13.167 153.498 39.5s84.5 60.5 116.5 102.5s56.667 89.333 74 142s26 105.334 26 158.001c0 42 -6.16699 80.333 -18.5 115s-29.666 64.334 -51.999 89.001s-49.666 43.834 -81.999 57.501s-68.5 20.5 -108.5 20.5
c-57.333 0 -108.833 -13.167 -154.5 -39.5s-84.5 -60.5 -116.5 -102.5s-56.667 -89.333 -74 -142s-26 -105.334 -26 -158.001c0 -42 6.16699 -80.333 18.5 -115s29.833 -64.334 52.5 -89.001s50.167 -43.834 82.5 -57.501s68.5 -20.5 108.5 -20.5zM338.997 99
c-46 0 -81.5 15.333 -106.5 46s-37.5 72.334 -37.5 125.001c0 38 5.83301 76.667 17.5 116s27.834 74.833 48.501 106.5s45.334 57.667 74.001 78s60 30.5 94 30.5c46 0 81.5 -15.333 106.5 -46s37.5 -72.334 37.5 -125.001c0 -38 -5.83301 -76.667 -17.5 -116
s-27.834 -74.833 -48.501 -106.5s-45.334 -57.667 -74.001 -78s-60 -30.5 -94 -30.5z" />
    <glyph glyph-name="one" unicode="1" horiz-adv-x="404" 
d="M94 0h122l189 705h-85l-207 -60l2 -106l133 34z" />
    <glyph glyph-name="two" unicode="2" horiz-adv-x="606" 
d="M-27 0l513.999 -0.000976562l29 108h-327l260 188c28.667 20.667 53 40.334 73 59.001s36.333 37 49 55s22 36.333 28 55s9 38.667 9 60c0 27.333 -5.5 52.333 -16.5 75s-26.5 42.167 -46.5 58.5s-44 29 -72 38s-59 13.5 -93 13.5c-54 0 -102.333 -11.5 -145 -34.5
s-80.667 -52.5 -114 -88.5l77 -79c26.667 26.667 54.334 48.5 83.001 65.5s60 25.5 94 25.5c33.333 0 59.333 -7.66699 78 -23s28 -36.333 28 -63c0 -25.333 -9 -49.333 -27 -72s-45 -47 -81 -73l-373 -268z" />
    <glyph glyph-name="three" unicode="3" horiz-adv-x="605" 
d="M244 -12c40 0 77.502 6.16602 112.502 18.499s65.5 29.333 91.5 51s46.5 47.334 61.5 77.001s22.5 61.834 22.5 96.501c0 26 -4.16699 48.833 -12.5 68.5s-20 36.667 -35 51s-32.5 25.833 -52.5 34.5s-42 15 -66 19l250 204l25 92h-466l-29 -107h298l-238 -200l8 -75h38
c48 0 85.833 -8.16699 113.5 -24.5s41.5 -40.833 41.5 -73.5c0 -16.667 -4 -32.334 -12 -47.001s-19 -27.5 -33 -38.5s-30.5 -19.667 -49.5 -26s-39.833 -9.5 -62.5 -9.5c-40.667 0 -73.834 7.83301 -99.501 23.5s-47.834 37.5 -66.501 65.5l-93 -66
c22 -40 53.667 -72.333 95 -97s94 -37 158 -37z" />
    <glyph glyph-name="four" unicode="4" horiz-adv-x="655" 
d="M331 0h117l42 157h100l27 101h-100l120 447h-119l-498 -457l13 -91h340zM177 258l298 279l-75 -279h-223z" />
    <glyph glyph-name="five" unicode="5" horiz-adv-x="607" 
d="M251 -11c46 0 87.668 6.99805 125.001 20.998s69.333 32.833 96 56.5s47.167 51.167 61.5 82.5s21.5 64 21.5 98c0 30 -5.33301 57.333 -16 82s-25.667 45.667 -45 63s-42.5 30.666 -69.5 39.999s-56.833 14 -89.5 14c-14.667 0 -30.167 -1.5 -46.5 -4.5
s-30.833 -6.83301 -43.5 -11.5l53 161h299l31 109h-411l-109 -334l64 -52c17.333 8.66699 36.333 15.667 57 21s39.667 8 57 8c46 0 81.167 -10 105.5 -30s36.5 -46 36.5 -78c0 -18 -4 -35.167 -12 -51.5s-19.333 -30.833 -34 -43.5s-32.334 -22.667 -53.001 -30
s-43.334 -11 -68.001 -11c-36.667 0 -69 7.33301 -97 22s-53.667 36 -77 64l-88 -71c12 -17.333 26.833 -33.666 44.5 -48.999s37.334 -28.666 59.001 -39.999s45.167 -20.166 70.5 -26.499s51.333 -9.5 78 -9.5z" />
    <glyph glyph-name="six" unicode="6" horiz-adv-x="642" 
d="M314 -12c40 0 77.167 7.33398 111.5 22.001s64.333 34.167 90 58.5s45.667 52.333 60 84s21.5 64.5 21.5 98.5c0 30 -5.5 57.167 -16.5 81.5s-26 45.166 -45 62.499s-41.833 30.666 -68.5 39.999s-55.334 14 -86.001 14c-38.667 0 -73.834 -7.83301 -105.501 -23.5
s-55.834 -33.5 -72.501 -53.5c6 32 17 62.667 33 92s34 54 54 74c41.333 42 91 63 149 63c32 0 60 -5.66699 84 -17s45.667 -26 65 -44l73 87c-25.333 25.333 -55.666 45.833 -90.999 61.5s-75.666 23.5 -120.999 23.5c-49.333 0 -94.5 -9.16699 -135.5 -27.5
s-77.5 -43.5 -109.5 -75.5c-44 -44 -78 -97.667 -102 -161s-36 -130 -36 -200c0 -44.667 6 -82.667 18 -114s29.667 -58.666 53 -81.999c20.667 -20.667 46.334 -36.5 77.001 -47.5s64 -16.5 100 -16.5zM315 93.001c-40 0 -72.333 11.665 -97 34.998
c-21.333 21.333 -32 48 -32 80c0 18 3.83301 35.5 11.5 52.5s18.5 32 32.5 45s31 23.333 51 31s42 11.5 66 11.5c40 0 70.833 -10.667 92.5 -32s32.5 -47.666 32.5 -78.999c0 -18.667 -3.83301 -36.667 -11.5 -54s-18.334 -32.666 -32.001 -45.999s-30.167 -24 -49.5 -32
s-40.666 -12 -63.999 -12z" />
    <glyph glyph-name="seven" unicode="7" horiz-adv-x="600" 
d="M30 0h145l450 607l26 93h-492l-29 -108h346z" />
    <glyph glyph-name="eight" unicode="8" horiz-adv-x="656" 
d="M298 -10c44 0 83.667 5.66504 119 16.998s65.5 26.5 90.5 45.5s44.167 40.833 57.5 65.5s20 50.667 20 78c0 38 -10.833 69.833 -32.5 95.5s-48.167 44.5 -79.5 56.5c48 10.667 86.833 31.334 116.5 62.001s44.5 69 44.5 115c0 26.667 -6 51.334 -18 74.001
s-28.667 42.334 -50 59.001s-46.833 29.5 -76.5 38.5s-62.5 13.5 -98.5 13.5c-41.333 0 -78 -5.66699 -110 -17s-59 -26 -81 -44s-38.833 -38.667 -50.5 -62s-17.5 -47 -17.5 -71c0 -30.667 8.33301 -58.334 25 -83.001s39 -43.334 67 -56.001
c-26.667 -6 -51.667 -14.333 -75 -25s-43.5 -24 -60.5 -40s-30.333 -34.667 -40 -56s-14.5 -45.666 -14.5 -72.999c0 -28 6.83301 -53.833 20.5 -77.5s32.5 -44 56.5 -61s52 -30.333 84 -40s66.333 -14.5 103 -14.5zM377 404.998c-39.333 0 -70.833 9.33496 -94.5 28.002
s-35.167 42 -34.5 70c0 14.667 3.5 28.5 10.5 41.5s16.667 24.167 29 33.5s26.833 16.666 43.5 21.999s35 8 55 8c42 0 74.333 -9.33301 97 -28s34 -41.667 34 -69c0 -14 -3.33301 -27.5 -10 -40.5s-16.167 -24.333 -28.5 -34s-27 -17.334 -44 -23.001
s-36.167 -8.5 -57.5 -8.5zM305 91c-45.333 0 -81.499 9.66895 -108.499 29.002s-40.5 44 -40.5 74c0.666992 31.333 15.167 57.833 43.5 79.5s66.5 32.5 114.5 32.5c46 0 82.5 -10 109.5 -30s40.5 -44.667 40.5 -74c0 -16.667 -4 -31.834 -12 -45.501
s-19 -25.334 -33 -35.001s-30.833 -17.167 -50.5 -22.5s-40.834 -8 -63.501 -8z" />
    <glyph glyph-name="nine" unicode="9" horiz-adv-x="642" 
d="M243 -12c46.667 0 90.0039 8.83496 130.004 26.502s76.333 42.834 109 75.501c44 44 78.333 96.667 103 158s37 126 37 194c0 50 -6 91.167 -18 123.5s-29.667 59.833 -53 82.5c-20.667 20.667 -46.834 36.5 -78.501 47.5s-64.5 16.5 -98.5 16.5
c-40 0 -77.167 -7 -111.5 -21s-64.333 -33.167 -90 -57.5s-45.834 -52.833 -60.501 -85.5s-22 -67.334 -22 -104.001c0 -31.333 5.5 -59.333 16.5 -84s26 -45.667 45 -63s41.667 -30.666 68 -39.999s55.166 -14 86.499 -14c20 0 39 2.33301 57 7s34.5 10.667 49.5 18
s28.667 15.666 41 24.999s22.5 18.666 30.5 27.999c-6.66699 -30 -17.334 -58.667 -32.001 -86s-32.334 -51.333 -53.001 -72c-43.333 -43.333 -93.333 -65 -150 -65c-32 0 -60.167 6.16699 -84.5 18.5s-48.166 29.166 -71.499 50.499l-74 -87
c30 -29.333 63.833 -52 101.5 -68s78.5 -24 122.5 -24zM343.004 345.002c-40.667 0 -72.166 10.665 -94.499 31.998s-33.5 48.333 -33.5 81c0 20 3.83301 39 11.5 57s18.5 33.833 32.5 47.5s30.667 24.5 50 32.5s40.666 12 63.999 12c40.667 0 73 -12 97 -36
c10 -10 17.833 -22 23.5 -36s8.5 -29 8.5 -45c0 -19.333 -3.83301 -37.666 -11.5 -54.999s-18.5 -32.666 -32.5 -45.999s-30.833 -24 -50.5 -32s-41.167 -12 -64.5 -12z" />
    <glyph glyph-name="colon" unicode=":" horiz-adv-x="296" 
d="M116 391h133l37 137h-133zM11 0h133l37 137h-133z" />
    <glyph glyph-name="semicolon" unicode=";" horiz-adv-x="296" 
d="M116 391h133l37 137h-133zM-44 -145c26 2 49.167 6.5 69.5 13.5s38.5 17 54.5 30s29.833 29.5 41.5 49.5s21.167 44.333 28.5 73l31 116h-133l-37 -137h51c-4.66699 -25.333 -16 -46 -34 -62s-45 -26.667 -81 -32z" />
    <glyph glyph-name="less" unicode="&#x3c;" horiz-adv-x="640" 
d="M493 77l29 110l-315 160l400 159l33 121l-537 -221l-29 -108z" />
    <glyph glyph-name="equal" unicode="=" horiz-adv-x="640" 
d="M129 421h468l30 112h-468zM62 171h468l30 112h-468z" />
    <glyph glyph-name="greater" unicode="&#x3e;" horiz-adv-x="640" 
d="M38 77l537 221l29 108l-419 221l-29 -110l315 -160l-400 -159z" />
    <glyph glyph-name="question" unicode="?" horiz-adv-x="541" 
d="M182 221l81.002 -0.00195312l33 87c80 12 143.167 36.5 189.5 73.5s69.5 86.167 69.5 147.5c0 24 -5 47 -15 69s-24.167 41.167 -42.5 57.5s-40.833 29.333 -67.5 39s-57 14.5 -91 14.5c-46.667 0 -90.834 -8.66699 -132.501 -26s-77.834 -41.666 -108.501 -72.999
l66 -81c21.333 20 45.833 36.333 73.5 49s56.167 19 85.5 19c32.667 0 58 -7.16699 76 -21.5s27 -34.5 27 -60.5c0 -36.667 -19 -65.667 -57 -87s-90.667 -34.666 -158 -39.999l-6 -5zM99.002 -0.00195312h133l37 137h-133z" />
    <glyph glyph-name="at" unicode="@" horiz-adv-x="980" 
d="M476 -157c40 0 77.667 3.8291 113 11.4961s71.333 20.167 108 37.5l-16 33c-34 -15.333 -67.333 -26.666 -100 -33.999s-67.667 -11 -105 -11c-56 0 -107.333 8.5 -154 25.5s-86.5 41 -119.5 72s-58.667 68.167 -77 111.5s-27.5 91 -27.5 143
c0 59.333 11.667 115.833 35 169.5s55.166 101 95.499 142s87.833 73.5 142.5 97.5s113.334 36 176.001 36c56 0 106.167 -8.33301 150.5 -25s82 -39 113 -67s54.833 -60.833 71.5 -98.5s25 -77.5 25 -119.5s-5.33301 -79 -16 -111s-24 -58.833 -40 -80.5
s-33.667 -37.834 -53 -48.501s-37.666 -16 -54.999 -16c-28.667 0 -49 10.167 -61 30.5s-12.333 48.5 -1 84.5l78 247l-92 25l-22 -73c-12 23.333 -29 42.833 -51 58.5s-51 23.5 -87 23.5c-30.667 0 -60.834 -6.83301 -90.501 -20.5s-56.334 -32.667 -80.001 -57
s-42.667 -53.166 -57 -86.499s-21.5 -69.666 -21.5 -108.999c0 -26.667 4.33301 -50.5 13 -71.5s20.167 -38.667 34.5 -53s31.166 -25.166 50.499 -32.499s40 -11 62 -11c36 0 67.5 8 94.5 24s51.5 36.333 73.5 61c8.66699 -25.333 24.5 -45.666 47.5 -60.999
s51.833 -23 86.5 -23c27.333 0 54.5 6 81.5 18s51.333 30.5 73 55.5s39.167 56.167 52.5 93.5s20 81.666 20 132.999c0 46.667 -9.16699 91 -27.5 133s-44.666 78.833 -78.999 110.5s-76.166 56.834 -125.499 75.501s-105.333 28 -168 28c-68 0 -131.833 -13 -191.5 -39
s-111.5 -61 -155.5 -105s-78.667 -95.167 -104 -153.5s-38 -119.833 -38 -184.5c0 -57.333 10.167 -109.833 30.5 -157.5s48.833 -88.667 85.5 -123s80.667 -61 132 -80s108 -28.5 170 -28.5zM456 150.996c-28 0 -50.332 8.5 -66.999 25.5s-25 40.5 -25 70.5
c0 24 4.16699 46.5 12.5 67.5s19.5 39.5 33.5 55.5s30.167 28.5 48.5 37.5s37.166 13.5 56.499 13.5c30 0 54.167 -8.83301 72.5 -26.5s27.5 -41.167 27.5 -70.5c0 -23.333 -4.66699 -45.5 -14 -66.5s-21.5 -39.333 -36.5 -55s-32 -28.167 -51 -37.5s-38.167 -14 -57.5 -14z
" />
    <glyph glyph-name="A" unicode="A" horiz-adv-x="763" 
d="M-50 0h133l117 169h331l27 -169h126l-119 705h-118zM275 278l196 283l45 -283h-241z" />
    <glyph glyph-name="B" unicode="B" horiz-adv-x="717" 
d="M19 0l335.001 -0.000976562c47.333 0 89.5 5.16699 126.5 15.5s68.167 24.833 93.5 43.5s44.666 40.834 57.999 66.501s20 54.167 20 85.5c0 38 -10.167 68.333 -30.5 91s-46.166 40 -77.499 52c46.667 10 85 30.167 115 60.5s45 69.5 45 117.5
c0 24 -4.66699 46.167 -14 66.5s-23.5 38 -42.5 53s-42.833 26.833 -71.5 35.5s-62.334 13 -101.001 13h-268zM248.001 404.999l50 186h166c39.333 0 68.5 -7 87.5 -21s28.5 -33.333 28.5 -58c0 -34.667 -14 -61.167 -42 -79.5s-66.667 -27.5 -116 -27.5h-174z
M169.001 108.999l50.999 192h187c38 0 68 -7.16699 90 -21.5s33 -34.833 33 -61.5c0 -34 -14.167 -60.667 -42.5 -80s-67.166 -29 -116.499 -29h-202z" />
    <glyph glyph-name="C" unicode="C" horiz-adv-x="730" 
d="M391 -12c60.667 0 112.335 10.501 155.002 31.501s80.667 47.5 114 79.5l-81 82c-28 -24 -56 -43.333 -84 -58s-62 -22 -102 -22c-28 0 -53.5 4.5 -76.5 13.5s-43 21.833 -60 38.5s-30.167 36.667 -39.5 60s-14 49.333 -14 78c0 40.667 7.66699 79.667 23 117
s35.833 70.166 61.5 98.499s55.5 50.833 89.5 67.5s69.667 25 107 25c22.667 0 43.167 -2.5 61.5 -7.5s34.833 -12.167 49.5 -21.5s28 -20.5 40 -33.5s23.333 -27.5 34 -43.5l102 69c-26 46 -61.333 82.5 -106 109.5s-100.334 40.5 -167.001 40.5
c-58.667 0 -113.667 -11.667 -165 -35s-96.166 -54.5 -134.499 -93.5s-68.5 -84.333 -90.5 -136s-33 -105.5 -33 -161.5c0 -46 8 -87.333 24 -124s38.167 -68 66.5 -94s61.666 -45.833 99.999 -59.5s80.166 -20.5 125.499 -20.5z" />
    <glyph glyph-name="D" unicode="D" horiz-adv-x="775" 
d="M19 0l251.001 -0.00195312c78.667 0 148.5 11.333 209.5 34s112.5 55 154.5 97c36.667 36.667 64.667 78.334 84 125.001s29 96.334 29 149.001c0 85.333 -25.667 153.333 -77 204c-28 28 -64.333 50.167 -109 66.5s-99.334 24.5 -164.001 24.5h-190zM172.001 111.998
l128.999 475.999h87c42.667 0 79 -5.16699 109 -15.5s54.333 -24.833 73 -43.5c15.333 -15.333 27.333 -33.666 36 -54.999s13 -46 13 -74c0 -38 -6.66699 -73.333 -20 -106s-32.666 -61.667 -57.999 -87c-31.333 -31.333 -68.833 -55 -112.5 -71s-91.5 -24 -143.5 -24h-113
z" />
    <glyph glyph-name="E" unicode="E" horiz-adv-x="660" 
d="M19 0h519l30 110h-397l50 188h347l30 109h-347l49 183h391l30 110h-514z" />
    <glyph glyph-name="F" unicode="F" horiz-adv-x="661" 
d="M19 0h124l76 285h353l30 112h-353l51 191h398l30 112h-521z" />
    <glyph glyph-name="G" unicode="G" horiz-adv-x="782" 
d="M395 -12c51.333 0 97.1689 5.99805 137.502 17.998s78.5 28.667 114.5 50l95 335h-298l-29 -107h179l-43 -148c-18 -9.33301 -39.167 -17.666 -63.5 -24.999s-52.5 -11 -84.5 -11c-28.667 0 -55.167 4.33301 -79.5 13s-45.5 21.167 -63.5 37.5s-32 36.5 -42 60.5
s-15 51.333 -15 82c0 40 7.5 78.333 22.5 115s35.667 69.167 62 97.5s57.666 51 93.999 68s75.5 25.5 117.5 25.5c24.667 0 46.667 -2.33301 66 -7s36.833 -11 52.5 -19s29.667 -17.5 42 -28.5s23.5 -22.5 33.5 -34.5l92 78c-12 16 -26.167 31.5 -42.5 46.5
s-35.833 28.333 -58.5 40s-48.5 20.834 -77.5 27.501s-61.833 10 -98.5 10c-62 0 -119.5 -11.833 -172.5 -35.5s-98.833 -55.167 -137.5 -94.5s-69 -84.5 -91 -135.5s-33 -103.5 -33 -157.5c0 -50 9 -93.833 27 -131.5s42 -69 72 -94s64.167 -43.833 102.5 -56.5
s78.166 -19 119.499 -19z" />
    <glyph glyph-name="H" unicode="H" horiz-adv-x="756" 
d="M19 0h124l79 295h329l-79 -295h123l188 700h-123l-78 -291h-329l78 291h-124z" />
    <glyph glyph-name="I" unicode="I" horiz-adv-x="317" 
d="M26 0h124l188 700h-124z" />
    <glyph glyph-name="J" unicode="J" horiz-adv-x="564" 
d="M190 -10c40 0 76.1631 5.83203 108.496 17.499s61.166 29.834 86.499 54.501c12 12 22.667 24.667 32 38s17.833 28 25.5 44s14.834 33.833 21.501 53.5s13.334 42.167 20.001 67.5l117 435h-127l-109 -407c-6 -21.333 -11.5 -39.833 -16.5 -55.5s-10 -29 -15 -40
s-10.333 -20.5 -16 -28.5s-11.834 -15.333 -18.501 -22c-13.333 -13.333 -28.666 -23.833 -45.999 -31.5s-36.666 -11.5 -57.999 -11.5c-29.333 0 -54.666 7 -75.999 21s-40.666 36 -57.999 66l-90 -71c21.333 -40.667 51 -72.5 89 -95.5s81.333 -34.5 130 -34.5z" />
    <glyph glyph-name="K" unicode="K" horiz-adv-x="723" 
d="M19 0h124l49 186l169 142l141 -328h136l-179 401l356 299h-169l-410 -354l95 354h-124z" />
    <glyph glyph-name="L" unicode="L" horiz-adv-x="618" 
d="M19 0h491l31 112h-368l158 588h-124z" />
    <glyph glyph-name="M" unicode="M" horiz-adv-x="868" 
d="M19 0h123l134 500l129 -328h4l308 330l-135 -502h125l188 700h-141l-300 -331l-122 331h-125z" />
    <glyph glyph-name="N" unicode="N" horiz-adv-x="786" 
d="M19 0h122l136 509l245 -509h103l188 700h-121l-134 -495l-237 495h-114z" />
    <glyph glyph-name="O" unicode="O" horiz-adv-x="836" 
d="M390 -12c60.667 0 116.502 11.833 167.502 35.5s94.833 54.834 131.5 93.501s65.334 83 86.001 133s31 101.667 31 155c0 43.333 -7.66699 83.666 -23 120.999s-36.666 69.833 -63.999 97.5s-60.5 49.334 -99.5 65.001s-81.833 23.5 -128.5 23.5
c-60.667 0 -116.334 -11.833 -167.001 -35.5s-94.334 -54.834 -131.001 -93.501s-65.334 -83.167 -86.001 -133.5s-31 -101.833 -31 -154.5c0 -43.333 7.5 -83.833 22.5 -121.5s36.333 -70.167 64 -97.5s60.667 -48.833 99 -64.5s81.166 -23.5 128.499 -23.5zM403.002 101
c-31.333 0 -59.333 5.00195 -84 15.002s-45.5 24 -62.5 42s-30 39.167 -39 63.5s-13.5 51.166 -13.5 80.499c0 36 6.66699 71.667 20 107s32.166 67 56.499 95s53.333 50.833 87 68.5s70.834 26.5 111.501 26.5c31.333 0 59.333 -5 84 -15s45.5 -24 62.5 -42
s30 -39.333 39 -64s13.5 -51.334 13.5 -80.001c0 -36 -6.66699 -71.667 -20 -107s-32.166 -67 -56.499 -95s-53.333 -50.833 -87 -68.5s-70.834 -26.5 -111.501 -26.5z" />
    <glyph glyph-name="P" unicode="P" horiz-adv-x="674" 
d="M19 0l124 -0.000976562l61 227h146c49.333 0 95 6 137 18s78.167 29.333 108.5 52s54 50.5 71 83.5s25.5 70.5 25.5 112.5c0 57.333 -17.333 103.333 -52 138c-24 24.667 -53.333 42.334 -88 53.001s-76 16 -124 16h-221zM233 335.999l67 252.001h124
c51.333 0 89 -12 113 -36c18 -18 27 -41 27 -69c0 -46.667 -18.5 -82.834 -55.5 -108.501s-87.833 -38.5 -152.5 -38.5h-123z" />
    <glyph glyph-name="Q" unicode="Q" horiz-adv-x="836" 
d="M640 -38l100.001 68.001l-61 77c40 39.333 71.167 84.833 93.5 136.5s33.5 105.5 33.5 161.5c0 43.333 -7.66699 83.666 -23 120.999s-36.666 69.833 -63.999 97.5s-60.5 49.334 -99.5 65.001s-81.833 23.5 -128.5 23.5c-60.667 0 -116.334 -11.833 -167.001 -35.5
s-94.334 -54.834 -131.001 -93.501s-65.334 -83.167 -86.001 -133.5s-31 -101.833 -31 -154.5c0 -43.333 7.5 -83.833 22.5 -121.5s36.333 -70.167 64 -97.5s60.667 -48.833 99 -64.5s81.166 -23.5 128.499 -23.5c36.667 0 71.334 4.5 104.001 13.5s63.334 21.5 92.001 37.5
zM403.001 101.001c-31.333 0 -59.333 5.00098 -84 15.001s-45.5 24 -62.5 42s-30 39.167 -39 63.5s-13.5 51.166 -13.5 80.499c0 36 6.66699 71.667 20 107s32.166 67 56.499 95s53.333 50.833 87 68.5s70.834 26.5 111.501 26.5c31.333 0 59.333 -5 84 -15
s45.5 -24 62.5 -42s30 -39.333 39 -64s13.5 -51.334 13.5 -80.001c0 -34 -6.16699 -67.667 -18.5 -101s-29.5 -63.666 -51.5 -90.999l-84 120l-101 -69l99 -124c-17.333 -10 -36 -17.833 -56 -23.5s-41 -8.5 -63 -8.5z" />
    <glyph glyph-name="R" unicode="R" horiz-adv-x="723" 
d="M19 0l124 0.000976562l65 244h146l120 -244h141l-130 256c65.333 13.333 116.5 37.166 153.5 71.499s59.167 77.166 66.5 128.499c6 25.333 7.16699 50 3.5 74s-11.167 46.667 -22.5 68c-17.333 32.667 -44.5 57.834 -81.5 75.501s-84.833 26.5 -143.5 26.5h-254z
M237 353.001l63.999 235h153c36 0 64.333 -5.16699 85 -15.5s34.334 -24.833 41.001 -43.5c10.667 -22.667 11 -47 1 -73c-6 -34 -25.833 -59.667 -59.5 -77s-75.5 -26 -125.5 -26h-159z" />
    <glyph glyph-name="S" unicode="S" horiz-adv-x="637" 
d="M296 -10c36.667 0 71.6631 5.16699 104.996 15.5s62.333 25.333 87 45s44.334 43.334 59.001 71.001s22 58.5 22 92.5c0 24 -4 45.333 -12 64s-19.5 35.5 -34.5 50.5s-33.333 28.333 -55 40s-45.834 22.834 -72.501 33.501c-25.333 10 -46.666 19.167 -63.999 27.5
s-31.333 16.5 -42 24.5s-18.334 16.333 -23.001 25s-7 18.667 -7 30c0 12 3 23.5 9 34.5s14.5 20.667 25.5 29s24.5 15.166 40.5 20.499s34.333 8 55 8c36.667 0 69.167 -6.83301 97.5 -20.5s55.833 -33.5 82.5 -59.5l86 84c-28.667 32 -64 57.5 -106 76.5
s-92.333 28.5 -151 28.5c-37.333 0 -72.333 -5.33301 -105 -16s-61.167 -25.5 -85.5 -44.5s-43.5 -42.167 -57.5 -69.5s-21 -57.333 -21 -90c0 -24 4.33301 -45.333 13 -64s21 -35.5 37 -50.5s35 -28.333 57 -40s46.333 -22.834 73 -33.501
c24.667 -10 45.334 -19.167 62.001 -27.5s30 -16.5 40 -24.5s17 -16.333 21 -25s6 -18.334 6 -29.001c0 -29.333 -12.667 -52.833 -38 -70.5s-57.666 -26.5 -96.999 -26.5c-45.333 0 -84.666 8.33301 -117.999 25s-64.333 41.334 -93 74.001l-93 -77
c32 -42.667 72.833 -75.167 122.5 -97.5s107.834 -33.5 174.501 -33.5z" />
    <glyph glyph-name="T" unicode="T" horiz-adv-x="618" 
d="M174 0h123l158 586h222l31 114h-568l-31 -114h223z" />
    <glyph glyph-name="U" unicode="U" horiz-adv-x="762" 
d="M345 -11c48.667 0 91.834 7.3291 129.501 21.9961s70.834 36.334 99.501 65.001c48.667 48.667 85 117.667 109 207l112 417h-123l-107 -398c-9.33301 -33.333 -20.333 -62 -33 -86s-27.334 -44.333 -44.001 -61c-35.333 -35.333 -79 -53 -131 -53
c-48.667 0 -85.334 12.5 -110.001 37.5s-37 57.5 -37 97.5c0 14.667 0.833008 28.334 2.5 41.001s4.16699 24.667 7.5 36l103 386h-123l-98 -369c-5.33301 -19.333 -9.33301 -38.166 -12 -56.499s-4 -36.5 -4 -54.5c0 -71.333 22.5 -127.666 67.5 -168.999
s108.833 -62 191.5 -62z" />
    <glyph glyph-name="V" unicode="V" horiz-adv-x="721" 
d="M229 -5h109l477 705h-139l-351 -535l-63 535h-132z" />
    <glyph glyph-name="W" unicode="W" horiz-adv-x="1098" 
d="M191 -5h111l302 497l36 -497h113l433 705h-140l-306 -519l-34 521h-104l-309 -521l-29 519h-128z" />
    <glyph glyph-name="X" unicode="X" horiz-adv-x="698" 
d="M-43 0h158l240 261l118 -261h138l-166 348l336 352h-158l-230 -250l-112 250h-138l161 -337z" />
    <glyph glyph-name="Y" unicode="Y" horiz-adv-x="655" 
d="M189 0h123l71 265l395 435h-152l-277 -316l-106 316h-136l156 -422z" />
    <glyph glyph-name="Z" unicode="Z" horiz-adv-x="681" 
d="M-19 0h574l29 109h-404l535 500l25 91h-557l-30 -109h387l-535 -500z" />
    <glyph glyph-name="bracketleft" unicode="[" horiz-adv-x="454" 
d="M-2 -130h308l25 95h-192l172 640h192l26 95h-308z" />
    <glyph glyph-name="backslash" unicode="\" horiz-adv-x="521" 
d="M339 -128h101l-212 926h-101z" />
    <glyph glyph-name="bracketright" unicode="]" horiz-adv-x="454" 
d="M-64 -130h308l223 830h-308l-25 -95h192l-172 -640h-192z" />
    <glyph glyph-name="asciicircum" unicode="^" 
d="M98 493h100l137 132l67 -132h84l-96 208h-85z" />
    <glyph glyph-name="underscore" unicode="_" horiz-adv-x="600" 
d="M-115 -160h605l25 94h-604z" />
    <glyph glyph-name="grave" unicode="`" 
d="M353 595h83l-61 164l-113 -49z" />
    <glyph glyph-name="a" unicode="a" horiz-adv-x="583" 
d="M174 -11c36 0 67.666 7.16602 94.999 21.499s52.666 33.833 75.999 58.5l-18 -69h119l79 297c3.33301 13.333 6 26 8 38s3 24.333 3 37c0 52 -17.833 92.333 -53.5 121s-88.5 43 -158.5 43c-36 0 -69.667 -3.16699 -101 -9.5s-60.666 -15.166 -87.999 -26.499l20 -100
c21.333 8.66699 44.166 15.667 68.499 21s49.833 8 76.5 8c40.667 0 70 -7.16699 88 -21.5s27 -33.166 27 -56.499c0 -8 -0.5 -15 -1.5 -21s-2.5 -13 -4.5 -21l-3 -11c-23.333 8 -48.166 14.333 -74.499 19s-54.166 7 -83.499 7c-34 0 -65.333 -4.16699 -94 -12.5
s-53.5 -20.5 -74.5 -36.5s-37.333 -35.833 -49 -59.5s-17.5 -50.834 -17.5 -81.501c0 -22 4.16699 -42 12.5 -60s19.666 -33.167 33.999 -45.5s31.333 -22 51 -29s40.834 -10.5 63.501 -10.5zM220.999 77.999c-26 0 -46.502 6.16895 -61.502 18.502
s-22.5 30.166 -22.5 53.499c0 28 11.5 50.833 34.5 68.5s54.833 26.5 95.5 26.5c23.333 0 45 -2 65 -6s38.333 -8.66699 55 -14l-6 -23c-4 -16 -11.167 -31.5 -21.5 -46.5s-22.666 -28.333 -36.999 -40s-30.166 -20.834 -47.499 -27.501s-35.333 -10 -54 -10z" />
    <glyph glyph-name="b" unicode="b" horiz-adv-x="668" 
d="M329 -11c38 0 74.666 8.16406 109.999 24.4971s66.666 38.833 93.999 67.5s49.166 62.834 65.499 102.501s24.5 82.834 24.5 129.501c0 34.667 -5.16699 66 -15.5 94s-24.666 51.833 -42.999 71.5s-40.166 34.667 -65.499 45s-52.666 15.5 -81.999 15.5
c-34.667 0 -65.5 -7.5 -92.5 -22.5s-52.5 -34.5 -76.5 -58.5l73 272h-121l-195 -730h121l25 94c16 -29.333 38 -54.166 66 -74.499s65.333 -30.5 112 -30.5zM314.999 91.9971c-20 0 -38.167 3.33398 -54.5 10.001s-30.333 16 -42 28s-20.667 26.167 -27 42.5
s-9.5 34.166 -9.5 53.499c0 28 5.33301 54.667 16 80s24.834 47.5 42.501 66.5s38 34.167 61 45.5s46.5 17 70.5 17c38 0 68.333 -11.667 91 -35s34 -55.333 34 -96c0 -29.333 -4.83301 -56.833 -14.5 -82.5s-22.834 -48.167 -39.501 -67.5s-36 -34.5 -58 -45.5
s-45.333 -16.5 -70 -16.5z" />
    <glyph glyph-name="c" unicode="c" horiz-adv-x="561" 
d="M286 -12c44.667 0 82.668 7.6709 114.001 23.0039s61 35.666 89 60.999l-64 79c-21.333 -18.667 -42.5 -33.167 -63.5 -43.5s-44.833 -15.5 -71.5 -15.5c-17.333 0 -33.5 3 -48.5 9s-28.167 14.667 -39.5 26s-20.333 25.166 -27 41.499s-10 34.833 -10 55.5
c0 28 5 54.667 15 80s23.333 47.666 40 66.999s35.834 34.666 57.501 45.999s44.5 17 68.5 17c34 0 60.667 -7.5 80 -22.5s36 -33.833 50 -56.5l94 64c-9.33301 16 -20.333 31.167 -33 45.5s-27.667 27 -45 38s-37.333 19.833 -60 26.5s-48 10 -76 10
c-42 0 -81.833 -8.33301 -119.5 -25s-70.834 -39.334 -99.501 -68.001s-51.334 -62.167 -68.001 -100.5s-25 -79.166 -25 -122.499c0 -36 6.16699 -68.5 18.5 -97.5s29.5 -53.667 51.5 -74s47.667 -36 77 -47s61 -16.5 95 -16.5z" />
    <glyph glyph-name="d" unicode="d" horiz-adv-x="668" 
d="M250 -11c34.667 0 65.498 7.50391 92.498 22.5039s52.5 34.5 76.5 58.5l-19 -70h121l195 730h-121l-79 -296c-16 29.333 -38 54.166 -66 74.499s-65.333 30.5 -112 30.5c-38 0 -74.667 -8.16699 -110 -24.5s-66.666 -38.833 -93.999 -67.5
s-49.166 -62.834 -65.499 -102.501s-24.5 -82.834 -24.5 -129.501c0 -35.333 5.16699 -66.833 15.5 -94.5s24.833 -51.334 43.5 -71.001s40.5 -34.667 65.5 -45s52.167 -15.5 81.5 -15.5zM295.998 92.0039c-38 0 -68.501 11.8311 -91.501 35.498s-34.5 55.5 -34.5 95.5
c0 29.333 4.83301 57 14.5 83s22.834 48.5 39.501 67.5s36 34 58 45s45.333 16.5 70 16.5c20 0 38.167 -3.33301 54.5 -10s30.333 -15.834 42 -27.501s20.834 -25.667 27.501 -42s10 -34.166 10 -53.499c0 -28 -5.33301 -54.667 -16 -80s-24.834 -47.666 -42.501 -66.999
s-38 -34.666 -61 -45.999s-46.5 -17 -70.5 -17z" />
    <glyph glyph-name="e" unicode="e" horiz-adv-x="600" 
d="M159 222l383.998 -0.00195312c7.33301 18 13 36.5 17 55.5s6 37.833 6 56.5c0 28.667 -4.66699 55.5 -14 80.5s-23 46.667 -41 65s-40 32.833 -66 43.5s-56 16 -90 16c-46 0 -88 -9.33301 -126 -28s-70.833 -43.167 -98.5 -73.5s-49 -64.666 -64 -102.999
s-22.5 -76.833 -22.5 -115.5c0 -35.333 5.66699 -67.333 17 -96s27.333 -53 48 -73s45.834 -35.333 75.501 -46s62.834 -16 99.501 -16c46 0 85.333 7 118 21s61.667 31.333 87 52l-58 77c-22.667 -17.333 -44.5 -30.166 -65.5 -38.499s-44.167 -12.5 -69.5 -12.5
c-45.333 0 -79.5 12.5 -102.5 37.5s-34.5 57.5 -34.5 97.5zM171.998 301.998c13.333 40 35.332 73 65.999 99s66.667 39 108 39c36.667 0 63.334 -10 80.001 -30s25 -43.667 25 -71c0 -14.667 -1.66699 -27 -5 -37h-274z" />
    <glyph glyph-name="f" unicode="f" horiz-adv-x="396" 
d="M33 0l120.998 0.000976562l114 424h144l28 104h-146l8 30c13.333 49.333 42.333 74 87 74c24 0 48.667 -5.33301 74 -16l27 101c-13.333 5.33301 -28.666 9.66602 -45.999 12.999s-36.666 5 -57.999 5c-51.333 0 -94.333 -13.167 -129 -39.5s-58.667 -67.833 -72 -124.5
l-10 -43h-67l-28 -104h67z" />
    <glyph glyph-name="g" unicode="g" horiz-adv-x="666" 
d="M246 -162c47.333 0 87.6689 6.16211 121.002 18.4951s62.333 30.833 87 55.5c10 10 19.167 20.5 27.5 31.5s16 23.5 23 37.5s13.667 30 20 48s12.833 39 19.5 63l116 436h-121l-25 -95c-7.33301 13.333 -15.833 26.333 -25.5 39s-21.334 24 -35.001 34
s-29.834 18 -48.501 24s-40.334 9 -65.001 9c-36.667 0 -72.5 -7.66699 -107.5 -23s-66.167 -36.666 -93.5 -63.999s-49.333 -59.666 -66 -96.999s-25 -78 -25 -122c0 -30.667 5.66699 -57.834 17 -81.501s26.5 -43.667 45.5 -60s40.667 -28.666 65 -36.999
s49.5 -12.5 75.5 -12.5c37.333 0 69.833 7 97.5 21s55.5 33.667 83.5 59l-9 -32c-6.66699 -23.333 -14.167 -43.666 -22.5 -60.999s-19.166 -32.666 -32.499 -45.999c-15.333 -15.333 -33.5 -27 -54.5 -35s-45.833 -12 -74.5 -12c-36 0 -70.833 5.83301 -104.5 17.5
s-64.5 28.167 -92.5 49.5l-67 -84c34 -25.333 74.667 -45.166 122 -59.499s97 -21.5 149 -21.5zM296.003 140.995c-34 0 -62.832 9.33203 -86.499 27.999s-35.5 47 -35.5 85c0 24.667 4.83301 48.167 14.5 70.5s22.667 41.666 39 57.999s35.166 29.333 56.499 39
s44 14.5 68 14.5c39.333 0 70.5 -11.167 93.5 -33.5s34.5 -50.5 34.5 -84.5c0 -23.333 -5 -45.666 -15 -66.999s-23.5 -40.166 -40.5 -56.499s-36.667 -29.333 -59 -39s-45.5 -14.5 -69.5 -14.5z" />
    <glyph glyph-name="h" unicode="h" horiz-adv-x="618" 
d="M5 0l121 0.00292969l80 297c10.667 39.333 29 71.166 55 95.499s56 36.5 90 36.5c29.333 0 52 -7.16699 68 -21.5s24 -34.833 24 -61.5c0 -7.33301 -0.666992 -15.833 -2 -25.5s-3.33301 -18.834 -6 -27.501l-78 -293h121l76 288c4 15.333 7.66699 31.166 11 47.499
s5 31.5 5 45.5c0 48.667 -14.5 87.167 -43.5 115.5s-68.167 42.5 -117.5 42.5c-34 0 -63.833 -7.83301 -89.5 -23.5s-49.167 -34.167 -70.5 -55.5l72 270h-121z" />
    <glyph glyph-name="i" unicode="i" horiz-adv-x="286" 
d="M171 609h130l32 115h-131zM12 0h121l142 528h-121z" />
    <glyph glyph-name="j" unicode="j" horiz-adv-x="285" 
d="M171 609h130l31 115h-130zM-48 -163c20.667 0 40.166 2.83105 58.499 8.49805s35.166 14.667 50.499 27s28.833 28.333 40.5 48s21.5 43.834 29.5 72.501l144 535h-121l-140 -520c-13.333 -48 -37.666 -72 -72.999 -72c-7.33301 0 -14.166 0.666992 -20.499 2l-19.5 4
l-26 -96c12 -3.33301 24 -5.66602 36 -6.99902s25.667 -2 41 -2z" />
    <glyph glyph-name="k" unicode="k" horiz-adv-x="582" 
d="M5 0h121l41 153l102 82l94 -235h136l-127 313l266 215h-160l-270 -225l114 427h-121z" />
    <glyph glyph-name="l" unicode="l" horiz-adv-x="286" 
d="M12 0h121l196 730h-121z" />
    <glyph glyph-name="m" unicode="m" horiz-adv-x="950" 
d="M5 0l120.998 0.00488281l80 297c10.667 39.333 28.334 71.166 53.001 95.499s54 36.5 88 36.5c28 0 49.333 -7.16699 64 -21.5s22 -34.833 22 -61.5c0 -7.33301 -0.5 -15.833 -1.5 -25.5s-2.83301 -18.834 -5.5 -27.501l-79 -293h121l80 297
c10.667 39.333 28.334 71.166 53.001 95.499s53.667 36.5 87 36.5c28 0 49.333 -7.16699 64 -21.5s22 -34.833 22 -61.5c0 -7.33301 -0.5 -15.833 -1.5 -25.5s-2.83301 -18.834 -5.5 -27.501l-79 -293h121l77 288c4 15.333 7.83301 31.166 11.5 47.499s5.5 31.5 5.5 45.5
c0 48 -14.167 86.333 -42.5 115s-66.5 43 -114.5 43c-42.667 0 -80.5 -9.66699 -113.5 -29s-61.167 -45 -84.5 -77c-9.33301 30 -25.833 55.167 -49.5 75.5s-55.167 30.5 -94.5 30.5c-34 0 -63 -7.83301 -87 -23.5s-46.667 -34.167 -68 -55.5l18 68h-121z" />
    <glyph glyph-name="n" unicode="n" horiz-adv-x="617" 
d="M5 0l121 0.00292969l80 297c10.667 39.333 29 71.166 55 95.499s56 36.5 90 36.5c29.333 0 52 -7.16699 68 -21.5s24 -34.833 24 -61.5c0 -7.33301 -0.666992 -15.833 -2 -25.5s-3.33301 -18.834 -6 -27.501l-78 -293h121l76 288c4 15.333 7.66699 31.166 11 47.499
s5 31.5 5 45.5c0 48.667 -14.5 87.167 -43.5 115.5s-68.167 42.5 -117.5 42.5c-34 0 -63.833 -7.83301 -89.5 -23.5s-49.167 -34.167 -70.5 -55.5l18 68h-121z" />
    <glyph glyph-name="o" unicode="o" horiz-adv-x="646" 
d="M293 -12c42 0 81.667 8.49805 119 25.498s70 39.833 98 68.5s50.167 61.667 66.5 99s24.5 76 24.5 116c0 34.667 -5.83301 66.834 -17.5 96.501s-28.334 55.334 -50.001 77.001s-47.667 38.5 -78 50.5s-64.5 18 -102.5 18c-42.667 0 -82.667 -8.66699 -120 -26
s-70 -40.333 -98 -69s-50 -61.667 -66 -99s-24 -76 -24 -116c0 -34.667 5.83301 -66.667 17.5 -96s28.334 -54.833 50.001 -76.5s47.667 -38.5 78 -50.5s64.5 -18 102.5 -18zM300 92.998c-40 0 -72.501 12.167 -97.501 36.5s-37.5 58.833 -37.5 103.5
c0 23.333 4.5 47 13.5 71s21.667 45.667 38 65s35.5 35 57.5 47s46 18 72 18c40 0 72.5 -12.167 97.5 -36.5s37.5 -58.833 37.5 -103.5c0 -24 -4.66699 -48 -14 -72s-22.166 -45.5 -38.499 -64.5s-35.5 -34.5 -57.5 -46.5s-45.667 -18 -71 -18z" />
    <glyph glyph-name="p" unicode="p" horiz-adv-x="668" 
d="M-38 -160l120.999 -0.00292969l68 254c16 -29.333 38 -54.166 66 -74.499s65.333 -30.5 112 -30.5c38 0 74.667 8.16699 110 24.5s66.666 38.833 93.999 67.5s49.166 62.834 65.499 102.501s24.5 82.834 24.5 129.501c0 34.667 -5.16699 66 -15.5 94
s-24.666 51.833 -42.999 71.5s-40.166 34.667 -65.499 45s-52.666 15.5 -81.999 15.5c-34.667 0 -65.5 -7.5 -92.5 -22.5s-52.5 -34.5 -76.5 -58.5l19 70h-121zM314.999 91.9971c-20 0 -38.167 3.33398 -54.5 10.001s-30.333 16 -42 28s-20.667 26.167 -27 42.5
s-9.5 34.166 -9.5 53.499c0 28 5.33301 54.667 16 80s24.834 47.5 42.501 66.5s38 34.167 61 45.5s46.5 17 70.5 17c38 0 68.333 -11.667 91 -35s34 -55.333 34 -96c0 -29.333 -4.83301 -56.833 -14.5 -82.5s-22.834 -48.167 -39.501 -67.5s-36 -34.5 -58 -45.5
s-45.333 -16.5 -70 -16.5z" />
    <glyph glyph-name="q" unicode="q" horiz-adv-x="668" 
d="M347 -200l120.999 0.00292969l194 728h-121l-25 -93c-16 30 -38 54.833 -66 74.5s-65.333 29.5 -112 29.5c-38 0 -74.667 -8.16699 -110 -24.5s-66.666 -38.833 -93.999 -67.5s-49.166 -62.834 -65.499 -102.501s-24.5 -82.834 -24.5 -129.501
c0 -35.333 5.16699 -66.833 15.5 -94.5s24.833 -51.334 43.5 -71.001s40.5 -34.667 65.5 -45s52.167 -15.5 81.5 -15.5c34.667 0 65.667 7.5 93 22.5s52.666 34.833 75.999 59.5zM295.999 92.0029c-38 0 -68.5 11.8311 -91.5 35.498s-34.5 55.5 -34.5 95.5
c0 29.333 4.83301 57 14.5 83s22.834 48.5 39.501 67.5s36 34 58 45s45.333 16.5 70 16.5c40 0 72.333 -12.333 97 -37s37 -56.667 37 -96c0 -28 -5.33301 -54.667 -16 -80s-24.834 -47.666 -42.501 -66.999s-38 -34.666 -61 -45.999s-46.5 -17 -70.5 -17z" />
    <glyph glyph-name="r" unicode="r" horiz-adv-x="412" 
d="M5 0l120.999 -0.00195312l53 196c10 36.667 23 68.334 39 95.001s34.167 48.834 54.5 66.501s42.666 30.834 66.999 39.501s49.833 13 76.5 13h7l34 128c-47.333 3.33301 -88.666 -6.83398 -123.999 -30.501s-67.666 -56.5 -96.999 -98.5l31 119h-121z" />
    <glyph glyph-name="s" unicode="s" horiz-adv-x="498" 
d="M217 -12c30 0 57.833 4.16797 83.5 12.501s48 20.333 67 36s33.833 34.5 44.5 56.5s16 46.667 16 74c0 19.333 -3.83301 36.333 -11.5 51s-18 27.667 -31 39s-28.333 21.666 -46 30.999s-36.5 18.333 -56.5 27c-30 12.667 -51.5 24 -64.5 34s-19.5 21.667 -19.5 35
c0 17.333 7 31.666 21 42.999s34 17 60 17c48 0 96.333 -19.333 145 -58l67 78c-22 19.333 -50.833 36.5 -86.5 51.5s-74.5 22.5 -116.5 22.5c-32 0 -60.667 -4.5 -86 -13.5s-47 -21.333 -65 -37s-31.833 -34.167 -41.5 -55.5s-14.5 -44.333 -14.5 -69
c0 -20 3.83301 -37.5 11.5 -52.5s18.167 -28.333 31.5 -40s29.333 -22.167 48 -31.5s39 -18.333 61 -27c26.667 -11.333 46.167 -21.833 58.5 -31.5s18.5 -21.167 18.5 -34.5c0 -19.333 -8.16699 -34.666 -24.5 -45.999s-36.5 -17 -60.5 -17
c-26.667 0 -54.667 5.33301 -84 16s-58 30 -86 58l-72 -74c30.667 -32 67.167 -55.833 109.5 -71.5s83.5 -23.5 123.5 -23.5z" />
    <glyph glyph-name="t" unicode="t" horiz-adv-x="409" 
d="M196 -9c38 0 71.001 6.33398 99.001 19.001l28 105c-26.667 -11.333 -52.334 -17 -77.001 -17c-35.333 0 -53 13.667 -53 41c0 4 0.333008 8.66699 1 14s1.66699 10.666 3 15.999l68 255h141l28 104h-141l39 145h-121l-39 -145h-67l-28 -104h67l-71 -268
c-2.66699 -10 -4.83398 -20.167 -6.50098 -30.5s-2.5 -20.5 -2.5 -30.5c0 -32 11.333 -57.333 34 -76s55.334 -28 98.001 -28z" />
    <glyph glyph-name="u" unicode="u" horiz-adv-x="618" 
d="M209 -11c34 0 63.833 7.83105 89.5 23.498s49.167 34.167 70.5 55.5l-18 -68h121l141 528h-121l-80 -297c-10.667 -39.333 -29 -71.166 -55 -95.499s-56 -36.5 -90 -36.5c-29.333 0 -51.833 7.16699 -67.5 21.5s-23.5 34.833 -23.5 61.5c0 7.33301 0.666992 16 2 26
s3 19 5 27l79 293h-121l-77 -288c-4 -15.333 -7.66699 -31.166 -11 -47.499s-5 -31.5 -5 -45.5c0 -48.667 14.5 -87.167 43.5 -115.5s68.167 -42.5 117.5 -42.5z" />
    <glyph glyph-name="v" unicode="v" horiz-adv-x="581" 
d="M159 -4h109l356 532h-132l-243 -386l-38 386h-125z" />
    <glyph glyph-name="w" unicode="w" horiz-adv-x="853" 
d="M121 -4h107l216 361l21 -361h109l316 532h-122l-206 -361l-20 363h-103l-214 -363l-10 361h-123z" />
    <glyph glyph-name="x" unicode="x" horiz-adv-x="572" 
d="M-44 0h147l167 180l79 -180h130l-125 263l256 265h-146l-156 -169l-75 169h-130l122 -253z" />
    <glyph glyph-name="y" unicode="y" horiz-adv-x="585" 
d="M65 -163c21.333 0 41.4961 2.66504 60.4961 7.99805s37.333 13.833 55 25.5s34.834 26.834 51.501 45.501s33.667 41.667 51 69l341 543h-132l-233 -391l-44 391h-124l77 -530c-17.333 -23.333 -32.833 -39 -46.5 -47s-28.167 -12 -43.5 -12
c-11.333 0 -23.166 2.16699 -35.499 6.5s-23.166 9.83301 -32.499 16.5l-64 -89c16.667 -11.333 34.334 -20.166 53.001 -26.499s40.667 -9.5 66 -9.5z" />
    <glyph glyph-name="z" unicode="z" horiz-adv-x="554" 
d="M-24 0h458l27 99h-299l389 346l22 83h-445l-26 -99h285l-388 -346z" />
    <glyph glyph-name="braceleft" unicode="{" horiz-adv-x="487" 
d="M309 -141l39.002 73.9971c-39.333 13.333 -65.833 27.833 -79.5 43.5s-20.5 35.5 -20.5 59.5c0 13.333 1.83301 27.333 5.5 42s7.83398 28.667 12.501 42l10.5 35c3.66699 12 5.5 24 5.5 36c0 22.667 -6.83301 41.5 -20.5 56.5s-33.834 25.167 -60.501 30.5
c24 2.66699 44.833 7.66699 62.5 15s33 18.333 46 33s23.667 33.5 32 56.5s14.833 51.833 19.5 86.5c3.33301 26 8.33301 48.667 15 68s16.667 35.666 30 48.999s30.666 23.833 51.999 31.5s48.666 12.834 81.999 15.501l-6 82c-46 -1.33301 -85.333 -6.66602 -118 -15.999
s-60 -23 -82 -41s-39.333 -40.5 -52 -67.5s-21.667 -58.5 -27 -94.5c-4.66699 -32.667 -10.5 -59.5 -17.5 -80.5s-16.333 -37.667 -28 -50s-25.834 -20.833 -42.501 -25.5s-37.334 -7 -62.001 -7h-30l-25 -92h31c18 0 32.667 -1.5 44 -4.5s20 -7.16699 26 -12.5
s10 -11.833 12 -19.5s3 -16.167 3 -25.5c0 -8 -1.16699 -18 -3.5 -30s-5.5 -24.333 -9.5 -37c-7.33301 -22 -12.666 -40.167 -15.999 -54.5s-5 -28.166 -5 -41.499c0 -38.667 13.333 -71.167 40 -97.5s72.334 -46.166 137.001 -59.499z" />
    <glyph glyph-name="bar" unicode="|" horiz-adv-x="331" 
d="M135 -128h97v926h-97v-926z" />
    <glyph glyph-name="braceright" unicode="}" horiz-adv-x="487" 
d="M-35 -141c46 1.33301 85.332 6.66895 117.999 16.002s60 23 82 41s39.333 40.5 52 67.5s21.667 58.5 27 94.5c4.66699 32.667 10.5 59.5 17.5 80.5s16.333 37.667 28 50s26 20.833 43 25.5s37.5 7 61.5 7h30l25 92h-30c-18.667 0 -33.667 1.5 -45 4.5
s-20 7.16699 -26 12.5s-10 11.833 -12 19.5s-3 16.167 -3 25.5c0 8 1.33301 18 4 30s6 24.333 10 37c7.33301 22 12.5 40.167 15.5 54.5s4.5 28.166 4.5 41.499c0 38.667 -13.333 71.167 -40 97.5s-72.334 46.166 -137.001 59.499l-39 -74
c39.333 -13.333 65.833 -27.833 79.5 -43.5s20.5 -35.5 20.5 -59.5c0 -13.333 -2 -27.5 -6 -42.5s-8 -28.833 -12 -41.5c-4 -11.333 -7.5 -23 -10.5 -35s-4.5 -24 -4.5 -36c0 -22.667 6.66699 -41.5 20 -56.5s33.333 -25.167 60 -30.5
c-24 -3.33301 -44.833 -8.5 -62.5 -15.5s-33 -17.833 -46 -32.5s-23.667 -33.5 -32 -56.5s-14.833 -51.833 -19.5 -86.5c-3.33301 -26 -8.33301 -48.667 -15 -68s-16.667 -35.666 -30 -48.999s-30.666 -23.833 -51.999 -31.5s-48.666 -12.834 -81.999 -15.501z" />
    <glyph glyph-name="asciitilde" unicode="~" horiz-adv-x="495" 
d="M132 228c10 17.333 20.168 31.499 30.501 42.499s22.5 16.5 36.5 16.5c8 0 15.333 -2.16699 22 -6.5s16.334 -11.166 29.001 -20.499c12 -9.33301 23.333 -16.833 34 -22.5s24.667 -8.5 42 -8.5c28.667 0 54.5 11 77.5 33s43.167 51.667 60.5 89l-68 32
c-10 -18 -20 -32.333 -30 -43s-22 -16 -36 -16c-8.66699 0 -16.334 2 -23.001 6s-16.334 11 -29.001 21c-11.333 9.33301 -22.5 16.833 -33.5 22.5s-24.833 8.5 -41.5 8.5c-29.333 0 -55.333 -11 -78 -33s-42.667 -51.667 -60 -89z" />
    <glyph glyph-name="nonbreakingspace" unicode="&#xa0;" horiz-adv-x="300" 
 />
    <glyph glyph-name="exclamdown" unicode="&#xa1;" horiz-adv-x="303" 
d="M165 563h133l37 137h-133zM9 0h142l10 35l81 444h-67l-156 -444z" />
    <glyph glyph-name="cent" unicode="&#xa2;" horiz-adv-x="578" 
d="M203 104l-44.001 -110h88l35 88c14 -2 29.333 -3 46 -3c46 0 85.833 7.66699 119.5 23s62.834 34.333 87.501 57l-65 81c-21.333 -17.333 -43.333 -31 -66 -41s-49 -15 -79 -15h-8l128 328c15.333 -7.33301 28.666 -16.5 39.999 -27.5s21.666 -23.833 30.999 -38.5l92 63
c-11.333 21.333 -26.666 41 -45.999 59s-43.666 32.667 -72.999 44l37 94h-88l-30 -77c-4 0.666992 -8.33301 1 -13 1h-13c-44 0 -85 -8 -123 -24s-71.167 -38 -99.5 -66s-50.5 -61 -66.5 -99s-24 -78.667 -24 -122c0 -50 11.833 -93.5 35.5 -130.5s56.5 -65.167 98.5 -84.5
zM370.999 525l-123.999 -318.001c-17.333 11.333 -31.333 26.833 -42 46.5s-16 42.167 -16 67.5c0 26 4.5 51 13.5 75s21.667 45.333 38 64s35.666 33.834 57.999 45.501s46.5 18.167 72.5 19.5z" />
    <glyph glyph-name="sterling" unicode="&#xa3;" horiz-adv-x="638" 
d="M-10 0h529l29 107h-327l46 171h251l27 104h-251l24 84c5.33301 20 12 38 20 54s17.667 29.667 29 41s23.5 20 36.5 26s28.833 9 47.5 9c28.667 0 51.667 -6.33301 69 -19s32.666 -29.667 45.999 -51l99 66c-18.667 34 -44.5 62 -77.5 84s-75.5 33 -127.5 33
c-38 0 -71.667 -5.83301 -101 -17.5s-55.666 -29.167 -78.999 -52.5c-36 -36 -62.667 -86.667 -80 -152l-28 -105h-79l-28 -104h79l-47 -176l-86 -24z" />
    <glyph glyph-name="currency" unicode="&#xa4;" horiz-adv-x="709" 
d="M389 -12c54 0 100.663 10.834 139.996 32.501s74 50.167 104 85.5l-83 72c-24 -26 -48 -45.667 -72 -59s-53 -20 -87 -20c-37.333 0 -68.166 11 -92.499 33s-39.166 53 -44.499 93h209l23 85h-231c1.33301 14.667 3.5 29.167 6.5 43.5s7.16699 28.166 12.5 41.499h234
l23 85h-225c19.333 37.333 44.333 66.833 75 88.5s66 32.5 106 32.5c20 0 37.333 -2.33301 52 -7s27.834 -11.334 39.501 -20.001s21.834 -19.334 30.501 -32.001s16.667 -27 24 -43l105 51c-8.66699 24 -19.834 46 -33.501 66s-30.334 37 -50.001 51s-42.667 25 -69 33
s-56.5 12 -90.5 12c-38 0 -73.833 -5.83301 -107.5 -17.5s-64.167 -27.834 -91.5 -48.501s-51.833 -45.167 -73.5 -73.5s-39.5 -59.166 -53.5 -92.499h-73l-23 -85h70c-7.33301 -25.333 -12.666 -53.666 -15.999 -84.999h-76l-23 -85h98c3.33301 -36.667 12 -69.667 26 -99
s32.5 -54.166 55.5 -74.499s49.833 -36 80.5 -47s64.334 -16.5 101.001 -16.5z" />
    <glyph glyph-name="yen" unicode="&#xa5;" horiz-adv-x="708" 
d="M222 0h119l27 102h193l24 89h-193l19 73h193l24 89h-157l328 347h-149l-266 -294l-108 294h-133l138 -347h-157l-24 -89h192l-19 -73h-192l-24 -89h192z" />
    <glyph glyph-name="section" unicode="&#xa7;" horiz-adv-x="632" 
d="M285 -9c30 0 57.667 3.50195 83 10.502s47.5 17 66.5 30s33.833 28.5 44.5 46.5s16 38 16 60c0 19.333 -4.66699 36.166 -14 50.499s-20.666 26.5 -33.999 36.5c48.667 6.66699 86.5 21.5 113.5 44.5s40.5 51.5 40.5 85.5c0 20 -4.66699 37.167 -14 51.5
s-22.333 27 -39 38s-36.5 20.833 -59.5 29.5s-48.167 17 -75.5 25c-41.333 12.667 -70.5 23.834 -87.5 33.501s-25.5 21.5 -25.5 35.5c0 15.333 8 27.5 24 36.5s36.667 13.5 62 13.5c32.667 0 63.167 -6.5 91.5 -19.5s51.833 -28.5 70.5 -46.5l76 70
c-23.333 26.667 -55.166 48.167 -95.499 64.5s-85.5 24.5 -135.5 24.5c-30 0 -57.667 -3.5 -83 -10.5s-47.5 -17 -66.5 -30s-33.833 -28.5 -44.5 -46.5s-16 -38 -16 -60c0 -19.333 4.66699 -36.166 14 -50.499s20.666 -26.5 33.999 -36.5
c-48.667 -6.66699 -86.5 -21.334 -113.5 -44.001s-40.5 -51.334 -40.5 -86.001c0 -20 4.66699 -37.167 14 -51.5s22.333 -27 39 -38s36.5 -20.833 59.5 -29.5s48.167 -17 75.5 -25c41.333 -12.667 70.5 -23.834 87.5 -33.501s25.5 -21.5 25.5 -35.5
c0 -15.333 -8 -27.5 -24 -36.5s-36.667 -13.5 -62 -13.5c-32.667 0 -63.167 6.5 -91.5 19.5s-51.833 28.5 -70.5 46.5l-76 -70c23.333 -26.667 55.166 -48.167 95.499 -64.5s85.5 -24.5 135.5 -24.5zM397 275.002c-16 0 -31.667 1.66699 -47 5
s-34.666 8.66602 -57.999 15.999c-34.667 11.333 -60 22 -76 32s-24 22.667 -24 38c0 17.333 8.66699 31.833 26 43.5s38.333 17.5 63 17.5c16 0 31.667 -1.66699 47 -5s34.666 -8.66602 57.999 -15.999c34.667 -11.333 60 -22 76 -32s24 -22.667 24 -38
c0 -17.333 -8.66699 -31.833 -26 -43.5s-38.333 -17.5 -63 -17.5z" />
    <glyph glyph-name="dieresis" unicode="&#xa8;" 
d="M373 595h122l33 118h-123zM174 595h123l32 118h-123z" />
    <glyph glyph-name="copyright" unicode="&#xa9;" horiz-adv-x="830" 
d="M436 -12c50.667 0 98.167 9.66699 142.5 29s82.833 45.5 115.5 78.5s58.334 71.5 77.001 115.5s28 90.667 28 140s-9.33301 96 -28 140s-44.167 82.333 -76.5 115s-70.5 58.5 -114.5 77.5s-91.333 28.5 -142 28.5s-98.167 -9.66699 -142.5 -29
s-82.833 -45.5 -115.5 -78.5s-58.334 -71.5 -77.001 -115.5s-28 -90.667 -28 -140s9.33301 -96 28 -140s44.167 -82.333 76.5 -115s70.5 -58.5 114.5 -77.5s91.333 -28.5 142 -28.5zM436 24c-46 0 -88.667 8.50293 -128 25.5029s-73.333 40.167 -102 69.5
s-51.167 63.666 -67.5 102.999s-24.5 81.666 -24.5 126.999c0 44.667 8.16699 87 24.5 127s39 74.667 68 104s63.333 52.666 103 69.999s82.5 26 128.5 26s88.667 -8.5 128 -25.5s73.5 -40.167 102.5 -69.5s51.667 -63.833 68 -103.5s24.5 -81.834 24.5 -126.501
c0 -45.333 -8.33301 -87.833 -25 -127.5s-39.5 -74.167 -68.5 -103.5s-63.333 -52.666 -103 -69.999s-82.5 -26 -128.5 -26zM441 159.003c36 0 65.667 5.99707 89 17.9971s45 28.667 65 50l-48 47c-15.333 -14.667 -30.833 -26.167 -46.5 -34.5s-34.5 -12.5 -56.5 -12.5
c-17.333 0 -33.333 3.33301 -48 10s-27.167 15.834 -37.5 27.501s-18.5 25.334 -24.5 41.001s-9 32.167 -9 49.5c0 18 2.83301 34.667 8.5 50s13.834 28.833 24.501 40.5s23.167 20.834 37.5 27.501s30.166 10 47.499 10c20 0 38.333 -4.16699 55 -12.5
s32.334 -19.166 47.001 -32.499l47 54c-18 17.333 -38.333 31.5 -61 42.5s-51.667 16.5 -87 16.5c-28.667 0 -54.834 -5.16699 -78.501 -15.5s-44.167 -24.5 -61.5 -42.5s-30.833 -39 -40.5 -63s-14.5 -49.333 -14.5 -76c0 -27.333 4.83301 -52.833 14.5 -76.5
s23 -44.334 40 -62.001s37.333 -31.5 61 -41.5s49.167 -15 76.5 -15z" />
    <glyph glyph-name="ordfeminine" unicode="&#xaa;" horiz-adv-x="390" 
d="M189 403c19.333 0 36.8369 4.16602 52.5039 12.499s30.167 19.166 43.5 32.499l-11 -39h69l44 162c4 14 6 28.333 6 43c0 28.667 -9.83301 50.834 -29.5 66.501s-48.834 23.5 -87.501 23.5c-20.667 0 -39.5 -1.83301 -56.5 -5.5s-33.167 -8.5 -48.5 -14.5l12 -56
c11.333 4.66699 23.666 8.33398 36.999 11.001s27 4 41 4c22.667 0 39 -3.83301 49 -11.5s15 -18.167 15 -31.5c0 -2.66699 -0.333008 -5.83398 -1 -9.50098s-1.66699 -7.16699 -3 -10.5l-2 -7c-12.667 4 -26.334 7.5 -41.001 10.5s-30.334 4.5 -47.001 4.5
c-36 0 -66.333 -9.33301 -91 -28s-37 -45 -37 -79c0 -23.333 8 -42.166 24 -56.499s36.667 -21.5 62 -21.5zM53.0039 281.999h259l16 58h-259zM217.004 451.999c-13.333 0 -23.834 3.49902 -31.501 10.499s-11.5 15.833 -11.5 26.5c0 16 6.33301 29 19 39
s29.334 15 50.001 15c12.667 0 24.5 -1.16699 35.5 -3.5s20.833 -4.83301 29.5 -7.5l-2 -10c-2 -10 -6 -19.167 -12 -27.5s-13 -15.666 -21 -21.999s-16.833 -11.333 -26.5 -15s-19.5 -5.5 -29.5 -5.5z" />
    <glyph glyph-name="guillemotleft" unicode="&#xab;" horiz-adv-x="605" 
d="M403 34l97 45l-81 167l181 177l-71 65l-231 -226l-2 -8zM152 34l98 45l-81 167l181 177l-72 65l-230 -226l-2 -8z" />
    <glyph glyph-name="registered" unicode="&#xae;" horiz-adv-x="830" 
d="M436 -12c50.667 0 98.167 9.66699 142.5 29s82.833 45.5 115.5 78.5s58.334 71.5 77.001 115.5s28 90.667 28 140s-9.33301 96 -28 140s-44.167 82.333 -76.5 115s-70.5 58.5 -114.5 77.5s-91.333 28.5 -142 28.5s-98.167 -9.66699 -142.5 -29
s-82.833 -45.5 -115.5 -78.5s-58.334 -71.5 -77.001 -115.5s-28 -90.667 -28 -140s9.33301 -96 28 -140s44.167 -82.333 76.5 -115s70.5 -58.5 114.5 -77.5s91.333 -28.5 142 -28.5zM436 24c-46 0 -88.667 8.50293 -128 25.5029s-73.333 40.167 -102 69.5
s-51.167 63.666 -67.5 102.999s-24.5 81.666 -24.5 126.999c0 44.667 8.16699 87 24.5 127s39 74.667 68 104s63.333 52.666 103 69.999s82.5 26 128.5 26s88.667 -8.5 128 -25.5s73.5 -40.167 102.5 -69.5s51.667 -63.833 68 -103.5s24.5 -81.834 24.5 -126.501
c0 -45.333 -8.33301 -87.833 -25 -127.5s-39.5 -74.167 -68.5 -103.5s-63.333 -52.666 -103 -69.999s-82.5 -26 -128.5 -26zM291 171.003h73v131h78l93 -131h86l-103 143c26 7.33301 47.167 20.5 63.5 39.5s24.5 44.167 24.5 75.5c0 38 -13.333 67.667 -40 89
s-62 32 -106 32h-169v-379zM364 365.003v120h93c23.333 0 41.833 -5.16699 55.5 -15.5s20.5 -25.166 20.5 -44.499c0 -18.667 -6.83301 -33.334 -20.5 -44.001s-32.167 -16 -55.5 -16h-93z" />
    <glyph glyph-name="macron" unicode="&#xaf;" 
d="M168 600h342l24 89h-342z" />
    <glyph glyph-name="macron" unicode="&#x2c9;" 
d="M168 600h342l24 89h-342z" />
    <glyph glyph-name="degree" unicode="&#xb0;" horiz-adv-x="421" 
d="M238 377c25.333 0 49.1641 5.16699 71.4971 15.5s41.833 24 58.5 41s29.834 36.667 39.501 59s14.5 45.5 14.5 69.5c0 20.667 -3.5 40 -10.5 58s-17.167 33.5 -30.5 46.5s-29.333 23.167 -48 30.5s-39.334 11 -62.001 11c-25.333 0 -49.166 -5.16699 -71.499 -15.5
s-41.666 -24 -57.999 -41s-29.333 -36.667 -39 -59s-14.5 -45.5 -14.5 -69.5c0 -21.333 3.5 -40.833 10.5 -58.5s17 -33 30 -46s28.833 -23.167 47.5 -30.5s39.334 -11 62.001 -11zM241.998 445c-23.333 0 -42.166 7.33496 -56.499 22.002s-21.5 34.667 -21.5 60
c0 14 2.66699 27.667 8 41s12.5 25.5 21.5 36.5s19.833 19.833 32.5 26.5s26.667 10 42 10c23.333 0 42.166 -7.5 56.499 -22.5s21.5 -34.833 21.5 -59.5c0 -14 -2.66699 -27.833 -8 -41.5s-12.5 -25.834 -21.5 -36.501s-20 -19.334 -33 -26.001s-26.833 -10 -41.5 -10z" />
    <glyph glyph-name="plusminus" unicode="&#xb1;" horiz-adv-x="615" 
d="M257 -12c42 0 80.334 5.66602 115.001 16.999s64.5 26.666 89.5 45.999s44.333 42.333 58 69s20.5 55.334 20.5 86.001c0 18.667 -3 35.834 -9 51.501s-14 29.5 -24 41.5s-21.5 22.167 -34.5 30.5s-26.5 15.166 -40.5 20.499c55.333 14 97.833 36.333 127.5 67
s44.5 69 44.5 115c0 26 -5.33301 49.833 -16 71.5s-26 40.5 -46 56.5s-44 28.5 -72 37.5s-59.333 13.5 -94 13.5c-55.333 0 -102.333 -9.5 -141 -28.5s-73.667 -43.833 -105 -74.5l69 -78c25.333 22 50.666 39.333 75.999 52s55 19 89 19c32 0 58.833 -7.83301 80.5 -23.5
s32.5 -36.834 32.5 -63.501c0 -17.333 -4.33301 -32.833 -13 -46.5s-20.5 -25.167 -35.5 -34.5s-33.167 -16.333 -54.5 -21s-44.333 -7 -69 -7h-68l-28 -103h62c46 0 81.5 -7.66699 106.5 -23s37.5 -38.666 37.5 -69.999c0 -14 -3.33301 -27.667 -10 -41
s-16.334 -25.166 -29.001 -35.499s-28.167 -18.5 -46.5 -24.5s-39.5 -9 -63.5 -9c-44 0 -79.833 8.16699 -107.5 24.5s-51.834 37.833 -72.501 64.5l-93 -68c10.667 -17.333 23.834 -34 39.501 -50s34.334 -30 56.001 -42s46.5 -21.667 74.5 -29s59.333 -11 94 -11z" />
    <glyph glyph-name="acute" unicode="&#xb4;" 
d="M221 595h105l153 115l-108 49z" />
    <glyph glyph-name="mu" unicode="&#xb5;" horiz-adv-x="836" 
d="M640 -38l100.001 68.001l-61 77c40 39.333 71.167 84.833 93.5 136.5s33.5 105.5 33.5 161.5c0 43.333 -7.66699 83.666 -23 120.999s-36.666 69.833 -63.999 97.5s-60.5 49.334 -99.5 65.001s-81.833 23.5 -128.5 23.5c-60.667 0 -116.334 -11.833 -167.001 -35.5
s-94.334 -54.834 -131.001 -93.501s-65.334 -83.167 -86.001 -133.5s-31 -101.833 -31 -154.5c0 -43.333 7.5 -83.833 22.5 -121.5s36.333 -70.167 64 -97.5s60.667 -48.833 99 -64.5s81.166 -23.5 128.499 -23.5c36.667 0 71.334 4.5 104.001 13.5s63.334 21.5 92.001 37.5
zM403.001 101.001c-31.333 0 -59.333 5.00098 -84 15.001s-45.5 24 -62.5 42s-30 39.167 -39 63.5s-13.5 51.166 -13.5 80.499c0 36 6.66699 71.667 20 107s32.166 67 56.499 95s53.333 50.833 87 68.5s70.834 26.5 111.501 26.5c31.333 0 59.333 -5 84 -15
s45.5 -24 62.5 -42s30 -39.333 39 -64s13.5 -51.334 13.5 -80.001c0 -34 -6.16699 -67.667 -18.5 -101s-29.5 -63.666 -51.5 -90.999l-84 120l-101 -69l99 -124c-17.333 -10 -36 -17.833 -56 -23.5s-41 -8.5 -63 -8.5z" />
    <glyph glyph-name="mu" unicode="&#x3bc;" horiz-adv-x="836" 
d="M640 -38l100.001 68.001l-61 77c40 39.333 71.167 84.833 93.5 136.5s33.5 105.5 33.5 161.5c0 43.333 -7.66699 83.666 -23 120.999s-36.666 69.833 -63.999 97.5s-60.5 49.334 -99.5 65.001s-81.833 23.5 -128.5 23.5c-60.667 0 -116.334 -11.833 -167.001 -35.5
s-94.334 -54.834 -131.001 -93.501s-65.334 -83.167 -86.001 -133.5s-31 -101.833 -31 -154.5c0 -43.333 7.5 -83.833 22.5 -121.5s36.333 -70.167 64 -97.5s60.667 -48.833 99 -64.5s81.166 -23.5 128.499 -23.5c36.667 0 71.334 4.5 104.001 13.5s63.334 21.5 92.001 37.5
zM403.001 101.001c-31.333 0 -59.333 5.00098 -84 15.001s-45.5 24 -62.5 42s-30 39.167 -39 63.5s-13.5 51.166 -13.5 80.499c0 36 6.66699 71.667 20 107s32.166 67 56.499 95s53.333 50.833 87 68.5s70.834 26.5 111.501 26.5c31.333 0 59.333 -5 84 -15
s45.5 -24 62.5 -42s30 -39.333 39 -64s13.5 -51.334 13.5 -80.001c0 -34 -6.16699 -67.667 -18.5 -101s-29.5 -63.666 -51.5 -90.999l-84 120l-101 -69l99 -124c-17.333 -10 -36 -17.833 -56 -23.5s-41 -8.5 -63 -8.5z" />
    <glyph glyph-name="paragraph" unicode="&#xb6;" horiz-adv-x="565" 
d="M281 0l122.999 -0.000976562l188 700h-156c-57.333 0 -107.333 -6.66699 -150 -20s-78.5 -32 -107.5 -56s-50.667 -52.5 -65 -85.5s-21.5 -68.833 -21.5 -107.5c0 -34 6 -63.667 18 -89s28.833 -46.166 50.5 -62.499s47.834 -28.833 78.501 -37.5s64.667 -13.667 102 -15
z" />
    <glyph glyph-name="periodcentered" unicode="&#xb7;" horiz-adv-x="293" 
d="M69 238h134l37 137h-134z" />
    <glyph glyph-name="cedilla" unicode="&#xb8;" 
d="M145 -165l122 175h-91l-124 -131z" />
    <glyph glyph-name="ordmasculine" unicode="&#xba;" horiz-adv-x="398" 
d="M246 401c23.333 0 45.333 4.66797 66 14.001s38.667 21.833 54 37.5s27.333 33.834 36 54.501s13 42 13 64c0 19.333 -3.33301 37.166 -10 53.499s-16 30.5 -28 42.5s-26.667 21.333 -44 28s-36.333 10 -57 10c-23.333 0 -45.333 -4.66699 -66 -14
s-38.667 -21.833 -54 -37.5s-27.333 -33.834 -36 -54.501s-13 -42 -13 -64c0 -38.667 12.5 -70.667 37.5 -96s58.833 -38 101.5 -38zM54 282.001h275l15 58h-275zM249 462.001c-21.333 0 -38.666 6.99902 -51.999 20.999s-20 32.333 -20 55
c0 12.667 2.33301 25.334 7 38.001s11.334 24 20.001 34s18.834 18.167 30.501 24.5s24.5 9.5 38.5 9.5c21.333 0 38.666 -6.83301 51.999 -20.5s20 -32.167 20 -55.5c0 -13.333 -2.33301 -26.333 -7 -39s-11.334 -24 -20.001 -34s-18.834 -18 -30.501 -24
s-24.5 -9 -38.5 -9z" />
    <glyph glyph-name="guillemotright" unicode="&#xbb;" horiz-adv-x="605" 
d="M324 34l231 226l2 8l-107 219l-97 -44l81 -167l-181 -178zM74 34l231 226l2 8l-107 219l-97 -44l80 -167l-180 -178z" />
    <glyph glyph-name="questiondown" unicode="&#xbf;" horiz-adv-x="541" 
d="M318 563h133l37 137h-133zM249 -9c46 0 89.832 8.66895 131.499 26.002s77.834 41.666 108.501 72.999l-66 81c-21.333 -20 -45.833 -36.333 -73.5 -49s-56.167 -19 -85.5 -19c-32.667 0 -58 7.16699 -76 21.5s-27 34.5 -27 60.5c0 36.667 19 65.667 57 87
s90.667 34.666 158 39.999l6 5l23 162h-81l-33 -87c-80 -12 -143.167 -36.667 -189.5 -74s-69.5 -86.333 -69.5 -147c0 -24 5 -47 15 -69s24.167 -41.167 42.5 -57.5s41 -29.333 68 -39s57.5 -14.5 91.5 -14.5z" />
    <glyph glyph-name="Agrave" unicode="&#xc0;" horiz-adv-x="763" 
d="M-50 0h133l117 169h331l27 -169h126l-119 705h-118zM275 278l196 283l45 -283h-241zM479 758h83l-61 164l-113 -49z" />
    <glyph glyph-name="Aacute" unicode="&#xc1;" horiz-adv-x="763" 
d="M-50 0h133l117 169h331l27 -169h126l-119 705h-118zM275 278l196 283l45 -283h-241zM445 758h105l153 115l-108 49z" />
    <glyph glyph-name="Acircumflex" unicode="&#xc2;" horiz-adv-x="763" 
d="M-50 0h133l117 169h331l27 -169h126l-119 705h-118zM275 278l196 283l45 -283h-241zM329 758h100l96 67l58 -67h91l-77 146h-113z" />
    <glyph glyph-name="Atilde" unicode="&#xc3;" horiz-adv-x="763" 
d="M-50 0h133l117 169h331l27 -169h126l-119 705h-118zM275 278l196 283l45 -283h-241zM387 753c10 17.333 20.168 31.499 30.501 42.499s22.5 16.5 36.5 16.5c8 0 15.333 -2.16699 22 -6.5s16.334 -11.166 29.001 -20.499c11.333 -9.33301 22.5 -16.833 33.5 -22.5
s24.833 -8.5 41.5 -8.5c29.333 0 55.5 11 78.5 33s43.167 51.667 60.5 89l-68 32c-10 -18 -20 -32.333 -30 -43s-22 -16 -36 -16c-8.66699 0 -16.334 2 -23.001 6s-16.334 11 -29.001 21c-11.333 9.33301 -22.5 16.833 -33.5 22.5s-24.833 8.5 -41.5 8.5
c-29.333 0 -55.333 -11 -78 -33s-42.667 -51.667 -60 -89z" />
    <glyph glyph-name="Adieresis" unicode="&#xc4;" horiz-adv-x="763" 
d="M-50 0h133l117 169h331l27 -169h126l-119 705h-118zM275 278l196 283l45 -283h-241zM553 758h122l33 118h-123zM354 758h123l32 118h-123z" />
    <glyph glyph-name="Aring" unicode="&#xc5;" horiz-adv-x="769" 
d="M-47 0h132.999l117 169h331l27 -169h126l-115 680c19.333 10 35.166 24.5 47.499 43.5s18.5 40.167 18.5 63.5c0 27.333 -9.5 50.333 -28.5 69s-44.833 28 -77.5 28c-17.333 0 -33.666 -3.33301 -48.999 -10s-28.666 -15.667 -39.999 -27s-20.333 -24.5 -27 -39.5
s-10 -30.833 -10 -47.5c0 -29.333 10.667 -53 32 -71zM513.999 710c-16.667 0 -29.501 4.83301 -38.501 14.5s-13.5 21.5 -13.5 35.5c0 19.333 6.33301 36.833 19 52.5s29.334 23.5 50.001 23.5c16 0 28.5 -4.83301 37.5 -14.5s13.5 -21.5 13.5 -35.5
c0 -19.333 -6.33301 -36.833 -19 -52.5s-29 -23.5 -49 -23.5zM277.998 278l196 283l45 -283h-241z" />
    <glyph glyph-name="AE" unicode="&#xc6;" horiz-adv-x="1061" 
d="M-52 0h135l139 169h256l-46 -169h502l30 110h-380l50 188h330l30 109h-330l49 183h374l30 110h-590zM311 278l259 315h21l-84 -315h-196z" />
    <glyph glyph-name="Ccedilla" unicode="&#xc7;" horiz-adv-x="730" 
d="M384 -12h6.99902c60.667 0 112.334 10.5 155.001 31.5s80.667 47.5 114 79.5l-81 82c-28 -24 -56 -43.333 -84 -58s-62 -22 -102 -22c-28 0 -53.5 4.5 -76.5 13.5s-43 21.833 -60 38.5s-30.167 36.667 -39.5 60s-14 49.333 -14 78c0 40.667 7.66699 79.667 23 117
s35.833 70.166 61.5 98.499s55.5 50.833 89.5 67.5s69.667 25 107 25c22.667 0 43.167 -2.5 61.5 -7.5s34.833 -12.167 49.5 -21.5s28 -20.5 40 -33.5s23.333 -27.5 34 -43.5l102 69c-26 46 -61.333 82.5 -106 109.5s-100.334 40.5 -167.001 40.5
c-58.667 0 -113.667 -11.667 -165 -35s-96.166 -54.5 -134.499 -93.5s-68.5 -84.333 -90.5 -136s-33 -105.5 -33 -161.5c0 -38 5.5 -72.667 16.5 -104s26.333 -59.166 46 -83.499s43.167 -45 70.5 -62s57.333 -29.5 90 -37.5l-114 -120l93 -44z" />
    <glyph glyph-name="Egrave" unicode="&#xc8;" horiz-adv-x="660" 
d="M19 0h519l30 110h-397l50 188h347l30 109h-347l49 183h391l30 110h-514zM444 758h83l-61 164l-113 -49z" />
    <glyph glyph-name="Eacute" unicode="&#xc9;" horiz-adv-x="660" 
d="M19 0h519l30 110h-397l50 188h347l30 109h-347l49 183h391l30 110h-514zM393 758h105l153 115l-108 49z" />
    <glyph glyph-name="Ecircumflex" unicode="&#xca;" horiz-adv-x="660" 
d="M19 0h519l30 110h-397l50 188h347l30 109h-347l49 183h391l30 110h-514zM302 758h100l96 67l58 -67h91l-77 146h-113z" />
    <glyph glyph-name="Edieresis" unicode="&#xcb;" horiz-adv-x="660" 
d="M19 0h519l30 110h-397l50 188h347l30 109h-347l49 183h391l30 110h-514zM514 758h122l33 118h-123zM315 758h123l32 118h-123z" />
    <glyph glyph-name="Igrave" unicode="&#xcc;" horiz-adv-x="317" 
d="M26 0h124l188 700h-124zM260 758h83l-61 164l-113 -49z" />
    <glyph glyph-name="Iacute" unicode="&#xcd;" horiz-adv-x="317" 
d="M26 0h124l188 700h-124zM218 758h105l153 115l-108 49z" />
    <glyph glyph-name="Icircumflex" unicode="&#xce;" horiz-adv-x="317" 
d="M26 0h124l188 700h-124zM110 758h100l96 67l58 -67h91l-77 146h-113z" />
    <glyph glyph-name="Idieresis" unicode="&#xcf;" horiz-adv-x="317" 
d="M26 0h124l188 700h-124zM330 758h122l33 118h-123zM131 758h123l32 118h-123z" />
    <glyph glyph-name="Eth" unicode="&#xd0;" horiz-adv-x="798" 
d="M42 0l251.001 -0.00195312c78.667 0 148.5 11.333 209.5 34s112.5 55 154.5 97c36.667 36.667 64.667 78.334 84 125.001s29 96.334 29 149.001c0 85.333 -25.667 153.333 -77 204c-28 28 -64.333 50.167 -109 66.5s-99.334 24.5 -164.001 24.5h-190l-78 -293h-81
l-30 -110h81zM195.001 111.998l49.999 184.999h169l30 110h-169l49 181h87c42.667 0 79 -5.16699 109 -15.5s54.333 -24.833 73 -43.5c15.333 -15.333 27.333 -33.666 36 -54.999s13 -46 13 -74c0 -38 -6.66699 -73.333 -20 -106s-32.666 -61.667 -57.999 -87
c-31.333 -31.333 -68.833 -55 -112.5 -71s-91.5 -24 -143.5 -24h-113z" />
    <glyph glyph-name="Ntilde" unicode="&#xd1;" horiz-adv-x="786" 
d="M19 0h122l136 509l245 -509h103l188 700h-121l-134 -495l-237 495h-114zM393 753c10 17.333 20.168 31.499 30.501 42.499s22.5 16.5 36.5 16.5c8 0 15.333 -2.16699 22 -6.5s16.334 -11.166 29.001 -20.499c11.333 -9.33301 22.5 -16.833 33.5 -22.5
s24.833 -8.5 41.5 -8.5c29.333 0 55.5 11 78.5 33s43.167 51.667 60.5 89l-68 32c-10 -18 -20 -32.333 -30 -43s-22 -16 -36 -16c-8.66699 0 -16.334 2 -23.001 6s-16.334 11 -29.001 21c-11.333 9.33301 -22.5 16.833 -33.5 22.5s-24.833 8.5 -41.5 8.5
c-29.333 0 -55.333 -11 -78 -33s-42.667 -51.667 -60 -89z" />
    <glyph glyph-name="Ograve" unicode="&#xd2;" horiz-adv-x="836" 
d="M390 -12c60.667 0 116.502 11.833 167.502 35.5s94.833 54.834 131.5 93.501s65.334 83 86.001 133s31 101.667 31 155c0 43.333 -7.66699 83.666 -23 120.999s-36.666 69.833 -63.999 97.5s-60.5 49.334 -99.5 65.001s-81.833 23.5 -128.5 23.5
c-60.667 0 -116.334 -11.833 -167.001 -35.5s-94.334 -54.834 -131.001 -93.501s-65.334 -83.167 -86.001 -133.5s-31 -101.833 -31 -154.5c0 -43.333 7.5 -83.833 22.5 -121.5s36.333 -70.167 64 -97.5s60.667 -48.833 99 -64.5s81.166 -23.5 128.499 -23.5zM403.002 101
c-31.333 0 -59.333 5.00195 -84 15.002s-45.5 24 -62.5 42s-30 39.167 -39 63.5s-13.5 51.166 -13.5 80.499c0 36 6.66699 71.667 20 107s32.166 67 56.499 95s53.333 50.833 87 68.5s70.834 26.5 111.501 26.5c31.333 0 59.333 -5 84 -15s45.5 -24 62.5 -42
s30 -39.333 39 -64s13.5 -51.334 13.5 -80.001c0 -36 -6.66699 -71.667 -20 -107s-32.166 -67 -56.499 -95s-53.333 -50.833 -87 -68.5s-70.834 -26.5 -111.501 -26.5zM495.002 758.002h83l-61 164l-113 -49z" />
    <glyph glyph-name="Oacute" unicode="&#xd3;" horiz-adv-x="836" 
d="M390 -12c60.667 0 116.502 11.833 167.502 35.5s94.833 54.834 131.5 93.501s65.334 83 86.001 133s31 101.667 31 155c0 43.333 -7.66699 83.666 -23 120.999s-36.666 69.833 -63.999 97.5s-60.5 49.334 -99.5 65.001s-81.833 23.5 -128.5 23.5
c-60.667 0 -116.334 -11.833 -167.001 -35.5s-94.334 -54.834 -131.001 -93.501s-65.334 -83.167 -86.001 -133.5s-31 -101.833 -31 -154.5c0 -43.333 7.5 -83.833 22.5 -121.5s36.333 -70.167 64 -97.5s60.667 -48.833 99 -64.5s81.166 -23.5 128.499 -23.5zM403.002 101
c-31.333 0 -59.333 5.00195 -84 15.002s-45.5 24 -62.5 42s-30 39.167 -39 63.5s-13.5 51.166 -13.5 80.499c0 36 6.66699 71.667 20 107s32.166 67 56.499 95s53.333 50.833 87 68.5s70.834 26.5 111.501 26.5c31.333 0 59.333 -5 84 -15s45.5 -24 62.5 -42
s30 -39.333 39 -64s13.5 -51.334 13.5 -80.001c0 -36 -6.66699 -71.667 -20 -107s-32.166 -67 -56.499 -95s-53.333 -50.833 -87 -68.5s-70.834 -26.5 -111.501 -26.5zM431.002 758.002h105l153 115l-108 49z" />
    <glyph glyph-name="Ocircumflex" unicode="&#xd4;" horiz-adv-x="836" 
d="M390 -12c60.667 0 116.502 11.833 167.502 35.5s94.833 54.834 131.5 93.501s65.334 83 86.001 133s31 101.667 31 155c0 43.333 -7.66699 83.666 -23 120.999s-36.666 69.833 -63.999 97.5s-60.5 49.334 -99.5 65.001s-81.833 23.5 -128.5 23.5
c-60.667 0 -116.334 -11.833 -167.001 -35.5s-94.334 -54.834 -131.001 -93.501s-65.334 -83.167 -86.001 -133.5s-31 -101.833 -31 -154.5c0 -43.333 7.5 -83.833 22.5 -121.5s36.333 -70.167 64 -97.5s60.667 -48.833 99 -64.5s81.166 -23.5 128.499 -23.5zM403.002 101
c-31.333 0 -59.333 5.00195 -84 15.002s-45.5 24 -62.5 42s-30 39.167 -39 63.5s-13.5 51.166 -13.5 80.499c0 36 6.66699 71.667 20 107s32.166 67 56.499 95s53.333 50.833 87 68.5s70.834 26.5 111.501 26.5c31.333 0 59.333 -5 84 -15s45.5 -24 62.5 -42
s30 -39.333 39 -64s13.5 -51.334 13.5 -80.001c0 -36 -6.66699 -71.667 -20 -107s-32.166 -67 -56.499 -95s-53.333 -50.833 -87 -68.5s-70.834 -26.5 -111.501 -26.5zM350.002 758.002h100l96 67l58 -67h91l-77 146h-113z" />
    <glyph glyph-name="Otilde" unicode="&#xd5;" horiz-adv-x="836" 
d="M390 -12c60.667 0 116.502 11.833 167.502 35.5s94.833 54.834 131.5 93.501s65.334 83 86.001 133s31 101.667 31 155c0 43.333 -7.66699 83.666 -23 120.999s-36.666 69.833 -63.999 97.5s-60.5 49.334 -99.5 65.001s-81.833 23.5 -128.5 23.5
c-60.667 0 -116.334 -11.833 -167.001 -35.5s-94.334 -54.834 -131.001 -93.501s-65.334 -83.167 -86.001 -133.5s-31 -101.833 -31 -154.5c0 -43.333 7.5 -83.833 22.5 -121.5s36.333 -70.167 64 -97.5s60.667 -48.833 99 -64.5s81.166 -23.5 128.499 -23.5zM403.002 101
c-31.333 0 -59.333 5.00195 -84 15.002s-45.5 24 -62.5 42s-30 39.167 -39 63.5s-13.5 51.166 -13.5 80.499c0 36 6.66699 71.667 20 107s32.166 67 56.499 95s53.333 50.833 87 68.5s70.834 26.5 111.501 26.5c31.333 0 59.333 -5 84 -15s45.5 -24 62.5 -42
s30 -39.333 39 -64s13.5 -51.334 13.5 -80.001c0 -36 -6.66699 -71.667 -20 -107s-32.166 -67 -56.499 -95s-53.333 -50.833 -87 -68.5s-70.834 -26.5 -111.501 -26.5zM405.002 753.002c10 17.333 20.168 31.499 30.501 42.499s22.5 16.5 36.5 16.5
c8 0 15.333 -2.16699 22 -6.5s16.334 -11.166 29.001 -20.499c11.333 -9.33301 22.5 -16.833 33.5 -22.5s24.833 -8.5 41.5 -8.5c29.333 0 55.5 11 78.5 33s43.167 51.667 60.5 89l-68 32c-10 -18 -20 -32.333 -30 -43s-22 -16 -36 -16c-8.66699 0 -16.334 2 -23.001 6
s-16.334 11 -29.001 21c-11.333 9.33301 -22.5 16.833 -33.5 22.5s-24.833 8.5 -41.5 8.5c-29.333 0 -55.333 -11 -78 -33s-42.667 -51.667 -60 -89z" />
    <glyph glyph-name="Odieresis" unicode="&#xd6;" horiz-adv-x="836" 
d="M390 -12c60.667 0 116.502 11.833 167.502 35.5s94.833 54.834 131.5 93.501s65.334 83 86.001 133s31 101.667 31 155c0 43.333 -7.66699 83.666 -23 120.999s-36.666 69.833 -63.999 97.5s-60.5 49.334 -99.5 65.001s-81.833 23.5 -128.5 23.5
c-60.667 0 -116.334 -11.833 -167.001 -35.5s-94.334 -54.834 -131.001 -93.501s-65.334 -83.167 -86.001 -133.5s-31 -101.833 -31 -154.5c0 -43.333 7.5 -83.833 22.5 -121.5s36.333 -70.167 64 -97.5s60.667 -48.833 99 -64.5s81.166 -23.5 128.499 -23.5zM403.002 101
c-31.333 0 -59.333 5.00195 -84 15.002s-45.5 24 -62.5 42s-30 39.167 -39 63.5s-13.5 51.166 -13.5 80.499c0 36 6.66699 71.667 20 107s32.166 67 56.499 95s53.333 50.833 87 68.5s70.834 26.5 111.501 26.5c31.333 0 59.333 -5 84 -15s45.5 -24 62.5 -42
s30 -39.333 39 -64s13.5 -51.334 13.5 -80.001c0 -36 -6.66699 -71.667 -20 -107s-32.166 -67 -56.499 -95s-53.333 -50.833 -87 -68.5s-70.834 -26.5 -111.501 -26.5zM565.002 758.002h122l33 118h-123zM366.002 758.002h123l32 118h-123z" />
    <glyph glyph-name="Oslash" unicode="&#xd8;" horiz-adv-x="836" 
d="M390 -12c60.667 0 116.501 11.8311 167.501 35.498s94.833 54.834 131.5 93.501s65.334 83 86.001 133s31 101.667 31 155c0 31.333 -3.83301 61 -11.5 89s-18.834 53.667 -33.501 77l149 134h-123l-80 -71c-27.333 24.667 -59.166 43.834 -95.499 57.501
s-76.5 20.5 -120.5 20.5c-60.667 0 -116.334 -11.833 -167.001 -35.5s-94.334 -54.834 -131.001 -93.501s-65.334 -83.167 -86.001 -133.5s-31 -101.833 -31 -154.5c0 -64 15.667 -120.667 47 -170l-146 -130h123l78 68c26.667 -23.333 57.834 -41.666 93.501 -54.999
s75.167 -20 118.5 -20zM219.001 205.998c-12.667 27.333 -19 59 -19 95s6.83301 72 20.5 108s32.834 68.333 57.501 97s54 52 88 70s71.667 27 113 27c55.333 0 100.666 -15.667 135.999 -47zM402.001 95.998c-53.333 0 -97 15 -131 45l393 349c12 -27.333 18 -58 18 -92
c0 -36 -6.83301 -72 -20.5 -108s-32.834 -68.333 -57.501 -97s-54.167 -52 -88.5 -70s-72.166 -27 -113.499 -27z" />
    <glyph glyph-name="Ugrave" unicode="&#xd9;" horiz-adv-x="762" 
d="M345 -11c48.667 0 91.834 7.3291 129.501 21.9961s70.834 36.334 99.501 65.001c48.667 48.667 85 117.667 109 207l112 417h-123l-107 -398c-9.33301 -33.333 -20.333 -62 -33 -86s-27.334 -44.333 -44.001 -61c-35.333 -35.333 -79 -53 -131 -53
c-48.667 0 -85.334 12.5 -110.001 37.5s-37 57.5 -37 97.5c0 14.667 0.833008 28.334 2.5 41.001s4.16699 24.667 7.5 36l103 386h-123l-98 -369c-5.33301 -19.333 -9.33301 -38.166 -12 -56.499s-4 -36.5 -4 -54.5c0 -71.333 22.5 -127.666 67.5 -168.999
s108.833 -62 191.5 -62zM476 757.996h83l-61 164l-113 -49z" />
    <glyph glyph-name="Uacute" unicode="&#xda;" horiz-adv-x="762" 
d="M345 -11c48.667 0 91.834 7.3291 129.501 21.9961s70.834 36.334 99.501 65.001c48.667 48.667 85 117.667 109 207l112 417h-123l-107 -398c-9.33301 -33.333 -20.333 -62 -33 -86s-27.334 -44.333 -44.001 -61c-35.333 -35.333 -79 -53 -131 -53
c-48.667 0 -85.334 12.5 -110.001 37.5s-37 57.5 -37 97.5c0 14.667 0.833008 28.334 2.5 41.001s4.16699 24.667 7.5 36l103 386h-123l-98 -369c-5.33301 -19.333 -9.33301 -38.166 -12 -56.499s-4 -36.5 -4 -54.5c0 -71.333 22.5 -127.666 67.5 -168.999
s108.833 -62 191.5 -62zM424 757.996h105l153 115l-108 49z" />
    <glyph glyph-name="Ucircumflex" unicode="&#xdb;" horiz-adv-x="762" 
d="M345 -11c48.667 0 91.834 7.3291 129.501 21.9961s70.834 36.334 99.501 65.001c48.667 48.667 85 117.667 109 207l112 417h-123l-107 -398c-9.33301 -33.333 -20.333 -62 -33 -86s-27.334 -44.333 -44.001 -61c-35.333 -35.333 -79 -53 -131 -53
c-48.667 0 -85.334 12.5 -110.001 37.5s-37 57.5 -37 97.5c0 14.667 0.833008 28.334 2.5 41.001s4.16699 24.667 7.5 36l103 386h-123l-98 -369c-5.33301 -19.333 -9.33301 -38.166 -12 -56.499s-4 -36.5 -4 -54.5c0 -71.333 22.5 -127.666 67.5 -168.999
s108.833 -62 191.5 -62zM329 757.996h100l96 67l58 -67h91l-77 146h-113z" />
    <glyph glyph-name="Udieresis" unicode="&#xdc;" horiz-adv-x="762" 
d="M345 -11c48.667 0 91.834 7.3291 129.501 21.9961s70.834 36.334 99.501 65.001c48.667 48.667 85 117.667 109 207l112 417h-123l-107 -398c-9.33301 -33.333 -20.333 -62 -33 -86s-27.334 -44.333 -44.001 -61c-35.333 -35.333 -79 -53 -131 -53
c-48.667 0 -85.334 12.5 -110.001 37.5s-37 57.5 -37 97.5c0 14.667 0.833008 28.334 2.5 41.001s4.16699 24.667 7.5 36l103 386h-123l-98 -369c-5.33301 -19.333 -9.33301 -38.166 -12 -56.499s-4 -36.5 -4 -54.5c0 -71.333 22.5 -127.666 67.5 -168.999
s108.833 -62 191.5 -62zM549 757.996h122l33 118h-123zM350 757.996h123l32 118h-123z" />
    <glyph glyph-name="Yacute" unicode="&#xdd;" horiz-adv-x="655" 
d="M189 0h123l71 265l395 435h-152l-277 -316l-106 316h-136l156 -422zM370 758h105l153 115l-108 49z" />
    <glyph glyph-name="Thorn" unicode="&#xde;" horiz-adv-x="683" 
d="M19 0l123.999 -0.000976562l32 118h146c49.333 0 94.833 5.83301 136.5 17.5s77.834 28.834 108.501 51.501s54.5 50.5 71.5 83.5s25.5 70.833 25.5 113.5c0 57.333 -17.333 103.333 -52 138c-24.667 24.667 -54.167 42.167 -88.5 52.5s-75.5 15.5 -123.5 15.5h-98
l29 110h-123zM202.999 225.999l68 253h123c52 0 90 -12.333 114 -37c18 -18 27 -40.667 27 -68c0 -47.333 -18.5 -83.833 -55.5 -109.5s-87.833 -38.5 -152.5 -38.5h-124z" />
    <glyph glyph-name="germandbls" unicode="&#xdf;" horiz-adv-x="628" 
d="M225 -2c56.667 -1.33301 106.001 3.33398 148.001 14.001s77 25.667 105 45s48.833 42.333 62.5 69s20.5 55.667 20.5 87c0 20 -3.16699 37.667 -9.5 53s-15 29 -26 41s-23.833 22.167 -38.5 30.5s-30.334 15.5 -47.001 21.5c50 15.333 91.167 39.166 123.5 71.499
s48.5 74.166 48.5 125.499c0 26 -4.83301 50 -14.5 72s-23.5 41 -41.5 57s-39.833 28.667 -65.5 38s-54.5 14 -86.5 14c-36 0 -69 -6.16699 -99 -18.5s-56 -29.166 -78 -50.499c-39.333 -39.333 -68.333 -94.666 -87 -165.999l-135 -502h121l131 492
c12 45.333 30 80.333 54 105s53.333 37 88 37c28 0 51.167 -7.83301 69.5 -23.5s27.5 -37.5 27.5 -65.5c0 -33.333 -12.833 -62.5 -38.5 -87.5s-67.5 -44.167 -125.5 -57.5l-22 -83c48 -6.66699 82.5 -18.834 103.5 -36.501s31.5 -39.167 31.5 -64.5
c0 -16.667 -3.5 -32.5 -10.5 -47.5s-18.167 -28 -33.5 -39s-35.333 -19.833 -60 -26.5s-54.667 -9.66699 -90 -9z" />
    <glyph glyph-name="agrave" unicode="&#xe0;" horiz-adv-x="583" 
d="M174 -11c36 0 67.666 7.16602 94.999 21.499s52.666 33.833 75.999 58.5l-18 -69h119l79 297c3.33301 13.333 6 26 8 38s3 24.333 3 37c0 52 -17.833 92.333 -53.5 121s-88.5 43 -158.5 43c-36 0 -69.667 -3.16699 -101 -9.5s-60.666 -15.166 -87.999 -26.499l20 -100
c21.333 8.66699 44.166 15.667 68.499 21s49.833 8 76.5 8c40.667 0 70 -7.16699 88 -21.5s27 -33.166 27 -56.499c0 -8 -0.5 -15 -1.5 -21s-2.5 -13 -4.5 -21l-3 -11c-23.333 8 -48.166 14.333 -74.499 19s-54.166 7 -83.499 7c-34 0 -65.333 -4.16699 -94 -12.5
s-53.5 -20.5 -74.5 -36.5s-37.333 -35.833 -49 -59.5s-17.5 -50.834 -17.5 -81.501c0 -22 4.16699 -42 12.5 -60s19.666 -33.167 33.999 -45.5s31.333 -22 51 -29s40.834 -10.5 63.501 -10.5zM220.999 77.999c-26 0 -46.502 6.16895 -61.502 18.502
s-22.5 30.166 -22.5 53.499c0 28 11.5 50.833 34.5 68.5s54.833 26.5 95.5 26.5c23.333 0 45 -2 65 -6s38.333 -8.66699 55 -14l-6 -23c-4 -16 -11.167 -31.5 -21.5 -46.5s-22.666 -28.333 -36.999 -40s-30.166 -20.834 -47.499 -27.501s-35.333 -10 -54 -10z
M342.997 595.001h83l-61 164l-113 -49z" />
    <glyph glyph-name="aacute" unicode="&#xe1;" horiz-adv-x="583" 
d="M174 -11c36 0 67.666 7.16602 94.999 21.499s52.666 33.833 75.999 58.5l-18 -69h119l79 297c3.33301 13.333 6 26 8 38s3 24.333 3 37c0 52 -17.833 92.333 -53.5 121s-88.5 43 -158.5 43c-36 0 -69.667 -3.16699 -101 -9.5s-60.666 -15.166 -87.999 -26.499l20 -100
c21.333 8.66699 44.166 15.667 68.499 21s49.833 8 76.5 8c40.667 0 70 -7.16699 88 -21.5s27 -33.166 27 -56.499c0 -8 -0.5 -15 -1.5 -21s-2.5 -13 -4.5 -21l-3 -11c-23.333 8 -48.166 14.333 -74.499 19s-54.166 7 -83.499 7c-34 0 -65.333 -4.16699 -94 -12.5
s-53.5 -20.5 -74.5 -36.5s-37.333 -35.833 -49 -59.5s-17.5 -50.834 -17.5 -81.501c0 -22 4.16699 -42 12.5 -60s19.666 -33.167 33.999 -45.5s31.333 -22 51 -29s40.834 -10.5 63.501 -10.5zM220.999 77.999c-26 0 -46.502 6.16895 -61.502 18.502
s-22.5 30.166 -22.5 53.499c0 28 11.5 50.833 34.5 68.5s54.833 26.5 95.5 26.5c23.333 0 45 -2 65 -6s38.333 -8.66699 55 -14l-6 -23c-4 -16 -11.167 -31.5 -21.5 -46.5s-22.666 -28.333 -36.999 -40s-30.166 -20.834 -47.499 -27.501s-35.333 -10 -54 -10z
M288.997 595.001h105l153 115l-108 49z" />
    <glyph glyph-name="acircumflex" unicode="&#xe2;" horiz-adv-x="583" 
d="M174 -11c36 0 67.666 7.16602 94.999 21.499s52.666 33.833 75.999 58.5l-18 -69h119l79 297c3.33301 13.333 6 26 8 38s3 24.333 3 37c0 52 -17.833 92.333 -53.5 121s-88.5 43 -158.5 43c-36 0 -69.667 -3.16699 -101 -9.5s-60.666 -15.166 -87.999 -26.499l20 -100
c21.333 8.66699 44.166 15.667 68.499 21s49.833 8 76.5 8c40.667 0 70 -7.16699 88 -21.5s27 -33.166 27 -56.499c0 -8 -0.5 -15 -1.5 -21s-2.5 -13 -4.5 -21l-3 -11c-23.333 8 -48.166 14.333 -74.499 19s-54.166 7 -83.499 7c-34 0 -65.333 -4.16699 -94 -12.5
s-53.5 -20.5 -74.5 -36.5s-37.333 -35.833 -49 -59.5s-17.5 -50.834 -17.5 -81.501c0 -22 4.16699 -42 12.5 -60s19.666 -33.167 33.999 -45.5s31.333 -22 51 -29s40.834 -10.5 63.501 -10.5zM220.999 77.999c-26 0 -46.502 6.16895 -61.502 18.502
s-22.5 30.166 -22.5 53.499c0 28 11.5 50.833 34.5 68.5s54.833 26.5 95.5 26.5c23.333 0 45 -2 65 -6s38.333 -8.66699 55 -14l-6 -23c-4 -16 -11.167 -31.5 -21.5 -46.5s-22.666 -28.333 -36.999 -40s-30.166 -20.834 -47.499 -27.501s-35.333 -10 -54 -10z
M198.997 595.001h100l96 67l58 -67h91l-77 146h-113z" />
    <glyph glyph-name="atilde" unicode="&#xe3;" horiz-adv-x="583" 
d="M174 -11c36 0 67.666 7.16602 94.999 21.499s52.666 33.833 75.999 58.5l-18 -69h119l79 297c3.33301 13.333 6 26 8 38s3 24.333 3 37c0 52 -17.833 92.333 -53.5 121s-88.5 43 -158.5 43c-36 0 -69.667 -3.16699 -101 -9.5s-60.666 -15.166 -87.999 -26.499l20 -100
c21.333 8.66699 44.166 15.667 68.499 21s49.833 8 76.5 8c40.667 0 70 -7.16699 88 -21.5s27 -33.166 27 -56.499c0 -8 -0.5 -15 -1.5 -21s-2.5 -13 -4.5 -21l-3 -11c-23.333 8 -48.166 14.333 -74.499 19s-54.166 7 -83.499 7c-34 0 -65.333 -4.16699 -94 -12.5
s-53.5 -20.5 -74.5 -36.5s-37.333 -35.833 -49 -59.5s-17.5 -50.834 -17.5 -81.501c0 -22 4.16699 -42 12.5 -60s19.666 -33.167 33.999 -45.5s31.333 -22 51 -29s40.834 -10.5 63.501 -10.5zM220.999 77.999c-26 0 -46.502 6.16895 -61.502 18.502
s-22.5 30.166 -22.5 53.499c0 28 11.5 50.833 34.5 68.5s54.833 26.5 95.5 26.5c23.333 0 45 -2 65 -6s38.333 -8.66699 55 -14l-6 -23c-4 -16 -11.167 -31.5 -21.5 -46.5s-22.666 -28.333 -36.999 -40s-30.166 -20.834 -47.499 -27.501s-35.333 -10 -54 -10z
M249.997 590.001c10 17.333 20.168 31.499 30.501 42.499s22.5 16.5 36.5 16.5c8 0 15.333 -2.16699 22 -6.5s16.334 -11.166 29.001 -20.499c11.333 -9.33301 22.5 -16.833 33.5 -22.5s24.833 -8.5 41.5 -8.5c29.333 0 55.5 11 78.5 33s43.167 51.667 60.5 89l-68 32
c-10 -18 -20 -32.333 -30 -43s-22 -16 -36 -16c-8.66699 0 -16.334 2 -23.001 6s-16.334 11 -29.001 21c-11.333 9.33301 -22.5 16.833 -33.5 22.5s-24.833 8.5 -41.5 8.5c-29.333 0 -55.333 -11 -78 -33s-42.667 -51.667 -60 -89z" />
    <glyph glyph-name="adieresis" unicode="&#xe4;" horiz-adv-x="583" 
d="M174 -11c36 0 67.666 7.16602 94.999 21.499s52.666 33.833 75.999 58.5l-18 -69h119l79 297c3.33301 13.333 6 26 8 38s3 24.333 3 37c0 52 -17.833 92.333 -53.5 121s-88.5 43 -158.5 43c-36 0 -69.667 -3.16699 -101 -9.5s-60.666 -15.166 -87.999 -26.499l20 -100
c21.333 8.66699 44.166 15.667 68.499 21s49.833 8 76.5 8c40.667 0 70 -7.16699 88 -21.5s27 -33.166 27 -56.499c0 -8 -0.5 -15 -1.5 -21s-2.5 -13 -4.5 -21l-3 -11c-23.333 8 -48.166 14.333 -74.499 19s-54.166 7 -83.499 7c-34 0 -65.333 -4.16699 -94 -12.5
s-53.5 -20.5 -74.5 -36.5s-37.333 -35.833 -49 -59.5s-17.5 -50.834 -17.5 -81.501c0 -22 4.16699 -42 12.5 -60s19.666 -33.167 33.999 -45.5s31.333 -22 51 -29s40.834 -10.5 63.501 -10.5zM220.999 77.999c-26 0 -46.502 6.16895 -61.502 18.502
s-22.5 30.166 -22.5 53.499c0 28 11.5 50.833 34.5 68.5s54.833 26.5 95.5 26.5c23.333 0 45 -2 65 -6s38.333 -8.66699 55 -14l-6 -23c-4 -16 -11.167 -31.5 -21.5 -46.5s-22.666 -28.333 -36.999 -40s-30.166 -20.834 -47.499 -27.501s-35.333 -10 -54 -10z
M409.997 595.001h122l33 118h-123zM210.997 595.001h123l32 118h-123z" />
    <glyph glyph-name="aring" unicode="&#xe5;" horiz-adv-x="583" 
d="M174 -11c36 0 67.666 7.16602 94.999 21.499s52.666 33.833 75.999 58.5l-18 -69h119l79 297c3.33301 13.333 6 26 8 38s3 24.333 3 37c0 52 -17.833 92.333 -53.5 121s-88.5 43 -158.5 43c-36 0 -69.667 -3.16699 -101 -9.5s-60.666 -15.166 -87.999 -26.499l20 -100
c21.333 8.66699 44.166 15.667 68.499 21s49.833 8 76.5 8c40.667 0 70 -7.16699 88 -21.5s27 -33.166 27 -56.499c0 -8 -0.5 -15 -1.5 -21s-2.5 -13 -4.5 -21l-3 -11c-23.333 8 -48.166 14.333 -74.499 19s-54.166 7 -83.499 7c-34 0 -65.333 -4.16699 -94 -12.5
s-53.5 -20.5 -74.5 -36.5s-37.333 -35.833 -49 -59.5s-17.5 -50.834 -17.5 -81.501c0 -22 4.16699 -42 12.5 -60s19.666 -33.167 33.999 -45.5s31.333 -22 51 -29s40.834 -10.5 63.501 -10.5zM220.999 77.999c-26 0 -46.502 6.16895 -61.502 18.502
s-22.5 30.166 -22.5 53.499c0 28 11.5 50.833 34.5 68.5s54.833 26.5 95.5 26.5c23.333 0 45 -2 65 -6s38.333 -8.66699 55 -14l-6 -23c-4 -16 -11.167 -31.5 -21.5 -46.5s-22.666 -28.333 -36.999 -40s-30.166 -20.834 -47.499 -27.501s-35.333 -10 -54 -10z
M388.997 594.001c17.333 0 33.5 3.33301 48.5 10s28.167 15.5 39.5 26.5s20.333 24 27 39s10 31.167 10 48.5c0 28 -9.5 51.167 -28.5 69.5s-44.833 27.5 -77.5 27.5c-17.333 0 -33.5 -3.33301 -48.5 -10s-28.167 -15.667 -39.5 -27s-20.333 -24.5 -27 -39.5
s-10 -30.833 -10 -47.5c0 -28 9.5 -51.167 28.5 -69.5s44.833 -27.5 77.5 -27.5zM389.997 642.001c-16.667 0 -29.5 4.66699 -38.5 14s-13.5 21.333 -13.5 36c0 19.333 6.5 36.666 19.5 51.999s29.5 23 49.5 23c16.667 0 29.5 -4.66699 38.5 -14s13.5 -21.333 13.5 -36
c0 -19.333 -6.5 -36.666 -19.5 -51.999s-29.5 -23 -49.5 -23z" />
    <glyph glyph-name="ae" unicode="&#xe6;" horiz-adv-x="948" 
d="M431 92c19.333 -34 46.334 -59.8359 81.001 -77.5029s75 -26.5 121 -26.5c43.333 0 82.333 7 117 21s63.667 31.333 87 52l-57 77c-23.333 -17.333 -45.5 -30.166 -66.5 -38.499s-44.167 -12.5 -69.5 -12.5c-45.333 0 -79.5 12.5 -102.5 37.5s-34.5 57.5 -34.5 97.5h384
c15.333 36.667 23 74 23 112c0 28.667 -4.66699 55.5 -14 80.5s-22.666 46.667 -39.999 65s-39 32.833 -65 43.5s-55.333 16 -88 16c-40 0 -77 -8.5 -111 -25.5s-63.667 -39.5 -89 -67.5c-12 28.667 -32.833 50.834 -62.5 66.501s-69.834 23.5 -120.501 23.5
c-36 0 -69.667 -3.16699 -101 -9.5s-60.666 -15.166 -87.999 -26.499l20 -100c21.333 8.66699 44.166 15.667 68.499 21s49.833 8 76.5 8c40.667 0 70 -7.16699 88 -21.5s27 -33.166 27 -56.499c0 -8 -0.5 -15 -1.5 -21s-2.5 -13 -4.5 -21l-3 -11
c-23.333 8 -48.333 14.333 -75 19s-54.334 7 -83.001 7c-34 0 -65.333 -4 -94 -12s-53.5 -19.833 -74.5 -35.5s-37.333 -34.834 -49 -57.501s-17.5 -48.667 -17.5 -78c0 -46.667 16.5 -83.667 49.5 -111s78.167 -41 135.5 -41c48 0 90.667 9.66699 128 29s72.333 44 105 74z
M520.001 301.997c6.66699 20 15.667 38.498 27 55.498s24.5 31.5 39.5 43.5s31.667 21.5 50 28.5s37.5 10.5 57.5 10.5c18.667 0 34.5 -2.66699 47.5 -8s23.833 -12.666 32.5 -21.999s15 -20 19 -32s6 -25 6 -39c0 -7.33301 -0.333008 -14.166 -1 -20.499
s-1.66699 -11.833 -3 -16.5h-275zM400.001 220.995c0 -10 0.500977 -19.667 1.50098 -29s2.16699 -18.666 3.5 -27.999c-11.333 -12 -24.333 -23.167 -39 -33.5s-29.667 -19.5 -45 -27.5s-30.833 -14.167 -46.5 -18.5s-30.5 -6.5 -44.5 -6.5c-30 0 -53 6.16699 -69 18.5
s-24 30.166 -24 53.499c0 28 11.5 50.833 34.5 68.5s54.833 26.5 95.5 26.5c43.333 0 87.666 -8 132.999 -24z" />
    <glyph glyph-name="ccedilla" unicode="&#xe7;" horiz-adv-x="559" 
d="M204 0l-115.999 -120.998l93 -44l107 153h1c44 0.666992 81.5 8.66699 112.5 24s60.167 35.333 87.5 60l-64 79c-21.333 -18.667 -42.5 -33.167 -63.5 -43.5s-44.833 -15.5 -71.5 -15.5c-17.333 0 -33.5 3 -48.5 9s-28.167 14.667 -39.5 26s-20.333 25.166 -27 41.499
s-10 34.833 -10 55.5c0 28 5 54.667 15 80s23.333 47.666 40 66.999s35.834 34.666 57.501 45.999s44.5 17 68.5 17c34 0 60.667 -7.5 80 -22.5s36 -33.833 50 -56.5l94 64c-9.33301 16 -20.333 31.167 -33 45.5s-27.667 27 -45 38s-37.333 19.833 -60 26.5s-48 10 -76 10
c-42 0 -81.833 -8.33301 -119.5 -25s-70.834 -39.334 -99.501 -68.001s-51.334 -62.167 -68.001 -100.5s-25 -79.166 -25 -122.499c0 -56.667 14.833 -104.167 44.5 -142.5s68.167 -65.166 115.5 -80.499z" />
    <glyph glyph-name="egrave" unicode="&#xe8;" horiz-adv-x="600" 
d="M159 222l383.998 -0.00195312c7.33301 18 13 36.5 17 55.5s6 37.833 6 56.5c0 28.667 -4.66699 55.5 -14 80.5s-23 46.667 -41 65s-40 32.833 -66 43.5s-56 16 -90 16c-46 0 -88 -9.33301 -126 -28s-70.833 -43.167 -98.5 -73.5s-49 -64.666 -64 -102.999
s-22.5 -76.833 -22.5 -115.5c0 -35.333 5.66699 -67.333 17 -96s27.333 -53 48 -73s45.834 -35.333 75.501 -46s62.834 -16 99.501 -16c46 0 85.333 7 118 21s61.667 31.333 87 52l-58 77c-22.667 -17.333 -44.5 -30.166 -65.5 -38.499s-44.167 -12.5 -69.5 -12.5
c-45.333 0 -79.5 12.5 -102.5 37.5s-34.5 57.5 -34.5 97.5zM171.998 301.998c13.333 40 35.332 73 65.999 99s66.667 39 108 39c36.667 0 63.334 -10 80.001 -30s25 -43.667 25 -71c0 -14.667 -1.66699 -27 -5 -37h-274zM348.997 594.998h83l-61 164l-113 -49z" />
    <glyph glyph-name="eacute" unicode="&#xe9;" horiz-adv-x="600" 
d="M159 222l383.998 -0.00195312c7.33301 18 13 36.5 17 55.5s6 37.833 6 56.5c0 28.667 -4.66699 55.5 -14 80.5s-23 46.667 -41 65s-40 32.833 -66 43.5s-56 16 -90 16c-46 0 -88 -9.33301 -126 -28s-70.833 -43.167 -98.5 -73.5s-49 -64.666 -64 -102.999
s-22.5 -76.833 -22.5 -115.5c0 -35.333 5.66699 -67.333 17 -96s27.333 -53 48 -73s45.834 -35.333 75.501 -46s62.834 -16 99.501 -16c46 0 85.333 7 118 21s61.667 31.333 87 52l-58 77c-22.667 -17.333 -44.5 -30.166 -65.5 -38.499s-44.167 -12.5 -69.5 -12.5
c-45.333 0 -79.5 12.5 -102.5 37.5s-34.5 57.5 -34.5 97.5zM171.998 301.998c13.333 40 35.332 73 65.999 99s66.667 39 108 39c36.667 0 63.334 -10 80.001 -30s25 -43.667 25 -71c0 -14.667 -1.66699 -27 -5 -37h-274zM292.997 594.998h105l153 115l-108 49z" />
    <glyph glyph-name="ecircumflex" unicode="&#xea;" horiz-adv-x="600" 
d="M159 222l383.998 -0.00195312c7.33301 18 13 36.5 17 55.5s6 37.833 6 56.5c0 28.667 -4.66699 55.5 -14 80.5s-23 46.667 -41 65s-40 32.833 -66 43.5s-56 16 -90 16c-46 0 -88 -9.33301 -126 -28s-70.833 -43.167 -98.5 -73.5s-49 -64.666 -64 -102.999
s-22.5 -76.833 -22.5 -115.5c0 -35.333 5.66699 -67.333 17 -96s27.333 -53 48 -73s45.834 -35.333 75.501 -46s62.834 -16 99.501 -16c46 0 85.333 7 118 21s61.667 31.333 87 52l-58 77c-22.667 -17.333 -44.5 -30.166 -65.5 -38.499s-44.167 -12.5 -69.5 -12.5
c-45.333 0 -79.5 12.5 -102.5 37.5s-34.5 57.5 -34.5 97.5zM171.998 301.998c13.333 40 35.332 73 65.999 99s66.667 39 108 39c36.667 0 63.334 -10 80.001 -30s25 -43.667 25 -71c0 -14.667 -1.66699 -27 -5 -37h-274zM201.997 594.998h100l96 67l58 -67h91l-77 146h-113z
" />
    <glyph glyph-name="edieresis" unicode="&#xeb;" horiz-adv-x="600" 
d="M159 222l383.998 -0.00195312c7.33301 18 13 36.5 17 55.5s6 37.833 6 56.5c0 28.667 -4.66699 55.5 -14 80.5s-23 46.667 -41 65s-40 32.833 -66 43.5s-56 16 -90 16c-46 0 -88 -9.33301 -126 -28s-70.833 -43.167 -98.5 -73.5s-49 -64.666 -64 -102.999
s-22.5 -76.833 -22.5 -115.5c0 -35.333 5.66699 -67.333 17 -96s27.333 -53 48 -73s45.834 -35.333 75.501 -46s62.834 -16 99.501 -16c46 0 85.333 7 118 21s61.667 31.333 87 52l-58 77c-22.667 -17.333 -44.5 -30.166 -65.5 -38.499s-44.167 -12.5 -69.5 -12.5
c-45.333 0 -79.5 12.5 -102.5 37.5s-34.5 57.5 -34.5 97.5zM171.998 301.998c13.333 40 35.332 73 65.999 99s66.667 39 108 39c36.667 0 63.334 -10 80.001 -30s25 -43.667 25 -71c0 -14.667 -1.66699 -27 -5 -37h-274zM415.997 594.998h122l33 118h-123zM216.997 594.998
h123l32 118h-123z" />
    <glyph glyph-name="igrave" unicode="&#xec;" horiz-adv-x="286" 
d="M12 0h121l142 528h-121zM200 595h83l-61 164l-113 -49z" />
    <glyph glyph-name="iacute" unicode="&#xed;" horiz-adv-x="286" 
d="M12 0h121l142 528h-121zM159 595h105l153 115l-108 49z" />
    <glyph glyph-name="icircumflex" unicode="&#xee;" horiz-adv-x="286" 
d="M12 0h121l142 528h-121zM53 595h100l96 67l58 -67h91l-77 146h-113z" />
    <glyph glyph-name="idieresis" unicode="&#xef;" horiz-adv-x="286" 
d="M12 0h121l142 528h-121zM268 595h122l33 118h-123zM69 595h123l32 118h-123z" />
    <glyph glyph-name="eth" unicode="&#xf0;" horiz-adv-x="631" 
d="M281 -12c46.667 0 88.8359 8.66797 126.503 26.001s69.667 40.833 96 70.5s46.5 64 60.5 103s21 80.5 21 124.5c0 34.667 -3.83301 67.667 -11.5 99s-18.834 65 -33.501 101l-48 116l119 46l-32 64l-115 -45l-16 37h-123l34 -76l-143 -56l32 -64l141 55l71 -160
c-19.333 17.333 -41 31.166 -65 41.499s-53 15.5 -87 15.5c-36 0 -70 -7 -102 -21s-60.333 -33.167 -85 -57.5s-44.167 -52.833 -58.5 -85.5s-21.5 -67.667 -21.5 -105c0 -34 5.83301 -65 17.5 -93s28.167 -52 49.5 -72s46.666 -35.667 75.999 -47s61.666 -17 96.999 -17z
M289.002 92.001c-38 0 -69.3311 11.5 -93.998 34.5s-37 55.5 -37 97.5c0 23.333 4.33301 45.5 13 66.5s20.667 39.333 36 55s33.166 28.167 53.499 37.5s42.5 14 66.5 14c42 0 75 -12.333 99 -37s36 -56 36 -94c0 -22.667 -4.33301 -44.5 -13 -65.5
s-20.834 -39.5 -36.501 -55.5s-34 -28.833 -55 -38.5s-43.833 -14.5 -68.5 -14.5z" />
    <glyph glyph-name="ntilde" unicode="&#xf1;" horiz-adv-x="617" 
d="M5 0l121 0.00292969l80 297c10.667 39.333 29 71.166 55 95.499s56 36.5 90 36.5c29.333 0 52 -7.16699 68 -21.5s24 -34.833 24 -61.5c0 -7.33301 -0.666992 -15.833 -2 -25.5s-3.33301 -18.834 -6 -27.501l-78 -293h121l76 288c4 15.333 7.66699 31.166 11 47.499
s5 31.5 5 45.5c0 48.667 -14.5 87.167 -43.5 115.5s-68.167 42.5 -117.5 42.5c-34 0 -63.833 -7.83301 -89.5 -23.5s-49.167 -34.167 -70.5 -55.5l18 68h-121zM267 590.003c10 17.333 20.168 31.499 30.501 42.499s22.5 16.5 36.5 16.5c8 0 15.333 -2.16699 22 -6.5
s16.334 -11.166 29.001 -20.499c11.333 -9.33301 22.5 -16.833 33.5 -22.5s24.833 -8.5 41.5 -8.5c29.333 0 55.5 11 78.5 33s43.167 51.667 60.5 89l-68 32c-10 -18 -20 -32.333 -30 -43s-22 -16 -36 -16c-8.66699 0 -16.334 2 -23.001 6s-16.334 11 -29.001 21
c-11.333 9.33301 -22.5 16.833 -33.5 22.5s-24.833 8.5 -41.5 8.5c-29.333 0 -55.333 -11 -78 -33s-42.667 -51.667 -60 -89z" />
    <glyph glyph-name="ograve" unicode="&#xf2;" horiz-adv-x="646" 
d="M293 -12c42 0 81.667 8.49805 119 25.498s70 39.833 98 68.5s50.167 61.667 66.5 99s24.5 76 24.5 116c0 34.667 -5.83301 66.834 -17.5 96.501s-28.334 55.334 -50.001 77.001s-47.667 38.5 -78 50.5s-64.5 18 -102.5 18c-42.667 0 -82.667 -8.66699 -120 -26
s-70 -40.333 -98 -69s-50 -61.667 -66 -99s-24 -76 -24 -116c0 -34.667 5.83301 -66.667 17.5 -96s28.334 -54.833 50.001 -76.5s47.667 -38.5 78 -50.5s64.5 -18 102.5 -18zM300 92.998c-40 0 -72.501 12.167 -97.501 36.5s-37.5 58.833 -37.5 103.5
c0 23.333 4.5 47 13.5 71s21.667 45.667 38 65s35.5 35 57.5 47s46 18 72 18c40 0 72.5 -12.167 97.5 -36.5s37.5 -58.833 37.5 -103.5c0 -24 -4.66699 -48 -14 -72s-22.166 -45.5 -38.499 -64.5s-35.5 -34.5 -57.5 -46.5s-45.667 -18 -71 -18zM358.999 594.998h83l-61 164
l-113 -49z" />
    <glyph glyph-name="oacute" unicode="&#xf3;" horiz-adv-x="646" 
d="M293 -12c42 0 81.667 8.49805 119 25.498s70 39.833 98 68.5s50.167 61.667 66.5 99s24.5 76 24.5 116c0 34.667 -5.83301 66.834 -17.5 96.501s-28.334 55.334 -50.001 77.001s-47.667 38.5 -78 50.5s-64.5 18 -102.5 18c-42.667 0 -82.667 -8.66699 -120 -26
s-70 -40.333 -98 -69s-50 -61.667 -66 -99s-24 -76 -24 -116c0 -34.667 5.83301 -66.667 17.5 -96s28.334 -54.833 50.001 -76.5s47.667 -38.5 78 -50.5s64.5 -18 102.5 -18zM300 92.998c-40 0 -72.501 12.167 -97.501 36.5s-37.5 58.833 -37.5 103.5
c0 23.333 4.5 47 13.5 71s21.667 45.667 38 65s35.5 35 57.5 47s46 18 72 18c40 0 72.5 -12.167 97.5 -36.5s37.5 -58.833 37.5 -103.5c0 -24 -4.66699 -48 -14 -72s-22.166 -45.5 -38.499 -64.5s-35.5 -34.5 -57.5 -46.5s-45.667 -18 -71 -18zM297.999 594.998h105l153 115
l-108 49z" />
    <glyph glyph-name="ocircumflex" unicode="&#xf4;" horiz-adv-x="646" 
d="M293 -12c42 0 81.667 8.49805 119 25.498s70 39.833 98 68.5s50.167 61.667 66.5 99s24.5 76 24.5 116c0 34.667 -5.83301 66.834 -17.5 96.501s-28.334 55.334 -50.001 77.001s-47.667 38.5 -78 50.5s-64.5 18 -102.5 18c-42.667 0 -82.667 -8.66699 -120 -26
s-70 -40.333 -98 -69s-50 -61.667 -66 -99s-24 -76 -24 -116c0 -34.667 5.83301 -66.667 17.5 -96s28.334 -54.833 50.001 -76.5s47.667 -38.5 78 -50.5s64.5 -18 102.5 -18zM300 92.998c-40 0 -72.501 12.167 -97.501 36.5s-37.5 58.833 -37.5 103.5
c0 23.333 4.5 47 13.5 71s21.667 45.667 38 65s35.5 35 57.5 47s46 18 72 18c40 0 72.5 -12.167 97.5 -36.5s37.5 -58.833 37.5 -103.5c0 -24 -4.66699 -48 -14 -72s-22.166 -45.5 -38.499 -64.5s-35.5 -34.5 -57.5 -46.5s-45.667 -18 -71 -18zM214.999 594.998h100l96 67
l58 -67h91l-77 146h-113z" />
    <glyph glyph-name="otilde" unicode="&#xf5;" horiz-adv-x="646" 
d="M293 -12c42 0 81.667 8.49805 119 25.498s70 39.833 98 68.5s50.167 61.667 66.5 99s24.5 76 24.5 116c0 34.667 -5.83301 66.834 -17.5 96.501s-28.334 55.334 -50.001 77.001s-47.667 38.5 -78 50.5s-64.5 18 -102.5 18c-42.667 0 -82.667 -8.66699 -120 -26
s-70 -40.333 -98 -69s-50 -61.667 -66 -99s-24 -76 -24 -116c0 -34.667 5.83301 -66.667 17.5 -96s28.334 -54.833 50.001 -76.5s47.667 -38.5 78 -50.5s64.5 -18 102.5 -18zM300 92.998c-40 0 -72.501 12.167 -97.501 36.5s-37.5 58.833 -37.5 103.5
c0 23.333 4.5 47 13.5 71s21.667 45.667 38 65s35.5 35 57.5 47s46 18 72 18c40 0 72.5 -12.167 97.5 -36.5s37.5 -58.833 37.5 -103.5c0 -24 -4.66699 -48 -14 -72s-22.166 -45.5 -38.499 -64.5s-35.5 -34.5 -57.5 -46.5s-45.667 -18 -71 -18zM262.999 589.998
c10 17.333 20.168 31.499 30.501 42.499s22.5 16.5 36.5 16.5c8 0 15.333 -2.16699 22 -6.5s16.334 -11.166 29.001 -20.499c11.333 -9.33301 22.5 -16.833 33.5 -22.5s24.833 -8.5 41.5 -8.5c29.333 0 55.5 11 78.5 33s43.167 51.667 60.5 89l-68 32
c-10 -18 -20 -32.333 -30 -43s-22 -16 -36 -16c-8.66699 0 -16.334 2 -23.001 6s-16.334 11 -29.001 21c-11.333 9.33301 -22.5 16.833 -33.5 22.5s-24.833 8.5 -41.5 8.5c-29.333 0 -55.333 -11 -78 -33s-42.667 -51.667 -60 -89z" />
    <glyph glyph-name="odieresis" unicode="&#xf6;" horiz-adv-x="646" 
d="M293 -12c42 0 81.667 8.49805 119 25.498s70 39.833 98 68.5s50.167 61.667 66.5 99s24.5 76 24.5 116c0 34.667 -5.83301 66.834 -17.5 96.501s-28.334 55.334 -50.001 77.001s-47.667 38.5 -78 50.5s-64.5 18 -102.5 18c-42.667 0 -82.667 -8.66699 -120 -26
s-70 -40.333 -98 -69s-50 -61.667 -66 -99s-24 -76 -24 -116c0 -34.667 5.83301 -66.667 17.5 -96s28.334 -54.833 50.001 -76.5s47.667 -38.5 78 -50.5s64.5 -18 102.5 -18zM300 92.998c-40 0 -72.501 12.167 -97.501 36.5s-37.5 58.833 -37.5 103.5
c0 23.333 4.5 47 13.5 71s21.667 45.667 38 65s35.5 35 57.5 47s46 18 72 18c40 0 72.5 -12.167 97.5 -36.5s37.5 -58.833 37.5 -103.5c0 -24 -4.66699 -48 -14 -72s-22.166 -45.5 -38.499 -64.5s-35.5 -34.5 -57.5 -46.5s-45.667 -18 -71 -18zM423.999 594.998h122l33 118
h-123zM224.999 594.998h123l32 118h-123z" />
    <glyph glyph-name="oslash" unicode="&#xf8;" horiz-adv-x="646" 
d="M293 -12c42 0 81.6689 8.50098 119.002 25.501s70 39.833 98 68.5s50.167 61.667 66.5 99s24.5 76 24.5 116c0 49.333 -11 92.666 -33 129.999l121 107h-113l-58 -51c-20.667 17.333 -44.834 31 -72.501 41s-58.5 15 -92.5 15c-42.667 0 -82.667 -8.66699 -120 -26
s-70 -40.333 -98 -69s-50 -61.667 -66 -99s-24 -76 -24 -116c0 -46 10.333 -87.667 31 -125l-124 -109h114l58 51c21.333 -18 46.166 -32.167 74.499 -42.5s59.833 -15.5 94.5 -15.5zM169.002 181.001c-5.33301 16 -7.99902 33.333 -7.99902 52c0 24 4.66699 48.167 14 72.5
s22.333 46.333 39 66s36.5 35.667 59.5 48s48.167 18.5 75.5 18.5c33.333 0 61.666 -8.66699 84.999 -26zM297.003 89.001c-36 0 -65.333 9.33203 -88 27.999l267 234c6 -16 9 -35 9 -57c0 -24 -4.66699 -48.333 -14 -73s-22.5 -46.667 -39.5 -66s-37 -35.166 -60 -47.499
s-47.833 -18.5 -74.5 -18.5z" />
    <glyph glyph-name="ugrave" unicode="&#xf9;" horiz-adv-x="618" 
d="M209 -11c34 0 63.833 7.83105 89.5 23.498s49.167 34.167 70.5 55.5l-18 -68h121l141 528h-121l-80 -297c-10.667 -39.333 -29 -71.166 -55 -95.499s-56 -36.5 -90 -36.5c-29.333 0 -51.833 7.16699 -67.5 21.5s-23.5 34.833 -23.5 61.5c0 7.33301 0.666992 16 2 26
s3 19 5 27l79 293h-121l-77 -288c-4 -15.333 -7.66699 -31.166 -11 -47.499s-5 -31.5 -5 -45.5c0 -48.667 14.5 -87.167 43.5 -115.5s68.167 -42.5 117.5 -42.5zM369 594.998h83l-61 164l-113 -49z" />
    <glyph glyph-name="uacute" unicode="&#xfa;" horiz-adv-x="618" 
d="M209 -11c34 0 63.833 7.83105 89.5 23.498s49.167 34.167 70.5 55.5l-18 -68h121l141 528h-121l-80 -297c-10.667 -39.333 -29 -71.166 -55 -95.499s-56 -36.5 -90 -36.5c-29.333 0 -51.833 7.16699 -67.5 21.5s-23.5 34.833 -23.5 61.5c0 7.33301 0.666992 16 2 26
s3 19 5 27l79 293h-121l-77 -288c-4 -15.333 -7.66699 -31.166 -11 -47.499s-5 -31.5 -5 -45.5c0 -48.667 14.5 -87.167 43.5 -115.5s68.167 -42.5 117.5 -42.5zM308 594.998h105l153 115l-108 49z" />
    <glyph glyph-name="ucircumflex" unicode="&#xfb;" horiz-adv-x="618" 
d="M209 -11c34 0 63.833 7.83105 89.5 23.498s49.167 34.167 70.5 55.5l-18 -68h121l141 528h-121l-80 -297c-10.667 -39.333 -29 -71.166 -55 -95.499s-56 -36.5 -90 -36.5c-29.333 0 -51.833 7.16699 -67.5 21.5s-23.5 34.833 -23.5 61.5c0 7.33301 0.666992 16 2 26
s3 19 5 27l79 293h-121l-77 -288c-4 -15.333 -7.66699 -31.166 -11 -47.499s-5 -31.5 -5 -45.5c0 -48.667 14.5 -87.167 43.5 -115.5s68.167 -42.5 117.5 -42.5zM216 594.998h100l96 67l58 -67h91l-77 146h-113z" />
    <glyph glyph-name="udieresis" unicode="&#xfc;" horiz-adv-x="618" 
d="M209 -11c34 0 63.833 7.83105 89.5 23.498s49.167 34.167 70.5 55.5l-18 -68h121l141 528h-121l-80 -297c-10.667 -39.333 -29 -71.166 -55 -95.499s-56 -36.5 -90 -36.5c-29.333 0 -51.833 7.16699 -67.5 21.5s-23.5 34.833 -23.5 61.5c0 7.33301 0.666992 16 2 26
s3 19 5 27l79 293h-121l-77 -288c-4 -15.333 -7.66699 -31.166 -11 -47.499s-5 -31.5 -5 -45.5c0 -48.667 14.5 -87.167 43.5 -115.5s68.167 -42.5 117.5 -42.5zM429 594.998h122l33 118h-123zM230 594.998h123l32 118h-123z" />
    <glyph glyph-name="yacute" unicode="&#xfd;" horiz-adv-x="585" 
d="M65 -163c21.333 0 41.4961 2.66504 60.4961 7.99805s37.333 13.833 55 25.5s34.834 26.834 51.501 45.501s33.667 41.667 51 69l341 543h-132l-233 -391l-44 391h-124l77 -530c-17.333 -23.333 -32.833 -39 -46.5 -47s-28.167 -12 -43.5 -12
c-11.333 0 -23.166 2.16699 -35.499 6.5s-23.166 9.83301 -32.499 16.5l-64 -89c16.667 -11.333 34.334 -20.166 53.001 -26.499s40.667 -9.5 66 -9.5zM294.996 594.998h105l153 115l-108 49z" />
    <glyph glyph-name="thorn" unicode="&#xfe;" horiz-adv-x="668" 
d="M-38 -160l120.999 -0.00292969l68 254c16 -29.333 38 -54.166 66 -74.499s65.333 -30.5 112 -30.5c38 0 74.667 8.16699 110 24.5s66.666 38.833 93.999 67.5s49.166 62.834 65.499 102.501s24.5 82.834 24.5 129.501c0 34.667 -5.16699 66 -15.5 94
s-24.666 51.833 -42.999 71.5s-40.166 34.667 -65.499 45s-52.666 15.5 -81.999 15.5c-34.667 0 -65.5 -7.5 -92.5 -22.5s-52.5 -34.5 -76.5 -58.5l74 272h-121zM314.999 91.9971c-20 0 -38.167 3.33398 -54.5 10.001s-30.333 16 -42 28s-20.667 26.167 -27 42.5
s-9.5 34.166 -9.5 53.499c0 28 5.33301 54.667 16 80s24.834 47.5 42.501 66.5s38 34.167 61 45.5s46.5 17 70.5 17c38 0 68.333 -11.667 91 -35s34 -55.333 34 -96c0 -29.333 -4.83301 -56.833 -14.5 -82.5s-22.834 -48.167 -39.501 -67.5s-36 -34.5 -58 -45.5
s-45.333 -16.5 -70 -16.5z" />
    <glyph glyph-name="ydieresis" unicode="&#xff;" horiz-adv-x="585" 
d="M65 -163c21.333 0 41.4961 2.66504 60.4961 7.99805s37.333 13.833 55 25.5s34.834 26.834 51.501 45.501s33.667 41.667 51 69l341 543h-132l-233 -391l-44 391h-124l77 -530c-17.333 -23.333 -32.833 -39 -46.5 -47s-28.167 -12 -43.5 -12
c-11.333 0 -23.166 2.16699 -35.499 6.5s-23.166 9.83301 -32.499 16.5l-64 -89c16.667 -11.333 34.334 -20.166 53.001 -26.499s40.667 -9.5 66 -9.5zM403.996 594.998h122l33 118h-123zM204.996 594.998h123l32 118h-123z" />
    <glyph glyph-name="dotlessi" unicode="&#x131;" horiz-adv-x="286" 
d="M12 0h121l142 528h-121z" />
    <glyph glyph-name="Lslash" unicode="&#x141;" horiz-adv-x="655" 
d="M56 0h491l30 112h-371l55 203l219 61l31 114l-220 -61l73 271h-120l-82 -307l-81 -23l-31 -114l80 22z" />
    <glyph glyph-name="lslash" unicode="&#x142;" horiz-adv-x="344" 
d="M42 0h121l90 333l81 22l31 115l-82 -22l76 282h-121l-86 -319l-81 -22l-30 -115l81 22z" />
    <glyph glyph-name="OE" unicode="&#x152;" horiz-adv-x="1096" 
d="M424 0h545l30 110h-380l51 188h329l30 109h-330l49 183h374l30 110h-601c-78.667 0 -148.334 -11.333 -209.001 -34s-112 -55 -154 -97c-37.333 -36.667 -65.5 -78.334 -84.5 -125.001s-28.5 -96.334 -28.5 -149.001c0 -43.333 6.16699 -81.666 18.5 -114.999
s30.166 -61.666 53.499 -84.999c30.667 -30.667 68.334 -54.167 113.001 -70.5s99.334 -24.5 164.001 -24.5zM434 112c-43.333 0 -80 5.16699 -110 15.5s-54.333 24.833 -73 43.5c-32 32 -48 75 -48 129c0 38 6.5 73.333 19.5 106s32.167 61.667 57.5 87
c31.333 31.333 69 55 113 71s92 24 144 24h88l-128 -476h-63z" />
    <glyph glyph-name="oe" unicode="&#x153;" horiz-adv-x="1033" 
d="M593 222h383.999c15.333 36.667 23 74 23 112c0 28.667 -4.66699 55.5 -14 80.5s-22.833 46.667 -40.5 65s-39.667 32.833 -66 43.5s-56.5 16 -90.5 16c-52 0 -97 -11.833 -135 -35.5s-69.333 -52.834 -94 -87.501c-15.333 36 -40.5 65.5 -75.5 88.5
s-79.167 34.5 -132.5 34.5c-42.667 0 -82.667 -8.5 -120 -25.5s-69.833 -39.833 -97.5 -68.5s-49.5 -61.667 -65.5 -99s-24 -76.333 -24 -117c0 -34.667 5.83301 -66.667 17.5 -96s28.334 -54.833 50.001 -76.5s47.834 -38.5 78.501 -50.5s64.667 -18 102 -18
c48.667 0 91.667 10.833 129 32.5s68.666 49.167 93.999 82.5c16 -36 41.333 -64.167 76 -84.5s77 -30.5 127 -30.5c43.333 0 82.333 7 117 21s63.667 31.333 87 52l-57 77c-23.333 -17.333 -45.5 -30.166 -66.5 -38.499s-44.167 -12.5 -69.5 -12.5
c-45.333 0 -79.5 12.5 -102.5 37.5s-34.5 57.5 -34.5 97.5zM605.999 302c6.66699 20 15.666 38.5 26.999 55.5s24.5 31.5 39.5 43.5s31.667 21.5 50 28.5s37.5 10.5 57.5 10.5c36.667 0 63.334 -10 80.001 -30s25 -43.667 25 -71c0 -14.667 -1.66699 -27 -5 -37h-274z
M298.998 93c-40 0 -72.332 12.667 -96.999 38s-37 59.333 -37 102c0 24.667 4.5 49 13.5 73s21.667 45.5 38 64.5s35.666 34.333 57.999 46s46.5 17.5 72.5 17.5c40 0 72.333 -12.667 97 -38s37 -60 37 -104c0 -24.667 -4.66699 -49 -14 -73s-22 -45.333 -38 -64
s-35.167 -33.667 -57.5 -45s-46.5 -17 -72.5 -17z" />
    <glyph glyph-name="Scaron" unicode="&#x160;" horiz-adv-x="637" 
d="M296 -10c36.667 0 71.6631 5.16699 104.996 15.5s62.333 25.333 87 45s44.334 43.334 59.001 71.001s22 58.5 22 92.5c0 24 -4 45.333 -12 64s-19.5 35.5 -34.5 50.5s-33.333 28.333 -55 40s-45.834 22.834 -72.501 33.501c-25.333 10 -46.666 19.167 -63.999 27.5
s-31.333 16.5 -42 24.5s-18.334 16.333 -23.001 25s-7 18.667 -7 30c0 12 3 23.5 9 34.5s14.5 20.667 25.5 29s24.5 15.166 40.5 20.499s34.333 8 55 8c36.667 0 69.167 -6.83301 97.5 -20.5s55.833 -33.5 82.5 -59.5l86 84c-28.667 32 -64 57.5 -106 76.5
s-92.333 28.5 -151 28.5c-37.333 0 -72.333 -5.33301 -105 -16s-61.167 -25.5 -85.5 -44.5s-43.5 -42.167 -57.5 -69.5s-21 -57.333 -21 -90c0 -24 4.33301 -45.333 13 -64s21 -35.5 37 -50.5s35 -28.333 57 -40s46.333 -22.834 73 -33.501
c24.667 -10 45.334 -19.167 62.001 -27.5s30 -16.5 40 -24.5s17 -16.333 21 -25s6 -18.334 6 -29.001c0 -29.333 -12.667 -52.833 -38 -70.5s-57.666 -26.5 -96.999 -26.5c-45.333 0 -84.666 8.33301 -117.999 25s-64.333 41.334 -93 74.001l-93 -77
c32 -42.667 72.833 -75.167 122.5 -97.5s107.834 -33.5 174.501 -33.5zM376.996 758h112l156 146h-100l-97 -66l-58 66h-90z" />
    <glyph glyph-name="scaron" unicode="&#x161;" horiz-adv-x="498" 
d="M217 -12c30 0 57.833 4.16797 83.5 12.501s48 20.333 67 36s33.833 34.5 44.5 56.5s16 46.667 16 74c0 19.333 -3.83301 36.333 -11.5 51s-18 27.667 -31 39s-28.333 21.666 -46 30.999s-36.5 18.333 -56.5 27c-30 12.667 -51.5 24 -64.5 34s-19.5 21.667 -19.5 35
c0 17.333 7 31.666 21 42.999s34 17 60 17c48 0 96.333 -19.333 145 -58l67 78c-22 19.333 -50.833 36.5 -86.5 51.5s-74.5 22.5 -116.5 22.5c-32 0 -60.667 -4.5 -86 -13.5s-47 -21.333 -65 -37s-31.833 -34.167 -41.5 -55.5s-14.5 -44.333 -14.5 -69
c0 -20 3.83301 -37.5 11.5 -52.5s18.167 -28.333 31.5 -40s29.333 -22.167 48 -31.5s39 -18.333 61 -27c26.667 -11.333 46.167 -21.833 58.5 -31.5s18.5 -21.167 18.5 -34.5c0 -19.333 -8.16699 -34.666 -24.5 -45.999s-36.5 -17 -60.5 -17
c-26.667 0 -54.667 5.33301 -84 16s-58 30 -86 58l-72 -74c30.667 -32 67.167 -55.833 109.5 -71.5s83.5 -23.5 123.5 -23.5zM277 595.001h112l156 146h-100l-97 -66l-58 66h-90z" />
    <glyph glyph-name="Ydieresis" unicode="&#x178;" horiz-adv-x="655" 
d="M189 0h123l71 265l395 435h-152l-277 -316l-106 316h-136l156 -422zM482 758h122l33 118h-123zM283 758h123l32 118h-123z" />
    <glyph glyph-name="Zcaron" unicode="&#x17d;" horiz-adv-x="681" 
d="M-19 0h574l29 109h-404l535 500l25 91h-557l-30 -109h387l-535 -500zM402 758h112l156 146h-100l-97 -66l-58 66h-90z" />
    <glyph glyph-name="zcaron" unicode="&#x17e;" horiz-adv-x="554" 
d="M-24 0h458l27 99h-299l389 346l22 83h-445l-26 -99h285l-388 -346zM295 595h112l156 146h-100l-97 -66l-58 66h-90z" />
    <glyph glyph-name="florin" unicode="&#x192;" horiz-adv-x="538" 
d="M53 -9c37.333 0 71.332 10.334 101.999 31.001s57.667 57 81 109l99 225h150l27 101h-132l29 66c12 28 26 49 42 63s35.333 21 58 21c16 0 29.833 -1.33301 41.5 -4s22.834 -6.66699 33.501 -12l28 100c-13.333 5.33301 -28.666 9.66602 -45.999 12.999
s-38.666 5 -63.999 5c-44.667 0 -82.834 -12.833 -114.501 -38.5s-58.834 -63.5 -81.501 -113.5l-45 -100h-100l-27 -101h82l-83 -189c-12 -27.333 -25.333 -46.833 -40 -58.5s-30 -17.5 -46 -17.5c-10 0 -18.5 0.666992 -25.5 2s-14.167 3 -21.5 5l-27 -99
c10 -2 21.333 -3.83301 34 -5.5s28 -2.5 46 -2.5z" />
    <glyph glyph-name="circumflex" unicode="&#x2c6;" 
d="M167 595h100l96 67l58 -67h91l-77 146h-113z" />
    <glyph glyph-name="caron" unicode="&#x2c7;" 
d="M280 595h112l156 146h-100l-97 -66l-58 66h-90z" />
    <glyph glyph-name="breve" unicode="&#x2d8;" 
d="M353 593c44 0 84 13.1641 120 39.4971s61.333 62.5 76 108.5h-87c-11.333 -17.333 -25.333 -32.166 -42 -44.499s-35.334 -18.5 -56.001 -18.5c-25.333 0 -44 6.16699 -56 18.5s-18.333 27.166 -19 44.499h-85c-0.666992 -3.33301 -1 -7.66602 -1 -12.999
c0 -18 3 -35.167 9 -51.5s15.333 -30.666 28 -42.999s28.334 -22.166 47.001 -29.499s40.667 -11 66 -11z" />
    <glyph glyph-name="dotaccent" unicode="&#x2d9;" 
d="M277 594h125l32 120h-124z" />
    <glyph glyph-name="ring" unicode="&#x2da;" 
d="M358 594c17.333 0 33.5 3.33301 48.5 10s28.167 15.5 39.5 26.5s20.333 24 27 39s10 31.167 10 48.5c0 28 -9.5 51.167 -28.5 69.5s-44.833 27.5 -77.5 27.5c-17.333 0 -33.5 -3.33301 -48.5 -10s-28.167 -15.667 -39.5 -27s-20.333 -24.5 -27 -39.5
s-10 -30.833 -10 -47.5c0 -28 9.5 -51.167 28.5 -69.5s44.833 -27.5 77.5 -27.5zM359 642c-16.667 0 -29.5 4.66699 -38.5 14s-13.5 21.333 -13.5 36c0 19.333 6.5 36.666 19.5 51.999s29.5 23 49.5 23c16.667 0 29.5 -4.66699 38.5 -14s13.5 -21.333 13.5 -36
c0 -19.333 -6.5 -36.666 -19.5 -51.999s-29.5 -23 -49.5 -23z" />
    <glyph glyph-name="ogonek" unicode="&#x2db;" 
d="M230 -164l14.999 56c-52.667 2.66699 -79 19.667 -79 51c0 8.66699 2 19.167 6 31.5s9.33301 24.166 16 35.499h-86c-9.33301 -13.333 -17.833 -28.666 -25.5 -45.999s-11.5 -33 -11.5 -47c0 -28.667 13.833 -50.167 41.5 -64.5s68.834 -19.833 123.501 -16.5z" />
    <glyph glyph-name="tilde" unicode="&#x2dc;" 
d="M224 590c10 17.333 20.168 31.499 30.501 42.499s22.5 16.5 36.5 16.5c8 0 15.333 -2.16699 22 -6.5s16.334 -11.166 29.001 -20.499c11.333 -9.33301 22.5 -16.833 33.5 -22.5s24.833 -8.5 41.5 -8.5c29.333 0 55.5 11 78.5 33s43.167 51.667 60.5 89l-68 32
c-10 -18 -20 -32.333 -30 -43s-22 -16 -36 -16c-8.66699 0 -16.334 2 -23.001 6s-16.334 11 -29.001 21c-11.333 9.33301 -22.5 16.833 -33.5 22.5s-24.833 8.5 -41.5 8.5c-29.333 0 -55.333 -11 -78 -33s-42.667 -51.667 -60 -89z" />
    <glyph glyph-name="hungarumlaut" unicode="&#x2dd;" 
d="M326 595h90l153 115l-93 49zM144 595h90l152 115l-93 49z" />
    <glyph glyph-name="Omega" unicode="&#x3a9;" horiz-adv-x="793" 
d="M429 0l120.999 0.000976562l114 424h144l28 104h-146l8 30c12.667 49.333 41.667 74 87 74c24 0 48.667 -5.33301 74 -16l27 101c-13.333 5.33301 -28.666 9.66602 -45.999 12.999s-36.666 5 -57.999 5c-51.333 0 -93.833 -13.167 -127.5 -39.5
s-57.834 -67.833 -72.501 -124.5l-11 -43h-67l-28 -104h67zM32.999 0.000976562l120.998 0.000976562l114 424h144l28 104h-146l8 30c13.333 49.333 42.333 74 87 74c24 0 48.667 -5.33301 74 -16l27 101c-13.333 5.33301 -28.666 9.66602 -45.999 12.999
s-36.666 5 -57.999 5c-51.333 0 -94.333 -13.167 -129 -39.5s-58.667 -67.833 -72 -124.5l-10 -43h-67l-28 -104h67z" />
    <glyph glyph-name="pi" unicode="&#x3c0;" horiz-adv-x="830" 
d="M436 -12c50.667 0 98.167 9.66699 142.5 29s82.833 45.5 115.5 78.5s58.334 71.5 77.001 115.5s28 90.667 28 140s-9.33301 96 -28 140s-44.167 82.333 -76.5 115s-70.5 58.5 -114.5 77.5s-91.333 28.5 -142 28.5s-98.167 -9.66699 -142.5 -29
s-82.833 -45.5 -115.5 -78.5s-58.334 -71.5 -77.001 -115.5s-28 -90.667 -28 -140s9.33301 -96 28 -140s44.167 -82.333 76.5 -115s70.5 -58.5 114.5 -77.5s91.333 -28.5 142 -28.5zM436 24c-46 0 -88.667 8.50293 -128 25.5029s-73.333 40.167 -102 69.5
s-51.167 63.666 -67.5 102.999s-24.5 81.666 -24.5 126.999c0 44.667 8.16699 87 24.5 127s39 74.667 68 104s63.333 52.666 103 69.999s82.5 26 128.5 26s88.667 -8.5 128 -25.5s73.5 -40.167 102.5 -69.5s51.667 -63.833 68 -103.5s24.5 -81.834 24.5 -126.501
c0 -45.333 -8.33301 -87.833 -25 -127.5s-39.5 -74.167 -68.5 -103.5s-63.333 -52.666 -103 -69.999s-82.5 -26 -128.5 -26zM308 167.003h73.998v120h72c20.667 0 40.334 2.66699 59.001 8s35 13.5 49 24.5s25.167 24.667 33.5 41s12.5 35.5 12.5 57.5
c0 40 -13.167 71.5 -39.5 94.5s-62.166 34.5 -107.499 34.5h-153v-380zM381.998 352.003l0.000976562 129h73c24 0 43 -5.33301 57 -16s21 -26.667 21 -48c0 -19.333 -6.83301 -35 -20.5 -47s-32.834 -18 -57.501 -18h-73z" />
    <glyph glyph-name="endash" unicode="&#x2013;" horiz-adv-x="530" 
d="M53 249h416l31 115h-416z" />
    <glyph glyph-name="emdash" unicode="&#x2014;" horiz-adv-x="900" 
d="M53 249h786l31 115h-786z" />
    <glyph glyph-name="quoteleft" unicode="&#x2018;" horiz-adv-x="293" 
d="M109 423l133.001 -0.000976562l37 137h-51c4.66699 26 16 46.833 34 62.5s45 26.167 81 31.5l-9 51c-51.333 -3.33301 -92.833 -17.666 -124.5 -42.999s-54.834 -66.333 -69.501 -123z" />
    <glyph glyph-name="quoteright" unicode="&#x2019;" horiz-adv-x="293" 
d="M102 417c52 4 93.5 18.5 124.5 43.5s54.167 65.833 69.5 122.5l31 117h-133l-37 -137h51c-4.66699 -26 -16 -46.833 -34 -62.5s-45 -26.167 -81 -31.5z" />
    <glyph glyph-name="quotesinglbase" unicode="&#x201a;" horiz-adv-x="293" 
d="M-45 -145c26 2 49.168 6.5 69.501 13.5s38.5 17 54.5 30s29.667 29.5 41 49.5s20.666 44.333 27.999 73l31 116h-133l-37 -137h52c-5.33301 -25.333 -16.833 -46 -34.5 -62s-44.5 -26.667 -80.5 -32z" />
    <glyph glyph-name="quotedblleft" unicode="&#x201c;" horiz-adv-x="524" 
d="M341 422h134l37 138h-52c4.66699 25.333 16 45.833 34 61.5s45 26.167 81 31.5l-9 52c-51.333 -4 -92.5 -18.5 -123.5 -43.5s-54.167 -65.833 -69.5 -122.5zM110 422h133l37 138h-52c4.66699 25.333 16 45.833 34 61.5s45 26.167 81 31.5l-9 52
c-52 -4 -93.333 -18.5 -124 -43.5s-53.667 -65.833 -69 -122.5z" />
    <glyph glyph-name="quotedblright" unicode="&#x201d;" horiz-adv-x="524" 
d="M331 417c52 4 93.5 18.5 124.5 43.5s54.167 65.833 69.5 122.5l31 117h-133l-37 -137h51c-4.66699 -26 -16 -46.833 -34 -62.5s-45 -26.167 -81 -31.5zM100 417c52 4 93.333 18.5 124 43.5s53.667 65.833 69 122.5l31 117h-133l-37 -137h52
c-5.33301 -26 -16.833 -46.833 -34.5 -62.5s-44.5 -26.167 -80.5 -31.5z" />
    <glyph glyph-name="quotedblbase" unicode="&#x201e;" horiz-adv-x="525" 
d="M187 -145c26 2 49.168 6.5 69.501 13.5s38.5 17 54.5 30s29.667 29.5 41 49.5s20.666 44.333 27.999 73l31 116h-133l-37 -137h52c-4.66699 -25.333 -16 -46 -34 -62s-45 -26.667 -81 -32zM-44.999 -145c26 2 49.168 6.5 69.501 13.5s38.5 17 54.5 30
s29.667 29.5 41 49.5s20.666 44.333 27.999 73l31 116h-133l-37 -137h52c-5.33301 -25.333 -16.833 -46 -34.5 -62s-44.5 -26.667 -80.5 -32z" />
    <glyph glyph-name="dagger" unicode="&#x2020;" horiz-adv-x="411" 
d="M157 238h72l65 275l119 -9l20 71l-124 -9l48 134h-79l-26 -134l-117 9l-20 -71l124 9z" />
    <glyph glyph-name="daggerdbl" unicode="&#x2021;" horiz-adv-x="417" 
d="M93 0h79l25 134l118 -9l19 71l-124 -9l52 163l36 163l118 -9l20 71l-124 -9l48 134h-79l-25 -134l-118 9l-20 -71l123 9l-51 -163l-36 -163l-118 9l-19 -71l123 9z" />
    <glyph glyph-name="bullet" unicode="&#x2022;" horiz-adv-x="491" 
d="M242 207c23.333 0 44.833 5.16504 64.5 15.498s36.5 23.833 50.5 40.5s25 35.667 33 57s12 43 12 65c0 34.667 -10 62.334 -30 83.001s-47.333 31 -82 31c-23.333 0 -44.833 -5.16699 -64.5 -15.5s-36.667 -23.833 -51 -40.5s-25.5 -35.667 -33.5 -57s-12 -43 -12 -65
c0 -35.333 10 -63.166 30 -83.499s47.667 -30.5 83 -30.5z" />
    <glyph glyph-name="ellipsis" unicode="&#x2026;" horiz-adv-x="815" 
d="M535 0h131l36 135h-130zM272 0h131l36 135h-131zM9 0h130l37 135h-131z" />
    <glyph glyph-name="perthousand" unicode="&#x2030;" horiz-adv-x="1262" 
d="M236 346c28 0 53.833 6 77.5 18s44 28 61 48s30.333 42.667 40 68s14.5 51 14.5 77c0 22 -3.66699 42.167 -11 60.5s-17.5 34.333 -30.5 48s-28.667 24.167 -47 31.5s-38.5 11 -60.5 11c-28 0 -53.833 -6 -77.5 -18s-44 -28 -61 -48s-30.333 -42.667 -40 -68
s-14.5 -51 -14.5 -77c0 -22 3.5 -42.167 10.5 -60.5s17 -34.333 30 -48s28.667 -24.167 47 -31.5s38.833 -11 61.5 -11zM62 0h108l676 700h-109zM1028 -8c28 0 53.833 6.00098 77.5 18.001s44 28 61 48s30.333 42.667 40 68s14.5 51.333 14.5 78
c0 22 -3.5 42.167 -10.5 60.5s-17 34.166 -30 47.499s-28.667 23.666 -47 30.999s-38.833 11 -61.5 11c-28 0 -53.833 -6 -77.5 -18s-44 -27.833 -61 -47.5s-30.333 -42.167 -40 -67.5s-14.5 -51.333 -14.5 -78c0 -22 3.66699 -42.167 11 -60.5s17.5 -34.166 30.5 -47.499
s28.667 -23.833 47 -31.5s38.5 -11.5 60.5 -11.5zM628 -7.99902c28 0 53.833 6.00098 77.5 18.001s44 28 61 48s30.333 42.667 40 68s14.5 51.333 14.5 78c0 22 -3.66699 42.167 -11 60.5s-17.5 34.166 -30.5 47.499s-28.667 23.666 -47 30.999s-38.5 11 -60.5 11
c-28 0 -53.833 -6 -77.5 -18s-44 -27.833 -61 -47.5s-30.333 -42.167 -40 -67.5s-14.5 -51.333 -14.5 -78c0 -22 3.5 -42.167 10.5 -60.5s17 -34.166 30 -47.499s28.667 -23.833 47 -31.5s38.833 -11.5 61.5 -11.5zM241 420.002c-22 0 -39.333 7.16699 -52 21.5
s-19 34.166 -19 59.499c0 15.333 2.5 31 7.5 47s12.167 30.333 21.5 43s20.333 23 33 31s26.667 12 42 12c22.667 0 40.167 -7.16699 52.5 -21.5s18.5 -34.166 18.5 -59.499c0 -15.333 -2.5 -31 -7.5 -47s-12 -30.333 -21 -43s-20 -23 -33 -31s-27.167 -12 -42.5 -12z
M1033 66.002c-22 0 -39.333 7.33203 -52 21.999s-19 34.334 -19 59.001c0 15.333 2.5 31 7.5 47s12.167 30.5 21.5 43.5s20.5 23.5 33.5 31.5s27.167 12 42.5 12c22 0 39.333 -7.33301 52 -22s19 -34.667 19 -60c0 -15.333 -2.5 -30.833 -7.5 -46.5s-12.167 -30 -21.5 -43
s-20.5 -23.5 -33.5 -31.5s-27.167 -12 -42.5 -12zM633 66.001c-22 0 -39.333 7.33203 -52 21.999s-19 34.334 -19 59.001c0 15.333 2.5 31 7.5 47s12.167 30.5 21.5 43.5s20.5 23.5 33.5 31.5s27.167 12 42.5 12c22 0 39.333 -7.33301 52 -22s19 -34.667 19 -60
c0 -15.333 -2.5 -30.833 -7.5 -46.5s-12.167 -30 -21.5 -43s-20.5 -23.5 -33.5 -31.5s-27.167 -12 -42.5 -12z" />
    <glyph glyph-name="guilsinglleft" unicode="&#x2039;" horiz-adv-x="354" 
d="M152 34l98 45l-81 167l181 177l-72 65l-230 -226l-2 -8z" />
    <glyph glyph-name="guilsinglright" unicode="&#x203a;" horiz-adv-x="354" 
d="M74 34l231 226l2 8l-107 219l-97 -44l80 -167l-180 -178z" />
    <glyph glyph-name="trademark" unicode="&#x2122;" horiz-adv-x="697" 
d="M363 392h57l61 219l55 -148h6l135 148l-61 -219h57l85 308h-66l-132 -146l-53 146h-59zM143 392h59l70 254h95l14 54h-248l-15 -54h94z" />
    <glyph glyph-name="fraction" unicode="&#x2215;" horiz-adv-x="529" 
d="M-121 -98h111l696 856h-112z" />
    <glyph glyph-name="radical" unicode="&#x221a;" horiz-adv-x="1079" 
d="M429 0l120.999 0.000976562l114 424h144l28 104h-146l8 30c12.667 49.333 41.667 74 87 74c24 0 48.667 -5.33301 74 -16l27 101c-13.333 5.33301 -28.666 9.66602 -45.999 12.999s-36.666 5 -57.999 5c-51.333 0 -93.833 -13.167 -127.5 -39.5
s-57.834 -67.833 -72.501 -124.5l-11 -43h-67l-28 -104h67zM32.999 0.000976562l120.998 0.000976562l114 424h144l28 104h-146l8 30c13.333 49.333 42.333 74 87 74c24 0 48.667 -5.33301 74 -16l27 101c-13.333 5.33301 -28.666 9.66602 -45.999 12.999
s-36.666 5 -57.999 5c-51.333 0 -94.333 -13.167 -129 -39.5s-58.667 -67.833 -72 -124.5l-10 -43h-67l-28 -104h67zM803.997 0.00195312h121l196 730h-121z" />
    <glyph glyph-name="approxequal" unicode="&#x2248;" horiz-adv-x="1079" 
d="M964 609h130l31 115h-130zM429 0l120.999 0.000976562l114 424h144l28 104h-146l8 30c12.667 49.333 41.667 74 87 74c24 0 48.667 -5.33301 74 -16l27 101c-13.333 5.33301 -28.666 9.66602 -45.999 12.999s-36.666 5 -57.999 5c-51.333 0 -93.833 -13.167 -127.5 -39.5
s-57.834 -67.833 -72.501 -124.5l-11 -43h-67l-28 -104h67zM32.999 0.000976562l120.998 0.000976562l114 424h144l28 104h-146l8 30c13.333 49.333 42.333 74 87 74c24 0 48.667 -5.33301 74 -16l27 101c-13.333 5.33301 -28.666 9.66602 -45.999 12.999
s-36.666 5 -57.999 5c-51.333 0 -94.333 -13.167 -129 -39.5s-58.667 -67.833 -72 -124.5l-10 -43h-67l-28 -104h67zM803.997 0.00195312h121l142 528h-121z" />
    <glyph glyph-name="apple" unicode="&#xf8ff;" horiz-adv-x="967" 
d="M868 0v750h-767v-750h767zM859 -104l-6 34h-1l-13 -26l-13 26h-1l-6 -34h6l3 20l10 -21h2l10 21l3 -20h6zM806 -87c0 4.66699 -1.50098 8.66699 -4.50098 12s-6.83301 5 -11.5 5c-5.33301 0 -9.66602 -1.66699 -12.999 -5s-5 -7.66602 -5 -12.999
c0 -4.66699 1.5 -8.66699 4.5 -12s7.16699 -5 12.5 -5s9.5 1.66699 12.5 5s4.5 7.66602 4.5 12.999zM757.999 -96c-4 -2.66699 -7.33301 -4 -10 -4c-8.66699 0 -13 4.33301 -13 13c0 3.33301 1.16699 6.16602 3.5 8.49902s5.16602 3.5 8.49902 3.5c4 0 7 -1 9 -3l2 5
c-3.33301 2 -7 3 -11 3c-5.33301 0 -9.66602 -1.66699 -12.999 -5s-5 -7.66602 -5 -12.999c0 -11.333 6 -17 18 -17c4.66699 0 8 1 10 3zM701.999 -71h-7l-9 -14l-11 15l-6 -1l14 -19v-14h6v14zM655.999 -104v33h-6v-13h-16v13h-6v-33h6v15h16v-15h6zM611.999 -82
c0 3.33301 -1.5 6.33203 -4.5 8.99902s-9.16699 3.33398 -18.5 2.00098v-33h6v10c11.333 0 17 4 17 12zM575.999 -104.001l-16 34h-2l-15 -34h6l3 8h14l4 -8h6zM533.999 -104.001l-10 13.001c4.66699 2 7 5.33301 7 10c0 3.33301 -1.5 6.16602 -4.5 8.49902
s-9.16699 2.83301 -18.5 1.5v-33h6v11h5l8 -11h7zM490.999 -101v14.999h-15v-5h9v-7c-2.66699 -1.33301 -4.66699 -2 -6 -2c-8.66699 0 -13 4 -13 12c0 8.66699 4 13 12 13c4.66699 0 8.33398 -1.33301 11.001 -4l2 5c-4 2.66699 -8 4 -12 4
c-5.33301 0 -9.83301 -1.66699 -13.5 -5s-5.5 -7.66602 -5.5 -12.999s1.66699 -9.5 5 -12.5s7.66602 -4.5 12.999 -4.5c4.66699 0 9 1.33301 13 4zM446.999 -87.001c0 4.66699 -1.50098 8.66699 -4.50098 12s-6.83301 5 -11.5 5c-5.33301 0 -9.66602 -1.66699 -12.999 -5
s-5 -7.66602 -5 -12.999c0 -4.66699 1.5 -8.66699 4.5 -12s7.16699 -5 12.5 -5s9.5 1.66699 12.5 5s4.5 7.66602 4.5 12.999zM399.998 -82.001c0 3.33301 -1.5 6.33203 -4.5 8.99902s-9.16699 3.33398 -18.5 2.00098v-33h6v10c11.333 0 17 4 17 12zM363.998 -71.002h-7
l-9 -14l-11 15l-6 -1l14 -19v-14h6v14zM322.998 -71.002h-30v-5h12v-28h6v28h12v5zM266.998 -71.002h-6l-7 -22l-10 23h-1l-10 -23l-7 23l-6 -1l12 -34h1l10 23l11 -23h1zM210.998 -71.002h-6l-7 -22l-10 23h-1l-10 -23l-7 23l-6 -1l12 -34h1l10 23l11 -23h1z
M154.998 -71.002h-6l-7 -22l-10 23h-1l-10 -23l-7 23l-6 -1l12 -34h1l10 23l11 -23h1zM715.998 -101.002c0 2.66699 -1.33301 4 -4 4s-4 -1.33301 -4 -4s1.33301 -4 4 -4s4 1.33301 4 4zM283.998 -101.002c0 2.66699 -1.33301 4 -4 4s-4 -1.33301 -4 -4s1.33301 -4 4 -4
s4 1.33301 4 4zM558.998 685.998h-2l-2.5 4.5c-1.66699 3 -4.16699 4.5 -7.5 4.5c-2 0 -3 -1 -3 -3v-23c0 -3.33301 0.666992 -5 2 -5h3v-2h-17v2h2c2 0 3 1.66699 3 5v23c0 2 -1 3 -3 3c-3.33301 0 -5.83301 -1.5 -7.5 -4.5l-2.5 -4.5h-2l0.5 4.5
c0.333008 3 0.5 5.5 0.5 7.5c2 -0.666992 8 -1 18 -1s15.667 0.333008 17 1c0.666992 -2 1 -4.66699 1 -8v-4zM503.998 661.998h-18v2h2c2 0 3 1.66699 3 5v10h-17v-10c0 -2.66699 0.833008 -4.16699 2.5 -4.5l2.5 -0.5v-2h-17v2l2.5 0.5
c1.66699 0.333008 2.5 1.83301 2.5 4.5v21c0 3.33301 -1 5 -3 5h-2v2h17v-1v-1h-3c-1.33301 0 -2 -1.66699 -2 -5v-9h17v9c0 3.33301 -1 5 -3 5h-2v1v1h18v-2h-3c-2 0 -3 -1.66699 -3 -5v-21c0 -3.33301 1 -5 3 -5h3v-2zM438.998 663.998l-0.000976562 -2h-30l-2 11l2 1
l2.5 -4.5c1.66699 -3 4.16699 -4.5 7.5 -4.5h4c2.66699 0 4 1 4 3v11h-4c-3.33301 0 -5.16602 -1 -5.49902 -3l-0.5 -3h-2v13h2l0.5 -2.5c0.333008 -1.66699 2.16602 -2.5 5.49902 -2.5h4v10c0 2 -1.33301 3 -4 3h-4c-3.33301 0 -5.66602 -1.33301 -6.99902 -4l-2 -4l-2 1
l2 10h29v-2h-3c-1.33301 0 -2 -1.66699 -2 -5v-21c0 -3.33301 0.666992 -5 2 -5h3zM826.997 617.998h-685v6h685v-6zM695.997 539.998c0 -8 -2.66699 -13.667 -8 -17s-10.333 -5 -15 -5c-9.33301 0 -17.833 3.66699 -25.5 11s-11.5 16.333 -11.5 27c0 8 2.66699 13.667 8 17
s10.333 5 15 5c9.33301 0 17.833 -3.83301 25.5 -11.5s11.5 -16.5 11.5 -26.5zM588.997 536.998c0 -5.33301 -1.99805 -9.83496 -5.99805 -13.502s-10.333 -5.5 -19 -5.5c-10.667 0 -16 4.33301 -16 13c0 6.66699 3 10 9 10c4.66699 0 7 -1.66699 7 -5s-1.33301 -5 -4 -5
c-1.33301 0 -2.33301 0.333008 -3 1s-1.33398 1 -2.00098 1c-2 0 -3 -1 -3 -3c0 -6 4 -9 12 -9s12 4.66699 12 14c0 6.66699 -2 11.667 -6 15c-3.33301 -3.33301 -7 -5 -11 -5c-5.33301 0 -8 2 -8 6c0 5.33301 5.33301 7.33301 16 6c1.33301 1.33301 2 3.33301 2 6
c0 8 -3.33301 12 -10 12c-4.66699 0 -7 -1.66699 -7 -5c0 -1.33301 0.5 -2.16602 1.5 -2.49902s1.5 -1.5 1.5 -3.5s-1.33301 -3 -4 -3c-3.33301 0 -5 2 -5 6c0 7.33301 4.33301 11 13 11c7.33301 0 12.666 -1.66699 15.999 -5s5 -6.66602 5 -9.99902c0 -4 -1.66699 -7 -5 -9
c9.33301 -3.33301 14 -9 14 -17zM294.999 536.996c0 -5.33301 -1.99805 -9.83496 -5.99805 -13.502s-10.333 -5.5 -19 -5.5c-10.667 0 -16 4.33301 -16 13c0 6.66699 3 10 9 10c4.66699 0 7 -1.66699 7 -5s-1.33301 -5 -4 -5c-1.33301 0 -2.33301 0.333008 -3 1
s-1.33398 1 -2.00098 1c-2 0 -3 -1 -3 -3c0 -6 4 -9 12 -9s12 4.66699 12 14c0 6.66699 -2 11.667 -6 15c-3.33301 -3.33301 -7 -5 -11 -5c-5.33301 0 -8 2 -8 6c0 5.33301 5.33301 7.33301 16 6c1.33301 1.33301 2 3.33301 2 6c0 8 -3.33301 12 -10 12
c-4.66699 0 -7 -1.66699 -7 -5c0 -1.33301 0.5 -2.16602 1.5 -2.49902s1.5 -1.5 1.5 -3.5s-1.33301 -3 -4 -3c-3.33301 0 -5 2 -5 6c0 7.33301 4.33301 11 13 11c7.33301 0 12.666 -1.66699 15.999 -5s5 -6.66602 5 -9.99902c0 -4 -1.66699 -7 -5 -9
c9.33301 -3.33301 14 -9 14 -17zM820.001 521.994l0.999023 -3h-29l-1 3l4.5 0.5c3 0.333008 3.83301 2.83301 2.5 7.5l-3 16h-24l3 -16c1.33301 -4.66699 3.33301 -7.16699 6 -7.5l4 -0.5l1 -3h-29l-1 3l4.5 0.5c3 0.333008 3.83301 2.83301 2.5 7.5l-7 35
c-1.33301 4.66699 -3.33301 7.16699 -6 7.5l-4 0.5l-1 3h29l1 -3l-4.5 -0.5c-3 -0.333008 -3.83301 -2.83301 -2.5 -7.5l3 -15h24l-3 15c-1.33301 4.66699 -3.16602 7.16699 -5.49902 7.5l-3.5 0.5l-1 3h28l1 -3l-4.5 -0.5c-3 -0.333008 -3.83301 -2.83301 -2.5 -7.5l7 -35
c1.33301 -4.66699 3.33301 -7.16699 6 -7.5zM498 518.994h-29l-1 3l4.5 0.5c3 0.333008 3.83301 2.83301 2.5 7.5l-3 17h-4c-4.66699 0 -7.16699 -1.83301 -7.5 -5.5l-0.5 -5.5h-3l-5 23h3l2.5 -4.5c1.66699 -3 4.83398 -4.5 9.50098 -4.5h4l-3 16
c-0.666992 4 -2.66699 6 -6 6h-4c-7.33301 0 -11.333 -2.16699 -12 -6.5l-1 -6.5h-4l0.5 7c0.333008 4.66699 0.166016 8 -0.500977 10h45l1 -3l-4.5 -0.5c-3 -0.333008 -3.83301 -2.83301 -2.5 -7.5l7 -35c1.33301 -4.66699 3.33301 -7.16699 6 -7.5l4 -0.5zM202 521.994
l1.00098 -3.00098h-29l-1 3l4.5 0.5c3 0.333008 3.83301 2.83301 2.5 7.5l-3 15c-2.66699 0 -4.33398 -1 -5.00098 -3l-12 -23h-19l-1 3l5 0.5c3.33301 0.333008 6.33301 2.83301 9 7.5l9 16c-5.33301 0.666992 -9.83301 2.33398 -13.5 5.00098s-5.5 6 -5.5 10
c0 10 6.66699 15 20 15h27l1 -3l-4.5 -0.5c-3 -0.333008 -3.83301 -2.83301 -2.5 -7.5l7 -35c1.33301 -4.66699 3.33301 -7.16699 6 -7.5zM400.001 520.993c0 -2 -1.33203 -3.00098 -3.99902 -3.00098c-6 0 -10 2.33301 -12 7c-5.33301 0 -8.66602 -2.16699 -9.99902 -6.5
s-6.33301 -6.5 -15 -6.5c-3.33301 0 -6.66602 1.16699 -9.99902 3.5s-5 5.16602 -5 8.49902c0 4.66699 1.66699 7 5 7s5 -1.66699 5 -5c0 -1.33301 -0.333008 -2.16602 -1 -2.49902s-1 -1.16602 -1 -2.49902c0 -2.66699 1.66699 -4 5 -4s6.16602 2.16699 8.49902 6.5
s7.16602 6.5 14.499 6.5c-4 4 -6.83301 8.5 -8.5 13.5s-2.83398 9.83301 -3.50098 14.5s-1.5 8.66699 -2.5 12s-3.16699 5 -6.5 5s-5 -2 -5 -6s-1.33301 -6 -4 -6c-3.33301 0 -5 1.66699 -5 5c0 2 1.33301 4.16699 4 6.5s5.66699 3.5 9 3.5c8 0 13.5 -2.16699 16.5 -6.5
s5 -9.33301 6 -15s1.66699 -11 2 -16s1.83301 -8.5 4.5 -10.5c4.66699 -0.666992 8 -2 10 -4s3 -3.66699 3 -5zM827.002 474.992h-685v6h685v-6zM827.002 377.992h-36v28h-11v-65h14v-33h-81v33h14v65h-11v-28h-36v62h147v-62zM648.002 405.992h-14l-37 -45v-20h15v-33h-81
v33h14v19l-37 46h-12v34h62v-34h-10l15 -23l15 23h-11v34h81v-34zM458.002 307.992h-81v33h15v19h-30c-14.667 0 -26.167 3.83301 -34.5 11.5s-12.5 17.167 -12.5 28.5s4.16699 20.833 12.5 28.5s19.833 11.5 34.5 11.5h96v-34h-14v-65h14v-33zM283.002 307.992h-141v61h41
v-28h33v21h-24v24h24v20h-33v-28h-41v62h141v-34h-14v-65h14v-33zM827.002 270.992h-685v6h685v-6zM728.002 191.992c0 -8 -2.66699 -13.667 -8 -17s-10.333 -5 -15 -5c-9.33301 0 -17.833 3.66699 -25.5 11s-11.5 16.333 -11.5 27c0 8 2.66699 13.667 8 17s10.333 5 15 5
c9.33301 0 17.833 -3.83301 25.5 -11.5s11.5 -16.5 11.5 -26.5zM203.002 216.992l-1.99609 -2.00293l-4.5 4.5c-1.66699 1.66699 -4.16699 2.5 -7.5 2.5c-6 0 -9 -4.33301 -9 -13c0 -5.33301 1.66699 -13.666 5 -24.999c1.33301 -5.33301 3.33301 -8.16602 6 -8.49902
l4 -0.5l1 -4h-28l-1 4l4.5 1c3 0.666992 3.5 5.33398 1.5 14.001c-2 8 -4.83301 15.5 -8.5 22.5s-8.83398 10.5 -15.501 10.5c-5.33301 0 -8 -2 -8 -6l-3 1c0 4 1.16699 7 3.5 9s5.16602 3 8.49902 3c5.33301 0 9.66602 -2.16699 12.999 -6.5s6 -9.83301 8 -16.5
c-0.666992 15.333 4 23 14 23c5.33301 0 9.16602 -1.33301 11.499 -4s4.5 -5.66699 6.5 -9zM823.006 170.989h-29l-1 3l4.5 0.5c3 0.333008 3.83301 2.83301 2.5 7.5l-3 17h-4c-4.66699 0 -7.16699 -1.83301 -7.5 -5.5l-0.5 -5.5h-3l-5 23h3l2.5 -4.5
c1.66699 -3 4.83398 -4.5 9.50098 -4.5h4l-3 16c-0.666992 4 -2.66699 6 -6 6h-4c-7.33301 0 -11.333 -2.16699 -12 -6.5l-1 -6.5h-4l0.5 7c0.333008 4.66699 0.166016 8 -0.500977 10h45l1 -3l-4.5 -0.5c-3 -0.333008 -3.83301 -2.83301 -2.5 -7.5l7 -35
c1.33301 -4.66699 3.33301 -7.16699 6 -7.5l4 -0.5zM621.006 224.989l-5 -0.5c-3.33301 -0.333008 -4.33301 -3.16602 -3 -8.49902l5 -22c1.33301 -5.33301 1.33301 -10.666 0 -15.999s-7.66602 -8 -18.999 -8c-9.33301 0 -16 3.16699 -20 9.5s-6.66699 12.166 -8 17.499
l-4 19c-1.33301 5.33301 -3.5 8.16602 -6.5 8.49902l-4.5 0.5l-1 3h24v-3l-4.5 -0.5c-3 -0.333008 -3.83301 -3.16602 -2.5 -8.49902l4 -19c1.33301 -6 3.66602 -11.167 6.99902 -15.5s7.66602 -6.5 12.999 -6.5c7.33301 0 11.333 1.66699 12 5
s0.333984 8.33301 -0.999023 15l-5 21c-1.33301 5.33301 -3.33301 8.16602 -6 8.49902l-4 0.5l-1 3h29zM522.006 173.989l0.999023 -3.00098h-21l-1 3l4 1c2.66699 0.666992 3.33398 3.66699 2.00098 9l-6 30l-30 -44l-3 1l-8 45
c-1.33301 4.66699 -3.16602 7.33398 -5.49902 8.00098l-3.5 1l-1 3h21l1 -3l-4.5 -1c-3 -0.666992 -3.83301 -3.33398 -2.5 -8.00098l5 -30l29 42h14l1 -3l-5 -0.5c-3.33301 -0.333008 -4.33301 -3.16602 -3 -8.49902l7 -32c1.33301 -5.33301 3.16602 -8.33301 5.49902 -9z
M414.005 170.988l-32 -0.000976562c-8.66699 0 -16.667 3.16699 -24 9.5s-11 14.833 -11 25.5c0 7.33301 2.66699 12.833 8 16.5s11 5.5 17 5.5h30l1 -3c-7.33301 -0.666992 -10 -4 -8 -10l8 -31c1.33301 -5.33301 3.33301 -8.16602 6 -8.49902l4 -0.5zM306.005 173.987
l1.00098 -3.00098h-29l-1 3l4.5 0.5c3 0.333008 3.83301 2.83301 2.5 7.5l-3 15c-2.66699 0 -4.33398 -1 -5.00098 -3l-12 -23h-19l-1 3l5 0.5c3.33301 0.333008 6.33301 2.83301 9 7.5l9 16c-5.33301 0.666992 -9.83301 2.33398 -13.5 5.00098s-5.5 6 -5.5 10
c0 10 6.66699 15 20 15h27l1 -3l-4.5 -0.5c-3 -0.333008 -3.83301 -2.83301 -2.5 -7.5l7 -35c1.33301 -4.66699 3.33301 -7.16699 6 -7.5zM827.006 126.986h-685v6h685v-6zM694.006 45.9863l-14 -0.000976562v2l2.5 1c1.66699 0.666992 2.5 2 2.5 4v20l-25 -28h-3v28
c0 2.66699 -1 4.33398 -3 5.00098l-3 1v2h15v-2l-3 -1c-2 -0.666992 -3 -2.33398 -3 -5.00098v-18l24 26h10v-2l-3 -2c-2 -1.33301 -3 -2.66602 -3 -3.99902v-20c0 -2 1 -3.33301 3 -4l3 -1v-2zM633.006 47.9854l-0.000976562 -2h-30l-2 11l2 1l2.5 -4.5
c1.66699 -3 4.16699 -4.5 7.5 -4.5h4c2.66699 0 4 1 4 3v11h-4c-3.33301 0 -5.16602 -1 -5.49902 -3l-0.5 -3h-2v13h2l0.5 -2.5c0.333008 -1.66699 2.16602 -2.5 5.49902 -2.5h4v10c0 2 -1.33301 3 -4 3h-4c-3.33301 0 -5.66602 -1.33301 -6.99902 -4l-2 -4l-2 1l2 10h29v-2
h-3c-1.33301 0 -2 -1.66699 -2 -5v-21c0 -3.33301 0.666992 -5 2 -5h3zM583.005 80.9854l-0.00195312 -1.99902l-2.5 -0.5c-1.66699 -0.333008 -3.16699 -2.16602 -4.5 -5.49902l-12 -27h-1l-9 16l-8 -16c0 -0.666992 -0.166992 -0.833984 -0.5 -0.500977l-0.5 0.5h-1
l-13 27c-1.33301 2.66699 -2.66602 4.33398 -3.99902 5.00098l-2 1v2h13v-2l-2 -1c-1.33301 -0.666992 -1.33301 -2.33398 0 -5.00098l8 -18l7 13l-3 5c-2 3.33301 -3.66699 5.16602 -5 5.49902l-2 0.5l-1 2h26v-2l-2 -1.5c-1.33301 -1 -2.66602 -2.5 -3.99902 -4.5l-4 -8
l5 -10l9 19c1.33301 2 1.33301 3.33301 0 4l-2 1v2h15zM480.003 78.9863l-2.49902 -0.5c-1.66699 -0.333008 -3.16699 -1.83301 -4.5 -4.5l-8 -12v-8c0 -3.33301 0.833008 -5.16602 2.5 -5.49902l2.5 -0.5v-2h-17v2l2.5 0.5c1.66699 0.333008 2.5 2.16602 2.5 5.49902v8
l-8 12c-1.33301 2.66699 -3 4.16699 -5 4.5l-3 0.5v2h15v-2l-2.5 -0.5c-1.66699 -0.333008 -1.83398 -1.83301 -0.500977 -4.5l6 -9l6 9c1.33301 2.66699 1.5 4.16699 0.5 4.5l-1.5 0.5v2h15v-2zM425.004 63.9863c0 -5.33301 -1.66699 -9.83301 -5 -13.5
s-8.33301 -5.5 -15 -5.5s-11.667 1.83301 -15 5.5s-5 8.16699 -5 13.5s1.66699 9.66602 5 12.999s8.33301 5 15 5s11.667 -1.66699 15 -5s5 -7.66602 5 -12.999zM364.004 45.9863l-17 -0.000976562v2l2.5 0.5c1.66699 0.333008 2.5 1.83301 2.5 4.5v9
c-2.66699 0 -5 -1.33301 -7 -4l-7 -12h-11v2l2.5 0.5c1.66699 0.333008 3.5 1.83301 5.5 4.5l7 10c-6 2.66699 -9 5.66699 -9 9c0 6 4.33301 9 13 9h18v-2l-2.5 -0.5c-1.66699 -0.333008 -2.5 -2.16602 -2.5 -5.49902v-20c0 -2.66699 0.833008 -4.16699 2.5 -4.5l2.5 -0.5
v-2zM309.004 45.9854l-18 0.00195312v2l3 0.5c2 0.333008 3 2.16602 3 5.49902v9c-1.33301 0 -2.66602 -0.666992 -3.99902 -2l-8 -8c-2 -2.66699 -2.16699 -4.16699 -0.5 -4.5l2.5 -0.5v-2h-17v2l2.5 1.5c1.66699 1 3.16699 2.16699 4.5 3.5l13 13l-10 9
c-1.33301 1.33301 -3 2.33301 -5 3l-3 1v2h14v-2l-1.5 -1c-1 -0.666992 -0.833008 -1.66699 0.5 -3l8 -8c1.33301 -1.33301 2.66602 -2 3.99902 -2v9c0 2.66699 -1 4.16699 -3 4.5l-3 0.5v2h18v-2l-3 -0.5c-2 -0.333008 -3 -1.83301 -3 -4.5v-20
c0 -2.66699 1 -4.33398 3 -5.00098l3 -1v-2zM606.004 -83.0127c0 -4 -3.66699 -6.00098 -11 -6.00098v13c7.33301 0.666992 11 -1.66602 11 -6.99902zM525.004 -82.0137c0 -4.66699 -3.66699 -6.66699 -11 -6v12c7.33301 1.33301 11 -0.666992 11 -6zM394.004 -83.0137
c0 -4 -3.66699 -6.00098 -11 -6.00098v13c7.33301 0.666992 11 -1.66602 11 -6.99902zM564.004 -92.0146h-10l5 12zM800.004 -88.0146c0 -8 -3.66699 -12 -11 -12s-11 4.33301 -11 13c0 8 3.66699 12 11 12s11 -4.33301 11 -13zM441.004 -88.0146c0 -8 -3.66699 -12 -11 -12
s-11 4.33301 -11 13c0 8 3.66699 12 11 12s11 -4.33301 11 -13zM176.004 547.985l-2.99902 18.999c-0.666992 3.33301 -3.66699 5 -9 5s-8 -3 -8 -9c0 -3.33301 1.16699 -6.66602 3.5 -9.99902s6.16602 -5 11.499 -5h5zM566.005 552.984c-1.33301 0.666992 -3.66699 1 -7 1
c-2.66699 0 -4 -1 -4 -3c0 -1.33301 1.33301 -2 4 -2s5 1.33301 7 4zM272.004 552.984c-1.33301 0.666992 -3.66699 1 -7 1c-2.66699 0 -4 -1 -4 -3c0 -1.33301 1.33301 -2 4 -2s5 1.33301 7 4zM684.003 534.984c0 10.667 -2.66699 19.833 -8 27.5s-11 11.5 -17 11.5
c-7.33301 0 -11 -4.66699 -11 -14c0 -10 2.66699 -18.833 8 -26.5s11 -11.5 17 -11.5c7.33301 0 11 4.33301 11 13zM392.003 383.983v22h-11c-8.66699 0 -13 -3.66699 -13 -11s4.33301 -11 13 -11h11zM280.003 199.983l-2.99902 18.999c-0.666992 3.33301 -3.66699 5 -9 5
s-8 -3 -8 -9c0 -3.33301 1.16699 -6.66602 3.5 -9.99902s6.16602 -5 11.499 -5h5zM716.004 186.982c0 10.667 -2.66699 19.833 -8 27.5s-11 11.5 -17 11.5c-7.33301 0 -11 -4.66699 -11 -14c0 -10 2.66699 -18.833 8 -26.5s11 -11.5 17 -11.5c7.33301 0 11 4.33301 11 13z
M393.004 181.981l-9.00098 35.001c-1.33301 3.33301 -2.16602 5.16602 -2.49902 5.49902s-1.5 0.833008 -3.5 1.5h-6c-9.33301 0 -14 -5.66699 -14 -17c0 -8 2.5 -15.333 7.5 -22s11.167 -10 18.5 -10h5c2.66699 0 4 2.33301 4 7zM553.003 78.9824
c-3.33301 0 -3.33301 -3 0 -9c2.66699 6 2.66699 9 0 9zM352.003 63.9824v10c0 2.66699 -1.33301 4 -4 4c-4.66699 0 -7 -2 -7 -6c0 -5.33301 2.66699 -8 8 -8h3zM417.003 63.9824c0 10.667 -4.00098 16 -12.001 16s-12 -5.33301 -12 -16c0 -4.66699 1 -8.66699 3 -12
s5 -5 9 -5c4.66699 0 7.83398 1.66699 9.50098 5s2.5 7.33301 2.5 12z" />
    <glyph glyph-name="fi" unicode="&#xfb01;" horiz-adv-x="683" 
d="M567 609h131l31 115h-130zM33 0l120.998 0.000976562l114 424h144l28 104h-146l8 30c13.333 49.333 42.333 74 87 74c24 0 48.667 -5.33301 74 -16l27 101c-13.333 5.33301 -28.666 9.66602 -45.999 12.999s-36.666 5 -57.999 5c-51.333 0 -94.333 -13.167 -129 -39.5
s-58.667 -67.833 -72 -124.5l-10 -43h-67l-28 -104h67zM407.998 0.000976562h121l142 528h-121z" />
    <glyph glyph-name="fl" unicode="&#xfb02;" horiz-adv-x="683" 
d="M33 0l120.998 0.000976562l114 424h144l28 104h-146l8 30c13.333 49.333 42.333 74 87 74c24 0 48.667 -5.33301 74 -16l27 101c-13.333 5.33301 -28.666 9.66602 -45.999 12.999s-36.666 5 -57.999 5c-51.333 0 -94.333 -13.167 -129 -39.5s-58.667 -67.833 -72 -124.5
l-10 -43h-67l-28 -104h67zM407.998 0.000976562h121l196 730h-121z" />
    <glyph glyph-name="NUL" horiz-adv-x="0" 
 />
    <glyph glyph-name="nonmarkingreturn" horiz-adv-x="300" 
 />
    </font>
</defs>
</svg>
